<svg id="Calque_1" data-name="Calque 1" xmlns="http://www.w3.org/2000/svg" viewBox="0 0 453.54 609.45"><title>SUFI_COM_Webst_HomeDRAWINGS_UPDT</title><path d="M228.54,321.65a3.54,3.54,0,0,1-.44-1,6.27,6.27,0,0,0-.51-1.53c-1.1-1.49-2.27-2.9-3.41-4.34-.71-.89-1.39-1.82-2.14-2.67-.49-.55-1.16-.9-1.6-1.49-1.54-2.07-1.53-4.72-1.86-7.22a13.2,13.2,0,0,1,.35-2.07c.08-1.52,0-3.05.11-4.56.1-1.15.74-2.32.62-3.41-.19-1.7.6-1.37,1.47-1.52s1.84-.5,2.15-1.15a14.92,14.92,0,0,0,1.29-4.58,56.69,56.69,0,0,0,.13-5.86c0-2.34,0-4.68.11-7,.08-1.81.35-3.62.49-5.43.08-1.05,0-2.12.1-3.18.26-3.21.64-6.4.83-9.61.15-2.53.14-5.08.14-7.63a17.7,17.7,0,0,0-.26-5c-.62-2-.14-3.9-.41-5.84s-.16-4.09-.27-6.14c0-.82-.27-1.63-.31-2.45a2.61,2.61,0,0,1-.12-.34c-.32-1.2-.55-2.43-.82-3.64a2.57,2.57,0,0,1-.37-1.82h-1A2,2,0,0,1,222,222c0,.74-.08,1.48,0,2.22.08,1.36.34,2.7.44,4.06s0,2.58.11,3.86.25,2.48.33,3.72c.25,3.57.5,7.14.71,10.71.11,1.88.24,3.77.17,5.64-.08,2.11-.38,4.22-.58,6.33-.14,1.48-.23,3-.37,4.45-.18,1.94-.4,3.88-.6,5.82,0,.39-.09.78-.13,1.17a14.45,14.45,0,0,0-.14,1.67c-.07,1.75-.13,3.5-.21,5.25a28.91,28.91,0,0,0-.17,3.5c.21,2.72.83,5.45-.56,7.9-.32.15-.61.4-.91.41-.57,0-1.15-.16-1.73-.2a1.15,1.15,0,0,0-.78.13,3.24,3.24,0,0,1-3.64.12l0,.42-5-.65c.13-1.59.24-3,.36-4.37.21-2.39.46-4.78.62-7.17.09-1.41.05-2.83.06-4.25,0-2.39,0-4.79,0-7.18,0-1.05.21-2.1.23-3.15a36,36,0,0,0,0-4.41c-.15-1.57.64-3.26-.42-4.72a.48.48,0,0,1-.07-.29c.12-1.63.3-3.26.35-4.89.06-1.95,0-3.9,0-5.86,0-2.28,0-4.56.19-6.82.09-1.13-.55-1.4-1.09-1.72a1,1,0,0,0-1.65.68,11.35,11.35,0,0,0-.18,2.31c0,1.16,0,2.31-.05,3.47,0,.74,0,1.48,0,2.38a2.71,2.71,0,0,0-.4,1c-.06,1.89,0,3.79,0,5.69,0,.1,0,.19,0,.29a18.32,18.32,0,0,1,.12,2.9c-.14,1.26-.53,2.48-.73,3.73a8.71,8.71,0,0,0,0,2.14,19.79,19.79,0,0,1,.4,2.41c-.1,2.66-.37,5.3-.46,8,0,1.27.24,2.56.29,3.84,0,.75-.09,1.51-.13,2.27-.09,1.63-.2,3.25-.26,4.88,0,1,0,1.95,0,2.92-.07,1.53-.19,3.06-.29,4.58-.07,1.13-.14,2.25-.24,3.37,0,.11-.27.25-.43.27a27.18,27.18,0,0,1-2.73.3c-1.43,0-2.86,0-4.29,0s-2.94,0-4.41.12-2.65.31-4,.34c-1.12,0-2.24-.23-3.35-.2a3,3,0,0,1-3-1.7,13.93,13.93,0,0,1-.68-4.46c-.14-3-.22-6-.17-9,0-2.73.34-5.45.42-8.17.1-3.44,0-6.88.14-10.31.06-2.11.3-4.22.44-6.33.07-1,0-2.12.22-3.14.22-1.33.64-2.62.89-4,.31-1.65.53-3.32.8-5,.18-1.12.48-2.22.56-3.35.12-1.71.09-3.43.13-5.15a12,12,0,0,1,.14-2.6c.56-2.15,1.12-4.32,1.87-6.39a2.43,2.43,0,0,1-1.12-.66l-.1-.07-.23-.13-.6-.25a2.56,2.56,0,0,1-.29-.14c-.29,1.23-.61,2.44-.91,3.63a3.25,3.25,0,0,1,.09,1.09,11.54,11.54,0,0,0-1,2.57c-.24,2.85-.24,5.74-.44,8.6-.13,1.76-.45,3.5-.7,5.24s-.49,3.28-.76,4.92c-.1.63-.34,1.24-.4,1.88-.22,2.37-.38,4.75-.6,7.13,0,.38-.35.74-.35,1.11,0,1.32.17,2.64.14,4,0,.65-.49,1.29-.49,1.93,0,1.22.23,2.45.24,3.67,0,1.84-.1,3.68-.17,5.51-.08,2.22-.2,4.45-.25,6.67s-.07,4.31,0,6.46a28.57,28.57,0,0,1,.23,3.15c-.16,1.6-.28,3,.85,4.32s2,2.63,3.8,2.29a6.82,6.82,0,0,1,1.24-.06h4.31c0,2.29.06,4.51,0,6.73-.05,1.34-.42,2.65-.5,4-.14,2.38-.13,4.77-.25,7.15-.1,1.91-.44,3.81-.45,5.72a15.59,15.59,0,0,0,.53,4.42,15.93,15.93,0,0,0,1.82,3.5c.59,1,1.27,1.93,1.91,2.89a.9.9,0,0,0,.22.27,29.62,29.62,0,0,1,3.17,2c1.07.88,1.93,2.11,3.3,2.43.46.11.94.15,1.4.25a7.43,7.43,0,0,0,1.33.36A3.42,3.42,0,0,0,206,332a6.5,6.5,0,0,0-.18-2.68,13.63,13.63,0,0,0-1.08-2.91c-.57-1.14-1.36-2.13-1.9-3.29a35,35,0,0,1-1.36-3.73,15.27,15.27,0,0,1-.3-6.88c.21-1.62.51-3.23.72-4.86.16-1.24,0-2.65.43-3.68a3.63,3.63,0,0,0,.34-2.66,2.06,2.06,0,0,1,.07-.66c.15-1.41,1.43-2.92-.26-4.18-.07-.06-.07-.23-.13-.34s-.23-.4-.35-.6c-.2.18-.41.35-.59.55a6.69,6.69,0,0,1-.74.85c-.48.36-.94.58-.5,1.43a2.64,2.64,0,0,1,0,1.43c-.37,2.1-.78,4.19-1.15,6.28-.3,1.69-.56,3.38-.87,5.07a20,20,0,0,0-.57,2.75,17.88,17.88,0,0,0,.28,3.41c.21,1.32.55,2.61.79,3.92a6.12,6.12,0,0,1,0,1.25l-1-.09c-.42-.12-.85-.1-1.24-.23-1.66-.56-2-3.12-3.82-3.43,0,0-.07-.13-.07-.2a17.2,17.2,0,0,1-.09-2.89,43.26,43.26,0,0,0,.5-10.47,25.32,25.32,0,0,1,.1-4.79c.15-1.89.71-3.76.2-5.69,0-.09.26-.42.42-.43.59-.05,1.19,0,1.79,0s1-.12,1.43-.18c.18-.22.37-.07.58-.06,2.14.15,4.28.25,6.42.43a10.11,10.11,0,0,1,1.77.45c.52.14,1.32.61,1.5.39a23.16,23.16,0,0,0,1.82-3,1,1,0,0,0,.44.12c1.5,0,3,0,4.51,0a16,16,0,0,1,2.29.17c.15,0,.38.48.35.7-.09.79-.32,1.56-.4,2.35-.19,1.88-.36,3.76-.47,5.64a20.4,20.4,0,0,0,0,3.91c.2,1.44.75,2.81,1.05,4.24s.5,3,2,3.82a13.2,13.2,0,0,1,2.78,2.62,1,1,0,0,1,0,.78,6.52,6.52,0,0,1-2.13.81,3.53,3.53,0,0,1-3.37-1.94,10,10,0,0,0-1.23-1.54c-.65-.7-1.7-1.22-1.93-2.06a27.06,27.06,0,0,1-1-6c-.12-2.88,0-5.78.13-8.66a36.67,36.67,0,0,1,.55-3.82c-.51-.15-.72-.2-.92-.28-1.18-.45-1.94.94-2,1.94-.07,2-.2,3.92-.31,5.87-.08,1.48-.21,3-.24,4.44a21,21,0,0,0,.2,2.33,31.12,31.12,0,0,0,.45,4.42,5.64,5.64,0,0,1-.08,3.72,2.68,2.68,0,0,0,0,2.25c.2.72.44,1.42.66,2.13.06.19.09.45.21.54a27.46,27.46,0,0,0,2.66,2c1.45.88,3,1.65,4.45,2.46.16.09.32.24.48.25.71.07,1.42.05,2.12.14.45.06.88.31,1.33.36.93.11,2-.15,2.78.29,1.43.8,2.62-.16,3.83-.44C229.26,325.49,229.31,322.65,228.54,321.65Zm-29,6.51c.09-.36.16-.73.21-1.1s.14-1,.2-1.49l.4.07V330a6.22,6.22,0,0,1-1.07-1C199.22,328.87,199.48,328.45,199.56,328.16Zm15.11-7.93a25.12,25.12,0,0,1-2.29-1.54c-.17-.13-.18-.53-.35-1.06l2.36,1.94s.34-.23.44-.14a4.85,4.85,0,0,1,.66.94A2.26,2.26,0,0,1,214.67,320.23Zm2.7,1.25-1.3-.72.17-.33,1.27.77Z"/><path d="M223.81,222.09a2,2,0,0,1-1.84-.78,2.56,2.56,0,0,1-1.5.63c-1,.11-2,.45-3,.57a16.72,16.72,0,0,1-2.9.08c-1.35-.08-2.7-.25-4-.41-.38,0-.73-.23-1.11-.31a7.42,7.42,0,0,0-1.58-.29,27.59,27.59,0,0,0-4.43.14,51.29,51.29,0,0,1-5.14.38,31.22,31.22,0,0,0-4.47.79c-1.13.24-2.24.56-3.37.82-1.28.3-1.77.07-2.23-1.16a7.87,7.87,0,0,1,0-5.73.35.35,0,0,0,0-.12c0-1.13.76-1.16,1.59-1.33,1.45-.29,2.86-.75,4.29-1.1,1.91-.48,3.84-.92,5.76-1.38.93-.22,1.85-.48,2.78-.65s1.92-.25,2.88-.37a3.44,3.44,0,0,0,1-.18c1.2-.55,2.38-1.13,3.57-1.72s1.48-1.2,1.06-2.56a1.19,1.19,0,0,1,.09-.71,1.31,1.31,0,0,0-.43-1.72c-.45-.35-.43-.59,0-1a10.53,10.53,0,0,0,1.46-1.75.76.76,0,0,0-.59-1.21c-1.18-.16-2.36-.26-3.54-.42a2.91,2.91,0,0,0-2,.55,4.4,4.4,0,0,1-1.17.33l-.15-.26c.42-.56.87-1.12,1.27-1.7a12,12,0,0,0,.82-1.38.6.6,0,0,0-.53-.95,5.31,5.31,0,0,0-2.07.27c-2,.79-4,1.69-6,2.54a24.93,24.93,0,0,1-3.11,1.23,30.29,30.29,0,0,1-3.49.59c-.62.09-1.24.14-1.86.22s-.68-.14-.47-.6a5.54,5.54,0,0,0,.35-2.82c-.14-1.6-.13-3.2-.26-4.8a32.28,32.28,0,0,0-.5-3.33,1.22,1.22,0,0,0-1.62-1.09c-1.26.31-1.41.64-1.26,1.74a16.46,16.46,0,0,1,0,3.21c-.09,1.41-.32,2.81-.44,4.22a.74.74,0,0,1-.74.75c-1.66.26-3.33.48-5,.8-1.13.22-2.24.58-3.36.86-.76.19-1.53.38-2.3.55a.73.73,0,0,1-.89-.6c-.37-1.21-.76-2.41-1-3.64a10.05,10.05,0,0,1-.13-2c0-.87,0-1.74,0-2.61.14-2.73.21-5.47.5-8.18a49.4,49.4,0,0,1,1.11-5.26c.29-1.31.54-2.64.92-3.93a5.78,5.78,0,0,1,.92-1.51c.51-.73,1-1.47,1.58-2.16.34-.42.73-.54,1.16,0a.78.78,0,0,0,1.2.17c.93-.76.85-.76.54-1.59a7.4,7.4,0,0,1-.23-1.91c-.16-1.78-.4-3.56-.42-5.34a19.44,19.44,0,0,1,.5-3.51c.21-1.19.53-2.35.7-3.54A20.37,20.37,0,0,1,182,151c.37-.92.57-1.92,1-2.83a4.76,4.76,0,0,1,1-1.31.67.67,0,0,1,.59.11,17.59,17.59,0,0,1,.56,2.06c0,.19-.09.42-.14.63a2.76,2.76,0,0,0-.52-.33c-.28-.1-.65-.29-.85-.18a1.1,1.1,0,0,0-.51.8c0,1,.23,1.92.17,2.87-.1,1.52-.4,3-.57,4.53s-.32,3.06-.47,4.59c-.17,1.72-.35,3.44-.48,5.16-.09,1.18-.12,2.36-.14,3.54,0,.44.13.9.68,1a1.11,1.11,0,0,0,1.2-.8,4.27,4.27,0,0,0,.23-1.82,15.17,15.17,0,0,1,.34-4.76c.09-.52,0-1.08,0-1.61s.19-1.31.26-2c.16-1.47.27-2.94.46-4.4a17.3,17.3,0,0,1,.47-2h.23c.21,1.18.39,2.37.65,3.54.41,1.84.88,3.67,1.31,5.51.49,2.08,1,4.16,1.44,6.25.2.91.29,1.85.47,2.77.09.44.27.86.39,1.3s.16.63.23.95a4.87,4.87,0,0,0,.15.66c.32.83.62,1.67,1,2.47a31.78,31.78,0,0,0,1.52,2.8c.09.15.52.17.78.12a7.65,7.65,0,0,0,1.19-.44c0,.57,0,1.08,0,1.57s-.06,1.12.47,1.2a2,2,0,0,0,1.4-.53c.58-.5.39-1.26.37-1.94,0-1.24-.06-2.47-.11-3.71,0-.49-.12-1-.17-1.46a6.67,6.67,0,0,1,0-.73c0-1.2.07-2.4,0-3.59-.09-1.72-.26-3.44-.44-5.15s-.5-3.62-.65-5.44a46.37,46.37,0,0,0-1.7-8.36c-.39-1.43-.92-2.83-1.32-4.26a27.26,27.26,0,0,1-.59-3,.77.77,0,0,1,.28-.6c.95-.7,2-1.32,2.88-2,.58-.45,1-1.09,1.59-1.56.89-.73,1.87-1.35,2.73-2.09.49-.42,1.12-.85.75-1.74-.09-.21.22-.58.4-1a17.91,17.91,0,0,1,2,1.3,14.67,14.67,0,0,1,3,2.77c.15.22.81.14,1.22.12,1,0,1.1,0,1.14,1a12.32,12.32,0,0,1-.1,2,.62.62,0,0,1-.49.35,4.06,4.06,0,0,0-3.21,1.27,1.46,1.46,0,0,0,0,1.85,3.09,3.09,0,0,0,2.47,1.64c.7.08.8.27.63.94a5.85,5.85,0,0,0-.15,1,9.52,9.52,0,0,1-1.52,3.84c-.38.71-1.34,1.11-2,1.66-1,.76-2.16.73-3.27,1-.42.11-.79.69-1,1.13-.09.18.2.73.44.86a2.54,2.54,0,0,0,1.31.23c.44,0,.61.1.67.5.21,1.39.44,2.77.65,4.16.23,1.54.38,3.09.69,4.62a12,12,0,0,0,2.2,5.37,4.57,4.57,0,0,0,2.7,1.87,5.68,5.68,0,0,0,1.77-.11,1.22,1.22,0,0,1,1.3.43c.77.89,1.58,1.75,2.39,2.62a2,2,0,0,1,.26-.32,21.73,21.73,0,0,1,2.17-1.95,2.18,2.18,0,0,1,1.38-1.79A7.83,7.83,0,0,0,215.8,173a3.61,3.61,0,0,1-1.27-1.75c-.53-1.49-.91-3-1.51-4.48-.94-2.28-2.07-4.48-3-6.75-.79-1.88-1.67-3.74-.76-5.92a21.8,21.8,0,0,0,1-4.06c.35-1.73.72-3.46,1-5.2.2-1.52.16-3.08.36-4.61a2.75,2.75,0,0,0-.44-2.19c-.64-.88-1-2-1.7-2.8s-1.7-1.68-2.54-2.54a2.77,2.77,0,0,1-.6-.93c-.12-.33-.23-.66-.62-.47-.56.28-.93-.08-1.39-.25a14.4,14.4,0,0,0-2.76-.88c-1.17-.18-2.37-.13-3.56-.2a5.68,5.68,0,0,1-1.53-.24,2.44,2.44,0,0,0-2.15.13,2,2,0,0,1-.69.17c-.55.07-1.25-.07-1.64.22-1,.76-2.5.82-3.15,2.12,0,.07-.17.11-.27.13a4.19,4.19,0,0,0-2.47,1.93c-.88,1.3-2.07,2.39-2.65,3.89,0,.05-.1.08-.13.14a5.86,5.86,0,0,0-.76,1.37,29.9,29.9,0,0,1-2.37,6.2,6.8,6.8,0,0,0-.55,1.11c-.41,1.45-.8,2.9-1.16,4.36s-.72,2.85-1,4.28-.42,2.7-.69,4c-.23,1.15-.54,2.28-.83,3.41a17.87,17.87,0,0,0-.55,5,.83.83,0,0,1-.23.48c-.51.61-1.06,1.18-1.55,1.8a20.09,20.09,0,0,0-1.77,2.36c-.42.72-.58,1.57-.94,2.33a12.07,12.07,0,0,0-1.23,5.58,1.61,1.61,0,0,1,0,.37,15.85,15.85,0,0,0-.53,2.71c-.05,2.39,0,4.79,0,7.19a13.62,13.62,0,0,1-.09,3.17,9.83,9.83,0,0,0,.19,4.08c.25,1.43.66,2.82,1,4.24a2.7,2.7,0,0,0,1.74,2.3,1.06,1.06,0,0,1,.71,1.11,5,5,0,0,0,1.89,4.56.52.52,0,0,1,.19.29,6.5,6.5,0,0,0,2.27,3.88,6.06,6.06,0,0,0,1.92,1.44,29.8,29.8,0,0,0,3.88.57c.22,0,.56.17.59.32a12.16,12.16,0,0,1,.4,2.35c0,1.25-.08,2.5,0,3.75a3.14,3.14,0,0,0,.38,1.66c.39.55,1,1,1.35,1.54a2.53,2.53,0,0,1,1.06-.29,2.19,2.19,0,0,1,1.76.83l.11,0a2.54,2.54,0,0,1,1.84.3c.82,0,1.65.06,2.46,0,1.59-.13,3.18-.38,4.77-.52s3-.22,4.49-.27c1.74-.06,3.48,0,5.22-.08a24.82,24.82,0,0,0,3.72-.37c1.73-.34,3.43,0,5.14,0a13.68,13.68,0,0,0,2.34-.21,2.68,2.68,0,0,1,.57-.06,2.34,2.34,0,0,1,1.15-.33c1.33-.05,2.3-1.07,3.2-2,.06-.06.12-.1.18-.15a.94.94,0,0,1,.29-.51A2.68,2.68,0,0,1,223.81,222.09Zm-16.24-49.44a5.92,5.92,0,0,1-.82-.71,11,11,0,0,1-1.74-4.15c-.3-1.05-.54-2.13-.75-3.2s-.3-1.92-.45-2.88c-.09-.6-.17-1.19-.29-1.78-.26-1.33-.09-1.7,1.21-2.53.26-.17.55-.3.85-.47.32.34.44.61-.09.86a.88.88,0,0,0-.38.45,5.71,5.71,0,0,0-.36,4.11c.26.74.51,1.48.72,2.24.34,1.19.64,2.4,1,3.59.25.87.54,1.74.8,2.61.17.57.32,1.15.48,1.73Zm2.32-7.87.69,1.27C209.73,165.88,209.58,165.59,209.89,164.77Zm-23-19.92c-.09,0-.19-.24-.21-.38-.2-1.37.72-2.34,2.32-2.33a2.11,2.11,0,0,1-.16.65c-.46.66-.94,1.31-1.44,1.93A.6.6,0,0,1,186.93,144.85Zm3.23,20a52.56,52.56,0,0,1-3.08-17.66c.13.08.32.14.4.26a4.08,4.08,0,0,0,2.07,1.43c.38.13.45.26.17.61a1.86,1.86,0,0,0-.52,1.72,21.51,21.51,0,0,1,.2,2.8c.2,2.1.47,4.2.66,6.31.14,1.5.21,3,.31,4.5Zm2.72-8.11c.33,1.69.5,3.41.73,5.12.17,1.23.27,2.47.5,3.69a37.16,37.16,0,0,1,.62,5.13c.14,2.74,0,5.49,0,8.24a2.71,2.71,0,0,1-.11.47,2.73,2.73,0,0,1-.37-.52,34.66,34.66,0,0,1-1.36-4,18.49,18.49,0,0,1-.13-3.11c-.13-2.47-.33-4.95-.4-7.42a28.5,28.5,0,0,0-.66-4.42,32,32,0,0,1-.25-4.16c0-.72-.08-1.45-.13-2.3C192.61,154.36,192.65,155.64,192.87,156.77Zm-5.2-18.92c.4-.54.71-1.15,1.12-1.69a13.5,13.5,0,0,1,3.7-3,.53.53,0,0,0,.22-.21c.39-1,1.39-1.09,2.24-1.33a2.57,2.57,0,0,1,2.53.34c.22.19.64.35.66.54a6,6,0,0,1-.12,2c-.07.25-.68.35-1,.49l-.32-1a3.5,3.5,0,0,0-1,.56c-.92,1.06-1.78,2.16-2.67,3.24a1.68,1.68,0,0,1-.52.43c-1.42.71-2.7,1.73-4.34,2a8.31,8.31,0,0,0-1.36.57,4.21,4.21,0,0,1-.89.11A6.25,6.25,0,0,1,187.67,137.85Zm-4.6,76.51a5.75,5.75,0,0,1-4.68-1.18,6.22,6.22,0,0,1-.94-1.62,7.49,7.49,0,0,1-1-4.3,9.23,9.23,0,0,0-.15-1.73,1,1,0,0,1,.85-1.27c2.08-.48,4.17-1,6.27-1.38a2.65,2.65,0,0,1,1.45.4,8,8,0,0,0,5,1.07c2.17-.39,4.35-.75,6.48-1.3a27.51,27.51,0,0,0,3.59-1.51c.39-.16.8-.27,1.31-.44a3.8,3.8,0,0,1-1.14,2.1c-.48.64-.5,1.74.4,1.9a4.42,4.42,0,0,0,1.87-.33c1-.29,2-.64,3-1l.11.21a7.46,7.46,0,0,1-.74.53c-1.19.66-1.53,1.73-.49,2.58a.62.62,0,0,1,.22.43,1.72,1.72,0,0,0,1.34,1.83c-.6.17-1,.3-1.34.38-.61.13-1.23.22-1.84.35-1.58.32-3.17.63-4.74,1-.69.15-1.35.39-2,.57-.48.13-1,.22-1.45.36a36.29,36.29,0,0,1-6,1.44C186.56,213.64,184.83,214.13,183.07,214.36Z"/><path d="M234.27,159.89c-.18.06-.34.17-.51.22s-.46.09-.7.13c0-.23,0-.47.06-.7a26.22,26.22,0,0,0,.31-3.2,1.9,1.9,0,0,0-.83-1.18.84.84,0,0,0-1.23.1c-.63.86-1.24,1.74-1.88,2.6a4,4,0,0,1-.48.47c-.14-.22-.28-.43-.41-.66,0,0,0-.13,0-.18-.1-.47-.19-1-.74-1.13a1.22,1.22,0,0,0-1.36.34c-.36.37-.77.68-1.25,1.09-.26-.34-.53-.65-.74-1-.5-.81-1.41-.93-1.89-.11a9.23,9.23,0,0,0-1,2.52c-.26,1.11-.51,1.39-1.6,1.19a3.6,3.6,0,0,1-1.09-.43c-.92-.52-1.17-.56-1.72.31a2,2,0,0,0-.1,1.48q1,3,2.08,6a8.93,8.93,0,0,1,.63,3.41A6.27,6.27,0,0,0,220,173a12,12,0,0,1,0,4.59,42,42,0,0,1-.81,4.49l.05.38a2.17,2.17,0,0,1-.51,1.8,10.75,10.75,0,0,1-.42,1,28,28,0,0,1,1,3c.17-.37.34-.74.5-1.12a20.92,20.92,0,0,0,.81-2.14,16.23,16.23,0,0,0,.42-1.81c.3-1.57.66-3.13.87-4.71a41.53,41.53,0,0,0,.43-5.15,36.4,36.4,0,0,0-.38-4.78c-.11-.87-.43-1.72-.62-2.59a1.58,1.58,0,0,1,.05-.58l-.75-.89.12-.11c.57.32,1.15.9,1.71.88s1-.69,1.5-1.07l-.11-.18a5.29,5.29,0,0,0,1,.48,1.07,1.07,0,0,0,1.27-.55c.29-.51.6-.63,1.07-.15s1.09.22,1.72-.32a1.54,1.54,0,0,0,.25-.34c.46.48.85,1.21,1.37,1.33s1.25-.34,1.93-.56a6.32,6.32,0,0,1-1,3.54,7.12,7.12,0,0,0-.83,2.24c-.28.84-.55,1.69-.79,2.55q-.55,2-1,4.11c-.26,1.11-.5,2.23-.69,3.36-.14.81-.17,1.65-.3,2.46s-.36,1.7-.46,2.55a4.71,4.71,0,0,0,.15,1.44,6.55,6.55,0,0,1-.54,3.65c-.48,1.33-1,2.67-1.52,4-.47,1.08-1.13,2.07-1.59,3.15-.27.64-.45,1.25-1.25,1.36l-1.87.25q.06,1.22.09,2.46c.69-.12,1.39-.24,2.08-.39a2.84,2.84,0,0,0,1.11-.47c1.16-.88,1.64-2.29,2.29-3.49a45,45,0,0,0,2.33-5.78,11.23,11.23,0,0,0,1-4.88,29.19,29.19,0,0,1,.49-6c.17-1.27.77-2.5.85-3.77a26,26,0,0,1,1.52-5.84c.43-1.4,1.25-2.68,1.7-4.08.58-1.77,1-3.6,1.42-5.42A.93.93,0,0,0,234.27,159.89Z"/><path d="M196.76,147.3l-1.18-1.07a4.51,4.51,0,0,1-.79-.76,1.25,1.25,0,0,1,.73-1.89c.36-.15.69-.36,1-.52A.72.72,0,0,1,197,143a28.35,28.35,0,0,1,3.6.81,3.16,3.16,0,0,1,1.6,1.31c.46.83-.23,1.64-1.15,2.29C199.5,148.46,198.21,147.76,196.76,147.3Zm2.73-2.55-.1.07c-.09,0-.19-.15-.27-.14-.38.07-.88-.41-1.12.22-.15.4.27.8.89.9a.44.44,0,0,0,.18,0l.92-.32Z"/><path d="M224.6,221.11c-3.66-15.58-3-32.09-7.91-47.33-.74-2.29-4.36-1.31-3.62,1C218,190,217.33,206.53,221,222.11c.55,2.35,4.17,1.35,3.62-1Z"/><path d="M218.51,178.67l-2.88-4a2.57,2.57,0,0,0-3.42-.9,2.52,2.52,0,0,0-.9,3.42l2.88,4a2.57,2.57,0,0,0,3.42.9,2.52,2.52,0,0,0,.9-3.42Z"/><path d="M211.47,178.63a24,24,0,0,1,3.34,6.12,2.57,2.57,0,0,0,3.08,1.75,2.52,2.52,0,0,0,1.75-3.08,28.39,28.39,0,0,0-3.85-7.31,2.58,2.58,0,0,0-3.42-.9,2.52,2.52,0,0,0-.9,3.42Z"/><path d="M200,143.12a12.13,12.13,0,0,1,.94,4c.11,1.6,2.61,1.61,2.5,0a15.73,15.73,0,0,0-1.28-5.23,1.26,1.26,0,0,0-1.71-.45,1.28,1.28,0,0,0-.45,1.71Z"/><path d="M198.85,152.75a7.25,7.25,0,0,0,4.83.57c1.57-.35.91-2.76-.66-2.41a4.44,4.44,0,0,1-2.91-.32c-1.44-.69-2.71,1.46-1.26,2.16Z"/></svg>