<svg id="Calque_1" data-name="Calque 1" xmlns="http://www.w3.org/2000/svg" viewBox="0 0 453.54 609.45"><title>SUFI_COM_Webst_HomeDRAWINGS_UPDT</title><path d="M234.45,307.55a2,2,0,0,0,.89-1.91c0-1.06-.15-2.12-.08-3.17a17.74,17.74,0,0,1,.53-2.62c.14-.64.32-1.28.47-1.92a7.09,7.09,0,0,1,1.53-2.62,7.39,7.39,0,0,1,5.3-3.13,3.84,3.84,0,0,1,.82,0c.78.1,1.55.28,2.33.33a4.29,4.29,0,0,1,3.42,2.38q1.06,1.72,2.14,3.42a5.39,5.39,0,0,1,1,2.74,31,31,0,0,1,.27,3.12,12.67,12.67,0,0,0,.54,3,1.46,1.46,0,0,1,0,.68,6.2,6.2,0,0,0,.27,3.36,1.29,1.29,0,0,0,.3.63c.63.61,1.28,1.2,1.93,1.78a9.54,9.54,0,0,1,2,1.74c.9,1.45,2.43,2.39,3.1,4a6.86,6.86,0,0,1,.43,1.07c.17.72.25,1.47.41,2.19a7.16,7.16,0,0,0,1.26,3.12,5.39,5.39,0,0,1,.83,3.14,36.51,36.51,0,0,0,.38,3.7,5.87,5.87,0,0,0,.67,1.49,6.41,6.41,0,0,1,.64,3.31,5.31,5.31,0,0,0,1,3.53,1.65,1.65,0,0,1,.21.75,6.63,6.63,0,0,0,1.19,3.58,10.88,10.88,0,0,1,1.38,3.05c.5,1.43.91,2.91,1.34,4.37a10.41,10.41,0,0,1,.16,1,5.55,5.55,0,0,0,.39,1.81,9.88,9.88,0,0,1,.95,3.54,1.92,1.92,0,0,1-1.18,2.31,2.93,2.93,0,0,1-1.35.06c-1-.13-1.09-.11-1.52.82a2.07,2.07,0,0,1-2.53,1.19,2.39,2.39,0,0,0-1.79.18,1.06,1.06,0,0,1-1.58-.71,6.91,6.91,0,0,1-.24-2.21,6.45,6.45,0,0,0-.8-3c-.1-.22-.46-.33-.7-.49-.13.22-.36.44-.37.67,0,1.37-.08,2.74,0,4.11.05,1.88.11,3.76.27,5.63.15,1.71.07,3.42.25,5.13.24,2.28.06,4.61.2,6.9s.43,4.35.71,6.51a28.49,28.49,0,0,0,.68,3.33,4.77,4.77,0,0,0,.66,1.21c.1.16.32.27.38.44.7,1.95,2.36,1.68,3.9,1.69a7.32,7.32,0,0,0,1-.13,12.21,12.21,0,0,1,.94,1.25,9,9,0,0,1,.51,1.27c-1.07,1-2,2.12-3.16,3a6.44,6.44,0,0,1-5.44,1.69,1.66,1.66,0,0,0-.82,0,4.29,4.29,0,0,1-3.07-.32,4.67,4.67,0,0,1-2.68-2.26,24.8,24.8,0,0,1-2.52-5.37,42.69,42.69,0,0,1-1.07-4.51c-.16-1.12-.5-2.2-.7-3.32-.32-1.8-.65-3.61-.85-5.42a39.8,39.8,0,0,0-1.1-6.47,17.38,17.38,0,0,1-.31-2.44c-.14-1-.27-2.09-.44-3.13a4.28,4.28,0,0,0-.43-.9,7,7,0,0,0-.59,1c-.53,1.51-1,3-1.55,4.54a1.08,1.08,0,0,1-.14.32,10.48,10.48,0,0,0-1.64,4.7c-.3,1.56-.64,3.12-1.07,4.65s-1,3.06-1.53,4.58a10.36,10.36,0,0,1-1,2.76,20.6,20.6,0,0,0-1.44,2.81c-.22.45-.35.95-.57,1.39-1.26,2.47-2.94,3.25-5.75,3.19a.77.77,0,0,1-.45-.1c-1.22-1-2.7-1.82-3.38-3.45a5.54,5.54,0,0,0-1.55-2,9.06,9.06,0,0,1-2.25-3.62,8.85,8.85,0,0,1-.86-3.38,6.68,6.68,0,0,0-.7-1.92s0-.06,0-.12c1.31-1.82,1.58-1.86,3.74-1.2a5.83,5.83,0,0,1,1.7.93c.76.54,1.26.32,1.29-.62s0-2,0-3a3.86,3.86,0,0,1,0-1.49,18.84,18.84,0,0,0,.61-3.38,6.74,6.74,0,0,0,0-2.57,13.15,13.15,0,0,1,.31-3c.05-.85.12-1.69.19-2.54,0-.43.08-.86.1-1.29a32.23,32.23,0,0,0,0-7.73,10.7,10.7,0,0,1,.07-1.86c0-1.09-.07-2.18,0-3.27,0-.65.28-1.28.36-1.93.06-.5,0-1,0-1.51a34.2,34.2,0,0,0-.58-7.61,4.2,4.2,0,0,1-.06-1.05,15.16,15.16,0,0,0-.68-5,1.78,1.78,0,0,1-.16-.55,13.55,13.55,0,0,0-1.38-6.35,9.1,9.1,0,0,0-.91-1.34c-.51-.78-1-1.55-1.49-2.37-1.18-2.15-2.33-4.33-3.49-6.49,0-.07,0-.16-.09-.22-1.6-2-2.46-4.39-3.79-6.53a2.12,2.12,0,0,1-.21-.42c-.77-2.22-1.51-4.46-2.3-6.67a24.79,24.79,0,0,0-1.81-4.56,24.75,24.75,0,0,1-1.56-3.18c-.44-1-.85-2.08-1.27-3.12a.27.27,0,0,1,0-.11c.15-1.55.24-3.11.47-4.65.12-.78.8-1.2,1.47-1.58a12.29,12.29,0,0,0,1.33-.92c.49-.37.88-.93,1.63-.76a.5.5,0,0,0,.42-.15c.69-1,1.93-.79,2.8-1.46.94.81,1.82,1.57,2.7,2.32a5.74,5.74,0,0,1,2,4.36,3.58,3.58,0,0,0,.2,1,39.68,39.68,0,0,1,1.73,4.86c.48,2.26,1.75,4.09,2.83,6,.54,1,1.23,1.88,1.72,2.91a6,6,0,0,0,.72.93c.25.34.48.69.73,1a16.5,16.5,0,0,0,1.07,1.36C233.49,306.73,234,307.09,234.45,307.55Zm24.14,30.19a2.28,2.28,0,0,0-.11.82c.41,1.54.87,3.07,1.31,4.6.35,1.23.69,2.46,1,3.69.11.36.26.71.4,1.07s.22.5.29.75c.36,1.27.69,2.54,1.06,3.81.1.33.34.61.47.93a7.34,7.34,0,0,1,.32,1.07c.15.64.26,1.3.43,1.94a.81.81,0,0,0,.41.53c1.12.3,2.24,1.42,3.38,0,.09-.11.27-.14.42-.21,1-.47,1-.47.78-1.6-.28-1.37-.55-2.75-.83-4.12a13.34,13.34,0,0,0-2.1-5,9.69,9.69,0,0,1-1.56-3c-.63-2.52-1-5.11-1.54-7.66-.12-.61-.42-1.18-.53-1.78-.26-1.42-.44-2.86-.67-4.29a5.76,5.76,0,0,0-.33-1.71,15.4,15.4,0,0,1-1.49-5,5.55,5.55,0,0,0-1.51-3.09c-.64-.69-1.33-1.32-2-2-1-1.1-1.77-2.44-3.48-2.55-.22,0-.42-.21-.65-.27-.95-.24-1.11-1-1.19-1.8-.17-1.74-.34-3.49-.55-5.23a7.49,7.49,0,0,0-.47-1.35c-.33.48-.62.71-.65,1-.11,1-.8,1.27-1.65,1.2a4.51,4.51,0,0,1-1.16-.45,1.93,1.93,0,0,0-.29.48,1.24,1.24,0,0,1-1.62,1,11.53,11.53,0,0,1-2.36-.85,1.92,1.92,0,0,0-1.34-.17,6.27,6.27,0,0,1-1.35,0c-.21-.77-.36-1.46-.59-2.12a.79.79,0,0,0-.57-.46.77.77,0,0,0-.58.46,21,21,0,0,0-.43,3.46c0,.94-.1,1.61-.71,1.94a2.11,2.11,0,0,1-2.47-.43c-.64-.67-1.33-1.29-2-2-.92-.94-1.84-1.88-2.73-2.85-1.11-1.22-1.54-2.85-2.43-4.22-.76-1.17-1.33-2.45-2-3.67a9.15,9.15,0,0,1-.82-1.26c-.89-2.56-1.72-5.14-2.58-7.7-.16-.49-.47-.61-.9-.33a5.92,5.92,0,0,0-.54.46,1.27,1.27,0,0,1-1.63.16c-.47-.32-.9-.71-1.32-1a10,10,0,0,1-1.3.11c-1.17,0-1.72.38-1.39,1.49.51,1.7.29,3.68,1.85,5a2.18,2.18,0,0,1,.46.94c.43,1.25.84,2.51,1.27,3.76.55,1.57.67,3.31,1.77,4.68a1.83,1.83,0,0,1,.19.67,12.56,12.56,0,0,0,2,4.46,9.87,9.87,0,0,1,.72,1.2c.63,1.16,1.22,2.34,1.87,3.49q1.31,2.34,2.67,4.66c.69,1.17,1.41,2.33,2.12,3.49a14,14,0,0,1,1.5,2.49,47.75,47.75,0,0,1,1.25,4.75c.12.48,0,1.07.18,1.49a4.48,4.48,0,0,1,.36,1.82c.09,1.37.16,2.74.3,4.1s.36,2.95.58,4.42a31.38,31.38,0,0,1,.11,5.51c0,1.37-.13,2.74-.17,4.11,0,1.68-.11,3.36-.1,5s.19,3.27.15,4.91-.24,3.35-.39,5c-.19,2.18-.3,4.38-.6,6.55a24.39,24.39,0,0,0-.06,6.21,3.85,3.85,0,0,1-.07,1.63c-.5,1.45.4,2.77.3,4.16a2.4,2.4,0,0,1,.22,2.32,3.53,3.53,0,0,1-.9,1.46c-.3.33-.71,0-1.09-.06a1.17,1.17,0,0,0-.95.13c-.35.31-.14.71.12,1a13.25,13.25,0,0,0,1.39,1.74c1.2,1.08,2.09,1.39,3.1.16.39-.48.73-1,1.07-1.51a4.79,4.79,0,0,1,.54-.9,7.14,7.14,0,0,0,1.66-3.17c.46-1.33.81-2.7,1.19-4.06.23-.83.46-1.66.65-2.51.51-2.35.83-4.76,1.53-7.06a64.36,64.36,0,0,1,2.69-6.87,11.77,11.77,0,0,0,1.2-4.48,2.49,2.49,0,0,1,2.3-2.15c.67,0,1.79,1.11,1.94,2,.35,2,.72,4.08,1.05,6.13.19,1.2.33,2.4.51,3.6.12.81.26,1.61.44,2.41.12.56.39,1.09.48,1.65.31,2,.57,3.95.84,5.93.11.77.16,1.55.31,2.31.26,1.3.57,2.6.88,3.89.15.64.36,1.26.51,1.89.22.91.35,1.85.62,2.75a12.07,12.07,0,0,0,2,4.19,1.94,1.94,0,0,0,.58.55,5.24,5.24,0,0,0,3.6.66,12.64,12.64,0,0,1,1.64-.15,2.94,2.94,0,0,0,2.38-1.27,18.53,18.53,0,0,0-1.81-.67,4.71,4.71,0,0,1-3.4-3.1,26.11,26.11,0,0,1-1.58-7.12c-.28-2.48-.22-5-.35-7.51-.09-1.75-.23-3.49-.36-5.24,0-.42-.15-.84-.15-1.27,0-1.14.11-2.27.06-3.41q-.18-4.11-.47-8.21c-.1-1.48-.32-3-.47-4.43-.21-2.13-.35-4.27-.64-6.39a4.64,4.64,0,0,0-.82-2.53c-.13-.15,0-.56.09-.85a4.37,4.37,0,0,0,.22-1c-.06-1.17-.15-2.34-.28-3.5a17.08,17.08,0,0,0-.38-1.76,4.13,4.13,0,0,1,.32-1.56,1.42,1.42,0,0,1,2.38-.36C257.95,337,258.25,337.35,258.59,337.74Zm-29.23,49.07a2.16,2.16,0,0,0-.37-.53,1.58,1.58,0,0,1-.76-1.45c.06-.5-.32-.77-.73-.95-.15-.07-.45-.09-.52,0a.8.8,0,0,0-.15.61,7.22,7.22,0,0,0,.55,1.64,4.29,4.29,0,0,0,1,1.23C228.79,387.68,229.33,387.41,229.37,386.81Zm17.28-89.94c.36.09.74.44,1.11,0,.11-.14.16-.53.06-.62a1.11,1.11,0,0,0-.78-.35C246.56,296,246.52,296.38,246.65,296.87Zm-5.42-.37-.24-.25-1.44,1.33A1.51,1.51,0,0,0,241.22,296.5Zm-3.21,8c.79-.37.55-.92.44-1.57C237.72,303.38,237.74,303.87,238,304.52Zm8.45,1.29c-.47.4-.63.74-.38,1.29C246.58,306.76,246.89,306.48,246.46,305.81Zm-3.76-11,.59,1C243.72,295.12,243.72,295.12,242.7,294.85Zm.6,10.87-.17-.17-.49.48.18.18Z"/><path d="M272.21,138a.94.94,0,0,0,.45-1,7.76,7.76,0,0,1,.42-3.57,4.63,4.63,0,0,1,1.84-2.82c.44-.25.8-.66,1.22-.95a2.1,2.1,0,0,1,.78-.26c.94-.17,1.45.5,2,1.07a21.22,21.22,0,0,1,2.43,3.93c.39,0,.54-.23.56-.58.08-1.41.18-2.82.22-4.23a11.23,11.23,0,0,0-.17-1.69c-.07-.55-.18-1.11-.23-1.66a.68.68,0,0,1,.64-.81,1.22,1.22,0,0,1,1.21.33,1.91,1.91,0,0,0,.44.3,4,4,0,0,1,1.73,2.7c.16.78.35,1.55.53,2.32a.48.48,0,0,1,0,.15c-.15,1.22.35,2.36.43,3.56a35.06,35.06,0,0,0,.57,3.49.52.52,0,0,1,0,.23,6.66,6.66,0,0,0,.1,2.82,14.85,14.85,0,0,1,0,3.38c0,.3,0,.62,0,.93a1,1,0,0,1-.06.45,7.43,7.43,0,0,0-.66,2.76c-.17.83-.38,1.65-.51,2.48a8,8,0,0,0-.13,2.16,3.94,3.94,0,0,1-.4,1.92c0,.1-.08.19-.12.27a4.2,4.2,0,0,1,.08,2.42,2.68,2.68,0,0,0-.11.59,9.18,9.18,0,0,1,0,2.3c-.06.61-.05,1.22-.11,1.83a7,7,0,0,1-.37,1.72,5.35,5.35,0,0,0-.2,2.72,7.21,7.21,0,0,1-.06,1.44c0,.92-.05,1.85-.09,2.77a8.83,8.83,0,0,1-.14,1.67,5.76,5.76,0,0,0-.06,1.61c0,1.34,0,2.68.08,4,0,.88.08,1.75.11,2.63,0,.2-.06.41-.07.61a2.25,2.25,0,0,0,.09,1.06,6.2,6.2,0,0,1,.16,1.2c.06.32.19.64.28,1a1,1,0,0,1,0,.45,12.84,12.84,0,0,0,0,3.63c.07.77.14,1.54.22,2.3,0,.13,0,.25.05.38.17,1.14.41,2.28.49,3.43a2,2,0,0,1-.52,1.23,1,1,0,0,1-1.15.19c-.63-.23-1.28-.4-1.9-.64a3.69,3.69,0,0,1-2.18-2.14,10.88,10.88,0,0,1-.83-3.23,1.94,1.94,0,0,0-.08-.53,9.52,9.52,0,0,1-.48-3.41,9.55,9.55,0,0,0-.15-1.14c-.44,0-.49.24-.54.51-.18,1-.33,1.93-.61,2.87a17.57,17.57,0,0,1-1.62,4.25,6,6,0,0,1-5,3.27c-.8,0-1.59.1-2.38.17a1.67,1.67,0,0,1-1.67-1.12c-.11-.2-.17-.44-.28-.64a1.2,1.2,0,0,1,.24-1.75,8.91,8.91,0,0,1,2.59-1.82,2.45,2.45,0,0,0,1.45-2,15.26,15.26,0,0,0,.15-2.15c0-.1,0-.21,0-.31.13-1,.25-2,.4-3a34.83,34.83,0,0,1,.59-3.65,19,19,0,0,0,.19-4.77c0-1.21,0-2.43,0-3.64s.09-2.22.07-3.32c0-1.7-.17-3.39-.22-5.09-.06-2-.48-3.87-.66-5.81s-.21-3.59-.36-5.39a26,26,0,0,1,.22-5.41c.09-.71,0-.76-.71-1a11.84,11.84,0,0,1-1.78-.73,2.62,2.62,0,0,1-.74-.84,13.58,13.58,0,0,1-1.83-3.9c-.38-1.28-.82-2.54-1.22-3.81a30.15,30.15,0,0,1-1-5.15,13.14,13.14,0,0,1-.15-2.69c.06-.81-.13-1.68.49-2.42a1.32,1.32,0,0,1,2.16,0,11.62,11.62,0,0,0,1.07,1,1.92,1.92,0,0,1,.45.51c.77,1.59,1.55,3.18,2.27,4.79a7.89,7.89,0,0,1,.48,1.86,13.8,13.8,0,0,0,1.1,3A2.76,2.76,0,0,0,272.21,138Zm3.75-.46c.24,0,.53-.09.81-.17s.33-.17.5-.2.62,0,.7.31a.75.75,0,0,1-.25.57,1.92,1.92,0,0,1-1.29.64,1.84,1.84,0,0,0-2,1.63,1.42,1.42,0,0,1-1.43,1,1.45,1.45,0,0,1-1.33-.76,8.48,8.48,0,0,1-.65-1c-.64-1.25-1.28-2.51-1.88-3.78a6.41,6.41,0,0,1-.23-1c-.11-.42-.25-.83-.4-1.23a3.89,3.89,0,0,1-.39-.91,2.29,2.29,0,0,0-.48-1.2,5.43,5.43,0,0,1-.9-1.74,2.12,2.12,0,0,0-.52-.75.35.35,0,0,0-.59.07,1.27,1.27,0,0,0-.21.57c0,.46,0,.93,0,1.39a19.28,19.28,0,0,0,.72,4.34,3.6,3.6,0,0,0,.67,1.71.42.42,0,0,1,.07.29,6.47,6.47,0,0,0,.74,2.8,9.52,9.52,0,0,0,1.59,3.14,2.17,2.17,0,0,0,1.1.86c.45.11.9.23,1.35.35a1.29,1.29,0,0,1,1.06,1.53,8.12,8.12,0,0,0,0,.92,7.35,7.35,0,0,1,0,1.16,27.85,27.85,0,0,0-.13,4.46,54.73,54.73,0,0,0,.4,6.32c.14,1,.17,2.06.27,3.08.15,1.48.38,2.94.47,4.42s.1,3,.08,4.56a25.43,25.43,0,0,0,0,3.85c.07.55.1,1.1.16,1.66a12.31,12.31,0,0,1-.1,2.21,8.89,8.89,0,0,0-.12,1.3,8.28,8.28,0,0,1-.24,2.6,12.84,12.84,0,0,0-.29,1.41c-.17,1.43-.32,2.86-.47,4.29a9.41,9.41,0,0,1-.08,1.07,2.76,2.76,0,0,0,0,1.06c.18,1.22-.24,2.36-1.7,2.52a3.39,3.39,0,0,0-2.2,1.56c-.1.12-.07.34-.11.56a10,10,0,0,0,1.73,0,7.62,7.62,0,0,0,2.29-.66,4.79,4.79,0,0,0,2.2-2.7c.44-1.26.8-2.55,1.19-3.83a13.53,13.53,0,0,0,.56-3.55c0-.67.07-1.34.11-2q.12-2,.24-4.08c.05-.85.12-1.69.16-2.54,0-.28-.06-.55-.05-.83a11.37,11.37,0,0,1,.07-1.61,1,1,0,0,1,1-.68,1,1,0,0,1,.95.67,31.28,31.28,0,0,0,.79,3.21.25.25,0,0,1,0,.08c.08,1.31.17,2.61.23,3.92,0,.82,0,1.65.05,2.47a36.88,36.88,0,0,1,.32,4.07c.28.42,0,.85,0,1.27a19.11,19.11,0,0,0,.36,2c.17.75.32,1.51.55,2.25a4.65,4.65,0,0,0,1.43,2.16.72.72,0,0,0,.87.1c.28-.15.28-.41.24-.68s-.15-.81-.18-1.22c-.08-.92-.14-1.84-.18-2.76-.05-1.13-.09-2.27-.13-3.4a.86.86,0,0,0,0-.15,16.07,16.07,0,0,1-.4-1.85,17.13,17.13,0,0,1-.26-3.3c.12-1.31-.21-2.6-.1-3.93.13-1.64.11-3.3.16-4.94a2.42,2.42,0,0,1,0-.69,9.68,9.68,0,0,0,.15-3.07,28.9,28.9,0,0,1,.3-4.2,29,29,0,0,0,.45-4c.06-1.8.13-3.59.19-5.39a.72.72,0,0,0-.06-.37c-.19-.32,0-.58.08-.87a5.36,5.36,0,0,0,.37-1.16c.16-.84-.14-1.72.21-2.55,0,0,0-.1,0-.15.09-.61.15-1.23.29-1.82.25-1.05.6-2.08.83-3.14a20.59,20.59,0,0,0,.08-4.31c0-1.89-.6-3.71-.56-5.6a1.76,1.76,0,0,0-.11-.37,12.2,12.2,0,0,1-.48-2.73,6.71,6.71,0,0,0-.22-1.25l-.18,0c-.12.15-.31.28-.33.44a9.9,9.9,0,0,0,0,1.37c0,.18.17.39.11.52-.33.68,0,1.38-.1,2.06-.17.91-.36,1.81-.57,2.71-.12.53-.29,1-.43,1.56a2.8,2.8,0,0,1-1.08,1.82,1,1,0,0,1-.71.16c-.7-.25-1.77-1.45-1.63-2.32s.17-1.59.22-2.38c0-.42.16-.87-.12-1.2-.75.18-1.44.35-2.14.5-.4.09-.85-.08-.92-.36a.66.66,0,0,1,.44-.81,5.28,5.28,0,0,1,1.33-.35.9.9,0,0,0,.9-.68c-.4-.58-.8-1.19-1.23-1.8-.2-.28-.5-.46-.8-.24a20.88,20.88,0,0,0-1.73,1.51c-.14.13-.15.4-.22.61a3.87,3.87,0,0,0,.86-.54,2.9,2.9,0,0,1,1-.45.75.75,0,0,1,.65.27c.16.27-.13.45-.36.59a3.1,3.1,0,0,0-.34.18,2.79,2.79,0,0,0-1.2,2.39A9.48,9.48,0,0,0,276,137.51Zm5.45-2.08.18,0v-.34h-.11Z"/><path d="M242.18,230.61a2.62,2.62,0,0,0-.58.28,6.87,6.87,0,0,0-1.22,1.22c-.47.73-1.22.83-1.91,1.1a8.12,8.12,0,0,1-2.64.63,9.86,9.86,0,0,0-1.54.42c-.43.09-.89.07-1.32.16-.68.14-1.35.33-2,.51-.05,0-.1.06-.15.06-1.61-.22-3.29-.1-4.65-1.31a5,5,0,0,0-1.66-.88,2.25,2.25,0,0,1-1.27-1.32,2.39,2.39,0,0,1-.31-1.47,1.5,1.5,0,0,0-.22-.92,4.39,4.39,0,0,1-.41-2.89c0-.28.06-.57.11-1a2.7,2.7,0,0,0-.58.36,5.17,5.17,0,0,0-.36.61c-.69,1.1-1.43,2.17-2.08,3.29a5.92,5.92,0,0,1-1.89,2.17,6.26,6.26,0,0,1-3.52,1.21,3.94,3.94,0,0,1-2.43-.69,1.75,1.75,0,0,1-.18-2.74c.37-.37.67-.81,1.07-1.15a10.08,10.08,0,0,1,1.4-1c.38-.22.83-.31.9-.89,0-.24.34-.44.52-.67a9.16,9.16,0,0,0,1.21-3.27c.39-1.38.78-2.77,1.13-4.17.19-.73.3-1.48.44-2.22,0-.09,0-.19,0-.27a10.08,10.08,0,0,0,.84-3.7,9.47,9.47,0,0,1,1-2.45,12.08,12.08,0,0,0,.43-1.26c.11-.36.18-.72.24-1a8.75,8.75,0,0,0-1.16-.19,10.38,10.38,0,0,0-4,.49,1,1,0,0,1-.52.1,5.7,5.7,0,0,0-2.36.4,4.13,4.13,0,0,1-1.48,0c-.57-.1-.75,0-.73.56a4.79,4.79,0,0,0,.17,1c.29,1.19.59,2.37.91,3.55.13.48.52.83.62,1.39.18,1-.38,1.5-.88,2.11-.85,1-1.89.88-3,.56-.36-.1-.8.07-1.16-.22s-.5-.29-.7-.49c-.52-.51-1-1-1.51-1.57-.24-.27-.4-.61-.62-.91-.46-.61-.95-1.21-1.42-1.81a2.27,2.27,0,0,1-.35-.47,18.71,18.71,0,0,0-.92-2.24,1,1,0,0,1-.08-1.06.72.72,0,0,0-.07-.52,8.34,8.34,0,0,1-.67-2.78,2.64,2.64,0,0,0-.88-1.29c-.14.77-.27,1.54-.43,2.31-.23,1.14-.55,2.27-.7,3.42-.08.68-.61,1.31-.26,2a.29.29,0,0,1,0,.26c-.52.55-.18,1.28-.41,1.89,0,.08.12.22.13.24-.2.41-.37.77-.56,1.12-.32.61-.66,1.21-1,1.83-.1.2-.1.44-.19.64a2,2,0,0,1-.39.6c-.33.32-.76.53-.79,1.09,0,.16-.32.3-.49.45a5.86,5.86,0,0,0-.78.68.74.74,0,0,1-.92.25,3.74,3.74,0,0,1-1.78-1.45,1.78,1.78,0,0,1-.15-.71c-.07-.53-.15-1.06-.19-1.59a5.83,5.83,0,0,1,0-1.24c.18-1.25.47-2.48.58-3.74a18.46,18.46,0,0,0-.15-2.73c0-.07-.08-.15-.06-.2.3-.9-.1-1.76-.12-2.64a5.32,5.32,0,0,1,.13-1.07c.06-.34.31-.67,0-1,0,0,0,0,0-.05.08-1.12.18-2.24.23-3.36a3.3,3.3,0,0,0-.13-1,9.53,9.53,0,0,0-.47-1.11,5.34,5.34,0,0,0-.87,1.45c-.15.7-.75.93-1.11,1.4a3.87,3.87,0,0,1-.49.49.65.65,0,0,1-.87.15c-.24-.14-.59-.15-.78-.33a2.55,2.55,0,0,1-1-2.45,2.4,2.4,0,0,0,0-.59,2,2,0,0,1,0-.7,22.12,22.12,0,0,0,.86-4.26c.18-1.15.44-2.28.6-3.43a12.51,12.51,0,0,0,.28-2.89,7,7,0,0,1,.42-2c0-.09.08-.19.05-.26-.24-.76.27-1.37.42-2,0-.23,0-.47.11-.7.11-.44.25-.88.38-1.32.06-.2.25-.44.2-.6-.17-.52.12-.9.26-1.34s.27-1.14.43-1.7.33-1,.52-1.52c.41-1.07.85-2.13,1.25-3.21a5.28,5.28,0,0,0,.43-2.46.47.47,0,0,1,.08-.35,4.45,4.45,0,0,0,1-2.32c.2-.72.54-1.41.8-2.12.1-.28.12-.59.24-.87.36-.86.74-1.71,1.12-2.57,0,0,.07-.09.08-.14.06-.72.65-.93,1.16-1.22a10.13,10.13,0,0,1,1.7-.91,4.13,4.13,0,0,1,3.19,0c.71.32,1,.94,1.57,1.41a2.06,2.06,0,0,1,.87,1.29c0,.16.3.29.37.46s.23.61.32.92a18.11,18.11,0,0,1,1.06,4.1c0,.31.36.62.57.92s.2.34.35.42a4.82,4.82,0,0,0,1.37.53,1.37,1.37,0,0,0,.89-.4c.61-.52,1.18-1.09,1.76-1.65a.69.69,0,0,0,.2-.25,21.84,21.84,0,0,1,1.74-3.09,17.24,17.24,0,0,1,1.14-2.2,5.44,5.44,0,0,1,2.47-2.25,5.51,5.51,0,0,1,1.2-.17,1.61,1.61,0,0,1,.58,0,3.89,3.89,0,0,1,.7.34l.5.25s0,.08,0,.09c-.28.31-.72.5-.35,1.12.18.3-.33.87.1,1.29.05,0,0,.17,0,.26,0,.57-.1,1.14-.1,1.71a5.22,5.22,0,0,1-.86,2.18c-.25.53-.7,1.06-.71,1.59,0,1.38-1,2.28-1.47,3.4a13.83,13.83,0,0,1-1.24,2.54,6.71,6.71,0,0,0-.77,1.43c-.3.73-.46,1.52-.81,2.22-.48,1-1.12,1.86-1.61,2.82s-.78,1.82-1.2,2.73a6,6,0,0,1-.67,1.1,4.3,4.3,0,0,0-1.23,2.93,12.94,12.94,0,0,1-.12,1.77.86.86,0,0,0,0,.21c.15.81.27,1.63.45,2.44a11.11,11.11,0,0,0,.52,2.36,2.29,2.29,0,0,1,.08,1.58,5.94,5.94,0,0,0,0,1.89,8,8,0,0,1,.12,1.94c-.25,1.14.4,2.32-.19,3.43a.26.26,0,0,0,0,.21c.34.67.69,1.33,1,2a2.05,2.05,0,0,1,.14.45c0,.14,0,.28.07.42l.4-.12a6.1,6.1,0,0,1,.8-.29c.92-.18,1.85-.33,2.77-.5,1.46-.27,2.91-.63,4.39-.78a6.6,6.6,0,0,1,2.39.36.69.69,0,0,0,.8-.13c.19-.18.49-.24.68-.42a.75.75,0,0,0,.25-.55c-.18-1.12,0-1.45,1-1.94.14-.07.3-.11.47-.18-.16-.59-.17-1,.54-1.36.38-.16.6-.72.88-1.11.14-.19.24-.41.37-.6a1.47,1.47,0,0,0-.19-2,1.77,1.77,0,0,1-.38-.76,8,8,0,0,1,.34-5.52,9,9,0,0,1,2-2.85.69.69,0,0,0,.18-.2,4,4,0,0,1,2.57-1.93,5,5,0,0,1,3.93.13,5.81,5.81,0,0,1,1.54.91,12.35,12.35,0,0,1,1.74,1.85,3.21,3.21,0,0,1,.22,1.26c.09.82.17,1.64.26,2.46.07.64.11,1.28.2,1.92s.24,1.24.34,1.86a2.54,2.54,0,0,1,0,.59c0,.5-.08,1-.13,1.52l.49.06c.25.7.48,1.4.76,2.08.09.22.41.36.47.58a6,6,0,0,1,.36,2.11,20.08,20.08,0,0,0,.14,3c0,.31,0,.63,0,.94l.19,0a2.38,2.38,0,0,0-.3.56.64.64,0,0,0,.08.53c.1.09.35,0,.53,0,.43-.08.85-.23,1.29-.28.73-.08.79.66,1.14,1s.51.45,1,.15a3.93,3.93,0,0,1,2.07-.71c.67,0,1.05.61,1.47,1.05a2.9,2.9,0,0,1,.52,1c.39,1.09.75,2.18,1.1,3.28,0,.15,0,.34-.06.51a6,6,0,0,0,.48,2.55,1,1,0,0,1,.06.36,12.63,12.63,0,0,0,.28,3.8c0,.07.05.18,0,.21-.64.57,0,1.29-.22,1.92-.07.16.13.44.22.68a5.55,5.55,0,0,0,2-1.69,2.83,2.83,0,0,1,2.48-1.2c.23,0,.44.26.68.34.42.13.14.4.16.61a5.6,5.6,0,0,1,.15,1.4,3.48,3.48,0,0,1-.84,2c-.5.5-.87,1.11-1.37,1.61a13.38,13.38,0,0,1-2,1.84,29.58,29.58,0,0,1-2.67,1.35,12.16,12.16,0,0,0-1.36.88A5.7,5.7,0,0,1,244,232a1.4,1.4,0,0,1-.44-.17,3.07,3.07,0,0,0-.68-.29C242.4,231.44,242.11,231.29,242.18,230.61Zm-21-8.9.89-.2c.13,0,.34-.05.36-.12a7.74,7.74,0,0,0,.32-1.44c.06-.78,0-1.56.07-2.34.09-1.35.55-2.65.52-4a3.37,3.37,0,0,0,0-.89c-.22-.73-.1-1,.59-1.32a1,1,0,0,1,1.53.87,6.44,6.44,0,0,1,0,1.68c-.27,1,0,2.14-.37,3.17a1.63,1.63,0,0,0-.2.67,8.51,8.51,0,0,1-.25,3.26,3.11,3.11,0,0,0-.18.83c0,.85.11,1.69.13,2.54,0,.56-.09,1.14,0,1.69.09.79-.2,1.65.4,2.35,0,0,0,.07,0,.1a2.69,2.69,0,0,0,.93,2.35c.64.5,1.16,1.23,2.08,1.3.05,0,.1.1.16.12a3.22,3.22,0,0,0,.81.3c.28,0,.59-.16.85-.09a7.27,7.27,0,0,0,3.33-.17c1.23-.23,2.46-.53,3.68-.84A3.38,3.38,0,0,0,238,231a14.6,14.6,0,0,0,2.53-2.35,10.56,10.56,0,0,0,1.83-3.55,2.19,2.19,0,0,1,1.42-1.44,1.25,1.25,0,0,1,1.12.45,1.93,1.93,0,0,1-.57,2.37c-.63.38-.61,1-.86,1.55,0,.07,0,.19.07.29s.08.36.13.54.11.83.31.92a2.32,2.32,0,0,0,2-.13c.7-.32,1.24-1,2.09-1a.55.55,0,0,0,.2-.09c.68-.33,1.13-1.07,2-1.08,0,0,.07,0,.09-.05a21.54,21.54,0,0,1,2.29-2c.11-.07.12-.31.17-.47l-.13-.09a5.49,5.49,0,0,0-.76.48c-.63.55-1.2,1.16-1.85,1.69a1.7,1.7,0,0,1-.9.22c-.12,0-.26-.25-.39-.24-.52,0-.67-.39-1-.66-.46-.42-.16-.74,0-1.11,0-.06,0-.15,0-.21.23-.65,0-1.33.22-2,.13-.47-.1-1-.07-1.55a25.19,25.19,0,0,0-.36-5.91c-.2-1.26-.5-2.5-.76-3.74a.76.76,0,0,0-1.11-.64,7.38,7.38,0,0,0-1.46.78,22.81,22.81,0,0,0-2.39,1.9,2.35,2.35,0,0,0-.58,1.25,13.17,13.17,0,0,0,.09,1.34c0,.41.19.93-.37,1.16.1.18.29.36.27.51-.08.8-.2,1.6-.32,2.4-.09.61-.21,1.22-.27,1.83a1.83,1.83,0,0,1-1,1.22c-.51.08-1.36-.31-1.42-.77a11,11,0,0,1-.15-2.24c.05-1,.24-1.93.37-2.89.06-.44.15-.88.19-1.33a2.4,2.4,0,0,0-.09-.6c0-.13-.05-.26-.07-.39q-.12-.95-.24-1.9c-.05-.41-.25-.88-.11-1.22a2.45,2.45,0,0,0,0-1.43,12,12,0,0,1-.21-1.48,7.83,7.83,0,0,0-.36-2.08,1.27,1.27,0,0,1,.28-1.15,1.76,1.76,0,0,0,.31-.79c0-.74,0-1.47,0-2.21a2.34,2.34,0,0,0-.7-2c-.44-.33-1-.53-.81-1.23,0,0-.12-.08-.15-.14a1.25,1.25,0,0,1-.14-.37c-.08-.48.08-1-.39-1.41a.28.28,0,0,1,0-.26c.45-1,0-1.91,0-2.86s-.25-2-.25-3.06a4.46,4.46,0,0,0-1.43-3.24,2.71,2.71,0,0,0-1.63-.56,2.84,2.84,0,0,0-2.54.73,12.81,12.81,0,0,0-1.76,2.13,4.25,4.25,0,0,0-.85,2.23c-.05.8-.57,1.52.08,2.38a7.55,7.55,0,0,1,.73,2.05c.1.28.27.54.35.83s.29.67-.09,1.06a6.7,6.7,0,0,0-.8,1.46,1.6,1.6,0,0,0-.73,1.53c-.59.52-1.13.95-1.62,1.43s-.84,1.1-1.63,1.18c-.1,0-.29.4-.25.44.31.32.11.62,0,.9s-.45.74-.6,1.13c-.36,1-.68,1.93-1,2.91a16.9,16.9,0,0,0-1.14,4.1,4.61,4.61,0,0,1-.05.86c-.31,1.15-.64,2.28-1,3.42-.1.34-.21.68-.3,1-.19.69-.38,1.38-.56,2.08a5.39,5.39,0,0,0-.3,1.4,5.26,5.26,0,0,1-.65,2.33c-.35.78-.76,1.54-1.18,2.29a2,2,0,0,1-.6.7c-.73.46-1.5.84-2.23,1.28-.15.09-.23.29-.34.43.18.11.35.28.54.3a3.35,3.35,0,0,0,3-1.55,15,15,0,0,0,1.25-2.29c.32-.59.5-1.28,1.16-1.64a1.68,1.68,0,0,0,.46-.52c.39-.54.76-1.09,1.14-1.64C221.39,222.61,221.68,222.24,221.17,221.71Zm-27.7-4.21c.19-.12.3-.14.33-.21.47-.82,1-1.63,1.38-2.48a1.13,1.13,0,0,0,0-.91.47.47,0,0,1,0-.61,4.49,4.49,0,0,0,.57-1,13.56,13.56,0,0,0,.37-1.48c.24-1,.48-2,.7-3,.18-.85.3-1.71.48-2.56.27-1.25.58-2.48.84-3.73,0-.18-.13-.39-.18-.59s-.09-.38,0-.43a1.49,1.49,0,0,0,.44-1.28c0-.34,0-.7.38-.87a1.56,1.56,0,0,1,1.48,0c1,.53.82,1.58,1,2.34a22.92,22.92,0,0,0,.72,2.36c.2.61.44,1.21.65,1.82a14.61,14.61,0,0,1,.72,2.17,3.72,3.72,0,0,0,.5,1.78c-.2,1.12.63,1.9,1,2.83.13.34.38.8.66.87.71.17.52.54.35.9.48.46,1,.87,1.36,1.33a1.77,1.77,0,0,0,1.53.78c.32,0,.83-.13.9-.32a1.25,1.25,0,0,0-.17-1.07c-.87-1-.81-2.14-.86-3.3a2.11,2.11,0,0,0-.08-.35c-.09-.4-.18-.79-.25-1.19-.17-.93-.32-1.87-.51-2.79-.13-.64-.34-1.26-.48-1.89-.2-.94-.37-1.89-.55-2.84a7.9,7.9,0,0,1-.25-1.4c0-.57.17-1.14.18-1.71a22.29,22.29,0,0,0,0-3.19c-.17-1.5-.51-3-.77-4.47,0-.23,0-.47,0-.7a14.61,14.61,0,0,1-.29-2.25,4.51,4.51,0,0,1,.53-1.63c.42-.93.9-1.82,1.36-2.73.08-.16.11-.35.19-.5a8,8,0,0,1,.47-.76,15.22,15.22,0,0,0,1.12-1.59c.58-1.12,1.09-2.29,1.61-3.44.35-.77.67-1.54,1-2.32a.88.88,0,0,0,0-.36c0-.48-.13-1,.54-1.15.09,0,.16-.14.22-.23.4-.7.8-1.39,1.19-2.1.14-.25.22-.52.35-.77a7.42,7.42,0,0,0,.52-.93,12.87,12.87,0,0,1,1.47-3.67.58.58,0,0,0,.05-.31c0-.7,0-1.39,0-2.09,0-.19,0-.37,0-.72a6.66,6.66,0,0,0-1.77,2.57,3.53,3.53,0,0,0-.26.59,5.12,5.12,0,0,1-1.36,2.47,4.26,4.26,0,0,0-1,1.52,7.94,7.94,0,0,1-1.22,1.66,1.39,1.39,0,0,1-.44.37,7.33,7.33,0,0,0-1,.51,1.29,1.29,0,0,1-1.63.22c-.73-.29-1.51-.46-2.25-.75a3.72,3.72,0,0,1-.85-.6,1.32,1.32,0,0,1-.23-.28,3.27,3.27,0,0,1-.62-.89c-.23-.85-.33-1.74-.56-2.59-.17-.63-.48-1.23-.71-1.85a1.39,1.39,0,0,1-.18-.72c.2-.74-.5-1.07-.67-1.63-.09-.27-.41-.47-.65-.74-.29,0-.69.19-.84-.33a.31.31,0,0,0-.27-.13,6.78,6.78,0,0,0-2,1.08c-.75.79-1,2-1.84,2.75a.31.31,0,0,0-.07.2c0,.55-.35,1.16.29,1.6,0,0,0,.1,0,.15.07.51.14,1,.21,1.52a2.59,2.59,0,0,1-1,2.34c-.22.09-.48.09-.71.16-.6.18-.51.73-.67,1.17-.52,1.42-1.11,2.81-1.67,4.22-.39,1-.78,2-1.14,3a8.11,8.11,0,0,0-.3,1.21c-.16.81-.3,1.63-.46,2.44-.19,1-.44,2-.57,3-.16,1.27-.22,2.56-.34,3.84,0,.45-.12.91-.21,1.35s-.24,1-.32,1.51c-.05.3,0,.62-.06.92-.26,1.31-.55,2.62-.8,3.93a5.88,5.88,0,0,0,0,.87l.14,0c.25-.41.47-.83.75-1.22.89-1.24,1.7-2.5,1.19-4.14a.6.6,0,0,1,0-.27c.12-.6.2-1.22.37-1.8s.41-1.05.61-1.59c.41-1.12.81-2.24,1.22-3.35a7.08,7.08,0,0,0,.46-1.31c.14-1,.18-2,.3-2.93a4.8,4.8,0,0,1,.34-.79,2.11,2.11,0,0,0,.24-1c-.13-.54-.08-.76.48-1a2.05,2.05,0,0,1,1.8.2c.51.23.48.68.39,1.05a5.12,5.12,0,0,1-.64,1.58,5.77,5.77,0,0,0-.69,2.61,6.72,6.72,0,0,1-.34,1.51c-.44,1.17-.93,2.33-1.41,3.49a6.72,6.72,0,0,0-.46,1.12,14.66,14.66,0,0,0-.17,1.65c.15.11.4.2.42.32.12.79.56,1.55.29,2.38a10.63,10.63,0,0,0-.1,4.89c.15,1.07.58,2.12.1,3.21a1.11,1.11,0,0,0,0,.48c0,.88.08,1.75.14,2.63a17.57,17.57,0,0,0,.23,2.34,2,2,0,0,1-.16,1.59.81.81,0,0,0,0,.46c0,.49.13,1,.14,1.45a3.25,3.25,0,0,1-.13,1.47,3,3,0,0,0-.24,1.77A10.38,10.38,0,0,0,193.46,217.51ZM240.52,212c.5-.44,1-.83,1.42-1.24,0,0,0-.19,0-.23a.39.39,0,0,0-.27-.1C240.74,210.54,240.36,211,240.52,212Z"/><path d="M134.17,226a4.73,4.73,0,0,1,.39-.73,13.83,13.83,0,0,1,1.31-1.53,5.47,5.47,0,0,1,1.1-.61l2.22-1.27a.48.48,0,0,1,.25-.08c.71.06,1.15-.46,1.71-.72a1.68,1.68,0,0,1,1.26-.07c.25.12.43.69.4,1a1.1,1.1,0,0,1-.9,1,22.43,22.43,0,0,0-2.24.94c-.35.15-.7.29-1,.48a6.55,6.55,0,0,0-3.08,3.09,3.87,3.87,0,0,1-.75,1.06,4.3,4.3,0,0,0-1,4.19,14.56,14.56,0,0,0,.45,1.69,8.68,8.68,0,0,0,.62,1,19.34,19.34,0,0,0,.95,1.79,5,5,0,0,0,1.07,1,16.57,16.57,0,0,0,1.88,1.4c1.2.69,2.43,1.32,3.67,1.93a8.75,8.75,0,0,0,1.22.33c.45.14.89.33,1.34.49,1.28.47,2.56,1,3.85,1.4a17.79,17.79,0,0,1,2.71.91c.93.51,2,.47,2.9.89.73.34,1.44.06,2.14.17a7.65,7.65,0,0,0,1.12.14c2.16,0,4.33,0,6.49-.1.88-.06,1.73.16,2.62.06a45.61,45.61,0,0,1,4.66-.19c1,0,2,.05,2.95.09s1.84.1,2.76.12c.67,0,1.34,0,2,0s1.47.07,2.2.07c1,0,1.94,0,2.91,0,.43,0,.86-.08,1.29-.09a13.52,13.52,0,0,1,1.39,0c1.09.07,2.17.16,3.26.27.28,0,.55.15.83.17,1.25.08,2.5.19,3.74.2a13.7,13.7,0,0,0,2-.28,2.61,2.61,0,0,1,.31-.07c1.27,0,2.53-.05,3.8-.06.38,0,.77.06,1.16.07.8,0,1.61,0,2.41.07.32,0,.63.16,1,.16,1.91,0,3.83,0,5.74,0,.79,0,1.58.06,2.38.06.55,0,1.1-.07,1.66-.09.77,0,1.54,0,2.31,0,1.9,0,3.81.08,5.71.08.84,0,1.67-.13,2.51-.2h.38l2.09,0c.57,0,1.15,0,1.72,0s1.16-.19,1.75-.27,1-.09,1.47-.14l1.83-.19,2.65-.27h.05c1.14-.28,2.28-.57,3.42-.83.77-.17,1.56-.26,2.34-.44,1.31-.3,2.62-.65,3.92-1,.28-.07.55-.17.82-.26a26.36,26.36,0,0,1,3.85-1,6.24,6.24,0,0,0,2.47-.84,7.63,7.63,0,0,1,1.32-.45c1.24-.52,2.47-1.1,3.71-1.61.59-.24,1.23-.37,1.81-.62.82-.35,1.63-.76,2.42-1.17s1.84-1,2.76-1.48,1.7-.83,2.48-1.34a37,37,0,0,0,3.16-2.27,10.21,10.21,0,0,0,1.88-1.92,5,5,0,0,0,1.35-3.55,10.66,10.66,0,0,1,.18-1.38,6.18,6.18,0,0,0-.09-2.28,16.92,16.92,0,0,0-1.62-2.68,8,8,0,0,0-.44-.71c-.51-.65-1.05-1.28-1.55-1.94a1.45,1.45,0,0,0-.95-.71c-.1,0-.19-.14-.26-.23a2.2,2.2,0,0,0-1-.74,13.79,13.79,0,0,1-1.85-1.19,9.65,9.65,0,0,0-1.12-.52l-1.76-.78a9.18,9.18,0,0,0-2.64-1,7.28,7.28,0,0,1-1.54-.42,12.81,12.81,0,0,1-3.38-1.46,2.47,2.47,0,0,0-.82-.21.78.78,0,0,1-.34-.11,4.36,4.36,0,0,0-1.77-.8,14,14,0,0,0-1.5-.43c-.24-.05-.49-.08-.73-.11-.07,0-.18.06-.21,0-.5-.49-1.15-.32-1.74-.42-.39-.06-.87,0-1.18-.15a4,4,0,0,0-2-.5c-.31,0-.6-.3-.91-.4A6,6,0,0,0,245,207c-.54-.06-1.09,0-1.62-.08a2.09,2.09,0,0,1-1.15-.53,1.06,1.06,0,0,1,.27-1,2.06,2.06,0,0,1,1.67-.46,18.43,18.43,0,0,0,2.73.39c.48.05,1-.15,1.4.31a.61.61,0,0,0,.52.05c.63-.21,1.06.2,1.58.4a18.83,18.83,0,0,0,2.09.65c.74.19,1.5.32,2.26.49,1,.22,2,.42,3,.68a2.36,2.36,0,0,1,1,.52,1.62,1.62,0,0,0,1.54.36,2.23,2.23,0,0,1,.41,0l0,.69a12.23,12.23,0,0,1,2.51.62,10.79,10.79,0,0,1,2.15.87,19.18,19.18,0,0,0,2.81,1.39,15.61,15.61,0,0,1,1.36.86s.08.1.13.1c1,0,1.48.88,2.2,1.35a5,5,0,0,0,1,.68c.61.2.73.77,1,1.19.86,1.25,1.63,2.56,2.5,3.79a8.47,8.47,0,0,1,1.31,3.07,6,6,0,0,1-.05,1.66,9.25,9.25,0,0,0-.1,1.51,6.06,6.06,0,0,1-1,3.71,14.12,14.12,0,0,1-4.34,4.34c-1,.74-2.15,1.38-3.26,2-1.3.74-2.61,1.44-3.94,2.11-1.11.55-2.25,1-3.39,1.53-1.32.56-2.65,1.11-4,1.62s-2.67,1-4,1.39c-1,.31-2,.58-2.94.83-.53.13-1.1.15-1.64.27s-1.3.39-2,.53a12.32,12.32,0,0,0-2.85.74,8.52,8.52,0,0,1-1.62.35c-1.12.28-2.24.58-3.36.86-.26.07-.53.1-.79.15-.56.1-1.11.23-1.68.29-.72.08-1.46.08-2.18.15-1.68.17-3.36.37-5,.53-.59.05-1.18,0-1.77,0s-1.25.2-1.87.24c-.44,0-.89-.12-1.33-.12-.61,0-1.22.07-1.83.09a3.82,3.82,0,0,1-.59-.06c-.42-.05-.84-.21-1.25.1-.09.07-.28,0-.42,0-.77,0-1.54-.12-2.31-.12-1.41,0-2.82,0-4.22.11a9.72,9.72,0,0,1-3.17,0c-.17,0-.39.09-.58.08l-3.66-.12c-.11,0-.24-.09-.31,0-.61.37-1.23.12-1.85.08s-1.46-.14-2.19-.15c-1.74,0-3.48,0-5.21-.11-.61,0-1,.31-1.58.31-.25,0-.5.08-.75.07-.91,0-1.83,0-2.74-.06-1.09-.09-2.19-.24-3.27-.44a31.79,31.79,0,0,0-5.28-.26c-.5,0-1,0-1.51,0-.3,0-.59.12-.88.14a7.3,7.3,0,0,1-1.06,0l-4.91-.28c-.42,0-.84,0-1.26,0-.76,0-1.53-.06-2.29-.05-.93,0-1.85.05-2.78.08s-2,0-3,.09a29.36,29.36,0,0,1-3.38,0c-1.1,0-2.21.22-3.31.27a3.83,3.83,0,0,1-2.23-.21,2.55,2.55,0,0,0-1-.16,20.36,20.36,0,0,1-2.4-.25c-.75-.17-1.44-.58-2.19-.78-.57-.16-1.07-.45-1.67-.56a19,19,0,0,1-2.79-.89c-1-.37-2-.79-3.07-1.17-.84-.31-1.79-.19-2.6-.65a9.32,9.32,0,0,0-.93-.51c-.81-.34-1.55-.84-2.33-1.21-1.25-.6-2.08-1.68-3.19-2.42a5,5,0,0,1-1.09-1.52,6.77,6.77,0,0,1-.82-1.38,31.71,31.71,0,0,1-1-3.53,8.3,8.3,0,0,1-.12-2.24,2.43,2.43,0,0,1,.81-2,8.44,8.44,0,0,0,1.16-1.68A5.13,5.13,0,0,1,134.17,226Z"/><path d="M171,213.82c.4-.89,1.19-.46,1.79-.61,1.51-.37,3.05-.59,4.59-.83,1.16-.18,2.32-.27,3.48-.44s2.46-.41,3.69-.58c.87-.12,1.74-.18,2.61-.27.3,0,.6-.1.9-.16s.76-.2,1.14-.24.92-.1,1.16.37a1.13,1.13,0,0,1,0,1.28,1.41,1.41,0,0,1-1.33.61,14.61,14.61,0,0,0-1.92.19,14.63,14.63,0,0,1-1.49-.11.82.82,0,0,0-.41.06,10.17,10.17,0,0,1-3.65.64c-1.18.14-2.37.26-3.55.37-.54.05-1.09.07-1.63.11a.57.57,0,0,0-.2.05,11.24,11.24,0,0,1-3.77,1,5,5,0,0,1-1.3-.23,5.6,5.6,0,0,1,.35,1.63,6.36,6.36,0,0,1-.62,1.66,12.22,12.22,0,0,1,1.15.53c.66.38,1.27.88,2,1.19a7.27,7.27,0,0,1,1.74,1.2c.27.23.58.41.85.64s.51.31.34.7c0,.06.12.24.22.31a27.66,27.66,0,0,1,3.34,2.42c.74.72,1.63,1.16,2.38,1.82.34.3.62.65,1,.93s.84.56,1.27.83a.16.16,0,0,0,.1,0c.88-.17,1.2.54,1.67,1a.93.93,0,0,0,.44.26c.63.13,1.26.23,1.89.33s1,.45,1,1c0,.85-.27,1.08-1.05,1.22a9,9,0,0,0-1.48.54,1.12,1.12,0,0,1-.35.11,3.13,3.13,0,0,0-2.1.43,3.68,3.68,0,0,1-1.55.36c-.44.07-.89.11-1.33.15a.46.46,0,0,1-.22,0l-1.92-.87c-.1,0-.18-.12-.27-.16a11.21,11.21,0,0,0-1.9-.78,7.15,7.15,0,0,1-2.15-1.33,13.13,13.13,0,0,1-1.19-1,2.83,2.83,0,0,0-.51-.31c-.85-.42-1.7-.84-2.55-1.25-.43-.21-.88-.39-1.32-.58-.07,0-.15-.07-.21,0-.64.27-1.29.52-1.9.84a10.73,10.73,0,0,0-1,.73c-.89.6-1.78,1.22-2.69,1.78-.6.37-1.25.65-1.87,1-.3.16-.6.32-.92.46s-.81.3-1.21.45-.77.32-1.16.46c-.85.29-1.7.58-2.56.83-.63.18-1.29.29-1.93.45a5.77,5.77,0,0,1-1.35.35,28,28,0,0,1-3.16-.25,7.33,7.33,0,0,1-1.65-.46,6.55,6.55,0,0,1-2.48-1.52c-.52-.54-1.13-1-1.69-1.5a1,1,0,0,1-.26-.3,6.29,6.29,0,0,1-.72-1.7c-.08-.6-.44-1.18-.08-1.89.2-.4,0-1-.12-1.57-.05-.37-.16-.73-.22-1.09,0-.07.07-.15.11-.23a2.86,2.86,0,0,0,.2-2.07,2.4,2.4,0,0,1,0-1.47c.31-.93.44-1.92.67-2.88.29-1.22.61-2.43.91-3.64a3.47,3.47,0,0,0,.1-.75,5.56,5.56,0,0,1,.52-2.21c.47-1,.91-2.11,1.32-3.18.12-.33.05-.72.16-1.06a5.58,5.58,0,0,0,.26-1.79c0-.22.22-.44.34-.66a3.42,3.42,0,0,0,.25-.47,1.2,1.2,0,0,1,1.1-.89,1.37,1.37,0,0,0,1.44-1.36c0-.13.06-.32.15-.37.52-.27.69-.79,1-1.22a14.34,14.34,0,0,1,1.54-1.51c.39-.38.74-.8,1.12-1.18a5.13,5.13,0,0,1,.58-.45,2.53,2.53,0,0,0,.39-.28,2.93,2.93,0,0,1,1.94-1.11,4.53,4.53,0,0,0,1.21-.5,1.12,1.12,0,0,1,.34-.14c1.3-.06,2.6-.13,3.9-.15a3.92,3.92,0,0,1,1,.24,17.17,17.17,0,0,1,1.77.51,1.62,1.62,0,0,1,.66.61,14.38,14.38,0,0,1,1,1.6,2.82,2.82,0,0,1,.3,1c.1,1.28.16,2.56.2,3.84,0,.16-.23.32-.31.5a1.34,1.34,0,0,0-.18.59.46.46,0,0,0,.51.49,1,1,0,0,1,1,.78c.15.73.56,1.36.72,2.11a22.52,22.52,0,0,0,1,2.82.75.75,0,0,1,.06.42.77.77,0,0,0,.23.9.46.46,0,0,1,.11.29c0,.49.08,1,.12,1.48Zm-19.58,19.36a9.56,9.56,0,0,0,1.27,0c.73-.11,1.46-.28,2.19-.41a5.39,5.39,0,0,0,2.64-.88.51.51,0,0,1,.29-.14,4,4,0,0,0,2-.5c.76-.39,1.56-.68,2.34-1l1.46-.62c.12-.11.3-.41.55-.5a5,5,0,0,0,2-1.53c.31-.36.48-.92,1.14-.78.06,0,.14-.1.21-.16a3.57,3.57,0,0,1,2.84-.75,10,10,0,0,1,3.39,1.27c.91.57,1.77,1.21,2.66,1.8s1.9,1.18,2.83,1.81a8.34,8.34,0,0,0,3,1.21,6.63,6.63,0,0,0,3-.33c.16,0,.37-.2.39-.33s-.17-.31-.31-.4c-1-.7-2.28-1-3.28-1.8a31.23,31.23,0,0,1-2.85-2.25,20,20,0,0,0-2.16-1.7c-.6-.46-1.45-.66-1.62-1.58,0-.09-.13-.17-.21-.23-1.07-.73-2.12-1.47-3.21-2.16-.41-.26-1-.3-1.35-.59-1.06-.81-2.21-.38-3.33-.37-.51.58-1.27.45-1.89.7-.39.16-.74.57-1.12.58a2.23,2.23,0,0,0-1.62.91.89.89,0,0,1-1.08,0c-.47-.32-1-.55-1.51-.82-.24-.13-.56-.23-.7-.43a6.19,6.19,0,0,1-.49-1.14c.32-.55.39-1.48-.29-1.73a4.93,4.93,0,0,1,.08-1.3,19.51,19.51,0,0,1,.85-1.93,3.6,3.6,0,0,1,.83-.2c.39,0,.91-.05,1.14.16a3.44,3.44,0,0,0,2.37,1.26c.11,0,.22.1.33.17a4.7,4.7,0,0,0,3.16.85,3.45,3.45,0,0,0,.84-.09c.27-.11.67-.32.7-.53a3.54,3.54,0,0,0-.28-2.47,1,1,0,0,1-.11-.35c-.21-1.22-.38-2.44-.63-3.66a12,12,0,0,0-.54-1.73,6.93,6.93,0,0,0-.44-.84,2.31,2.31,0,0,0-.63,1.46,1.82,1.82,0,0,1-.41,1.05c-.45.45-1,.77-1.52,1.18a2,2,0,0,1-2.26.13c-.59-.5-1.51-.68-1.67-1.63,0-.11-.23-.17-.32-.28-.24-.33-.56-.63-.42-1.11a.2.2,0,0,0-.06-.18c-.4-.23-.22-.52-.07-.78s.3-.94.93-1c.09,0,.16-.18.26-.26.3-.25.58-.64.93-.71a4.2,4.2,0,0,0,2.51-1.38,4.75,4.75,0,0,0,1.08-1.64,9.22,9.22,0,0,0,.06-2.48,2.84,2.84,0,0,0-1.2-2,2.22,2.22,0,0,0-2.2-.41c-.59.25-1.22-.09-1.81.28-.28.18-.77,0-1.11.16a8.51,8.51,0,0,0-2.42,1.2,28,28,0,0,0-2.73,3,11.74,11.74,0,0,1-1,1.32,3.34,3.34,0,0,0-1.18,1.67,1.4,1.4,0,0,1-.33.58,1.73,1.73,0,0,1-1.56.55.53.53,0,0,0-.45.26,4.25,4.25,0,0,0-.24,1.59,1.9,1.9,0,0,1-.42,1.38,6.41,6.41,0,0,0-1,2.58c-.05.48-.08,1-.16,1.43a9.35,9.35,0,0,1-.44,1.89c-.44,1.06-.38,2.28-1,3.26a.71.71,0,0,0-.05.31c-.07.74-.13,1.47-.21,2.21s-.26,1.59-.28,2.39.18,1.33.23,2,0,1.25,0,1.86a14.17,14.17,0,0,0,.34,2.19,1.94,1.94,0,0,0,.61.79,10.47,10.47,0,0,0,1.88,1.63,12.31,12.31,0,0,0,2.36.76A4.06,4.06,0,0,1,151.41,233.17Zm13.39-26.67-.12-.11a3.2,3.2,0,0,0-.79.39c-.5.44-1.44.38-1.46,1.4,0,.39,0,.61.35.79s.41.19.62.28C164.4,208.58,164.12,207.31,164.8,206.51Zm-.57,12.25-.64-.16c-.15,0-.36-.06-.43-.16-.29-.46-.77-.39-1.16-.36-.22,0-.43.39-.6.63s-.08.38,0,.42c.31.18.47.9,1,.36,0,0,.14,0,.2,0C163.21,219.49,163.85,219.58,164.23,218.76Z"/><path d="M126.23,265.27a2.87,2.87,0,0,1,1.92-.35,2.49,2.49,0,0,0,1.66,0,1.92,1.92,0,0,1,.67-.11c.48,0,1,0,1.44-.09a8.79,8.79,0,0,1,3.27.07c.24.05.48.07.72.11.76.14,1.56-.33,2.29.17,0,0,.11,0,.16,0,.85,0,1.69.06,2.54.07.34,0,.69-.07,1,0,.89.07,1.77.18,2.65.27.37,0,.73.11,1.1.13s.6,0,.89,0a7.39,7.39,0,0,1,.85,0c.44.05.88.15,1.32.19.69.06,1.39.08,2.08.11s1.1,0,1.66.12a22.57,22.57,0,0,0,2.95.1c.38,0,.76-.11,1.14-.12.89,0,1.79,0,2.68,0a3.51,3.51,0,0,0,.82-.21c.27-.08.53-.22.82,0a1.38,1.38,0,0,0,.61.24,8.83,8.83,0,0,0,2.62.08c.7-.12,1.41-.17,2.12-.23,1-.08,2-.14,3-.2a3.54,3.54,0,0,1,.53,0,2.11,2.11,0,0,0,.71.06,5.87,5.87,0,0,1,2.11,0c1.27.1,2.55.13,3.83.17a11.91,11.91,0,0,0,1.93-.07,4.07,4.07,0,0,1,1.94.07,1.13,1.13,0,0,0,1.17-.19,1.33,1.33,0,0,1,.62-.3,11.38,11.38,0,0,1,1.62-.15c1.2,0,2.39,0,3.59,0,.7,0,1.39,0,2.09,0A1.5,1.5,0,0,0,190,265c.43-.25.73,0,1,.2.5.4,1,.83,1.48,1.24s1.18,1,1.74,1.49a.68.68,0,0,1,.17.59c-.2.45.07.68.33.91s.65.43,1,.69a1,1,0,0,1,.37.55,14.68,14.68,0,0,1,.12,1.52c0,.27,0,.54,0,.8,0,.45.12.9.18,1.35a.9.9,0,0,0,.09.34c.15.24-.14.61.17.76.59.28,1.05.85,1.84.74a.61.61,0,0,1,.72.56,2.49,2.49,0,0,0,.22.82c.23.47.22.73-.19,1a.86.86,0,0,0-.31.79,4.39,4.39,0,0,1-.08,1,7,7,0,0,1-.3.85c-.18.51-.35,1-.55,1.54a.74.74,0,0,1-.31.3c-.16.1-.35.16-.52.24a4.26,4.26,0,0,1-1.86.58c-.66,0-1.31,0-2,.09a.76.76,0,0,0-.37.13c-.29.2-.31.45-.31.83a10.34,10.34,0,0,1-.44,1.88,39.81,39.81,0,0,0-.69,4.42,5.3,5.3,0,0,1-.22,1.54,4.54,4.54,0,0,0-.23,1.52,23.68,23.68,0,0,0-.19,2.6c0,.71-.48,1.4-.1,2.13,0,.08,0,.21,0,.32a13.39,13.39,0,0,0-.48,2.12,17.1,17.1,0,0,0,.16,2.33,1.39,1.39,0,0,1,0,.44c-.07.27-.17.53-.24.8-.18.66.1,1.33-.11,2a21,21,0,0,0-.48,3c-.08.59-.14,1.19-.21,1.78a2.48,2.48,0,0,0-.06.93,1,1,0,0,1-.32,1,1.81,1.81,0,0,1-2.06.33,3.19,3.19,0,0,0-.22-.6c-.29-.44-.62-.85-.89-1.3a6.87,6.87,0,0,1-.86-2.57,6.28,6.28,0,0,0-.19-.77,4.64,4.64,0,0,1-.27-.92c0-.72,0-1.45,0-2.17s-.11-1.32-.07-2,.22-1.43.32-2.14.16-1.22.26-1.82c.22-1.21.46-2.41.67-3.62a6.67,6.67,0,0,0,.06-1c0-.52,0-1,0-1.55q0-.41,0-.81c0-.26.06-.52.08-.79q.12-1.52.23-3a2,2,0,0,0,0-.41c-.07-.58-.18-1.15-.23-1.73a7.89,7.89,0,0,0,0-1.32,2.32,2.32,0,0,1,.09-1.48c.11-.29.1-.67-.24-.78a2.83,2.83,0,0,0-1-.05c-.57,0-1.11.34-1.7.11a.72.72,0,0,0-.29,0c-1.32.09-2.64.23-4,.26a13.65,13.65,0,0,0-3.2.57.37.37,0,0,0-.31.41c0,.58.09.69.76.74a1.2,1.2,0,0,1,1,1.84c-.18.3-.47.56-.45,1a3.23,3.23,0,0,1,0,.61c-.09.61-.22,1.21-.31,1.82-.15.94-.27,1.88-.42,2.82-.11.63-.27,1.26-.39,1.89a29.18,29.18,0,0,1-.49,3.14.62.62,0,0,0,0,.32,3,3,0,0,1,.18,1.41,2.18,2.18,0,0,0,.22,1.32,2.8,2.8,0,0,1,.16,1.09c0,.71,0,1.42,0,2.12a1.48,1.48,0,0,1,0,.39c-.21.68-.47,1.35-.66,2a1.3,1.3,0,0,1-.68,1,1.69,1.69,0,0,1-2.35-.59,8.28,8.28,0,0,1-.78-2.08,11.87,11.87,0,0,1-.34-3.14c0-.34.09-.68.12-1a12.88,12.88,0,0,1,.15-1.62,13.65,13.65,0,0,1,.88-3.57,6.39,6.39,0,0,0,.42-1.45c.2-.79.41-1.58.55-2.38a24.15,24.15,0,0,0,.38-3,21.3,21.3,0,0,0-.13-2.77,7.2,7.2,0,0,0-.29-1.14l.1-.14-.2-.76a4.37,4.37,0,0,0-.62-.15c-.87-.09-1.75-.17-2.62-.24s-2-.18-3-.25c-.66,0-1.33-.06-2-.08-.41,0-.82-.05-1.22,0-.7,0-1.39.14-2.09.19-.2,0-.41-.05-.62,0a7.65,7.65,0,0,1-2.75-.1,2.48,2.48,0,0,0-.49,0l-3-.15c-.29,0-.57-.06-.86-.07-1,0-2,0-3-.05-.59,0-1.17-.13-1.76-.18-.88-.06-1.76-.09-2.64-.15-.32,0-.65-.11-1-.14-.52-.06-1-.08-1.56-.15s-1.25-.24-1.89-.33a1.46,1.46,0,0,0-.57,0,.58.58,0,0,0-.44.81,4.74,4.74,0,0,0-.12.88,12.37,12.37,0,0,0-.08,1.93c.13,1.28.38,2.55.55,3.82.09.69.1,1.39.18,2.08s.19,1.14.29,1.71c.06.31.14.63.16.94s0,.8,0,1.19c.12,1.37.28,2.74.4,4.11.1,1.18.12,2.37.25,3.55.1,1,.32,2,.45,3a4.78,4.78,0,0,1,0,1,5.76,5.76,0,0,0-.1.9c.06.68.19,1.36.28,2a1.78,1.78,0,0,1,0,.29c0,.1,0,.21,0,.31a3.48,3.48,0,0,1,0,.53c-.1.84-.21,1.68-.33,2.51,0,.27-.13.53-.19.79-.13.56-.27,1.12-.37,1.69a6.4,6.4,0,0,1-.19,1.46c-.35.79-.77,1.24-1.77.91-.74-.24-1-.84-1.36-1.41a14,14,0,0,1-1-2,5.67,5.67,0,0,1-.51-2,17.41,17.41,0,0,1,.34-3.35,9.17,9.17,0,0,0-.24-3.31c-.09-.56-.3-1.11-.44-1.66-.05-.2-.07-.4-.12-.6-.15-.64-.35-1.26-.45-1.91s-.07-1.29-.11-1.94c0-.44-.07-.88-.07-1.31s.1-1,.08-1.55a9.36,9.36,0,0,1,.41-3,13.33,13.33,0,0,0,.41-1.8,10.13,10.13,0,0,0-.26-2.57c-.07-.67-.15-1.34-.15-2,0-.95.06-1.9.05-2.85a3,3,0,0,0-.21-1.07,1.57,1.57,0,0,1-.2-1.25,6.56,6.56,0,0,0,.2-.77,8.71,8.71,0,0,0-1.47-.23,9.72,9.72,0,0,0-2.54.05,2.05,2.05,0,0,1-.89,0c-.6-.12-1,.17-.92.76,0,.31,0,.62,0,.94s0,.62,0,.93c0,.6,0,1.2,0,1.79s-.1,1-.14,1.49,0,.86-.1,1.28-.22.92-.32,1.38-.14.92-.26,1.38-.27.7-.37,1.06a15,15,0,0,0-.38,1.68,2.94,2.94,0,0,0-.11,1.54.61.61,0,0,1-.08.39c-.17.38-.49.71-.35,1.19.06.2.18.43.13.61a5.21,5.21,0,0,1-.57,1.7,1.15,1.15,0,0,1-1.6.37.52.52,0,0,1-.14-.28q-.38-1.55-.75-3.1c-.11-.48-.21-1-.32-1.44l-.18-.8a7.17,7.17,0,0,1-.19-.88c0-.28,0-.58,0-.86,0-1.94-.08-3.88-.07-5.82a16.52,16.52,0,0,1,.24-2l.22-1.71c0-.16,0-.33.07-.49.1-.55.21-1.1.32-1.65s.29-1.33.37-2c.12-1,.21-2,.26-3a13,13,0,0,0-.07-1.9,1.27,1.27,0,0,0-.32-.65c-.16-.18-.13-.29-.06-.5.19-.59.66-1.09.56-1.78-.15-1-.26-2-.4-3-.11-.79-.24-1.58-.36-2.37-.05-.36-.28-.46-.6-.23a1,1,0,0,1-.94.15,11.08,11.08,0,0,1-1.07-.41c-.78-.37-1.56-.76-2.33-1.15-.31-.15-.64-.29-.94-.46-.64-.36-1.25-.76-1.91-1.09-.93-.47-1.88-.89-2.82-1.33l-.7-.32a16.72,16.72,0,0,1-1.91-.68c-.73-.44-1.55-.72-2.32-1.11a5.45,5.45,0,0,0-2.37-.9,1.43,1.43,0,0,1-.54-.2c-.61-.29-1.21-.6-1.82-.88-.11-.05-.27,0-.4,0,0,.16,0,.36.14.46.33.36.7.68,1.06,1l.82.79c.21.19.4.48.64.54a3.25,3.25,0,0,1,1.41.93,1.33,1.33,0,0,0,.32.23c.45.2.92.36,1.35.6.62.36,1.2.79,1.8,1.18s1,.59,1.44.91.65.94,1.32.95l0,0,2.38,1.4.7.4,1.71.94c.27.15.52.34.79.5s.45.25.66.39a8.23,8.23,0,0,0,.87.61,1.33,1.33,0,0,1,.84,1.59.76.76,0,0,1-.35.51c-.79.29-1.55.84-2.47.39-.2-.1-.52,0-.67-.15a1.82,1.82,0,0,0-1.44-.31c-.12,0-.33,0-.36-.11-.15-.34-.4-.35-.72-.32a3.94,3.94,0,0,1-.82-.05l-2.18-.24c-.4,0-.8,0-1.19-.11a2,2,0,0,1-.52-.29,1.7,1.7,0,0,0-.49-.24,15.6,15.6,0,0,1-2.68-.63c-.8-.28-1.63-.47-2.45-.69-.53-.14-1.06-.27-1.59-.39a11.92,11.92,0,0,0-1.62-.34,9.77,9.77,0,0,1-2.66-.24c-.42-.15-1.22.06-1.3.57a12.73,12.73,0,0,0-.38,2.67c.06,1.18-.05,2.36-.11,3.54,0,.78-.11,1.56-.16,2.33,0,.08,0,.17,0,.25l-.17,2.34c0,.14,0,.27,0,.41q0,.57,0,1.14c.05,1.13-.13,2.26,0,3.39a1.81,1.81,0,0,1,0,.2c0,.79-.28,1.61.25,2.35.34.47.35,1.11.92,1.49a11,11,0,0,1,1.34,1.31q.64.62,1.32,1.2a5,5,0,0,0,.63.41,4.93,4.93,0,0,1,1.73,1.35,6.4,6.4,0,0,0,.78,1,17,17,0,0,1,2.28,3,2.29,2.29,0,0,0,.88,1c.08,0,.13.17.19.26.31.52.62,1,.92,1.56a7.89,7.89,0,0,1,.53,1.05c.24.63.45,1.27.64,1.92a4.12,4.12,0,0,1,.1.76,12.53,12.53,0,0,0,.25,2.21,14.79,14.79,0,0,1,.63,2.74c0,.46.06.93.11,1.4s.12.89.18,1.34q.14,1,.28,1.94s.05.07.06.1c.11.44.22.89.34,1.33a.77.77,0,0,0,.21.42c.48.31,1,.58,1.47.86a12.22,12.22,0,0,0,1.44.84,3,3,0,0,1,1.45,1.32c.17.28.3.54.64.64a.34.34,0,0,1,.2.23c0,.47.37.56.72.69a.61.61,0,0,1,.34.32c.22.67.42,1.35.61,2a1,1,0,0,1,.08.46,2.1,2.1,0,0,1-.88,1.43,4.86,4.86,0,0,1-1.19.57,3,3,0,0,1-2.42-.52c-.4-.27-.77-.59-1.19-.83s-1.08-.58-1.63-.86c-.36-.18-.73-.35-1.1-.51l-.53-.21c-.49-.2-.86-.69-1.47-.6-.06,0-.15-.07-.21-.12l-.7-.62c-.29-.26-.61-.5-.87-.79a16.72,16.72,0,0,1-1.12-1.31,9.23,9.23,0,0,1-1-1.47,16.86,16.86,0,0,1-.76-2c-.25-.73-.45-1.47-.71-2.19a15.3,15.3,0,0,0-.66-1.4s-.1-.05-.13-.09a1,1,0,0,1-.18-.25c-.17-.39-.31-.79-.48-1.18a.34.34,0,0,0-.16-.19,1.46,1.46,0,0,1-1-.91.64.64,0,0,0-.2-.21,2.15,2.15,0,0,1-.77-1.46,2.88,2.88,0,0,0-.3-1c-.31-.57-.69-1.12-1.06-1.66s-.59-.82-.92-1.21c-.06-.08-.32-.12-.36-.07-.24.28-.46.63-.28,1a3,3,0,0,1,.2,1.49c0,.48-.1,1,0,1.43.13,1.18.38,2.35.46,3.53a23,23,0,0,1-.1,3c0,.62-.16,1.24-.23,1.86,0,.29-.11.61.22.79-.05.14-.15.27-.14.38,0,.46.13.92.18,1.38a2.71,2.71,0,0,1,0,.6c0,.13-.08.26-.09.4-.06.92-.12,1.84-.16,2.77a4.2,4.2,0,0,0,.08,1.37,1.34,1.34,0,0,1,0,.94.54.54,0,0,0,0,.16c0,1,0,1.92-.14,2.87a7.85,7.85,0,0,1-.48,1.84,3.78,3.78,0,0,1-.72,1.25,1.91,1.91,0,0,1-2,.4c-.46-.1-.29-.47-.44-.68l0,0c-.21-.43-.43-.87-.64-1.31a7.14,7.14,0,0,1-.42-1c-.1-.35-.12-.72-.19-1.08a2.83,2.83,0,0,0-.1-.31,2.47,2.47,0,0,1-.13-.47c-.08-.89-.15-1.78-.23-2.67a13,13,0,0,1-.13-1.51c0-.6.13-1.19.21-1.79a2.26,2.26,0,0,0,.09-.52c-.11-.87-.22-1.74-.36-2.6s-.31-1.48-.46-2.22a11.8,11.8,0,0,1-.4-2.23,16.66,16.66,0,0,0-.52-2.62q-.15-.93-.28-1.87c0-.28,0-.58-.09-.86-.13-.58-.29-1.15-.44-1.73a4.3,4.3,0,0,0-.14-.43c-.15-.39-.31-.78-.45-1.17-.19-.55,0-1.19-.47-1.68,0,0,0-.16,0-.24a1.19,1.19,0,0,0-.41-1.07c-.1-.08-.1-.27-.14-.42a7.8,7.8,0,0,0-.68-2.15c-.4-.6-.15-1.45-.86-1.87,0,0,0,0,0,0-.12-.45-.25-.9-.34-1.36-.06-.29,0-.59-.07-.89a2.39,2.39,0,0,0-.14-.83c-.22-.41-.55-.76-.37-1.29,0-.09-.07-.23-.12-.34a2.52,2.52,0,0,1-.17-.46,8.71,8.71,0,0,1-.18-2.42,3.22,3.22,0,0,0,0-.62c-.06-.72-.16-1.44-.18-2.17,0-1.11,0-2.23,0-3.34s-.07-2.26,0-3.38.19-2,.24-2.95c0-.75,0-1.51,0-2.26s0-1.57,0-2.35c0-1.07,0-2.14,0-3.21a5.52,5.52,0,0,1,.14-1,4.32,4.32,0,0,0,.22-.78c0-.64-.07-1.28-.09-1.92a.9.9,0,0,1,.11-.51,1.61,1.61,0,0,0,.21-1.46,10.71,10.71,0,0,1-.24-1.5.88.88,0,0,1,0-.35,3.8,3.8,0,0,0,.24-.81,1.21,1.21,0,0,1,.74-1,1.83,1.83,0,0,0,.66-.59,15,15,0,0,0,.75-1.59c.39-.9.78-1.8,1.13-2.71a7.82,7.82,0,0,0,.31-1.25c.13-.62.24-1.24.34-1.86s.12-1.05.2-1.58a3.86,3.86,0,0,1,.18-.67c.09-.25.33-.55.27-.75a3.84,3.84,0,0,1,.47-2.57,5.51,5.51,0,0,0,.53-2.05,1.89,1.89,0,0,1,.24-.68,1.79,1.79,0,0,0,.16-.32c.08-.47.16-.94.19-1.41a3.17,3.17,0,0,1,.47-1.64.59.59,0,0,0,.07-.19l.64-2.47a.66.66,0,0,0,0-.2.9.9,0,0,1,.35-.87,2.09,2.09,0,0,0,.42-.65,4.06,4.06,0,0,1,1-1.4,1.35,1.35,0,0,0,.46-.54.76.76,0,0,1,.75-.57,9.09,9.09,0,0,1,1,0,3.6,3.6,0,0,1,1.72.5c.58.4,1.22.73,1.84,1.08.25.14.54.2.77.36a7.31,7.31,0,0,1,.73.65,2.5,2.5,0,0,1,.48.44c.56.88,1.13,1.75,1.62,2.67a13.31,13.31,0,0,1,.62,1.69c.06.16.16.31.23.47a2,2,0,0,1,.18.52c.09.74.14,1.48.24,2.21a8.87,8.87,0,0,1,.28,1.9,24.13,24.13,0,0,1-.62,3.26,1,1,0,0,0,.48,1.29,17.78,17.78,0,0,1,1.74,1,29.82,29.82,0,0,0,2.83,1.51,5.4,5.4,0,0,1,.9.66c.27.23.5.5.76.75s.66.67,1,1a16.91,16.91,0,0,0,1.55,1.38c.62.45,1.33.78,2,1.2s1,.77,1.5,1.14c.85.62,1.69,1.27,2.57,1.84a18.34,18.34,0,0,1,2.42,2,13.07,13.07,0,0,1,1.24,1.58c.16.2.42.35.52.57a12.81,12.81,0,0,1,.42,1.4A2.71,2.71,0,0,0,126.23,265.27Zm-11,3.17a11.52,11.52,0,0,1-1-.69c-.62-.45-1.25-.88-1.84-1.37a7.37,7.37,0,0,0-1.85-1c-.21-.09-.35-.35-.52-.53a.41.41,0,0,0-.1-.1c-.59-.28-1.2-.53-1.78-.83a8.56,8.56,0,0,1-1-.63c-.56-.39-1.1-.79-1.65-1.19-.15-.11-.29-.24-.44-.37-.35-.3-.55-.75-1-.9-.15,0-.21-.35-.36-.43-.65-.32-.89-1.08-1.59-1.36-.23-.09-.39-.44-.51-.71a8.59,8.59,0,0,1-.44-1.23,1.52,1.52,0,0,1,1.66-1.92,3.31,3.31,0,0,0,.54,0,1.65,1.65,0,0,1,1.35.46,4,4,0,0,0,2,1,4.36,4.36,0,0,1,1,.47c.12.06.24.14.37.19,1.21.48,2.43.92,3.62,1.45a36.05,36.05,0,0,1,3.41,1.59,29.8,29.8,0,0,0,2.87,1.23c.56.25,1.1.54,1.65.82.38.2.76.41,1.15.59a.64.64,0,0,0,.4,0c.13,0,.33-.14.33-.22a.56.56,0,0,0-.19-.41c-.73-.6-1.47-1.18-2.21-1.76a.41.41,0,0,0-.13-.09,5.33,5.33,0,0,1-2.11-1.27,14.27,14.27,0,0,0-1.93-1.17,7.5,7.5,0,0,1-1.18-.92c-.51-.48-1-1-1.46-1.53l0,0c-1.1-.5-1.5-1.75-2.52-2.34-.66-.38-1.3-.79-1.94-1.19a1.74,1.74,0,0,1-.41-.24c-.45-.5-1.13-.61-1.64-1-.18-.14-.33-.4-.59-.25a1.54,1.54,0,0,0-.64.58.56.56,0,0,1-.69.41,4,4,0,0,0-.74,0,1.63,1.63,0,0,1-1.35-.88.44.44,0,0,1,.14-.37,2.7,2.7,0,0,0,.86-1.17s0-.09.06-.11c.76-.4.57-1.21.79-1.84.16-.45.39-1,0-1.46,0,0,.06-.19.12-.22.3-.14.27-.35.22-.62a5.45,5.45,0,0,1,0-.69c0-.55-.08-1.11-.17-1.66a12.17,12.17,0,0,0-.33-1.36,4.71,4.71,0,0,0-.24-.56c-.07-.16-.2-.33-.19-.49,0-.44-.27-.65-.54-.91-.09-.08-.2-.26-.17-.33.3-.63-.16-1-.4-1.5a5.17,5.17,0,0,0-2.25-1.91,4,4,0,0,1-.52-.34,1.46,1.46,0,0,0-1.7-.09c-.16.07-.26.31-.37.48a9.24,9.24,0,0,0-.55.9,6.87,6.87,0,0,0-1,2.65,3.81,3.81,0,0,1-.39,1.33,10.87,10.87,0,0,0-.7,2.64c0,.16-.08.32-.12.48a3.61,3.61,0,0,0-.16.88c0,.4-.23.79,0,1.2,0,.09-.1.31-.2.44a3.41,3.41,0,0,0-.71,2.06,5,5,0,0,1-.06.53c-.06.5-.14,1-.18,1.5-.07.8-.1,1.61-.19,2.41,0,.21-.24.39-.29.6-.14.56-.24,1.12-.37,1.68a4,4,0,0,1-.29.85c-.28.56-.6,1.09-.89,1.65-.1.19-.11.43-.23.61-.46.71-.94,1.39-1.4,2.1a2.44,2.44,0,0,0-.26.61,6.9,6.9,0,0,0-.31,1.16,9.32,9.32,0,0,0-.07,1.62,10,10,0,0,1-.14,2.37c-.14.72,0,1.51-.21,2.21a6.35,6.35,0,0,0-.18,2c0,1.66.08,3.33.09,5,0,1,0,2-.07,3,0,.43-.2.86-.21,1.29,0,.85,0,1.69.06,2.54,0,.46-.05.93-.05,1.39,0,.9,0,1.8,0,2.7,0,.71.15,1.42.23,2.13a.66.66,0,0,1,0,.17,6.6,6.6,0,0,0,.5,2.75c.15.57.25,1.15.4,1.72.1.41.25.81.36,1.22a2.18,2.18,0,0,1,.08.66,4.37,4.37,0,0,0,.48,2c.38.88.65,1.8,1,2.69.16.43.37.85.54,1.28.09.22.11.47.2.7a15.9,15.9,0,0,1,.63,2.74c.14.71.47,1.39.64,2.1.22.95.36,1.91.55,2.86s.47,2.16.71,3.24c0,.08,0,.16.06.24.17.9.36,1.8.48,2.71.09.66.07,1.34.13,2s.19,1.32.28,2a2.78,2.78,0,0,1,0,.57c-.06.89-.17,1.77-.2,2.66a9.67,9.67,0,0,0,.15,1.42s0,.09,0,.12c-.22.52.1,1,.15,1.46,0,.11.13.2.2.3.07-.1.19-.19.21-.3a16.27,16.27,0,0,0,.36-2.08,17.77,17.77,0,0,0-.12-1.8,6,6,0,0,1,.35-2.64c.13-.31-.09-.76-.14-1.15a5.7,5.7,0,0,1,0-.59c0-.18,0-.36,0-.53,0-.45.05-.9,0-1.35a7.55,7.55,0,0,0-.1-.84c0-.11-.06-.23,0-.31a3.18,3.18,0,0,0,.09-1.86.71.71,0,0,1,0-.33,6.09,6.09,0,0,0-.06-2.72c-.07-.92-.16-1.83-.23-2.75s-.14-1.58-.17-2.37a9.59,9.59,0,0,1,.07-1.18c.06-.68.12-1.36.17-2a.79.79,0,0,0-.08-.32.65.65,0,0,1,.13-.79.69.69,0,0,0,.14-.45.55.55,0,0,1,.45-.59,2,2,0,0,1,1.75.2c.64.38.8,1,1.15,1.51.05.08.07.17.12.25.21.33.41.67.63,1,.41.62.82,1.24,1.24,1.86s.65.94,1,1.4a.88.88,0,0,1,.11.18,11.64,11.64,0,0,1,.49,1.31,6.35,6.35,0,0,0,1.18,1.86,6,6,0,0,1,.94,1.4,13,13,0,0,0,1,1.8,8.84,8.84,0,0,1,.36.92c0,.11.08.23.12.34.21.48.44,1,.64,1.44.12.29.19.59.29.89a6,6,0,0,0,.25.76,4.91,4.91,0,0,0,.61,1.1,15.06,15.06,0,0,0,1.72,1.78,15.27,15.27,0,0,0,1.79,1.15c.07,0,.16.05.22.11a4.53,4.53,0,0,0,1.73.85,4.07,4.07,0,0,1,.69.42c.45.29.89.61,1.36.86a4.64,4.64,0,0,0,1,.35c.08,0,.24-.08.29-.17a.37.37,0,0,0,0-.33,11.94,11.94,0,0,0-1.92-2.27c-.29-.25-.56-.53-.86-.75s-.44-.17-.65-.29c-.4-.24-.77-.53-1.18-.74a5.89,5.89,0,0,0-1.18-.4A1,1,0,0,1,111,317a10.57,10.57,0,0,1-.68-2.12,1.46,1.46,0,0,1,0-.45,16,16,0,0,0-.22-2.57,4.09,4.09,0,0,1-.24-1.6,4.18,4.18,0,0,0-.43-2.24c0-.06-.08-.14-.06-.19a3.23,3.23,0,0,0-.26-1.49c-.07-.33,0-.69,0-1a12.45,12.45,0,0,0-.25-1.36,9.33,9.33,0,0,0-.31-1.15,1.73,1.73,0,0,0-.41-.68,2.69,2.69,0,0,1-.7-1.12,5.07,5.07,0,0,0-1-1.88,2.85,2.85,0,0,1-.86-1.36,1.84,1.84,0,0,0-.46-.66,4.17,4.17,0,0,0-.75-.81c-.59-.4-.8-1.13-1.55-1.44s-1-.93-1.57-1.41c-.31-.28-.65-.53-1-.81s-.73-.74-1.1-1.1c-.64-.64-1.32-1.25-1.9-1.94a2.88,2.88,0,0,1-1-2,24.51,24.51,0,0,0,.06-2.89,7.62,7.62,0,0,1,.23-2.61.63.63,0,0,0,0-.33,4.3,4.3,0,0,1,0-2,9.89,9.89,0,0,0,.06-1.2c0-.7,0-1.4.07-2.09a2.2,2.2,0,0,1,.21-.7,1.34,1.34,0,0,0,0-1,4,4,0,0,1-.09-1.12c0-.44,0-.88,0-1.32.05-1,.11-2,.19-3a4,4,0,0,1,.24-.69c.15-.51.28-1,.41-1.54.2-.75.79-1,1.46-1.21a2.42,2.42,0,0,1,2,.42,1.07,1.07,0,0,0,1.07,0,1,1,0,0,1,.56-.09c1,.13,2,.25,3,.43a4.59,4.59,0,0,1,1.75.52,10.89,10.89,0,0,0,1.89.94,12.89,12.89,0,0,0,1.44.32c.81.21,1.61.46,2.41.67.34.09.69.12,1,.17.82.14,1.64.28,2.47.4a1.53,1.53,0,0,0,.44-.06l0-.21C116.5,269.13,115.86,268.8,115.23,268.44Zm80.17,9.8c-.53,0-1.06,0-1.59,0l-1.28,0c-.12,0-.25.07-.36.06-.64-.09-1.27-.2-1.91-.29-.23,0-.46,0-.69,0-.57-.06-1.14-.15-1.71-.23a1.67,1.67,0,0,0-.45,0,2.68,2.68,0,0,1-1.44-.19,1.28,1.28,0,0,0-.51,0c-.15,0-.3,0-.45,0-1.39,0-2.78-.06-4.17-.07-.41,0-.82.06-1.23.09a.87.87,0,0,1-.37,0c-.48-.2-.9.09-1.35.14-.71.07-1.42.12-2.14.14s-1.32,0-2,0a.88.88,0,0,1-.55-.18c-.27-.28-.55-.22-.88-.18-.81.11-1.63.2-2.45.29l-1.5.19-1.84.23a7.34,7.34,0,0,1-1.3.12c-.81-.05-1.62-.19-2.43-.28-.5-.05-1-.09-1.51-.09s-1.14.06-1.72.06c-.75,0-1.5,0-2.25,0-.27,0-.54.09-.82.11-.67,0-1.34.07-2,.09s-1.54.08-2.31,0-1.77-.19-2.66-.28-1.9-.18-2.86-.24-1.65-.07-2.47-.12l-4-.22a7.13,7.13,0,0,1-1.23,0,22.09,22.09,0,0,0-2.41-.09c-.68-.08-1.34-.28-2-.41s-1.29-.22-1.94-.34l-.64-.14c-.26-.06-.48,0-.57.25a6.89,6.89,0,0,0-.51,1.89,2,2,0,0,0,.73,1.82,1.53,1.53,0,0,0,.74.21c.85,0,1.71,0,2.56,0,.48,0,1,.13,1.43.14.89,0,1.79,0,2.68,0,.5,0,1,.1,1.49.12.31,0,.63,0,.94,0s.9.09,1.34.16c.73.11,1.46.24,2.19.33.38,0,.76,0,1.14.05l1.06,0c.74,0,1.48.1,2.21.12s1.72,0,2.58,0a.56.56,0,0,1,.28,0,2.74,2.74,0,0,0,1.5.32c.67,0,1.34.08,2,.1s1.36,0,2,0,1.42.13,2.13.15,1.15-.06,1.72-.1a24.22,24.22,0,0,1,2.62-.16c.94,0,1.86.24,2.8.38h.21a36.23,36.23,0,0,1,4.74.35,4.5,4.5,0,0,0,2.31-.22,5.64,5.64,0,0,1,1.49-.22c.37-.07.74-.2,1.11-.27a8.81,8.81,0,0,1,1-.12l3.66-.25c1.23-.09,2.46-.2,3.69-.31a1,1,0,0,0,.82-.59,1.51,1.51,0,0,1,2.05-.59c.23.17.33.52.49.79,0,.08.08.23.14.25a4,4,0,0,0,1.56.3,7.13,7.13,0,0,1,1.54.16,13.94,13.94,0,0,0,1.56.18,15.1,15.1,0,0,0,1.71-.15c.57-.06.77-.33,1-.88a3.18,3.18,0,0,0,.34-1.75c0-.28-.1-.56-.17-1A6.43,6.43,0,0,1,195.4,278.24Zm-25.76-3.5c1-.12,2.05-.18,3.08-.22.87,0,1.75,0,2.62,0,1.07,0,2.13-.18,3.2-.23.58,0,1.17,0,1.75.05s1,0,1.56,0c.31,0,.61-.11.92-.15s.39,0,.58,0l1-.06c.4,0,.79-.1,1.19-.11.92,0,1.85-.08,2.77-.06.65,0,1.3.14,2,.16.84,0,1.67,0,2.51,0,.54,0,.7-1,.42-1.52a4.72,4.72,0,0,1-.28-1c-.13-.47-.25-.94-.4-1.4a.34.34,0,0,0-.29-.16c-.12,0-.29.18-.3.29,0,.53-.44.67-.81.78-.56.17-1.15.24-1.73.36,0,0-.1,0-.12,0-.33-.36-.7-.17-1.1-.13a30.48,30.48,0,0,1-3.21.17c-1,0-2-.1-3-.18s-2-.22-3.07-.33c-.15,0-.3,0-.45,0-1.19-.06-2.38,0-3.57.07s-2.65,0-4,0c-.54,0-1.09-.1-1.63-.1-.71,0-1.42.06-2.12.1a1.74,1.74,0,0,1-.41,0,7.06,7.06,0,0,0-2.17.08c-1.24.14-2.49.18-3.74.26-.59,0-1.18.11-1.76.11-.91,0-1.82,0-2.73-.08a10.12,10.12,0,0,0-1.3-.07c-1.22.11-2.43.32-3.66.41a20.14,20.14,0,0,1-2.4,0c-.89,0-1.78-.15-2.67-.16-1.06,0-2.12,0-3.18.08a14.77,14.77,0,0,1-4.22-.26,15.29,15.29,0,0,0-3.08-.19c-.71,0-1.42-.09-2.13-.15a2.41,2.41,0,0,0-1.76.34.59.59,0,0,1-.34.1q-.95,0-1.89-.06a1.53,1.53,0,0,0-1,.64,3.36,3.36,0,0,0-.11.53c-.06.41.08.6.49.64,1,.11,2,.2,3,.33.35,0,.68.22,1,.28.55.11,1.1.15,1.65.26,1.25.27,2.49.59,3.74.83a17.92,17.92,0,0,0,1.92.14,22.06,22.06,0,0,0,2.82.21,25.42,25.42,0,0,1,2.65.17c.81,0,1.61.2,2.41.26,1,.07,2,.1,2.93.15.52,0,1,.08,1.56.08s1.15-.07,1.73-.06a27.39,27.39,0,0,1,4.23.09,3.5,3.5,0,0,0,1,0l3.75-.49,2-.24v.09C166.92,275.12,168.28,274.9,169.64,274.73Zm18.38-7.3c-1,.11-2.1.2-3.15.29-.07,0-.15,0-.2,0a2.7,2.7,0,0,0-1.73.24,2.11,2.11,0,0,1-.66,0c-.49,0-1-.1-1.48-.09-.79,0-1.58.06-2.37.07-.53,0-1.07,0-1.6,0h-.16c-.95,0-1.9.09-2.85.06a6.76,6.76,0,0,0-2,.22c-.2.06-.45-.09-.67-.13a5.25,5.25,0,0,0-2.44,0c-.1,0-.21,0-.32,0l-1.47,0-.49,0a1.86,1.86,0,0,0-.37-.06l-2,.22-.91.08c-.56.06-1.12.15-1.68.21a8.44,8.44,0,0,1-.94,0,28.11,28.11,0,0,0-3.24-.21c-1,.1-2,0-2.93,0-.6,0-1.2.15-1.8.19a5.43,5.43,0,0,1-1.06,0,21,21,0,0,0-2.61-.33c-.89,0-1.74-.2-2.61-.24-.44,0-.88.06-1.32.07a1.49,1.49,0,0,1-.68-.1,3.58,3.58,0,0,0-1.74-.18c-.86,0-1.73-.07-2.59-.14a3.87,3.87,0,0,0-1.79,0,.64.64,0,0,1-.29,0c-.82-.09-1.63-.2-2.44-.27a3,3,0,0,0-1.74,0,.26.26,0,0,1-.2,0,3.75,3.75,0,0,0-2.14-.06c-.84.06-1.67.14-2.51.19-.29,0-.52.07-.59.38a5,5,0,0,0-.14,1c0,.08.25.24.39.25a16.68,16.68,0,0,0,1.85,0,2.76,2.76,0,0,0,1-.28.43.43,0,0,1,.52,0,1,1,0,0,0,.46.14q1,.09,2,.15l3.54.19c.24,0,.48.12.72.13l6,.18c.38,0,.77-.06,1.16,0,.68,0,1.35.11,2,.14.41,0,.83,0,1.24,0,.93,0,1.87,0,2.8,0,.59,0,1.17-.11,1.75-.14,1.16-.06,2.33-.09,3.5-.14.42,0,.85-.08,1.27-.09s1,.06,1.48,0c.84,0,1.67-.16,2.51-.2s1.74,0,2.6-.07c.67,0,1.33-.15,2-.16.87,0,1.73,0,2.6,0h2.27c.46,0,.93.05,1.39,0s1.21-.05,1.81-.06,1.08,0,1.62,0,1.12.08,1.67.11c1,.06,2,.16,3,.16a8.13,8.13,0,0,0,2.78-.1.68.68,0,0,1,.37,0,5.09,5.09,0,0,0,2.34-.06c.12,0,.26.08.39.07.86-.06,1.72-.12,2.58-.2.54-.06,1.07-.16,1.61-.25a3,3,0,0,0,.43-.15A5.19,5.19,0,0,0,188,267.44Zm-.07,18.93a3.81,3.81,0,0,1,.22,1.81c0,1,0,2.08,0,3.12,0,.31-.13.63-.16.94s0,.73-.07,1.1-.15.64-.21,1a.63.63,0,0,0,0,.38c.13.24.23.44,0,.65,0,0-.05.12-.06.19-.18,1.15-.37,2.29-.55,3.44-.11.73-.2,1.46-.32,2.19s-.27,1.34-.36,2,0,1.07-.06,1.6c0,.36-.12.72-.14,1.08a5.15,5.15,0,0,0,.09.83c.06.45.1.9.17,1.34s.18.93.27,1.39c0,.06.1.15.12.14s.26-.08.3-.17a5.28,5.28,0,0,0,.35-1c.1-.49.15-1,.22-1.5s.1-.76.17-1.14c0-.18.1-.36.14-.55s.09-.23.06-.32c-.21-.69.1-1.39,0-2.07a4.94,4.94,0,0,1,.14-1.9c.14-.82.23-1.65.3-2.47s0-1.49.09-2.22c.1-1,.28-2,.42-3,.07-.51.09-1,.18-1.55.19-1.1.41-2.2.6-3.3.12-.66.21-1.32.31-2s.23-1.38.3-2.08a2,2,0,0,0-.16-.75c0-.05-.15-.07-.24-.1s-.31-.09-.46-.16a1.11,1.11,0,0,0-1.62,1c0,.45-.1.9-.15,1.33A2.56,2.56,0,0,0,187.95,286.36Zm-50.07,10.37c0,.63,0,1.26,0,1.89a11,11,0,0,0,.23,3.19,9,9,0,0,1,.18,1.18c.07.37.18.73.26,1.1.24,1.05.49,2.11.7,3.17a5.43,5.43,0,0,1,.09,1.36,12,12,0,0,1-.17,2.75,7.58,7.58,0,0,0-.09,2.11,3.89,3.89,0,0,0,.14,1.12c.06.21.31.36.55.62.22-.85.63-1.5.41-2.29a3.62,3.62,0,0,1,.07-.88c0-.86,0-1.72,0-2.57s.1-1.6.05-2.39a21.92,21.92,0,0,0-.32-2.4,5.89,5.89,0,0,1-.16-2.12,2.39,2.39,0,0,0-.15-.82,1.33,1.33,0,0,1-.06-.31,9.63,9.63,0,0,0-.21-3.08,6.68,6.68,0,0,1-.11-1c-.1-.84-.21-1.68-.31-2.52l-.21,0A2.91,2.91,0,0,0,137.88,296.73Zm-10.65-2.82c.2-.81.39-1.63.58-2.44a3.09,3.09,0,0,0,.09-.39c.09-.87.15-1.75.25-2.62.06-.57.22-1.13.25-1.71.06-.93.05-1.86.07-2.79,0-.49,0-1,0-1.48,0-.26-.05-.51-.06-.77a3.43,3.43,0,0,1,0-.57,3.47,3.47,0,0,0-.11-1.86,1.55,1.55,0,0,0-.2-.27c-.07.11-.18.21-.2.32-.08.56-.12,1.12-.22,1.68a14.6,14.6,0,0,1-.5,2.19,8.58,8.58,0,0,0-.44,2.46c0,.76-.22,1.51-.26,2.27a1.9,1.9,0,0,1-.26,1.25.44.44,0,0,0,0,.39,4.59,4.59,0,0,1,.27,2.23,6.27,6.27,0,0,0,.57,2.43A1.36,1.36,0,0,0,127.24,293.92Zm45.46,10.47c0,.22,0,.44.29.42s.4-.2.4-.47c0-.66,0-1.31,0-2a.86.86,0,0,1,.11-.38,1.72,1.72,0,0,0-.25-1.82c-.27-.21-.46-.19-.54.15a6.51,6.51,0,0,0-.08.89h-.05C172.64,302.28,172.67,303.33,172.69,304.39Z"/></svg>