<svg id="Calque_1" data-name="Calque 1" xmlns="http://www.w3.org/2000/svg" viewBox="0 0 453.54 609.45"><defs><style>.cls-1{fill:#2a4b21;}.cls-2{font-size:35px;fill:#fdf3db;font-family:WorkSans-Regular, Work Sans;}</style></defs><title>SUFI_COM_Webst_HomeDRAWINGS+CUTS_UPDT</title><path d="M129.27,348.37a27.26,27.26,0,0,0,3.68-.51c2.76-.76,5.28-.08,7.85.86a23.92,23.92,0,0,0,5.48,1.36,48.61,48.61,0,0,0,7.46.2,44.38,44.38,0,0,0,4.76-.91c2.85-.45,5.72-.79,8.57-1.24,2.57-.4,5.12-1,7.7-1.29a68,68,0,0,1,7.33-.29,6.72,6.72,0,0,1,1.95.7,1,1,0,0,0,.47,0c0-1.2,1.06-.65,1.57-.74.35-.06.84.55,1.2.92.07.08-.11.55-.29.67a1.56,1.56,0,0,1-.85.13c-2.15-.08-4.3-.21-6.46-.27a16.84,16.84,0,0,0-2.81.13c-2.32.33-4.63.75-7,1.1-3.19.48-6.38.9-9.56,1.42-2.41.4-4.79,1.19-7.21,1.32a34.05,34.05,0,0,1-7.69-.52c-3.08-.54-6.08-1.54-9.15-2.19a10.94,10.94,0,0,0-3.1.1c-1.43.12-2.85.35-4.27.41-.26,0-.54-.6-.81-.92l1-.62Z"/><path d="M237.84,278.28c-.11,1.9-.12,1.91,1.85,2.85,2.36,1.12,3.82,3.17,5.29,5.19a12,12,0,0,1,1.15,2.31,1.31,1.31,0,0,1,0,.85c-.73,2.23-.24,4.45,0,6.67a1.15,1.15,0,0,1,.05.32c-.44,2.1,1.19,3.18,2.17,4.63,1.52,2.26,3.77,4.25,3.42,7.38-.07.65-.36,1.27-.49,1.91a2.41,2.41,0,0,0-.08,1.24,14.24,14.24,0,0,1,1.45,5.17c0,1.86-1,2.84-2.34,3.73q-3.26,2.12-6.49,4.27c-.62.41-.38.88.07,1.25a13.84,13.84,0,0,0,1.58,1.11c.08.05.44-.17.52-.33.31-.64.61-1.38,1.47-1.13s1,1,1,1.92a31.35,31.35,0,0,0,.64,4.9c.09.44.7,1.09,1.08,1.1,2.19,0,3.84,1.47,5.81,2a32.84,32.84,0,0,0,5.39,1.14c2.78.31,5.6.26,8.38.62,3.14.4,6.23,1.26,9.37,1.56a10.08,10.08,0,0,0,4.21-1.07c.25-.09.26-1.2.14-1.79-.21-1.06-.65-2.07-.91-3.13-.09-.39-.09-1.07.13-1.22.39-.27,1.16-.48,1.46-.27.61.42.64,0,.95-.28a2.2,2.2,0,0,1,1.28-.68c.36,0,.69.55,1,.84a6.13,6.13,0,0,0,.64.4,1.87,1.87,0,0,0,.17-.62c-.15-1.54.17-2.07,1.22-2a1.14,1.14,0,0,1,1.14,1.19c.06.71.3,1.4.34,2.1a4.13,4.13,0,0,1-.21,1.55c-.43,1.26.27,2.34,1.55,2.22,1-.09,2-.33,3-.5a11.26,11.26,0,0,1,7.78,1c1.45.82,2.4.88,3.5-.17,1.82-1.73,4-1.92,6.29-1.81a7.63,7.63,0,0,0,2.76-.45c.44-.15.65-.88,1.08-1.17a23.66,23.66,0,0,1,2.86-1.65,7.1,7.1,0,0,0,3.1-2.41,5.71,5.71,0,0,0,1-2.27c0-.4-.66-.93-1.1-1.31-.25-.21-.7-.16-1-.34s-1.27-.07-1-1.08a1.94,1.94,0,0,1,1.65-1.6c.49,0,.54-.08.42-.51s-.21-1-.35-1.44c-.83-2.74-1.65-5.49-2.53-8.22-.38-1.17-.73-2.4-2-3a13.28,13.28,0,0,0-2.27-1.1c-1.71-.49-2-1.9-2.32-3.29a10.11,10.11,0,0,1-.34-2.9,6.3,6.3,0,0,1,1.71-4.32.67.67,0,0,0,0-.61c-1.17-2.07-2.25-4.21-3.59-6.17a4.35,4.35,0,0,0-3.42-1.69c-.77,0-1.3-.36-1.37-1.12-.15-1.75-1.3-2.84-2.46-3.93a20,20,0,0,0-6.36-4.22,1,1,0,0,1-.37-.86,14.47,14.47,0,0,1,.53-2.1c0-.14.28-.34.35-.32s.57.25.57.39c0,1.95,1.76,2.2,2.92,3.05a23.49,23.49,0,0,1,2.94,2.59c1.09,1.12,2.07,2.35,3.07,3.55.14.17.12.46.25.64.25.34.53.88.84.92,2.25.24,3.56,1.8,4.67,3.44,1.35,2,2.46,4.14,3.62,6.25.75,1.36.53,1.68-1,1.72-.16,0-.43.08-.45.16-.31,1.43-.67,2.85-.84,4.3a3.15,3.15,0,0,0,1.1,3,8.8,8.8,0,0,0,2.79,1.55A3.78,3.78,0,0,1,321,310.9a31.46,31.46,0,0,1,1.76,6.4c.17,1.34,1.25,2.08,1.4,3.3.07.56.34,1.11.36,1.67a4.56,4.56,0,0,0,.63,3c.8,1.07-.19,3.64-1.38,5a10.19,10.19,0,0,1-4.74,2.92c-.53.16-.95.75-1.35,1.19s-.59,1.11-1,1.32a4.92,4.92,0,0,1-3.42.41,5.69,5.69,0,0,0-5.31,1.19c-1.14.87-2.38,1.94-4,1.55a23.89,23.89,0,0,1-2.32-1.11,10.44,10.44,0,0,0-5.74-.25c-1.16.24-2.32.5-3.48.69-.76.12-1.27.19-1.24,1.27a14.41,14.41,0,0,1-.74,3,4.78,4.78,0,0,0,0,1.62c.16,1.06,1,1.64,2.3,1.65,2.29,0,4.58.08,6.86,0s4.69-.37,7-.45,4.7.08,7,0c3-.13,6.07-.37,9.1-.63,2.78-.23,5.56-.6,8.34-.81s5.4.07,8-.45c3-.6,6-.46,9-.95,2.74-.45,5.52-.66,8.26-1.07,3.14-.47,6.25-1.16,9.41-1.53,2.26-.27,4.56-.15,6.85-.24,1.76-.07,3.53-.17,5.29-.33s3.79-.44,5.69-.66c2.22-.26,4.44-.59,6.68-.73,2.82-.18,5.65-.23,8.48-.29,3-.07,6.07-.16,9.1-.11,3.19.06,6.38.18,9.55.45a32.25,32.25,0,0,0,9.21-.33,11.73,11.73,0,0,1,2.28-.12c.75,0,.92.47,1,1.15s-.3.9-.87,1c-1.75.16-3.52.19-5.24.51-2.81.52-5.51-.38-8.28-.38-2.1,0-4.19,0-6.29,0-1.74,0-3.49-.13-5.23-.11-2.16,0-4.32.18-6.48.23s-4.55,0-6.82.13c-2.61.16-5.21.49-7.81.72q-6.19.54-12.39,1c-2.66.21-5.33.31-8,.56-1.56.15-3.12.46-4.66.75-2,.39-4,.92-6.08,1.23-1.7.25-3.43.26-5.14.39-1,.08-2,.21-3,.28-3.36.24-6.72.41-10.07.7-2.61.23-5.2.62-7.8.88-1.91.19-3.82.28-5.73.4s-3.88.21-5.81.3-4,.14-6.06.22c-2.7.11-5.4.26-8.09.37-.72,0-1.45,0-2.17,0l-9.84.25c-2.65.06-5.3.14-8,.16-3.55,0-7.1,0-10.65,0l-9.35,0-11.75.1c-1.39,0-2.77.08-4.16.09a3.45,3.45,0,0,1-.78-.17c-.24-.06-.56-.24-.71-.15-1.75,1.08-3.65.42-5.46.45-2.05,0-4.1-.42-6.16-.52a49.47,49.47,0,0,0-8.11,0c-1.35.16-2.59-.1-3.88,0s-2.62.49-4,0c-.42-.15-1.17.68-1.65-.24a.3.3,0,0,0-.18.05c-1.53,1.28-3.41.74-5.12.89a26.58,26.58,0,0,1-5.75-.13,16.49,16.49,0,0,0-6.86.84,2.44,2.44,0,0,1-2.79-.86c-.36-.51-1.42-.49-2.14-.77a2.43,2.43,0,0,1-1.14-.72,1.25,1.25,0,0,1,.12-1.13c.13-.19.66-.21,1-.17a55.15,55.15,0,0,1,6.86,1c1.5.39,2.86-.34,4.28,0,.73.16,1.47.28,2.19.46a5.14,5.14,0,0,0,3.35,0,6.38,6.38,0,0,1,2.37-.15c1.78,0,3.53.49,5.37.19.9-.14,1.87-.84,2.85-.19.7-.75,1.21,0,1.79.23a.3.3,0,0,0,.27,0,2.18,2.18,0,0,1,2-.73c1.5.25,1.86-.22,1.49-1.65a9.52,9.52,0,0,1-.23-2.66c0-1.34.32-2.68.29-4a5.17,5.17,0,0,0-.72-2.42c-.16-.26-1.06-.18-1.59-.1-.75.12-1.48.42-2.23.58a5,5,0,0,1-4.46-1.39,13.24,13.24,0,0,0-1.75-1.56,1.41,1.41,0,0,0-1.3.26c-.72.69-1.23,1.61-2,2.28a2.59,2.59,0,0,1-1.64.49c-.31,0-.71-.43-.9-.76-.73-1.28-1.38-2.6-2.09-3.89a22.62,22.62,0,0,1-1.2-2.14c-.16-.4-.25-1,.65-1,.41,0,.83-.31,1.25-.46s.64-.18,1-.27a10.05,10.05,0,0,1,.22,1,13.13,13.13,0,0,0,.41,3.09,2.61,2.61,0,0,0,1.73,1.15c.38.09,1-.41,1.37-.81a2.29,2.29,0,0,1,2.48-.7,6.2,6.2,0,0,1,1.89,1.35c.47.38.89.84,1.34,1.25,1.15,1,2.49.52,3.67.25a36.24,36.24,0,0,0,3.86-1.52c.33-.12.77.07,1.15.11-.17.26-.32.54-.51.79a3.86,3.86,0,0,1-.42.42c.29.28.57.77.89.8s.84-.29,1.25-.48c.09,0,.18-.22.23-.2,1.06.37,2-.49,3-.37s2,.57,2.94.61a5.91,5.91,0,0,0,2.58-.46c2-.86,3.89-1.82,5.77-2.85a14.37,14.37,0,0,0,2.65-2c.78-.71.59-1.25-.39-1.67a11.06,11.06,0,0,1-1.91-1c-.55-.38-.69-.78,0-1.35a60.61,60.61,0,0,1,7.92-5.76,9,9,0,0,0,1.79-1.37,2.1,2.1,0,0,0,.49-1.29,7.24,7.24,0,0,0-1.52-4.21,25.87,25.87,0,0,1-1.49-2.6c-.27-.53.44-1.32,1.2-1.15,1.17.25,1-.49.93-1.09a6.21,6.21,0,0,0-1.44-3.63c-1.18-1.46-2.45-2.84-3.61-4.32a3.34,3.34,0,0,1-.6-1.65c-.21-2-.34-4.1-.46-6.16a7.37,7.37,0,0,1,.06-2.39c.46-1.6-.4-2.72-1.28-3.72a27,27,0,0,0-3.46-3,7.61,7.61,0,0,0-1.8-1,2.46,2.46,0,0,1-1.48-2.55,14,14,0,0,0-.81-5.68,3.32,3.32,0,0,1-.27-.71c-.06-.34-.73-.74.08-1,.54-.19.91-.45,1.38.36C237.52,274.64,238,275.93,237.84,278.28Zm41.22,67.8v.11c1.12-.06,2.25-.09,3.36-.21.33,0,.9-.35.91-.55.06-1.44,0-2.89,0-4.34a.75.75,0,0,0-.52-.51,5.09,5.09,0,0,0-1.55.15,11.34,11.34,0,0,1-5.37-.31c-1.88-.39-3.69-1.13-5.67-.74a.77.77,0,0,1-.62-.11c-.71-.84-1.65-.6-2.52-.56a22.75,22.75,0,0,1-2.9.31,55.84,55.84,0,0,1-5.74-.79,15.81,15.81,0,0,1-2.89-1c-1.68-.67-3.23-1.59-5.12-1.77-1.59-.16-3-.87-3.31-2.77,0-.2-.2-.38-.26-.58q-.41-1.36-.79-2.72a2.45,2.45,0,0,1,0-.5,2.05,2.05,0,0,0-.51.32,9.54,9.54,0,0,1-3,2.54c-2,1-3.92,2.18-5.92,3.17a5.94,5.94,0,0,1-2.37.51c-1.26,0-2.53-.13-3.79-.11-.56,0-1,.17-1,1a47.69,47.69,0,0,1-.33,4.88c-.11,1.12-.31,2.24-.5,3.35a1.4,1.4,0,0,0,1.31,1.58c1.14.1,2.27.24,3.41.35a3.61,3.61,0,0,0,.43,0c1.54,0,3.07-.15,4.61-.1s3.2.37,4.79.33,3.46-.45,5.19-.56c2.1-.12,4.21-.08,6.31-.12,3-.07,6-.18,9-.21,2.1,0,4.2.09,6.29.08C273,346.18,276,346.12,279.05,346.08Zm-51.4-7.73.17-.08c-.15-.32-.23-.85-.45-.92-.7-.21-.43.4-.5.73,0,.12-.22.2-.26.32a1.54,1.54,0,0,0-.15.83c.08.25.4.43.61.63a6.56,6.56,0,0,0,.56-.87A1.78,1.78,0,0,0,227.66,338.35Z"/><path d="M250.43,297.91c-.44-.35-.85-.54-1-.86a1.25,1.25,0,0,1,.13-.94c.89-1.89,1.78-3.77,2.73-5.63a3,3,0,0,1,2.24-1.87,4.67,4.67,0,0,0,3.6-2.75c1.21-2.31,3.31-3.61,5.35-4.91a7.05,7.05,0,0,0,3-3.57,12.1,12.1,0,0,1,1.38-2,13.43,13.43,0,0,0,2.25-4.27c.52-2.26,2-2.87,4.21-2.07a1,1,0,0,0,.92-.35c1.68-2.76,3.73-4.94,7.23-5.13a2.76,2.76,0,0,0,.62-.18,4.07,4.07,0,0,1,4.77,2.31A26,26,0,0,1,288.9,268c.61,1.5,1.87,2,3.31,2.53a11.77,11.77,0,0,1,5.22,3.41c.17.2.16.56.23.84a2.57,2.57,0,0,1-.88-.22,20.28,20.28,0,0,0-6.6-3.12c-2-.53-2.81-2.31-3.68-4a17.23,17.23,0,0,0-1.36-2.28,1.27,1.27,0,0,0-1-.39,9.06,9.06,0,0,0-5.34,2.29,12.43,12.43,0,0,0-2.09,3.39c-.5,1-1.18,1.31-2.09.56a1.48,1.48,0,0,0-2.56,1c-.15,1.46-1.19,2.29-2,3.3a14.33,14.33,0,0,0-1.68,2.39c-.47.89-.67,1.93-1.14,2.82a3.58,3.58,0,0,1-1.21,1c-1.57,1.09-3.21,2.07-4.69,3.26a6.21,6.21,0,0,0-1.55,2.2,6,6,0,0,1-4,3.27,3.69,3.69,0,0,0-2.19,2.12c-.79,1.52-1.4,3.13-2.16,4.67C251.28,297.41,250.84,297.59,250.43,297.91Z"/><path d="M220.35,276.37c-.06.31,0,.73-.21.92a1.82,1.82,0,0,1-1.15.63,1.19,1.19,0,0,1-.71-.94,33.78,33.78,0,0,1,.77-3.93,18.09,18.09,0,0,1,.86-2.37c.43-1.06,2.56-1.28,3.62-.28a19.09,19.09,0,0,1,2,2.41c.4.52.73.7,1.13,0,.59-1,1.22-1.95,1.76-3,1.21-2.24,3.38-2.49,5-.55.19.22.51.35.61.59a5.87,5.87,0,0,1,.25,1.2c-.41,0-.88.24-1.21.09a2.92,2.92,0,0,1-1.35-1c-.56-1-.92-.55-1.3.06-.79,1.25-1.45,2.59-2.35,3.75-1.31,1.69-2.15,1.77-3.58.14a26,26,0,0,1-1.6-2.18c-.54-.77-1.16-.83-1.51,0-.57,1.38-.93,2.85-1.37,4.29Z"/><path d="M329.63,297.42c1.2.74,2.48,1.46,3.68,2.3.45.31.72.65,1.34.31a2.13,2.13,0,0,1,1.26,0c.17,0,.46.44.42.51a7.58,7.58,0,0,1-1.4,2.05c-.25.21-1.14-.08-1.57-.37-.89-.6-1.65-1.37-2.49-2.05-1.33-1.09-2-.85-2.32.8a1.42,1.42,0,0,1-.27.7,11.59,11.59,0,0,0-2.71,5,18,18,0,0,1-1.82,3.92,1.87,1.87,0,0,1-1.6.43c-.57-.11-.71-.6-.38-1.29,1.23-2.57,2.26-5.26,3.57-7.78.75-1.44,1.34-3.1,2.93-3.94C328.63,297.81,329,297.68,329.63,297.42Z"/><path d="M341.85,304.76c1.91.12,3.18,1.46,4.58,2.49.72.53.94.61,1.45-.21.61-1,1.45-1.92,2.83-1.59s2.8.79,3.24,2.46a2,2,0,0,0,.38.62c.58.78,1.2,1.53,1.73,2.34.08.12-.18.68-.3.69-.37,0-.92,0-1.11-.21-.68-.84-1.2-1.8-1.84-2.67a5.39,5.39,0,0,0-1.5-1.56c-.94-.52-1.61-.15-1.92.92-.22.73-.32,1.49-.51,2.23-.07.27-.24.74-.36.74a2,2,0,0,1-1.27-.3A17.7,17.7,0,0,1,346,309a3.86,3.86,0,0,0-2.46-1.77.32.32,0,0,1-.23-.14c-.41-.92-.74-.54-1.12,0-.14.2-.48.49-.59.44a1.81,1.81,0,0,1-.74-.68,2.34,2.34,0,0,1-.17-.84C340.52,305,340.82,304.7,341.85,304.76Z"/><path d="M371.86,320.37c-1.71-.54-3.42-1.12-5.15-1.6-1-.28-2.07-.38-3.08-.65-.34-.09-.59-.46-.89-.71.31-.18.66-.56.93-.51,1.36.25,2.79.14,4,1.06a5.56,5.56,0,0,0,2.28.55c1.61.28,3.22.51,4.83.77a25.81,25.81,0,0,1,2.76.51c.31.09.58.5.75.83.05.11-.22.51-.43.61-1.36.67-1.38,1-.93,2.45a9.2,9.2,0,0,1,.32,3.26c-.06.87-.93.47-1.44.45s-1.33-.23-1.24-1c0-.3.56-.55.87-.82s.52-.3.52-.46a9.61,9.61,0,0,0-.94-4.13c-.1-.23-.5-.39-.79-.46-.77-.17-1.57-.26-2.35-.38Z"/><path d="M235.15,322.87c-.25,1.05-.37,1.86-.63,2.63a1.26,1.26,0,0,1-2,.6,2.87,2.87,0,0,1,0-5.39,2.42,2.42,0,0,1,1.08.32,4.37,4.37,0,0,1,1.59,1.84Z"/><path d="M305.78,309.8a5.81,5.81,0,0,1,1.16-1c.13-.07.65.37.84.68.76,1.23,1.45,2.51,2.21,3.74.09.15.49.07.66.21a2.35,2.35,0,0,1,.71.84.75.75,0,0,1-.33.67,2,2,0,0,1-1-.1,1.21,1.21,0,0,1-.53-.52c-.37-.59-.56-1.58-1.52-.5a1.48,1.48,0,0,1-1-.53C306.51,312.25,306.21,311.14,305.78,309.8Z"/><path d="M256.82,324.76c-.46-.37-1.16-.66-1.32-1.13-.25-.72.34-1.12,1.08-1.31a1.36,1.36,0,0,0,1.21-1.43,1,1,0,0,1,.2-.72,3.68,3.68,0,0,1,1.28-.8c.16,0,.56.44.72.75C260.66,321.49,259,325,256.82,324.76Z"/><path d="M240.29,319.29c-.52.45-.87,1-1.33,1.07s-1.33,0-1.44-.29c-.32-.77-1.7-1.42-.54-2.52.06-.05,0-.2,0-.3l.11-1.22c.64.15,1.52.09,1.85.49A12.4,12.4,0,0,1,240.29,319.29Z"/><path d="M316.59,323.64c-.24.27-.51.82-.9.92a1.34,1.34,0,0,1-1.14-.58,15.24,15.24,0,0,1-.9-2.51,5.53,5.53,0,0,1-.28-1.32,1.44,1.44,0,0,1,.23-.95c.11-.12.59,0,.84.1C316.13,320.16,316.07,321.92,316.59,323.64Z"/><path d="M284.9,322.63c-.27.43-.46,1.1-.83,1.23a1.06,1.06,0,0,1-1.53-1c-.14-1.16-.36-2.32-.41-3.48,0-.26.51-.71.84-.76a1.2,1.2,0,0,1,1,.46C284.37,320.18,284.58,321.33,284.9,322.63Z"/><path d="M268.31,320c1.6,0,2.2.54,2.19,1.64,0,.84-.86,1.9-1.5,1.87a2.3,2.3,0,0,1-2.1-2.62C267,319.73,267.9,320,268.31,320Z"/><path d="M299.47,313c-.69.38-1.21.89-1.5.79-1.39-.52-3-.85-3.44-2.62a3,3,0,0,1,.19-1.13c.35.23.93.4,1,.69.35,1.54,1.49,1.81,2.78,2A6.4,6.4,0,0,1,299.47,313Z"/><path d="M293.74,323.47c1.24,0,1.62.46,1.3,1.58,0,0,0,.07,0,.11q-.06.63-.12,1.26c-.53-.23-1.07-.43-1.59-.7a1.09,1.09,0,0,1-.41-.49c-.2-.41-.35-.84-.52-1.26Z"/><path d="M306.3,320.79a2.69,2.69,0,0,0,.17.55c.15.25.34.48.51.72s.49.52.44.67a2,2,0,0,1-.68.78.56.56,0,0,1-.51-.16,15.83,15.83,0,0,1-.6-1.95C305.6,321.31,305.9,321.14,306.3,320.79Z"/><path d="M215.63,279.5a20,20,0,0,0,1.32-1.92,3,3,0,0,0-.4-3.49,9.29,9.29,0,0,0-3.52-2.59c-1-.41-1.9-.84-2.82-1.32-.64-.34-.59-.69.07-1,.91-.48.9-.53.78-1.63a8.52,8.52,0,0,1,0-1.68,3.83,3.83,0,0,0-1.3-3.39,12.16,12.16,0,0,0-2.34-1.58c-1-.51-1-.47-.79-1.57,0-.21.1-.42.14-.63a4.9,4.9,0,0,0-.4-2.79,3.12,3.12,0,0,0-3.35-1.92,8,8,0,0,0-1.54.23,1.77,1.77,0,0,1-2.13-.79c-.85-1.2-1.71-2.39-2.51-3.62a17.32,17.32,0,0,1-1.68-2.91,27,27,0,0,1-1.38-4.46,29.58,29.58,0,0,0-4.63-10.63,25.59,25.59,0,0,1-4.13-8.47c-.63-2.69-1.23-5.39-1.89-8.08a19,19,0,0,0-2.42-6.26,12.84,12.84,0,0,0-2.49-2.62,11.75,11.75,0,0,0-7.74-3.2,14.75,14.75,0,0,1-2.33-.11,2.42,2.42,0,0,1-2.07-2.18,20.63,20.63,0,0,1,.46-6.32c.33-1.52.78-3,1.1-4.54s.51-2.8.75-4.21.46-2.72.7-4.08a13.89,13.89,0,0,0-1.22-6.6c-.29-.72-.49-1.48-.79-2.2a27.39,27.39,0,0,0-1.59-3.54,49.46,49.46,0,0,0-7.58-9.36c-.27-.28-.59-.5-.89-.76-1.69-1.48-3.38-3-5.08-4.43-1.18-1-2.36-2-3.6-3-.61-.46-1.39-.71-2-1.13a6.23,6.23,0,0,0-6.27-.51,6.31,6.31,0,0,0-2.09,1.25c-.38.38-.64.25-.78-.33-.27-1.09-.54-2.18-.78-3.28a23.83,23.83,0,0,0-4-9.2c-.62-.83-1.33-1.59-2-2.41a9.69,9.69,0,0,0-6.42-4,10.64,10.64,0,0,1-1.23-.38,6.1,6.1,0,0,0-1.38-.28c-1.34,0-2.67.05-4,0a15.39,15.39,0,0,0-5.83,1,13.83,13.83,0,0,0-5.3,3.58,24.87,24.87,0,0,0-2.52,3.43c-.89,1.32-1.72,2.69-2.58,4s-1.85,2.8-2.74,4.21-1.77,2.86-2.65,4.3a15.11,15.11,0,0,1-1.88,2.93,14.08,14.08,0,0,0-2.28,3.42c-.17.3-.33.6-.51.9-.6,1-1.28,1.95-1.8,3-1.05,2.07-2,4.18-3,6.28-.09.19-.23.37-.34.55l-.25.4c-.06.85-.18,1.73-.24,2.59a7.36,7.36,0,0,1,.6,1.52,1.87,1.87,0,0,1,.37-.21s.21.17.22.27a7.13,7.13,0,0,0,2.16,3.76c.65.74.67.8-.25,1.3A8.65,8.65,0,0,0,85.33,182a2.09,2.09,0,0,0-.11,2.19c.47,1,.48,1-.35,1.67-.51.4-1.05.76-1.54,1.18s-1.2,1.1-1.79,1.67c-.34.34-.63.74-1.19.52-.9-.06-1.8-.1-2.7-.18a.56.56,0,0,1-.49-.24h-.08a7.15,7.15,0,0,0-5,1.8l-1.42,1.6a1.17,1.17,0,0,1-.15.26,23.3,23.3,0,0,1-2.14,2.3,2.1,2.1,0,0,1-.4.3l-.18.19c-.42.43-.82.89-1.28,1.27a14.57,14.57,0,0,0-2.29,3.12L60,205.68c-.74,1.06-1.51,2.11-2.19,3.21-1,1.58-1.84,3.22-2.77,4.82a22.43,22.43,0,0,0-2.16,5.54,45.11,45.11,0,0,1-2.63,8.25,70.23,70.23,0,0,1-3.79,6.64,29.52,29.52,0,0,0-1.87,3.4,39.74,39.74,0,0,0-1.88,5.5A19.2,19.2,0,0,0,42,248.3c0,.43,0,.87,0,1.3a8.35,8.35,0,0,1-1.2,4.32,5.82,5.82,0,0,1-.89,1.56c-1.09,1-2.3,1.81-3.46,2.7L34.08,260a3.4,3.4,0,0,0-1.29,2.59c-.14,1.86-.3,3.71-.38,5.57a1.83,1.83,0,0,1-.76,1.56c-.85.58-1.73,1.13-2.62,1.66a5.49,5.49,0,0,0-2.63,2.89,20.41,20.41,0,0,0-1.08,4.52,2.22,2.22,0,0,0,.37,1.7c.68.95,1.35,1.91,2,2.85s.72,1,0,2-1.41,2-2.08,3a11.61,11.61,0,0,0-1.89,4.37,2.34,2.34,0,0,0,1.33,2.91,2.07,2.07,0,0,0,.47.22,1.1,1.1,0,0,1,.84,1.38,10.22,10.22,0,0,1-.11,1c-.78,3.42.78,6.06,2.86,8.49a13.79,13.79,0,0,0,2.41,2c1.42,1,1.3,1.82.53,3.09a2.31,2.31,0,0,1-.73.73,2.39,2.39,0,0,0-1.1,1.83,11.49,11.49,0,0,0,0,3,12.84,12.84,0,0,1,.21,3.6,2.46,2.46,0,0,0,2.37,2.83,11.1,11.1,0,0,0,2.45-.06c2-.25,3.71,0,4.88,1.81a1.28,1.28,0,0,0,.27.28c1.13.94,2.23,1.91,3.39,2.8.57.44,1.35.62,1.89,1.08A6.89,6.89,0,0,0,50.12,331c1.3.06,2.59.2,3.88.28a1.83,1.83,0,0,0,1-.11,10.61,10.61,0,0,1,4.35-1.18c1.38-.17,1.79-1.05,1-2.16a1,1,0,0,0-1.64-.3,4.71,4.71,0,0,1-2.53.89,6.25,6.25,0,0,0-.89.16,24.76,24.76,0,0,1-6.46.26,1.75,1.75,0,0,1-.51-.1c-2.74-1.08-5.21-2.5-6.79-5.14a3,3,0,0,0-1-.93,12.77,12.77,0,0,0-1.54-.68,6.26,6.26,0,0,0-4.18-.45,4.13,4.13,0,0,1-1.16,0,.8.8,0,0,1-.85-.8c-.13-1.25-.32-2.49-.38-3.74a3.86,3.86,0,0,1,.88-2.88,18.63,18.63,0,0,0,1.69-2.74,1.87,1.87,0,0,0-.23-2.39,8.74,8.74,0,0,0-.94-.89c-1-.83-2.07-1.58-3-2.48a7.29,7.29,0,0,1-2.54-5.49,17.55,17.55,0,0,1,.34-3.23,2.22,2.22,0,0,1-.83-1.57,4.16,4.16,0,0,0-.16-.88,1.66,1.66,0,0,1-.45-.66.46.46,0,0,1-.6.34c-.53-.14-.51-.59-.37-1.06s.22-.72.35-1.08a1.83,1.83,0,0,1,.84-2,12.3,12.3,0,0,1,1.58-2.4l.11,0,.2-.36a11.46,11.46,0,0,0,1.19-4.1.57.57,0,0,1-.33-.16,35.47,35.47,0,0,1-2.21-2.87,3.36,3.36,0,0,1-.05-2.89,6.34,6.34,0,0,1,3.57-4.46,13.62,13.62,0,0,0,2-1.22,4.05,4.05,0,0,0,1.82-3c0-.34,0-.65,0-1h0l-.3-.06a26.94,26.94,0,0,1,.24-5c.21-1.39,1.39-2.11,2.49-2.8,0,0,.22.11.32.22a22.58,22.58,0,0,1,3.45-2.29,26.62,26.62,0,0,0,1.21-3.37.8.8,0,0,1,.2-.33A4.49,4.49,0,0,0,44,250.79a30,30,0,0,1,.46-6.07A20.32,20.32,0,0,1,45.87,240c1.36-2.7,3-5.28,4.53-7.87A33.21,33.21,0,0,0,54.23,223c.3-1.22.67-2.42.94-3.64a23.19,23.19,0,0,1,2-4.5,31,31,0,0,1,1.69-3.05c.64-1.07,1.44-2.06,2-3.17A83.63,83.63,0,0,1,66,200.58a2.41,2.41,0,0,1,.28-.27c.47-.51,1-1,1.4-1.53.92-1.08,1.82-2.18,2.74-3.26a1.45,1.45,0,0,1,.5-.4,20.08,20.08,0,0,0,4.83-3.24,2.57,2.57,0,0,1,1.16-.53,5.43,5.43,0,0,1,3.31.24c1.14.52,1.52.37,2.33-.64a16.09,16.09,0,0,1,1.59-1.87,26,26,0,0,1,2.55-2c1.33-.94,1.65-2.07.84-3.4-.24-.4-.28-.77,0-1.05a16.74,16.74,0,0,1,1.89-1.53,4.84,4.84,0,0,1,1.21-.45A1.8,1.8,0,0,0,91.8,178,5,5,0,0,0,89.93,176a4.63,4.63,0,0,1-1.8-3.85,10,10,0,0,1,.33-2.43,18.44,18.44,0,0,1,2-5.06c1.39-2.44,2.87-4.83,4.35-7.22.38-.62,1-1.12,1.3-1.76,1-1.84,2.06-3.66,3.18-5.45,1.31-2.07,2.83-4,4-6.14s2.55-3.9,3.85-5.84a4.72,4.72,0,0,1,.74-.89,14,14,0,0,1,9.19-3.91,2,2,0,0,0,.77-.1,5.18,5.18,0,0,1,3.3,0,3,3,0,0,0,.88.15,6.4,6.4,0,0,1,4.86,1.69,12.62,12.62,0,0,1,3.08,3.31,13,13,0,0,0,1.07,1.47,17.53,17.53,0,0,1,3.53,8.25,23.56,23.56,0,0,0,1.29,5.28,5,5,0,0,0,.8,1.31A.84.84,0,0,0,138,155a7.83,7.83,0,0,0,.94-1.07,4.47,4.47,0,0,1,3.29-1.86,7.91,7.91,0,0,1,6,2c2.85,2.64,5.77,5.21,8.81,7.63a8.48,8.48,0,0,1,1.91,2.1,15.17,15.17,0,0,0,1.77,2.23,19.06,19.06,0,0,1,4.58,7.88,22.4,22.4,0,0,0,.71,2.22,14.15,14.15,0,0,1,.62,8q-.3,1.66-.67,3.3c-.33,1.48-.71,2.94-1,4.42-.38,1.77-.77,3.55-1,5.34a9.61,9.61,0,0,0,.4,5.37,3.92,3.92,0,0,0,2.55,2.4,12.83,12.83,0,0,0,3.32.51,11.93,11.93,0,0,1,6.33,2,9.53,9.53,0,0,1,4,5.82c.61,2.35,1.19,4.7,1.7,7.07a33.22,33.22,0,0,0,4.19,10.84c.78,1.24,1.55,2.5,2.36,3.73a24.54,24.54,0,0,1,3,7.84,22,22,0,0,0,2.63,6.74c.81,1.28,1.52,2.62,2.32,3.9.51.81,1.09,1.56,1.65,2.33a1.9,1.9,0,0,1,2.11.07A9,9,0,0,1,202,257c0-.14.12-.34.19-.35a7.71,7.71,0,0,1,1.63-.24.74.74,0,0,1,.55.44,2.77,2.77,0,0,1-.39,2.67l.19.3a1.92,1.92,0,0,1,1.06,1.36,2.33,2.33,0,0,0,.06.29l0,0,0,0,.17.16,0,0,.42.28a16.82,16.82,0,0,1,1.52,1.07,2.49,2.49,0,0,1,1.35,2.44,3.27,3.27,0,0,1-.12.64.52.52,0,0,1-.18.22,10.11,10.11,0,0,1,.53,1.08c.67,1.6.8,3.32,1.56,4.89.11.23.21.46.31.69a7.77,7.77,0,0,1,3.62,1.57,1.6,1.6,0,0,1,.09,2.49l-.69.84a2.52,2.52,0,0,1-.26,1.41,4.33,4.33,0,0,0-.45,1.62q.23,1.28.4,2.58c0,.07,0,.13,0,.2l.08,0c.31.17.68.38.5.77a1.87,1.87,0,0,1-.48.58,33.81,33.81,0,0,1-1.32,8.23,1.88,1.88,0,0,1-.82,1.23,1.65,1.65,0,0,0,.06.75,2,2,0,0,1-.62,2.34c-.45.47-.93.91-1.36,1.4a24.17,24.17,0,0,1-5.11,4.75c-1.75,1.11-1.94,2.16-1.37,4.15a6.52,6.52,0,0,0,1.45,2.72,5,5,0,0,1-.09,6.12,14.09,14.09,0,0,1-5.46,3.83c-.77.29-1.54.57-2.32.8-1.36.4-2.73.79-4.11,1.12-1.13.27-2.29.47-3.43.69-2,.37-3.89.79-5.85,1.1s-3.78.44-5.67.69a53.81,53.81,0,0,1-8.8.56c-1.64-.05-3.29-.2-4.93-.22a14,14,0,0,0-3.49.23,24.06,24.06,0,0,1-4.5.53,11,11,0,0,1-3.2-.3,13.69,13.69,0,0,0-5-.38c-.21,0-.43,0-.65,0-2.62.22-5.25.43-7.87.67-1.12.1-2.23.3-3.34.35a14.18,14.18,0,0,1-2.59-.17c-1.54-.22-3.08-.47-4.6-.8-.86-.19-1-.52-.65-1.33.43-1,.92-2,1.41-2.91a22.2,22.2,0,0,0,2.26-6.87,2.45,2.45,0,0,0-.12-1.13.84.84,0,0,0-.95-.52.75.75,0,0,0-.71.64c-.06.25-.13.5-.17.76a22.81,22.81,0,0,1-1.92,5.9c-1.14,2.42-2.46,4.75-3.59,7.18a20.84,20.84,0,0,1-2.72,4.09c-.15.19-.4.45-.58.42-.81-.1-.9.46-1.09,1a2.33,2.33,0,0,1-1.23,1.57c-.34.15-.56.62-.77,1a13.89,13.89,0,0,0-.66,1.39c-.73,1.66-1.51,3.3-2.16,5s-1.23,3.42-1.74,5.16c-.55,1.91-1,3.84-1.46,5.77-.16.67-.28,1.35-.42,2s-.32,1.35-.4,2c-.27,2.41-.51,4.82-.73,7.23-.16,1.77-.35,3.54-.35,5.31,0,3.42.17,6.84.17,10.26,0,3.07-.14,6.14-.2,9.21,0,1.16,0,2.33-.05,3.49s-.22,2.06-.25,3.1c-.08,2.38-.12,4.76-.15,7.14,0,2-.07,4,0,6,.13,2.58.39,5.15.61,7.72,0,.34.14.68.18,1a10.9,10.9,0,0,1,.22,2.69,17.81,17.81,0,0,0,.17,3.35c0,.65.43,1,1.1,1.07s.89-.09,1.21-.73a2.57,2.57,0,0,0,.17-1.62,42.8,42.8,0,0,1-.93-8,6.08,6.08,0,0,0-.13-1,55,55,0,0,1-.7-5.52c-.13-4.41-.12-8.83-.13-13.24,0-1.12.13-2.24.17-3.37a47.43,47.43,0,0,1,.14-4.91,50.28,50.28,0,0,0,.1-6.48c0-3.24-.21-6.48-.34-9.72a6.42,6.42,0,0,1,0-.78c.2-2.45.36-4.91.64-7.36a28.1,28.1,0,0,1,1-6.6,2,2,0,0,0,.08-.38A62.08,62.08,0,0,1,116,343.9c.78-2.33,1.83-4.56,2.73-6.85.2-.51.47-.8,1-.76a1.39,1.39,0,0,0,1.2-.66c.35-.44.75-.84,1.08-1.29a26,26,0,0,0,3.28-4.95,16.28,16.28,0,0,1,1.09-2.06c.29-.46.55-.65,1.18-.25a4.72,4.72,0,0,0,1.79.66c1.67.24,3.35.43,5,.55a16.37,16.37,0,0,0,3.22.13c3.22-.38,6.44-.69,9.67-.95a21.19,21.19,0,0,1,3.76,0c1.42.14,2.81.49,4.23.68a6.56,6.56,0,0,0,2.06,0,35.53,35.53,0,0,1,9.95-.49,25.94,25.94,0,0,0,3.63,0c1.9-.1,3.79-.29,5.69-.38a53.17,53.17,0,0,0,8.48-1.12c2-.43,4-.95,6.06-1.4,1.22-.27,2.47-.41,3.67-.75a32.11,32.11,0,0,0,5.52-1.86,16.78,16.78,0,0,0,5.73-4.13,6.22,6.22,0,0,0,1.38-5.34,11.3,11.3,0,0,0-1.78-4.15,2.26,2.26,0,0,1,.55-3.31c.47-.38,1-.67,1.48-1.06a15.76,15.76,0,0,0,1.64-1.47c.88-.95,1.74-1.91,2.55-2.93a10.25,10.25,0,0,0,2-3.28,9.86,9.86,0,0,0,.26-5.36,3.59,3.59,0,0,1,.56-3.09c.46-.63.85-1.31,1.25-2a2.63,2.63,0,0,0-.67-3.68c-1.25-1-1.26-1.07-.26-2.33C215.28,279.88,215.48,279.71,215.63,279.5Z"/><path d="M92.5,414.66c.3-2.38.59-4.48.81-6.58.12-1.2.14-2.42.18-3.63.08-3.2.26-6.4.18-9.59a39.27,39.27,0,0,1,1-8.09,54.53,54.53,0,0,0,.65-11.11c0-.95.13-1.9.11-2.85,0-2.94-.13-5.88-.19-8.81,0-.56,0-1.13,0-1.69a33.27,33.27,0,0,0-.31-6.07,2.58,2.58,0,0,1,0-.64,24.13,24.13,0,0,0-.25-4.78c-.06-.73-.08-1.46-.14-2.19s-.14-1.37-.24-2.05a9.89,9.89,0,0,1-.29-1.92,29.59,29.59,0,0,0-.62-5.27c-.25-2.19-.61-4.38-.71-6.58q-.27-5.7-.27-11.41c0-2.33.21-4.66.42-7a13.34,13.34,0,0,1,.64-2.77c.2-.65.59-.83,1.05-.72a1,1,0,0,1,.78,1.28,29.17,29.17,0,0,0-.72,5.13,79.86,79.86,0,0,0,.16,17.34c.47,3.69.72,7.41,1,11.11q.41,5.11.71,10.22.22,3.88.3,7.78c.06,3.24.06,6.49.07,9.73,0,1.82,0,3.63,0,5.45A67.34,67.34,0,0,1,96,389.31a59.58,59.58,0,0,0-.64,9.56c0,3.11-.21,6.22-.35,9.33-.06,1.38-.2,2.76-.26,4.14,0,.6.1,1.2.09,1.81a10.16,10.16,0,0,1-.15,2.05,1.08,1.08,0,0,1-1.19.8,1.17,1.17,0,0,1-1-1.06A9.68,9.68,0,0,1,92.5,414.66Z"/><path d="M63.21,285.21a23.73,23.73,0,0,0,1.15,7.4,6.51,6.51,0,0,0,3,3.44,2.89,2.89,0,0,0,2.52.07,10,10,0,0,0,3.3-2,4.77,4.77,0,0,1,.6-.49,1.75,1.75,0,0,1,2.87,1c.28.81.44,1.67.73,2.48a5.25,5.25,0,0,0,.85,1.73,35.15,35.15,0,0,0,4.3,4.48,11.78,11.78,0,0,0,5.27,2.38,45.73,45.73,0,0,1,8.87,2.43,5,5,0,0,0,4.35-.35,29.28,29.28,0,0,1,3.21-1.39,11.71,11.71,0,0,1,5-.64,1.62,1.62,0,0,0,.63-.06,15.82,15.82,0,0,0,4.12-1.85,18.6,18.6,0,0,1,5.55-2.74c.49-.14.94-.43,1.43-.6a1,1,0,1,1,.72,1.83,29.85,29.85,0,0,0-3,1.3c-1.33.78-2.57,1.73-3.86,2.59a8.49,8.49,0,0,1-5.36,1.62,12.9,12.9,0,0,0-7.36,2,5.54,5.54,0,0,1-5.2.54,44.63,44.63,0,0,0-8.42-2.53,17.14,17.14,0,0,1-7.4-3.27c-2.42-2-4.61-4.19-5.52-7.35-.61-2.13-.7-2.14-2.42-.74a6.74,6.74,0,0,1-3.41,1.74,7.2,7.2,0,0,1-1.64-.14c-.12,0-.23-.12-.36-.14-2.55-.47-3.87-2.21-4.64-4.51a25.26,25.26,0,0,1-1-3.2c-.28-1.48-.35-3-.56-4.5-.15-1.07-.36-2.12-.55-3.18,0-.13-.12-.26-.09-.37.09-.31.14-.71.36-.89s.75-.07,1,.25a2.24,2.24,0,0,1,.47.76C63.05,283.29,63.57,284.25,63.21,285.21Z"/><path d="M102.09,331.64c-.1-2-.17-4.06-.3-6.09-.14-2.2-.38-4.39-.47-6.6a13.72,13.72,0,0,0-1.26-4.87c-.05-.12-.12-.23-.17-.35-.35-.83-.23-1.32.37-1.5a1.27,1.27,0,0,1,1.75.88,38.36,38.36,0,0,1,1.15,7c.09,1.68.35,3.35.53,5a5.87,5.87,0,0,1,.09,1.16A34.31,34.31,0,0,0,104,332a25.57,25.57,0,0,0,.39,2.69,1.3,1.3,0,0,0,1.11,1.13c1.83.32,3.6.26,4.84-1.35,2.5-3.25,5.37-6.22,7.59-9.67a40.72,40.72,0,0,0,3.82-7.06,2.8,2.8,0,0,1,.27-.59,6.56,6.56,0,0,0,1.07-2.61,1,1,0,0,1,1.33-.9,1.11,1.11,0,0,1,.71,1.36,8.24,8.24,0,0,1-.39,1.24,44.28,44.28,0,0,1-3.81,8.07c-1,1.55-1.82,3.26-3.29,4.47a1.23,1.23,0,0,0-.34.39c-.68,1.44-1.91,2.44-2.86,3.67l-2.52,3.28c-.24.31-.48.61-.75.89-1.33,1.42-3,1.52-4.8,1.3a6.66,6.66,0,0,1-1.5-.41,3.55,3.55,0,0,1-2.46-2.77c-.2-1.15-.32-2.31-.47-3.46Z"/><path d="M144.55,284a8.36,8.36,0,0,1,.33-1.33,13.37,13.37,0,0,0,.89-3.23,1.13,1.13,0,0,1,1.7-1,1.12,1.12,0,0,0,1.08,0,3.78,3.78,0,0,1,4,.12,8,8,0,0,1,4.11,6.25c.19,1.88-1,2.74-2.7,2a.65.65,0,0,0-.8.13,2.94,2.94,0,0,1-2.14.74,2,2,0,0,1-2-1,.82.82,0,0,0-1.1-.4l-.5.14C145.78,287,144.43,285.94,144.55,284Zm9.76-.66a4.38,4.38,0,0,0-2.49-2.76,4.66,4.66,0,0,0-1.9,0,.63.63,0,0,0-.44.4c0,.14.17.34.28.49s.16.07.23.12a2,2,0,0,1,.91,2.64,4.22,4.22,0,0,0-.24.73.6.6,0,0,0,.19.42.35.35,0,0,0,.35,0,6.72,6.72,0,0,0,1.13-1.19c.55-.87.5-.9,1.61-.74C154,283.44,154.1,283.39,154.31,283.33Zm-7.33.82c.62-.57,1-.92,1.41-1.31a.53.53,0,0,0,.06-.43c-.17-.09-.46-.2-.56-.12A2,2,0,0,0,147,284.15Z"/><path d="M171.59,287.95l.55-5c0-.37.15-.75.56-.77a1.56,1.56,0,0,1,.93.29,1.48,1.48,0,0,1,.58,1.38c-.05.47-.18.93-.26,1.4a15.45,15.45,0,0,0-.24,1.66c0,.32.27.51.51.25a13.45,13.45,0,0,0,1.26-1.64.69.69,0,0,0-.07-.57c-.12-.22-.37-.37-.49-.59a1.53,1.53,0,0,1,.34-2,3.21,3.21,0,0,1,3.82-.41,11.19,11.19,0,0,1,4.73,4.84,2.41,2.41,0,0,1-.69,3.24,1.38,1.38,0,0,1-1.78.18,3,3,0,0,1-.65-.42c-.38-.39-.69-.41-1.09,0a3.48,3.48,0,0,1-.86.57,1.77,1.77,0,0,1-2.45-.34l-.18-.19c-.68-.71-.7-.74-1.51-.11a1.66,1.66,0,0,1-2,.16A1.68,1.68,0,0,1,171.59,287.95Zm10.14-.7.2-.12a3.59,3.59,0,0,0-.59-1c-.82-.69-1.68-1.32-2.54-2a.82.82,0,0,0-1.07-.05,1,1,0,0,0-.36,1.15c.17.67.29,1.34.43,2s.32.66.78.34a15,15,0,0,0,1.17-1c.57-.49.91-.5,1.47,0A5.33,5.33,0,0,1,181.73,287.25Z"/><path d="M45.55,302.66c0-.69,0-1.38.05-2.07a4.49,4.49,0,0,1,.11-.9c.3-1.21,1-1.53,2.09-.89.32.19.51.32.68-.11s.48-.4.86-.31a2,2,0,0,1,1.35.93,9.58,9.58,0,0,1,.83,1.47c.9,2.34,1.76,4.69,2.63,7a3.12,3.12,0,0,1-.07,2.16c-.3.86-.84,1.05-1.61.56a6.78,6.78,0,0,1-2.39-2.84,3.74,3.74,0,0,0-.31-.71.56.56,0,0,0-.52-.11c-.19.07-.3.3-.48.42a1.76,1.76,0,0,1-2.7-.47,4,4,0,0,1-.53-1.69,21.23,21.23,0,0,1,0-2.46Zm2.26.33.26.53a2,2,0,0,0,.44-.56c0-.1-.2-.29-.32-.45Z"/><path d="M160.87,267.14c.07-.38.16-.89.28-1.39.24-1,.49-1.92.75-2.88s.69-1.2,1.62-1a1.19,1.19,0,0,0,1.2-.11.86.86,0,0,1,.82,0,3.71,3.71,0,0,1,1.12,1.2,13.32,13.32,0,0,0,3.77,4.38,14.9,14.9,0,0,1,1.79,1.85,1.58,1.58,0,0,1,.36,1.06c-.12,1-.36,1.47-1.48,1.19a7.23,7.23,0,0,1-.88-.23c-.5-.2-.94-.36-1.37.22a1.05,1.05,0,0,1-.93.26c-.89-.27-1.89-.32-2.54-1.13-.36-.45-.66-.67-1.28-.25a1.58,1.58,0,0,1-2.11-.32A3.73,3.73,0,0,1,160.87,267.14Zm3.81-3.34a14.61,14.61,0,0,0-1.16,1.7,5.28,5.28,0,0,0-.36,1.49c0,.13.12.4.21.42a.74.74,0,0,0,.56-.15c.53-.51,1-1,1.52-1.59a.39.39,0,0,0,0-.35C165.24,264.84,165,264.37,164.68,263.81Zm2.93,4.31c.08-.31,0-.58-.38-.63s-.49.26-.55.56a.67.67,0,0,0,0,.38c.11.26.23.68.41.71.47.1.28-.39.39-.63A3,3,0,0,0,167.61,268.12Z"/><path d="M88.26,208.64c1.42-.89,2.73-1.81,4.12-2.55,1-.55,1.68-.18,2.08.94.34,1,.65,2,1,2.94.88,2.45.11,4.55-1.31,6.55a3.94,3.94,0,0,1-2.49,1.7,1.83,1.83,0,0,1-2-.77c-.7-1.07-1.5-2.15-1-3.59.05-.16-.14-.57-.27-.59a1.37,1.37,0,0,1-1.27-1.1,3.13,3.13,0,0,1,.31-2.38A12.25,12.25,0,0,1,88.26,208.64Zm5.12,2.15c-.1-.41-.18-.83-.31-1.24,0-.06-.24-.13-.31-.1a.33.33,0,0,0-.11.31c.23.35.5.68.75,1a8.3,8.3,0,0,1-2.06,2.59,2.42,2.42,0,0,0-.65,1.09,1.19,1.19,0,0,0,.63,1.41c.52.26.83-.11,1.09-.43A4.39,4.39,0,0,0,93.38,210.79Z"/><path d="M132.43,277.13a3.11,3.11,0,0,0-2-2.72,2.51,2.51,0,0,0-1.26,0,1.81,1.81,0,0,1-2-1.82,1.13,1.13,0,0,1,1.34-1.06,7.28,7.28,0,0,1,6.26,5.44,5.09,5.09,0,0,1,.06,1.93,1.68,1.68,0,0,1-2.44,1.32,1.57,1.57,0,0,1-.46-.24,1.17,1.17,0,0,0-1.89.15,1.46,1.46,0,0,1-1.9.25,3.48,3.48,0,0,1-1.13-.85,1.24,1.24,0,0,0-1.43-.5,2.25,2.25,0,0,1-2.93-2.55,8.05,8.05,0,0,1,1.39-3.86c.47-.76,1-.73,1.55-.07a1.69,1.69,0,0,1,.32,2c-.26.54-.45,1.11-.78,1.94.55-.19.85-.26,1.13-.39,1.06-.47,1.47-.33,1.92.71.05.12.08.25.13.37.12.3.11.81.56.72.27-.05.48-.43.69-.68a5.71,5.71,0,0,0,.34-.55c.62-.94,1.12-1,1.93-.22A7.72,7.72,0,0,1,132.43,277.13Z"/><path d="M113.92,287.48a5.09,5.09,0,0,1-4.76,4.63,2,2,0,0,0-1.59.62,2.52,2.52,0,0,1-1.95.88,2.67,2.67,0,0,1-2.09-4.18,5.26,5.26,0,0,1,1-1.31,2.49,2.49,0,0,1,1.28-.47,2,2,0,0,0,1.37-.54,1.2,1.2,0,0,1,2.08.82c.06.38,0,.78,0,1.16s.33.63.7.39a3.79,3.79,0,0,0,1-.86,6.74,6.74,0,0,0,.85-1.45A2.41,2.41,0,0,0,112,286a.73.73,0,0,0-1-.72,3.89,3.89,0,0,0-1.4.58,1.45,1.45,0,0,1-2.4-.76,1.05,1.05,0,0,1,.49-1.32,5.14,5.14,0,0,1,4-.82,2.61,2.61,0,0,1,2,2.16A18.11,18.11,0,0,1,113.92,287.48Zm-7,2.59c-.14-.2-.18-.29-.24-.33s-.2,0-.23,0q-.32.46-.59.95a.92.92,0,0,0,.24.2C106.4,290.61,106.67,290.33,106.93,290.07Z"/><path d="M97.9,237.37a3.43,3.43,0,0,0-.7,2.34c1.49-.14,1.79.09,2.19,1.64a3.24,3.24,0,0,0,.09.38c.28.72.48,1.55,1.47,1.58a2.44,2.44,0,0,0,2.22-1.33,1.11,1.11,0,0,0,.16-.49c0-.28.09-.69-.05-.81a.92.92,0,0,0-.82,0c-.45.23-.86.29-1.16-.11a3.23,3.23,0,0,1-.68-1.33c0-.22.43-.7.73-.76a8.65,8.65,0,0,1,2.42-.18,1.75,1.75,0,0,1,1.51,1.58,4.69,4.69,0,0,1-3.4,5.49,3.6,3.6,0,0,1-3.32-1.09c-.58-.54-.6-.55-1.19-.07a1.54,1.54,0,0,1-1.68.31,1.71,1.71,0,0,1-1.07-1.5,26.26,26.26,0,0,1,1.29-7c.91-1.74,1.82-1.83,2.94-.25.4.56.73,1.17,1.08,1.77a1.44,1.44,0,0,1,.16.35c.14.5.36,1.15-.1,1.45s-.76-.38-1.06-.69A14.17,14.17,0,0,1,97.9,237.37Z"/><path d="M98.76,269.37a8.58,8.58,0,0,1,.23-1.15,1.06,1.06,0,0,1,1.13-.67,1,1,0,0,1,.85.87.7.7,0,0,1,0,.26c-.3,1.51-.29,3.1-1.18,4.44a2.45,2.45,0,0,1-3.55,1,5.36,5.36,0,0,1-.54-.36c-.71-.46-.72-.46-1.33,0l-.7.57a2.07,2.07,0,0,1-3.07-1c-.4-1.24.12-4.63,1-5.57a3.51,3.51,0,0,1,2.78-1.17,7.34,7.34,0,0,1,1.79.23,2.67,2.67,0,0,1,1,.75C97.69,268.11,98.14,268.67,98.76,269.37Zm-6.18,2.46c1.21-.48,1.51-1.56,2-2.49-.13-.07-.34-.22-.37-.19a11.26,11.26,0,0,0-1.37,1.51A3.37,3.37,0,0,0,92.58,271.83Zm4.24-.92c0,.81.21,1.2.61,1.1a.91.91,0,0,0,.54-.56c.09-.36-.51-1.1-.79-1S96.87,270.84,96.81,270.91Z"/><path d="M66.4,260.57c-.26,1.4-.49,2.85-.8,4.28A1.69,1.69,0,0,1,64,266.34a3.15,3.15,0,0,0-.91.43,18.09,18.09,0,0,1-2.45,1.14,3.15,3.15,0,0,1-3.86-2.51,4.05,4.05,0,0,1,.83-3.41c.4-.44.68-1,1.09-1.42a1.45,1.45,0,0,1,2.26-.24.67.67,0,0,0,1,0c.57-.53,1.15-1,1.68-1.61a1.49,1.49,0,0,1,2.53.57A8.08,8.08,0,0,1,66.4,260.57ZM59,264.75a.91.91,0,0,0,1,1.12,2.81,2.81,0,0,0,1.21-.41,7.72,7.72,0,0,0,2.33-2.71c.07-.12,0-.32,0-.49-.18.05-.41.06-.53.17-.63.58-1.24,1.19-1.85,1.78a1,1,0,0,1-1.28.11C59.29,264,59.06,264.11,59,264.75Z"/><path d="M66.13,314.8A2.79,2.79,0,0,0,66.5,317a1.08,1.08,0,0,0,1.76.31,13.49,13.49,0,0,0,1.62-1.85.8.8,0,0,0,0-.71c-.38-.68-.81-1.33-1.25-2a1.11,1.11,0,0,0-.58-.46c-1.48-.31-1.79-1.64-2.33-2.72a.87.87,0,0,1,.92-1.2,1.8,1.8,0,0,1,1.11.54A32.36,32.36,0,0,1,72.14,315a5.7,5.7,0,0,1,.61,2.22c.07,1.58-.92,2.36-2.49,2.17a3.7,3.7,0,0,0-1.26,0,4,4,0,0,1-5.17-3.28,8.71,8.71,0,0,1,.13-4.24,3,3,0,0,1,.27-.72.94.94,0,0,1,1.54-.24,3.81,3.81,0,0,1,.82,1.28,5,5,0,0,0,1.52,2.22,2.34,2.34,0,0,1,.63.8,1.82,1.82,0,0,1,0,.72,1.82,1.82,0,0,1-.71,0C67.42,315.6,66.82,315.21,66.13,314.8Z"/><path d="M199.35,299a2.47,2.47,0,0,1-4.25,1.65c-.67-.65-.68-.63-1.46-.16a2.2,2.2,0,0,1-2.56.05,2.14,2.14,0,0,1-1-2.35,12,12,0,0,1,2.25-5,1,1,0,0,1,1.59-.2,2.17,2.17,0,0,0,1.4.47,3.05,3.05,0,0,1,1.78.64A5.61,5.61,0,0,1,199.35,299Zm-6.75-.8a4.7,4.7,0,0,0,2-2.62c0-.09,0-.31-.11-.33s-.37,0-.44,0A8.11,8.11,0,0,0,192.6,298.19Zm4.34-1.47-.4,0c0,.58,0,1.15,0,1.73,0,.12.26.35.31.33s.44-.26.42-.37C197.19,297.85,197.06,297.28,196.95,296.72Z"/><path d="M187.19,256.39a2.17,2.17,0,0,1-1.74,2.33,3.18,3.18,0,0,1-3.3-1l-.44-.48a.51.51,0,0,0-.77-.09,2.1,2.1,0,0,1-2.69-.16,3.14,3.14,0,0,1-1.08-2c-.14-1.16-.31-2.31-.42-3.47a4.17,4.17,0,0,1,.09-1.28c.12-.52.46-.67,1-.53a1.57,1.57,0,0,1,1.13,1.56c.06.91.09,1.81.13,2.72a4.86,4.86,0,0,0,.07.77c0,.11.16.27.24.26s.37-.07.43-.18a10.09,10.09,0,0,0,.67-1.67c0-.18-.22-.44-.35-.66a1,1,0,0,1,0-1.21,1.11,1.11,0,0,1,1.42-.16c1.17.64,2.36,1.26,3.5,2A3.94,3.94,0,0,1,187.19,256.39Zm-2.43-.27c0-.7-1.3-1.72-1.87-1.58-.12,0-.3.28-.28.34a8.33,8.33,0,0,0,.85,1.66c.12.17.63.14.92.06S184.67,256.24,184.75,256.13Z"/><path d="M125.45,214.87c.09-.41.18-.83.27-1.24.16-.73.42-1,1-1s.8.38.89,1.08a1.11,1.11,0,0,1,0,.13c0,.46-.2,1,.31,1.3a6.42,6.42,0,0,0,1.58.49,1.73,1.73,0,0,0,.77-.06c.68-.18,1-.33.58-1.17s-.63-2.1-1.69-2.66c-.69-.36-1.44-.59-2.13-.94a14.64,14.64,0,0,1-1.66-1,1.66,1.66,0,0,1-.49-.59c-.19-.35-.35-.74,0-1.07s.63,0,.93.12c1,.53,2.07,1.08,3.13,1.55a15.52,15.52,0,0,1,3.53,2.14,4.49,4.49,0,0,1,1.59,2.61,4.25,4.25,0,0,1-.1,1.9c-.18.67-.58.77-1.36.72a3.28,3.28,0,0,0-1.39.18,4.54,4.54,0,0,1-3.53-.13c-.55-.21-1-.41-1.54.1a.79.79,0,0,1-.69,0,3.28,3.28,0,0,1-2.1-3.87c.06-.38.07-.77.1-1.15.05-.56.33-.88.75-.87a.84.84,0,0,1,.81.72,5.25,5.25,0,0,1,0,1C125.07,213.79,124.92,214.36,125.45,214.87Z"/><path d="M79,271.24a4.44,4.44,0,0,1-.35,1,8,8,0,0,1-4,3.3,1.48,1.48,0,0,1-1.69-.22.67.67,0,0,0-1,0,6.14,6.14,0,0,1-.87.55,1.65,1.65,0,0,1-2-.1,1.81,1.81,0,0,1-.82-2.13c.38-1,.78-2.1,1.26-3.1a3.2,3.2,0,0,1,2-1.69,1.37,1.37,0,0,1,1.91.79,2.89,2.89,0,0,0,.83,1.27c.46.37.36.93.38,1.44s.34.73.76.43A9.13,9.13,0,0,0,77,271.36c.55-.67.24-1.5-.6-2.06a2.83,2.83,0,0,1-.88-.86.88.88,0,0,1,.13-.82,1,1,0,0,1,.81-.12A3.84,3.84,0,0,1,79,271.24Zm-6.27-.06c-.08-.08-.19-.27-.32-.29a.72.72,0,0,0-.57.16c-.41.61-.77,1.25-1.12,1.89a1.62,1.62,0,0,0-.06.59c.24,0,.58,0,.69-.14.49-.6.91-1.25,1.34-1.89C72.78,271.45,72.75,271.34,72.77,271.18Z"/><path d="M94,292A7.44,7.44,0,0,1,92,296.68a2.37,2.37,0,0,1-3.3.13,2.09,2.09,0,0,1-.46-.45c-.31-.45-.6-.43-1.08-.18a1.7,1.7,0,0,1-2.46-.86,1.11,1.11,0,0,1,0-.85c1-1.5,2-3,3.14-4.44a4.8,4.8,0,0,1,3.79-1.64,1.83,1.83,0,0,1,1.52.86A4.87,4.87,0,0,1,94,292Zm-1.94,0a4.41,4.41,0,0,0-.06-.57c-.09-.37-.41-.56-.67-.34a3,3,0,0,1-2.1.76c-.71,0-.86.68-.45,1.3a13,13,0,0,1,.71,1.35c.25.49.71.7,1,.34A5.65,5.65,0,0,0,92.1,292Z"/><path d="M173.85,313.79c.68-.39,1.3-.78,1.94-1.11a1.43,1.43,0,0,1,2.1.55,3,3,0,0,1,.45,2.2,8.31,8.31,0,0,1-2.06,4.22,3,3,0,0,1-2.52,1,1.38,1.38,0,0,1-1.33-1.37,2.25,2.25,0,0,0-2.07-2.39c-.92-.22-1.16-.87-1-1.83a4.63,4.63,0,0,1,2.46-3,1,1,0,0,1,1.34.44A14.07,14.07,0,0,1,173.85,313.79Zm.46,4.06.19.39c.18-.09.43-.13.53-.27a7.89,7.89,0,0,0,.84-1.44.86.86,0,0,0-.13-.79,3.68,3.68,0,0,0-1.06-.4,5.17,5.17,0,0,0-.24.81C174.38,316.65,174.36,317.17,174.31,317.84Z"/><path d="M165.49,306.07c-1.48,0-3.28-.9-5.18-1.41-.71-.19-1.42-.37-2.13-.54a2.53,2.53,0,0,1-1.57-.82,1,1,0,0,1,0-1.32c.28-.43.64-.33,1-.2,1.72.55,3.45,1.08,5.17,1.64a7.37,7.37,0,0,0,7.33-1c1.21-1.15,2.72-1.83,4-2.86.2-.16.4-.33.61-.48.64-.46,1.29-.32,1.52.45a4.92,4.92,0,0,1,.1,1.78.66.66,0,0,1-.84.6,5.84,5.84,0,0,0-2.5.52,1.44,1.44,0,0,0-.54.34c-.67.6-1.34,1.19-2,1.81C169.22,305.8,167.73,306.19,165.49,306.07Z"/><path d="M133.75,254.37c.14-.89.26-1.79.42-2.67a3.32,3.32,0,0,1,.38-1.09c.34-.56.9-.52,1.2.07a1.55,1.55,0,0,1,.18.74c-.06,1.42-.15,2.84-.22,4.26,0,.75-.06,1.56-.85,1.89a2,2,0,0,1-2.11-.67,17.27,17.27,0,0,1-1.52-1.81,10.25,10.25,0,0,0-.87.7c-.31.3-.54.71-1.08.47s-1.11-.55-1.15-1.26a6.08,6.08,0,0,1,.07-1.42c.23-1.32.51-2.63.78-3.94a7.84,7.84,0,0,1,.3-1.13,1,1,0,0,1,1.79-.28,2.09,2.09,0,0,1,.25,1.86c-.19.9-.18.92.61,1.36a2.23,2.23,0,0,1,1,1.42c.16.52.35,1,.53,1.56Z"/><path d="M148.8,313.23c.05.64.3.79.69.86.85.16,1.07.39,1.1,1s-.37,1.32-1,1.29c-1.24-.06-1.73.69-2.28,1.56a2.77,2.77,0,0,1-2.28,1.31,1.63,1.63,0,0,1-1.84-1.58,5,5,0,0,1,.64-2.61,18.51,18.51,0,0,1,1.23-2.28,8.58,8.58,0,0,1,1-1.31,2.11,2.11,0,0,1,2-.67,5.78,5.78,0,0,1,3.66,2,2.73,2.73,0,0,1,.29.81c-.31.1-.64.32-.93.27C150.37,313.75,149.65,313.48,148.8,313.23Z"/><path d="M206.31,282a1.67,1.67,0,0,0,.17-.22c.55-1.09,1.1-1.17,1.79-.15a3.77,3.77,0,0,1,.34,3.59,5.84,5.84,0,0,1-1.06,1.62,1.94,1.94,0,0,1-3,0c-.66-.7-.67-.7-1.52-.28-1.06.51-1.74.23-2-.89a2.72,2.72,0,0,1,0-1.4c.42-1.22.94-2.4,1.43-3.6a1.22,1.22,0,0,1,1.31-.85,1.06,1.06,0,0,1,1,1,.83.83,0,0,0,.63.73A6.84,6.84,0,0,1,206.31,282Zm.52,1.08-.25,0,.06,1h.17Z"/><path d="M160.19,247.34a8.08,8.08,0,0,1-.73,1.61c-.74,1-1,.92-1.83.42-.18-.11-.4-.18-.58-.29a1,1,0,0,0-1.29.12c-1.64,1.22-3.3.54-3.75-1.48a7,7,0,0,1,.59-4.91c.17-.33.38-.65.77-.54a1.27,1.27,0,0,1,.77.59,2.69,2.69,0,0,1,.1,1.24c-.09.86-.28,1.7-.37,2.56,0,.2.18.43.27.65.17-.11.41-.19.5-.35a6.54,6.54,0,0,0,.7-1.49,11.45,11.45,0,0,0,.17-1.67c.12-1.1.86-1.46,1.81-.89a1.68,1.68,0,0,1,.4.33c.56.65,1.14,1.3,1.67,2A4,4,0,0,1,160.19,247.34Zm-2.14-.63-.47-.44c-.08.12-.26.27-.23.36s.22.29.34.44Z"/><path d="M205.25,269.56A8.71,8.71,0,0,0,204,267.3a1,1,0,0,0-1.45.25c-.21.26-.31.62-.5.9a9,9,0,0,1-.88,1.1c-.13.13-.37.16-.55.23,0-.23-.19-.49-.12-.67.18-.48.47-.91.7-1.38a1.12,1.12,0,0,0-.31-1.5,1,1,0,0,0-1.41,0,2.62,2.62,0,0,0-.71,1,21.57,21.57,0,0,0-.61,2.1,3.3,3.3,0,0,0-.08.49c-.07,2.36,1.31,3.3,3,2.62a1.24,1.24,0,0,1,1.2.24,2.16,2.16,0,0,0,2.66-.09,5.65,5.65,0,0,0,.91-1C205.65,270.94,205.49,270.25,205.25,269.56Z"/><path d="M76.7,338.91a4.1,4.1,0,0,0-.89.11,7.09,7.09,0,0,1-4-.15c-1.18-.25-2.39-.36-3.57-.61a9.87,9.87,0,0,1-4.07-1.56,5,5,0,0,1-2-3.36c-.17-1.28-.15-2.58-.2-3.88a1.64,1.64,0,0,1,.1-.63c.14-.38.44-.4.73-.18a2,2,0,0,1,.64,1.5c.11,1.07.23,2.15.37,3.22.24,1.89,1.56,2.73,3.23,3.07,1.82.37,3.68.55,5.5.87a12.64,12.64,0,0,0,3.21-.25c.43,0,.86-.11,1.29-.12a.91.91,0,0,1,1,.71,1.63,1.63,0,0,1-.27,1.18c-.17.21-.68.15-1,.21Z"/><path d="M143.31,301.86c-1.08,0-2.17,0-3.25-.09a6.06,6.06,0,0,1-1.89-.4,3.18,3.18,0,0,1-1.13-1,.74.74,0,0,1,.07-1.06,1.24,1.24,0,0,1,.94-.19c2.46.69,5,.49,7.48.61a7.31,7.31,0,0,1,1.54.15,1,1,0,0,1,.7,1.33c-.13.63-.4.84-1.11.81s-1.12-.1-1.68-.13-1.13,0-1.69,0Z"/><path d="M195.59,260.52a.57.57,0,0,1-.59.54,1,1,0,0,1-1-1,.94.94,0,0,1,.78-.88C195.21,259.2,195.6,259.78,195.59,260.52Z"/><path d="M203.76,266.72a6.6,6.6,0,0,0,.6,4.1,4.5,4.5,0,0,0,3.75,2.27,2.52,2.52,0,0,0,2.5-2.5,2.56,2.56,0,0,0-2.5-2.5.83.83,0,0,1,.69.39l-.12-.19q.15.41,0-.08c0,.39,0-.42,0-.41,0-.37,0-.73.09-1.09a2.51,2.51,0,0,0-2.5-2.5,2.57,2.57,0,0,0-2.5,2.5Z"/><path d="M208.87,268.9c-.2-.06-.27-.32-.33-.53a7.73,7.73,0,0,1,0-1.18c0-.36.22-.52-.08-.22,2.25-2.3-1.28-5.84-3.54-3.54-1.5,1.54-1.63,4-1.24,6a5.48,5.48,0,0,0,3.86,4.3c3.1.88,4.43-3.95,1.33-4.82Z"/><path d="M209.44,283.42c-2.5,2.27-2,6.62-2,9.68,0,3.22,5,3.22,5,0,0-1.32,0-2.64.1-4,0-.67-.07-1.7.47-2.19,2.38-2.17-1.16-5.7-3.54-3.54Z"/><path d="M213.24,279.72c.12.15.24.23.07,0,.39.46,0-.11.07.2s-.06-.06,0-.15,0-.13,0,0,0,.18,0-.05.06-.17-.05,0l.19-.34-.15.2q.26-.24,0-.06c-.31.1.19-.09.24-.11a2.5,2.5,0,1,0-2.52-4.32,5.08,5.08,0,0,0-2.59,3.44,5.32,5.32,0,0,0,1.18,4.62,2.52,2.52,0,0,0,3.54,0,2.56,2.56,0,0,0,0-3.54Z"/><path d="M194.17,255.78a5.71,5.71,0,0,0,5.46,1.26,2.5,2.5,0,1,0-1.33-4.82l-.35.1q.55-.05.13,0h-.18q-.42,0,.13,0c-.08-.13-.75-.05-.09,0-.17,0-.75-.54-.24-.1a2.5,2.5,0,1,0-3.54,3.54Z"/><path d="M199.62,257.81l-.19.88a2.54,2.54,0,0,0,1.15,2.82l.55.24a2.74,2.74,0,0,0,1.93.25,2.55,2.55,0,0,0,1.49-1.15c.57-1.08.39-2.87-.9-3.42l-.55-.24,1.15,2.82.19-.88a2.5,2.5,0,0,0-4.82-1.33Z"/><path d="M98.08,412.67c2.76-16,5.1-31.87,4.31-48.14-.8-16.48-3.81-32.75-6.82-48.94-.59-3.16-5.41-1.82-4.82,1.33,2.93,15.76,5.87,31.57,6.64,47.61.77,15.83-1.45,31.26-4.13,46.81-.54,3.15,4.27,4.5,4.82,1.33Z"/><path d="M94.81,360.26c-.87,4.55-.38,8.77.32,13.3a44.63,44.63,0,0,1-.51,17.58c-2.27,10.15-2.25,20.26-2.49,30.61-.07,3.22,4.93,3.22,5,0,.24-10.57.47-20.61,2.69-31a40,40,0,0,0,1-12.68c-.58-5.53-2.26-10.92-1.2-16.51.6-3.14-4.22-4.49-4.82-1.33Z"/><path d="M116.32,336.5c-10.37,13.72-8.74,31.91-9.55,48.22-.16,3.22,4.84,3.21,5,0,.77-15.41-.92-32.75,8.87-45.69,1.94-2.57-2.4-5.06-4.32-2.52Z"/><path d="M101.46,348.49a327.42,327.42,0,0,1-2.16,86c-.5,3.15,4.32,4.5,4.82,1.33a332.23,332.23,0,0,0,2.34-87.33c-.34-3.17-5.34-3.2-5,0Z"/><path class="cls-1" d="M418.63,370.85a7.92,7.92,0,0,1,1.26,1.74,4.19,4.19,0,0,1,.58,1.58,4.85,4.85,0,0,1-.2,1.69,16.68,16.68,0,0,1-.58,2s-.47,1.32-1,2.42c-6.94,14.06-21.43,22.48-21.43,22.48l-3.31,1.81-12.86,6.36-10.55,4.68-16.22,6-.91.45-7.5,3.17-14.06,4.92-10.57,3.64c-6.12,1.9-12.24,3.77-18.34,5.72-6.81,2.17-13.59,4.42-20.38,6.64l-19.15,6.69-8.49,2.3-10.71,2.23-15.71,3.17c-6.94,1.4-13.92,2.62-20.8,4.25-7.14,1.7-14.15,3.93-21.28,5.7q-13,3.21-26.07,6c-9.83,2.09-19.65,4.43-29.6,5.7-6.4.82-13-.17-19.54-.21-7.77-.05-15.55,0-23.32.06l-7.47-1c-1-.42-6-1.43-8.05-3.14a37.35,37.35,0,0,1-5.17-5.31,4,4,0,0,1-.38-3.59c-.1-2.73-.25-5.46-.3-8.19a51,51,0,0,0-5.24-22.76c-1.45-2.15-2.56-4.65-4.4-6.39a63.31,63.31,0,0,1-18.09-30.06,44.45,44.45,0,0,1-1.61-11.27,48.29,48.29,0,0,1,.51-7.06,23.77,23.77,0,0,1,.59-3.3c.88-3.21,2.48-6.37,3.57-9.56a31,31,0,0,1,18.26-14.65c3.46-.44,7.09-.79,10.87-1a159.22,159.22,0,0,1,32.7,1.51c2,.77,5,1.83,8.71,2.83,14.46,3.93,25.92,2.92,37,2.9,11.9,0,23.8-.29,35.7-.53q26.42-.54,52.84-1.22c9.26-.24,18.56-.25,27.77-1.11,12.16-1.13,24.26-3,36.38-4.54,8.19-1.07,16.38-2.22,24.57-3.33l19.34-4c4.71-.44,9.41-1,14.13-1.29,12.35-.64,24.72-.9,37.06-1.75,6.86-.47,13.65-1.81,20.48-2.75,3.51.92,8.07-2.19,10.52,2.75v.24c-5,10.68-13.68,17.42-24,21.22a46.5,46.5,0,0,1,14.42,5.06Z"/><text class="cls-2" transform="translate(155.37 419.66)">linden</text></svg>