<svg id="Calque_1" data-name="Calque 1" xmlns="http://www.w3.org/2000/svg" viewBox="0 0 453.54 609.45"><title>SUFI_COM_Webst_HomeDRAWINGS_UPDT</title><path d="M432.84,338.82a13,13,0,0,0-1.12-1.45c-2-2.17-3.77-4.57-6-6.55-.39-.35-.73-.75-1.09-1.12a.91.91,0,0,1-.31-.72c-.53-.52-1-1.07-1.53-1.62-.32-.36-.64-.71-1-1.05l-.46-.44h0a4.84,4.84,0,0,1-.81-.77,1,1,0,0,1-.63-.26c-.46-.4-.89-.83-1.32-1.27a1.87,1.87,0,0,0-1.39-.64,50.35,50.35,0,0,0-5.49.22,24.73,24.73,0,0,1-4.69.21c-2.18-.13-4.36-.19-6.54-.31a6.93,6.93,0,0,1-1.8-.28,7.06,7.06,0,0,0-3.1-.19,20.39,20.39,0,0,1-2.34.16c-3.05,0-6.1-.07-9.15-.08a19.8,19.8,0,0,0-4.7.1,2.43,2.43,0,0,1-1.3,0c-1.93-.68-4-.38-5.95-.84a4.56,4.56,0,0,0-2.84.14,1.5,1.5,0,0,0-1,1.1c-.2,1-.31,2.07-.54,3.09a11.15,11.15,0,0,0-.17,4.42,36.06,36.06,0,0,1,.24,7.32,23.94,23.94,0,0,0,0,3.14,54.37,54.37,0,0,1,.55,6.25,4.06,4.06,0,0,0,3.49,4,10.47,10.47,0,0,0,2.34.21c1.48-.05,3-.2,4.44-.32,2.26-.19,4.52-.51,6.78-.57,4.54-.12,9.08-.15,13.61-.11,2.18,0,4.35.24,6.53.41,1.13.09,2.25.3,3.37.37,1.57.1,3.14.13,4.71.18a29.43,29.43,0,0,0,5.49-.15,9.15,9.15,0,0,1,1.83,0,1,1,0,0,1,1,.73,15.63,15.63,0,0,1,2.41-.63.77.77,0,0,1,.45-.74,3.08,3.08,0,0,0,1.48-3.11c-.07-1.83,0-3.66,0-5.49a.66.66,0,0,1,.68-.65c.35,0,.7,0,1,0,1,0,1.93,0,2.88,0a3.64,3.64,0,0,0,1.46-.5A1.36,1.36,0,0,0,432.84,338.82ZM381,347.34a2.77,2.77,0,0,1-.93.45,17,17,0,0,1-6.43.59,4.87,4.87,0,0,1-1-.31,1.18,1.18,0,0,1-.9-1.15,28.41,28.41,0,0,0-.73-5.4,28.06,28.06,0,0,1-.1-3.63h.1c0-1,.05-1.91.09-2.86,0-.36.12-.78.51-.78a1.37,1.37,0,0,1,.85.51,3.9,3.9,0,0,1,.66,1.12c.88,2.24,2.61,3.87,4.14,5.63a6.45,6.45,0,0,0,3.4,2.3,1.58,1.58,0,0,1,1.25,1.5A2.18,2.18,0,0,1,381,347.34Zm27.48.54a33.84,33.84,0,0,1-3.92-.16,79.12,79.12,0,0,0-8.33-.26c-3.14-.11-6.28-.13-9.43-.2-.92,0-1.17-.31-1.29-1.3,0-.35-.07-.7-.08-1a1,1,0,0,1,.85-1.14A20.77,20.77,0,0,1,392,343c2.36,0,4.71,0,7.07,0,0,0,0,0,0,0l6.55-.06a8.12,8.12,0,0,1,1.3.07,1,1,0,0,1,.67.34,11.48,11.48,0,0,1,1.6,3.82C409.29,347.76,409.21,347.89,408.53,347.88Zm14.54-1.25c-.09.78-.38,1.13-1.11,1.21-1.82.2-3.63.37-5.45.54-3.24,0-3.1.06-4.57-3.16a7.11,7.11,0,0,1-.35-1.25c-.26-1.06,0-1.4,1.16-1.41s2.44,0,3.66,0a16.07,16.07,0,0,0,2.85-.19c3.31-.51,3.72.18,3.88,3.44A4.62,4.62,0,0,1,423.07,346.63Zm4.19-8.25a21.27,21.27,0,0,1-4.4.6,26.91,26.91,0,0,0-5.2.52,13.33,13.33,0,0,1-2.86.18,67.87,67.87,0,0,0-7.05.16,56.56,56.56,0,0,1-7.32.08c-3.67-.2-7.31.24-11,.18a17.36,17.36,0,0,0-2.32.35,2.13,2.13,0,0,1-2.29-.88,1.61,1.61,0,0,0-.36-.38,1.68,1.68,0,0,0-2.16,0,1,1,0,0,0-.19.18c-.9,1.18-1.43.93-2.38.13a12.84,12.84,0,0,1-3.93-5.44c-.82-2.2-1.86-4.32-2.78-6.48a11,11,0,0,1-.51-1.73.71.71,0,0,1,.6-.73c.43,0,.87,0,1.3,0l8.11.25a111.32,111.32,0,0,0,11.24,0c2.69-.15,5.4,0,8.1.12,1.74.07,3.47.35,5.2.47a28,28,0,0,0,7-.19,3,3,0,0,1,2.86.83c3,2.84,6.12,5.45,9,8.39a24.07,24.07,0,0,1,1.87,2.17C428.32,337.72,428.08,338.21,427.26,338.38Z"/><path d="M439.09,385a1.5,1.5,0,0,0-.62-.78,7.69,7.69,0,0,1-2.38-1.54c-1.62-2-3.37-4-5-6a1.53,1.53,0,0,1-.4-.92c0-.28,0-.56,0-.84a3.28,3.28,0,0,1-.77-.67q-1.56,0-3.12.14a3.35,3.35,0,0,1-1.67.83,23.89,23.89,0,0,1-4.42.34,57.56,57.56,0,0,1-11.72-1c-2.43-.4-4.79-.89-7.24-.26a5.12,5.12,0,0,1-1.3.06,114.53,114.53,0,0,1-13.33-.6,15.4,15.4,0,0,0-5.73,0c-.33.08-.7,0-1,.07a3.07,3.07,0,0,1-2.87-.91,4.17,4.17,0,0,0-.78-.67,1.15,1.15,0,0,0-1.24,0,1.18,1.18,0,0,0-.54,1.12,3.09,3.09,0,0,0,.17,1,6.88,6.88,0,0,1,0,4.37c-.36,1.53-.77,3-1.11,4.57a16.24,16.24,0,0,0-.37,5.47,52,52,0,0,1,.26,7.84,5,5,0,0,0,.77,2.73,2.4,2.4,0,0,0,2.11,1.33,12.6,12.6,0,0,0,2.6-.11,12.32,12.32,0,0,1,2.86-.19c1.22,0,2.44.11,3.67.11a6.92,6.92,0,0,1,3.54.76,2.05,2.05,0,0,0,2,.08,7.76,7.76,0,0,1,3.84-.6c1.4,0,2.8,0,4.19.11a18.56,18.56,0,0,1,3.38.31A54.44,54.44,0,0,0,414,402.47c1.31,0,2.62-.08,3.93,0A37.12,37.12,0,0,0,427,401.4a2.4,2.4,0,0,0,1.66-1.16,11,11,0,0,0,1.8-5.13c.08-1.74.36-3.47-.26-5.18-.18-.49.06-.82.65-.9,1.75-.24,3.28-1.15,4.95-1.63.83-.24,1.66-.53,2.47-.82A1.73,1.73,0,0,0,439.09,385Zm-52,6.77c-.19,1.29-.2,2.6-.3,3.91a1.6,1.6,0,0,1-1.6,1.71,22.87,22.87,0,0,1-2.35,0c-.52,0-1,0-1.57,0v0c-1,0-1.92.05-2.87,0a1.27,1.27,0,0,1-1.3-1.34c0-.09,0-.17,0-.26-.14-2.43-.25-4.87-.45-7.3a24.83,24.83,0,0,1,.45-6.5,9.94,9.94,0,0,1,.79-2.2,1,1,0,0,1,1.56-.18,6.78,6.78,0,0,1,.51.6c2.05,2.71,4.07,5.44,6.16,8.11A4.15,4.15,0,0,1,387.08,391.79Zm17.16,5.78a.79.79,0,0,1-.55.44,4,4,0,0,1-1.3-.06,23.21,23.21,0,0,0-6.48-.26,33.12,33.12,0,0,1-3.64,0c-1.26-.07-1.63-.5-1.71-1.82a11.55,11.55,0,0,1,.05-2.08,24.08,24.08,0,0,0,.31-4.93.64.64,0,0,1,.62-.7c1.21-.08,2.43-.11,3.64-.15a37,37,0,0,1,6.7,1,2,2,0,0,1,1.83,1.9c.22,1.81.53,3.6.75,5.41A3,3,0,0,1,404.23,397.57Zm23.44-3.68c-.28,1.28-.73,2.51-1.1,3.77a1.46,1.46,0,0,1-1.32,1.1c-2.34.28-4.67.58-7,.77a17.39,17.39,0,0,1-2.87-.24,17.89,17.89,0,0,1-4.95-.29,2.38,2.38,0,0,1-2.09-1.71,6.3,6.3,0,0,1-.33-1c-.28-1.63-.58-3.27-.79-4.91-.13-1.06.35-1.27,1.18-1.29,1,0,2.09,0,3.13,0,.7,0,1.4.06,2.09,0,4.27-.22,8.54-.46,12.8-.69a.89.89,0,0,1,1,.61A6.62,6.62,0,0,1,427.67,393.89Zm5.56-8.69a11,11,0,0,1-4.54,1,4.57,4.57,0,0,0-1.3,0,39.33,39.33,0,0,1-7.56.4c-.87,0-1.74.06-2.61.13a48,48,0,0,1-13.53-.61c-2.39-.47-4.8-.88-7.21-1.21a20.66,20.66,0,0,0-6.78,0,3.65,3.65,0,0,1-3.68-1.32c-.06-.06-.15-.11-.19-.17-1.36-2-2.7-4-4.25-5.92a.72.72,0,0,1,.2-.63,5.85,5.85,0,0,1,1.77-.32c3,.09,5.91.25,8.87.38v.13l8.1.25a6.76,6.76,0,0,0,1.31,0c3-.5,5.91.12,8.83.49a52.61,52.61,0,0,0,6.24.57,87,87,0,0,0,9.93-.13,2.39,2.39,0,0,1,2.16.7c1.55,1.77,3,3.58,4.54,5.39A.6.6,0,0,1,433.23,385.2Z"/><path d="M135.75,393.87c0,2.18.42,4.34.16,6.54a6.93,6.93,0,0,0,.22,1.55c.16,1.3.28,2.6.46,3.9a3.71,3.71,0,0,1-.89,3.17,2.85,2.85,0,0,0-.69,2.42c.2,1.82.44,3.64.68,5.45.07.53.51.83,1.15.85,1.4,0,2.8,0,4.19.12,2,.14,4,.36,6,.55.45,0,.94-.36.85-.78-.36-1.69.13-3.29.38-4.92a12.93,12.93,0,0,0,.16-3.12c-.17-1.88-1-2.67-2.89-2.69a19.43,19.43,0,0,1-3.37-.34,2,2,0,0,1-1.49-1.33.77.77,0,0,1,.23-.93,2.24,2.24,0,0,1,1.71-.5c1,0,2.09.1,3.13.06a1.16,1.16,0,0,0,1.16-1.19,18.32,18.32,0,0,0-.43-5.46,1.49,1.49,0,0,0-1.51-1.21c-.87,0-1.74,0-2.62,0a1.59,1.59,0,0,1-1.37-1.06,1.05,1.05,0,0,1,.72-1.61c1.12-.19,2.25-.31,3.37-.49.87-.14,1.34-.64,1.18-1.41a35.8,35.8,0,0,1-.48-5.2,1,1,0,0,0-1.06-1c-1.83.12-3.65.28-5.48.45-1,.09-2.08.28-3.12.33a2.09,2.09,0,0,1-1.93-1.14,1.29,1.29,0,0,1,.06-1.48c.27-.39.76-.73,1.1-.51,1.75,1.09,3.57.39,5.35.27s3.28-.42,4.91-.62a5.57,5.57,0,0,1,1.31-.08c2.54.29,5.05-.17,7.58-.21a51.31,51.31,0,0,1,6.27.15,25.17,25.17,0,0,0,5-.05c2.52-.23,5-.47,7.56-.71a15.75,15.75,0,0,1,5.21.05,3.62,3.62,0,0,0,1,0,71.52,71.52,0,0,0,8.85-.62,22,22,0,0,1,5.2.1,1.42,1.42,0,0,1,1.29,1.14c.11.42.24.84.31,1.27.41,2.41.8,4.82,1.2,7.23,0,.17,0,.35.08.52.15.74.46,1.29,1.33,1.37a7.36,7.36,0,0,1,1.53.34,2.3,2.3,0,0,1,1.33,1.19,1.09,1.09,0,0,1-.59,1.5,8.42,8.42,0,0,1-1,.18c-1.29.17-1.67.46-1.78,1.82s-.13,3-.14,4.43c0,.5.27.68.83.73a17.33,17.33,0,0,1,1.8.21,2.93,2.93,0,0,1,.93.44,1.43,1.43,0,0,1,.78,1.52,1.49,1.49,0,0,1-1.26,1.19,20.07,20.07,0,0,1-2.34,0,1.23,1.23,0,0,0-1.34,1,11.85,11.85,0,0,0-.36,3.63,22.48,22.48,0,0,1-.16,4.44,2.68,2.68,0,0,1-2.2,2.59c-3,.76-6.08,1.54-9.15,2.18a23.4,23.4,0,0,1-5.47.41,25.76,25.76,0,0,0-5.47.38,47,47,0,0,1-7,.59,69.49,69.49,0,0,0-9.12.82,19.49,19.49,0,0,1-7.79-.39,49.84,49.84,0,0,0-9.87-1c-2.25-.08-4.54.09-6.74-.62a1.58,1.58,0,0,1-1.12-1.59,1.37,1.37,0,0,1,0-.26c.52-2.43.16-4.87.06-7.3a2.57,2.57,0,0,1,.85-2.34,1.56,1.56,0,0,0,.59-1.1,12.7,12.7,0,0,0,.21-2.86c-.29-3.3-.55-6.61-.73-9.92a51.3,51.3,0,0,1,.05-5.23c.07-1.45.84-2.91,1.24-2.63a3.21,3.21,0,0,1,1.07,2.57C135.55,391.08,135.63,392.48,135.75,393.87Zm34.55,24.94v-.25c1-.09,2.08-.16,3.12-.27.54-.06.88-.44.7-.86a15.22,15.22,0,0,1-.72-4.1c-.18-1.38-.31-2.76-.53-4.14s-.69-1.86-2.08-1.78a28,28,0,0,1-5.22-.06,10.59,10.59,0,0,0-2.09,0,56.33,56.33,0,0,1-7.81.28,19.08,19.08,0,0,0-3.12.23,1.13,1.13,0,0,0-1.09,1.23,39.82,39.82,0,0,1,0,4.42,3.07,3.07,0,0,0,.44,2.22,1.53,1.53,0,0,1,0,1.93,6.48,6.48,0,0,0-.42.66.76.76,0,0,0,.7,1.23c2.07.08,4.16.59,6.18-.32a3.57,3.57,0,0,1,1.28-.21c1.91-.09,3.82-.17,5.74-.22C167,418.8,168.65,418.82,170.3,418.81Zm-17.71-34.25v.15l-1.3.11c-.61.06-1.21.13-1.81.21a.6.6,0,0,0-.42.79c.22.57.48,1.12.69,1.69a1.07,1.07,0,0,1,.07.74c-.62,1.1-.26,2.22-.1,3.32.13.9.46,1.23,1.35,1.32,2.08.2,4.16.36,6.24.51,1.47.11,2.94.2,4.41.25,2.52.08,5,.13,7.57.19.7,0,1.39,0,2.09,0,1-.06,1.32-.33,1.38-1.22q.26-3.64.4-7.29c0-.89-.42-1.26-1.31-1.2a41.44,41.44,0,0,0-4.42.44,28.63,28.63,0,0,1-7.79.22C157.28,384.56,154.93,384.62,152.58,384.56Zm14.63,20.21,2.57-.22c2.77-.2,2.82-.56,2.9-2.95,0-1.13.08-2.27,0-3.4a1.35,1.35,0,0,0-1.36-1.32l-.26,0c-2.52-.13-5-.28-7.57-.39-2.17-.09-4.35-.25-6.53-.13-.86,0-1.74-.12-2.61-.14-1,0-2.09-.06-3.13,0a1.44,1.44,0,0,0-1.34,1.64c.17,1.65.35,3.29.61,4.93.22,1.42.66,1.8,2,2a2.93,2.93,0,0,0,.52,0c2.26-.11,4.52.38,6.79,0a6,6,0,0,1,1.83,0A30.68,30.68,0,0,0,167.21,404.77Zm20-10.47v-.18l3.39-.29c.43,0,.87-.1,1.3-.18.93-.18,1.45-.67,1.38-1.61a29.45,29.45,0,0,0-.68-5.43c-.74-2.71-.43-2.9-3.72-2.85-3.83.06-7.65.51-11.5.35-.81,0-1.15.34-1.16,1.08,0,1.92-.09,3.83-.1,5.75a14.08,14.08,0,0,0,.18,2.08,1.28,1.28,0,0,0,1,1.06,3.07,3.07,0,0,0,.76.17Zm-3.84,23.34a32.55,32.55,0,0,0,7.59-1.88c.33-.1.62-.31.95-.44a1.89,1.89,0,0,0,1.23-1.57,18.67,18.67,0,0,0-.11-6,1.24,1.24,0,0,0-1.32-1c-.7,0-1.39.06-2.09.1-4.09.26-8.16.83-12.27.59a.84.84,0,0,0-.51.09,2,2,0,0,0-.71.68,2.89,2.89,0,0,0-.1,1,17.18,17.18,0,0,0,.85,5.41c.26.9-.08,2.15.81,2.65a6.77,6.77,0,0,0,2.8.44C181.43,417.76,182.39,417.67,183.35,417.64Zm2.2-13.5c1.57-.13,3.14-.24,4.7-.41a20.55,20.55,0,0,0,2.57-.49,1.55,1.55,0,0,0,1.24-1.5c.07-.87.14-1.74.18-2.61a1.71,1.71,0,0,0-1.85-2c-.87,0-1.74.13-2.61.18s-1.92.12-2.88.1c-2.44-.05-4.88-.17-7.32-.22a17.53,17.53,0,0,0-2.35.15,1.21,1.21,0,0,0-1.17,1.2c-.07,1.48-.1,3-.05,4.44,0,1.09.39,1.35,1.45,1.44A32.5,32.5,0,0,0,185.55,404.13Z"/><path d="M270.85,371.45a26.63,26.63,0,0,1-7.28-.64,10.78,10.78,0,0,0-2.59-.37,45.36,45.36,0,0,1-6-.64,10.42,10.42,0,0,0-2.6.12c-1.39.12-2.78.27-4.17.42a7.14,7.14,0,0,0-1.8.27,4,4,0,0,1-3.06-.11,8.33,8.33,0,0,0-2.82-.47c-2.61-.1-5.23-.16-7.84-.4a20,20,0,0,0-6.24.24,7.32,7.32,0,0,1-3.62-.19,1.91,1.91,0,0,1-1.43-1.39,9.16,9.16,0,0,1-.34-2.32,20.83,20.83,0,0,0-.46-5.45,9.72,9.72,0,0,1,0-3.65,10.5,10.5,0,0,0-.07-3.12,15.78,15.78,0,0,1,.11-5.47c.66-3.6,1.23-7.23,2.21-10.77q.28-1,.55-2c.55-2.1.66-2.23,2.76-2.43a34.73,34.73,0,0,0,3.85-.72,10.45,10.45,0,0,1,4.16-.07,26.5,26.5,0,0,0,5.21.4,20.17,20.17,0,0,1,2.35.12,42.53,42.53,0,0,0,13.52-.62,15.81,15.81,0,0,1,3.12-.25,44.81,44.81,0,0,0,8.08-.65c1-.2,2.08-.2,3.12-.32.86-.1,1.72-.25,2.58-.36,1-.13,2.07-.27,3.12-.35a2.49,2.49,0,0,1,2.66,1.71,12.1,12.1,0,0,1,.69,2.78c.14,1,.11,2.09.15,3.14,0,.52,0,1,0,1.57.18,1.87.52,2.12,2.29,1.82.77-.13,1.55-.23,2.33-.32a2.59,2.59,0,0,1,.78,0c.68.14,1.53,1.1,1.4,1.7s-.71.92-1.36,1c-1.37.22-2.74.48-4.11.7a1.17,1.17,0,0,0-1.07,1,11.72,11.72,0,0,0-.41,3.37c.1,2.53.22,5.06.32,7.58a8.5,8.5,0,0,1,0,2.09,15.61,15.61,0,0,0,.46,7.47c.18.67.34,1.35.45,2a1.83,1.83,0,0,1-1.34,2.22c-1,.31-2,.65-3,.91a9.9,9.9,0,0,1-1.8.26C272.77,371.4,271.81,371.41,270.85,371.45Zm-34.94-29.3c1.07,0,2-.06,3-.12a1.21,1.21,0,0,0,1.14-.93,14.47,14.47,0,0,0,.47-4.66c0-.19-.28-.42-.48-.55a1.42,1.42,0,0,0-.74-.24c-2.18,0-4.32-.37-6.49-.48a19.38,19.38,0,0,0-5.4.87,1.87,1.87,0,0,0-1,.77,4.62,4.62,0,0,0-.57,1.44,94.27,94.27,0,0,0-2,10.23,16.59,16.59,0,0,0,.51,7,1.14,1.14,0,0,0,1.33,1c2.44,0,4.87,0,7.31,0,1.57,0,3.13.08,4.7.1a16.85,16.85,0,0,0,2.08-.08,1.21,1.21,0,0,0,1.15-1.21,16.17,16.17,0,0,0-.35-4.94c-.26-1.28-.49-2.57-.69-3.86s-.26-1.41-1.64-1.45a14.67,14.67,0,0,0-1.83,0c-1.73.16-3.47.34-5.19.55a3.58,3.58,0,0,1-2.05-.08,1,1,0,0,1-.64-1,1.87,1.87,0,0,1,.41-.9,1.32,1.32,0,0,1,.67-.37A20.49,20.49,0,0,1,235.91,342.15Zm7.76,8.42h.07c.12,1.65.22,3.3.35,5a1,1,0,0,0,1,1c2.27.1,4.53.25,6.8.28,2,0,4-.08,6-.16a1,1,0,0,0,1.06-1,34.07,34.07,0,0,0,.74-6.75c0-.7,0-1.4-.11-2.09a1.25,1.25,0,0,0-.94-1.12,10.84,10.84,0,0,0-3.37-.35c-1.4,0-2.79,0-4.19-.09-2.18-.11-4.35-.27-6.53-.39a1.12,1.12,0,0,0-1.28,1.29C243.41,347.61,243.56,349.09,243.68,350.57Zm31.81.28h.06c-.05-1.31-.1-2.61-.15-3.92s-.39-1.77-2-1.65a2.64,2.64,0,0,0-.52.06,23.3,23.3,0,0,1-7.26.43,11.88,11.88,0,0,0-1.55,0,1.18,1.18,0,0,0-1,1,5,5,0,0,0-.08.52c-.22,2.42-.44,4.85-.64,7.27a9.59,9.59,0,0,0,0,1.3,1,1,0,0,0,1,1,34.05,34.05,0,0,0,3.91-.08,45.18,45.18,0,0,1,6.24-.37,10.31,10.31,0,0,0,1,0c.75-.05,1.14-.39,1.14-1.13C275.63,353.8,275.55,352.33,275.49,350.85ZM238.29,367v-.11l2.61.07c.58,0,.91-.36,1-1a22.29,22.29,0,0,0-.4-4.16c-.21-2.41-.85-2.21-2.6-2.52a9.63,9.63,0,0,0-1.31-.07c-1.57-.06-3.14-.13-4.71-.17a30.2,30.2,0,0,0-8.33.64c-.56.14-.8.46-.59.92a5.72,5.72,0,0,1,.35,3.84,3.45,3.45,0,0,0,0,1,1.27,1.27,0,0,0,1.18,1.2,15.15,15.15,0,0,0,1.83,0,57.77,57.77,0,0,1,8.9.17C236.9,366.94,237.6,366.95,238.29,367Zm37.57-2.68c0-.61,0-1.31-.08-2-.2-2.28-.78-2.83-3.13-2.9a17.91,17.91,0,0,0-2.34.09,37.89,37.89,0,0,1-6.49.3,5.57,5.57,0,0,0-1,.07.93.93,0,0,0-.77.91c.19,1.72-.07,3.47.37,5.18.32,1.27.65,1.73,1.83,1.84a58,58,0,0,0,7.77.63,9.1,9.1,0,0,0,3-.64c.9-.35,1.15-.82,1.06-1.85C276,365.43,275.94,364.91,275.86,364.31Zm-27.85-28,0-.2c-1,0-1.91.06-2.87.12a1.05,1.05,0,0,0-1.09.93c-.16,1.29-.26,2.59-.32,3.89a.87.87,0,0,0,.79.9c.94.14,1.89.25,2.85.34.78.07,1.56.09,2.34.13l3.64.24c.86.06,1.73.17,2.59.19,1,0,2.08,0,3.12-.06a.91.91,0,0,0,.84-.87,26.8,26.8,0,0,0,.44-5.19c-.1-1.05-.41-1.4-1.43-1.49a31.43,31.43,0,0,0-6.24.45C251.11,335.85,249.56,336.08,248,336.29ZM275.53,338h0c0-1,0-1.93-.12-2.87s-.68-1.46-1.81-1.45c-3.24,0-6.41.76-9.62,1a.7.7,0,0,0-.62.72c-.05.78-.15,1.55-.15,2.33,0,1.39,0,2.79.09,4.18a.71.71,0,0,0,.64.71,18.09,18.09,0,0,0,3.37.37c2.35-.15,4.69-.47,7-.76a1.33,1.33,0,0,0,1.29-1.4C275.65,339.9,275.57,338.94,275.53,338Zm-27.41,21.2v.11c-.69,0-1.39,0-2.08.09-1.06.08-1.48.51-1.34,1.48.21,1.46.43,2.92.76,4.36.4,1.75.74,2,2.45,2a7,7,0,0,0,1.55-.14,24.75,24.75,0,0,1,8-.23c.81.11,1.26-.28,1.44-1.13a14.9,14.9,0,0,0-.33-5.16,1.22,1.22,0,0,0-1.1-1,17.49,17.49,0,0,0-2.08-.09c-1.13,0-2.26,0-3.39-.06C250.71,359.4,249.41,359.28,248.12,359.18Z"/><path d="M132,361.81a15.45,15.45,0,0,1,0-1.83c.41-3.48.08-7,.18-10.45a4.53,4.53,0,0,1,0-.78,22.5,22.5,0,0,0-.15-8.32,17.3,17.3,0,0,1,0-6.5,12.62,12.62,0,0,0,0-2.34,1.84,1.84,0,0,1,1.64-2c.6-.11,1.21-.14,1.82-.21a3.38,3.38,0,0,0,1.29-.18c2-1.17,3.94-.42,5.85,0a43.5,43.5,0,0,0,7,.9c2.35.09,4.69.33,7,.63a17.68,17.68,0,0,0,3.38.19q4.3-.27,8.6-.44c1.31-.05,2.62-.06,3.92,0a25.13,25.13,0,0,0,7.8-.43,3.82,3.82,0,0,1,1-.06,24.4,24.4,0,0,0,6.47-.79,2.62,2.62,0,0,1,.76-.16,1.69,1.69,0,0,1,1.7,1c.83,2.79,2.64,5.1,3.76,7.74a12.36,12.36,0,0,1,.5,1.21,39.11,39.11,0,0,0,3.74,8.6,8.23,8.23,0,0,1,.65,1.43,1.44,1.44,0,0,1-1,2c-1.1.26-2.22.43-3.34.63a1.28,1.28,0,0,0-1.22,1.14,3.37,3.37,0,0,0-.1,1.29,9.17,9.17,0,0,1,.15,3.63c.51,1.48,0,2.94-.12,4.4-.21,3.07-1.48,4.56-4.5,5.32a10.86,10.86,0,0,1-3.37.29,23.31,23.31,0,0,0-4.95.27,53.8,53.8,0,0,1-7.57.42c-2,0-4,.1-6,.08-1.57,0-3.14-.17-4.71-.22s-3.12-.16-4.7-.14a46.81,46.81,0,0,1-6.51-.49,36.12,36.12,0,0,0-7.56-.3,25.43,25.43,0,0,0-4.93.53,10.35,10.35,0,0,1-2.34.25,3.82,3.82,0,0,1-4-3.65c0-.87,0-1.74,0-2.61Zm50.39-12.54v.12l10.73-.19a5.66,5.66,0,0,0,.78-.09,1,1,0,0,0,.78-1.16,4.34,4.34,0,0,0-.17-.76q-1.66-4.27-3.33-8.52a3.62,3.62,0,0,0-.49-.92,14,14,0,0,1-1.57-3,17.37,17.37,0,0,0-1.17-2,1.41,1.41,0,0,0-1.35-.63c-1,.06-1.91.17-2.87.25s-1.73.18-2.6.23c-1.39.08-2.79.14-4.18.18a34.76,34.76,0,0,1-3.66,0,75.86,75.86,0,0,0-12,.22,23.94,23.94,0,0,1-3.38-.12c-.78,0-1.56-.14-2.34-.21a12.77,12.77,0,0,1-2.08-.18c-3.92-1-8-.78-11.94-1.43-2-.34-4,.3-5.92.77a.8.8,0,0,0-.48.54c-.25,1.9-.45,3.8-.66,5.7a1.06,1.06,0,0,0,0,.26c.26,1.81.51,3.62.78,5.43a3.15,3.15,0,0,0,.25.73q.51,1.2,1,2.39a1.28,1.28,0,0,0,1.19.87c1,0,2.09,0,3.14,0,2.61.06,5.23.12,7.84.22,1,0,2.08.25,3.12.3,1.74.07,3.51-.08,5.23.15,2.27.31,4.53.16,6.79.28.61,0,1.22,0,1.83,0,2.61.17,5.21.44,7.82.52C176.46,349.35,179.43,349.27,182.39,349.27ZM135,356.77c0,1.86,0,3.6,0,5.35a4,4,0,0,0,.67,2.22,1.79,1.79,0,0,0,1.74.94c1.91-.12,3.83-.23,5.74-.27a16.36,16.36,0,0,1,3.91.12c1.82.41,3.65.08,5.46.35,1.15.17,1.71-.42,1.76-1.71.07-2,.17-4,.05-6s-.48-3.8-.74-5.7a1.21,1.21,0,0,0-1-1,95,95,0,0,0-9.88-.85l-5.22.38c-.52,0-1,.06-1.56.13a1.34,1.34,0,0,0-1.14,1.25c0,.26,0,.52,0,.78C134.83,354.1,134.9,355.49,135,356.77Zm27.46-5.87V351h-2.88c-.79,0-1.57,0-2.36.07s-1.12.47-.94,1.44c.11.6.22,1.2.31,1.8a40.79,40.79,0,0,1,.44,7.31,18.88,18.88,0,0,0,.21,3.13,1.3,1.3,0,0,0,1.42,1.24c1.66.05,3.32.07,5,.1a13,13,0,0,1,2.87.13c1.68.43,3.29,0,4.93-.12a1.28,1.28,0,0,0,1.21-1.17c.39-1.88.83-3.75,1.17-5.64s.6-3.78.82-5.69-.09-2-2-2.21a11.83,11.83,0,0,0-1.3.05c-.87,0-1.74,0-2.61-.1Zm20.85.8v.09c-.44,0-.87-.09-1.31-.1-1.57,0-3.14-.1-4.71-.09a1,1,0,0,0-1.09,1.16,34.54,34.54,0,0,1-.37,8.87,15.77,15.77,0,0,0,.07,3.39c0,.61.42.87,1.06.92a19.17,19.17,0,0,0,3.38-.29,56.45,56.45,0,0,1,7-.56,2.67,2.67,0,0,0,3.05-2.29,10.58,10.58,0,0,0,.4-2c.07-1.48.11-3,0-4.45a26,26,0,0,0-.42-3.37,1.27,1.27,0,0,0-1.39-1.26c-.69,0-1.39,0-2.09,0Z"/><path d="M446,419.67c0-.14,0-.28,0-.42a4.41,4.41,0,0,1-.18-1.9l0-.29c-.45-.15-.48-.76-.6-1.63a42.43,42.43,0,0,1-.27-8.3,43.53,43.53,0,0,0-.18-8.32c-.27-2-.46-4.08-.62-6.13-.25-3.28-.43-6.56-.68-9.84q-.23-3.07-.59-6.13c-.3-2.55-.81-5.09-.94-7.65-.21-4.23-1.05-8.37-1.53-12.56a19.8,19.8,0,0,0-.65-3.32c-1-3.28-1-6.7-1.49-10a34.17,34.17,0,0,1-.45-7.05,13.74,13.74,0,0,0-.17-2.15c-.18-1.93-.44-3.85-.56-5.79s-.49-4-.45-6.09c.05-2.66-.34-5.33-.54-8-.08-1.12-.34-2.23.37-3.3a2.15,2.15,0,0,0,.14-1.5,16.37,16.37,0,0,1-.15-5.82,2.34,2.34,0,0,0-1.26-2.58,12.45,12.45,0,0,1-1.88-1.58c-1.41-1.19-2.78-2.44-4.25-3.56-2.12-1.63-4.36-3.11-6.47-4.75-2.84-2.21-5.52-4.62-8.49-6.68-.5-.35-.95-.78-1.43-1.16-3.08-2.4-6.08-4.91-9.26-7.18-4.87-3.47-9.62-7.05-13.51-11.66a7.59,7.59,0,0,0-1.09-1.09c-2.6-2-4.56-4.75-7.17-6.77-1.37-2-3.49-3.17-5.2-4.79a6.76,6.76,0,0,0-3.5-1.86c-2.63-.45-5.22-1.24-7.94-.92a7,7,0,0,1-1.54-.06c-3.37-.36-6.77-.57-10.11-1.15A49.73,49.73,0,0,0,343,247c-3.39.13-6.77.06-10.16,0-4.32-.05-8.64,0-13,0a17.35,17.35,0,0,0-4.91.42,7,7,0,0,1-2.75.05,33.53,33.53,0,0,0-7.7-.12,28.26,28.26,0,0,1-3.39,0,46.42,46.42,0,0,0-5.54,0c-3.47.42-7,.48-10.43.87-3.18.35-6.33.41-9.51.52-2.16.08-4.31.11-6.47.15a23.17,23.17,0,0,0-2.77.11c-3.9.55-7.81.21-11.72.25a8.88,8.88,0,0,1-1.23-.1c-5.21-.68-10.41-1.39-15.68-1a2.69,2.69,0,0,1-.62,0,35.26,35.26,0,0,0-6.78-.12,11.06,11.06,0,0,1-2.15-.06,19.19,19.19,0,0,0-4-.12c-2.66.11-5.33,0-8,0-1.95,0-3.89-.16-5.84-.3a67.47,67.47,0,0,1-7.06-.38,3.13,3.13,0,0,0-1.22.07,18,18,0,0,1-4.92.12c-2.66-.1-5.33-.16-8-.37-4.19-.34-8.42,0-12.57-.8a6,6,0,0,0-.92-.1c-2.57-.12-5.14-.28-7.71-.34a77.07,77.07,0,0,0-13.83.54,7.41,7.41,0,0,1-1.83,0,68.65,68.65,0,0,0-14.46.26,10.14,10.14,0,0,0-3.89.88,4.54,4.54,0,0,1-2.39.36,49.26,49.26,0,0,0-5.85.18c-3.58.4-7.14.78-10.74.06-1.91-.38-3.88-.43-5.82-.65-4.71-.53-9.45-.33-14.18-.59-1.95-.11-3.91,0-5.86-.1-6.06-.18-12.15.18-18.13-1.26a28.54,28.54,0,0,0-4.27-.61,42.15,42.15,0,0,0-4.93-.19,5.37,5.37,0,0,0-2.66.67,20,20,0,0,1-4.3,1.64,3.54,3.54,0,0,1-3,0,.7.7,0,0,0-1,.42,3.11,3.11,0,0,1-1.69,1.69c-1.28.65-2.53,1.37-3.8,2.06a9,9,0,0,0-1.62.88c-2.06,1.76-4.56,2.76-6.9,4a45,45,0,0,0-7.64,4.59,20,20,0,0,1-4.17,2.62c-.83.39-1.65.83-2.46,1.29a1.74,1.74,0,0,0,0,3,1.08,1.08,0,0,0,.28.13.84.84,0,0,1,.51,1.25,7.85,7.85,0,0,0-1,4.11,2.93,2.93,0,0,0,.45,1.72c.18.27.08.76,0,1.14s-.31.81-.26,1.19a3.29,3.29,0,0,1-.51,2.33,8.84,8.84,0,0,0-.73,2c-.65,2.05-1.19,4.15-2,6.15A30.12,30.12,0,0,0,18,292.26,17.79,17.79,0,0,1,17.5,294c-.73,2.24-1.53,4.46-2.22,6.71a32.12,32.12,0,0,0-.71,3.31,8.34,8.34,0,0,1-.22,1.52c-.91,2.22-1,4.61-1.53,6.91-.48,2.08-.8,4.23-2,6.09a6.22,6.22,0,0,0-.78,3.25c-.12,3.37-.07,6.75-.5,10.1a6.77,6.77,0,0,0,.64,3.88c1.06,2.22,1.95,4.53,3.14,6.69a20.31,20.31,0,0,1,1.09,2.54,19.46,19.46,0,0,0,3.94,6.55,24.23,24.23,0,0,1,4.34,5.56,3.16,3.16,0,0,0,.88,1.25c1.61,1.06,2.43,2.75,3.49,4.25,2.13,3,4.14,6.12,6,9.32.81,1.41,1.41,3,2.8,4a2.7,2.7,0,0,1,.64,1,19,19,0,0,0,4.24,6.33,4.88,4.88,0,0,1,.62,1.05c.5.78,1,1.54,1.51,2.31s1.17,1.7,1.66,2.6c1.22,2.25,2.21,4.63,4.11,6.44.64,1.83,2.21,2.93,3.37,4.36.52.64,1.11,1.22,1.61,1.87,1.76,2.28,3.21,4.76,4.78,7.17A48,48,0,0,0,62,413.76a3,3,0,0,0,1.85,1c.68.11,1.33-.38,1.17-1a7.23,7.23,0,0,0-1-2.56c-2.23-3.21-4.35-6.48-6.53-9.72-.4-.6-.87-1.15-1.32-1.71-1.88-2.29-4.1-4.32-5.4-7.06a7.53,7.53,0,0,0-1-1.2c-.44-.57-.88-1.14-1.28-1.74-1.17-1.81-2.28-3.66-3.49-5.44s-2.64-3.64-3.91-5.5a23.08,23.08,0,0,1-1.87-3.19A24.49,24.49,0,0,0,36.36,371a16.9,16.9,0,0,1-1.18-1.78c-.42-.7-.75-1.47-1.19-2.15-3.35-5.19-7-10.17-10.63-15.15a13.55,13.55,0,0,0-1-1.16,22.69,22.69,0,0,1-3.91-5.52q-2.6-5.42-5-10.91a5.48,5.48,0,0,1-.55-2.69c.29-2.48-.09-4.93,0-7.39a15.59,15.59,0,0,1,.8-5.16,88.78,88.78,0,0,0,3.33-12.5c1.35-6.34,2.91-12.61,4.85-18.79,1.73-5.49,3.74-10.88,5.15-16.47a26.62,26.62,0,0,1,1.21-3.16,1.45,1.45,0,0,1,1.13-.94,6.1,6.1,0,0,0,.9-.2,1.75,1.75,0,0,0,1.13-2.46c-.17-.55-1-1-.5-1.62a5.39,5.39,0,0,1,1.44-1.11,16.53,16.53,0,0,1,3.85-1.92,11.47,11.47,0,0,0,2.25-1c2.41-1.37,4.79-2.79,7.18-4.2,2.12-1.25,4.15-2.68,6.62-3.25a1.39,1.39,0,0,1,1.81.68,1.9,1.9,0,0,0,2.07,1,4.81,4.81,0,0,1,3.68,1.24c.81.63,1.7,1.15,2.55,1.74s1.85,1.28,2.74,2a15.91,15.91,0,0,0,1.62,1.41,2.2,2.2,0,0,1,1.2,1.62,5.69,5.69,0,0,1,2,1.36,8.08,8.08,0,0,1,.91,1.26,3.55,3.55,0,0,1,1.84,1.36,4.25,4.25,0,0,0,.83.91c3.06,2.27,5.65,5.08,8.66,7.39,2.19,1.68,4,3.77,6.29,5.37a4.62,4.62,0,0,1,1.79,1.56l.06.06a.42.42,0,0,1,.06.1c.16.22.58.76.19.3l.46.57c.36.43.73.83,1.12,1.24l.56.58c.37.35.72.71,1.07,1.07l.13,0a8.58,8.58,0,0,1,2.07,2.22c.33.39.58.85.9,1.25a19.88,19.88,0,0,0,3.93,3.89c1.74,1.26,3.25,2.82,4.91,4.2a3.58,3.58,0,0,1,1.33,2.34,4.26,4.26,0,0,0,.67,1.68,7.16,7.16,0,0,1,.94,5.62,36.15,36.15,0,0,0-.34,3.64c-.11,1.18-.48,2.37-.57,3.6-.07.92-.27,1.82-.42,2.73-.45,2.73-1.08,5.45-1.31,8.21a57.88,57.88,0,0,1-.71,6.43,15.59,15.59,0,0,0-.31,1.82c-.26,3.59-.37,7.19-.93,10.75a4.68,4.68,0,0,0,0,1.53,9.55,9.55,0,0,1-.05,3.05,18.43,18.43,0,0,0-.19,5.53,3.43,3.43,0,0,1-.32,2.09,16.7,16.7,0,0,0-1.26,6,33.51,33.51,0,0,1-.28,3.38,61,61,0,0,0-1.35,11,3.4,3.4,0,0,1-.09.92,18.48,18.48,0,0,0-.37,4.6c0,1.33-.25,2.67-.25,4a11.75,11.75,0,0,1-.5,4.21,2.89,2.89,0,0,0,0,1.82,5.51,5.51,0,0,1,0,3.63,7.49,7.49,0,0,0-.22,2.44,34.74,34.74,0,0,1-.14,5.24,39.35,39.35,0,0,0-.2,5.54c0,1.32.4,2.65.35,4-.09,2.06.22,4.09.3,6.13.11,2.55.64,5.09.2,7.65a1.35,1.35,0,0,0,0,.61c.6,1.81.23,3.69.35,5.53s.16,3.48.27,5.22a31.51,31.51,0,0,1-.53,9.2,16.75,16.75,0,0,0-.4,3.67c0,2,.57,2.7,2.55,3.29a14.27,14.27,0,0,0,5.8.58,15.83,15.83,0,0,1,6.14.13c3.54,1,6.92.09,10.34-.54.8-.15,1.59-.39,2.39-.55a61.06,61.06,0,0,1,8.84-1.26c2.55-.15,5-.83,7.62-.87a15.2,15.2,0,0,0,1.52-.23c1.94-.23,3.87-.58,5.81-.65a103.83,103.83,0,0,0,17.75-2,37.62,37.62,0,0,1,5.75-.93c4.31-.21,8.63-.27,12.95-.29a33.14,33.14,0,0,0,4.6-.36,14.47,14.47,0,0,1,5.8-.17,6.71,6.71,0,0,0,2.13-.11,93.29,93.29,0,0,1,9.53-.65c2.86,0,5.74.58,8.6-.18a8,8,0,0,1,1.85,0c2.06,0,4.13,0,6.17-.14,2.66-.25,5.36,0,8-.65,5.46,0,10.87-.63,16.29-1.11a90.48,90.48,0,0,1,9.2-.72c4.2.05,8.42-.43,12.62-.36,4,.07,7.73-.94,11.49-2a14.92,14.92,0,0,1,3.61-.67,17.82,17.82,0,0,0,6.89-1.48c.75-.34,1.5-.75,1.54-1.73,0-.75-.87-1.44-2-1.59a3.17,3.17,0,0,0-.61,0c-3.28.24-6.58.32-9.76,1.29-1,.3-2,.62-3,.85-1.2.27-2.42.43-3.62.68-2.33.48-4.72.31-7.07.57a50.12,50.12,0,0,1-8,.16,71.35,71.35,0,0,0-12.93.76A147.8,147.8,0,0,1,231,440.13c-.62,0-1.23.09-1.85.12l-6.78.34-2.15.09c-3.6.13-7.19.4-10.78.35-2.47,0-4.92,0-7.38.17a73.26,73.26,0,0,1-7.38.39,63.39,63.39,0,0,0-8.59.4c-1,.1-2,.13-3.06.15-2.06,0-4.13-.07-6.17.14-3.06.32-6.11.86-9.16,1.3-2,.3-4.07.62-6.11.88-1.43.18-2.88.18-4.3.38a61.73,61.73,0,0,1-8.58.84c-.72,0-1.43.17-2.15.21-2.87.17-5.7.74-8.59.67a13,13,0,0,0-2.14.19c-2.85.4-5.69.86-8.55,1.23a41.14,41.14,0,0,0-6.92,1.45,9,9,0,0,1-4.56.39,35.84,35.84,0,0,0-8.59-.54,36.17,36.17,0,0,1-3.69-.19.84.84,0,0,1-.83-1c.18-2,.35-4.1.57-6.14.33-3.2-.29-6.37-.27-9.56,0-2.06-.08-4.11-.16-6.17-.15-3.7-.44-7.38-.94-11.06-.33-2.43-.1-4.94-.35-7.39s.14-4.9.14-7.35c0-2.66.23-5.32.31-8a30.11,30.11,0,0,1,0-3.69c.76-4.79.12-9.68,1.2-14.44a8.44,8.44,0,0,0,0-.92,60.71,60.71,0,0,1,1-8.27,51.75,51.75,0,0,0,.89-5.45c.18-1.32.21-2.66.44-4a81.39,81.39,0,0,0,1-8.23c.14-2,.26-4.08.5-6.12.5-4.19.93-8.39,1.21-12.59.36-5.45,1.28-10.81,2.09-16.19a3.88,3.88,0,0,1,.9-2.25,3.67,3.67,0,0,0,.83-2.88c0-.92-.09-1.84-.11-2.77a.67.67,0,0,1,.86-.62,8.73,8.73,0,0,1,.88.29c1.91.76,3.86,1.42,5.35,2.94a2.48,2.48,0,0,0,2.54.62,13.1,13.1,0,0,1,5.21.23,7.39,7.39,0,0,0,2.43.3,40.7,40.7,0,0,1,5.54-.27,12.63,12.63,0,0,1,2.43-.27c3,.57,5.94-.13,8.91,0a25.44,25.44,0,0,0,8.82-1.27,10.86,10.86,0,0,1,4.54-.59,62,62,0,0,0,13.23.26c1.53-.13,3.06-.42,4.59-.48,2.05-.08,4.16.26,6.16-.06,2.2-.34,4.28.39,6.42.25,1-.07,2-.1,3.08-.14.82,0,1.64-.07,2.46-.09s1.63,0,2.45,0c1.54,0,3.09,0,4.63,0,2.67,0,5.33.24,8,.52,4.49.47,9,.52,13.5,1.32.91.16,1.84.17,2.76.28s1.82.25,2.73.37a8.29,8.29,0,0,0,1.52.2,17,17,0,0,1,4.88.64,10.43,10.43,0,0,0,2.13.32c5.23.14,10.46.65,15.7-.16,2.23-.35,4.53-.28,6.75-.64a47.51,47.51,0,0,1,8.3-.33c4.73.07,9.45.47,14.18.65,2.47.1,4.94.07,7.41,0,2.88-.06,5.75-.32,8.63-.27,5.45.1,10.89.38,16.34.56a17.82,17.82,0,0,0,3.39,0,29.25,29.25,0,0,1,6.45,0,100.38,100.38,0,0,0,10.78.46c5-.24,10.07-.05,15.1-.52,3.36-.32,6.77-.1,10.16-.17s6.78-.17,10.17-.34c1.74-.09,3.46-.56,5.19-.55,4.33,0,8.63-.39,12.93-.76,3.27-.29,6.54-.6,9.79-1.1a48.2,48.2,0,0,1,5.53-.47c1.83-.07,3.62-.66,5.5-.14a2.1,2.1,0,0,0,2.39-1.05,2.27,2.27,0,0,1,1.73-1.09,29.1,29.1,0,0,1,9.83,0,2.8,2.8,0,0,1,1.06.4,4.43,4.43,0,0,1,.57,0,3.77,3.77,0,0,1,2,.63,3.55,3.55,0,0,1,2,.89l.15,0c1.39-.14,1.77.2,2.09,1.59a3.9,3.9,0,0,1,0,2.7,3.07,3.07,0,0,0,.13,1.78,34.09,34.09,0,0,1,1.06,3.86c.31,2.55.42,5.12.6,7.69,0,.61,0,1.24.06,1.85.25,2.66.52,5.31.78,8a31.62,31.62,0,0,1,.29,3.38,45.5,45.5,0,0,0,.77,8,13.4,13.4,0,0,1,.21,1.52,47.91,47.91,0,0,0,1.32,10.05,9.57,9.57,0,0,1,.22,1.21c.28,2.14.58,4.28.83,6.42.14,1.22.08,2.48.34,3.68a24.65,24.65,0,0,1,.47,5.52,11.07,11.07,0,0,0,.19,2.76,38.79,38.79,0,0,1,.8,8.27c.05,2.05.06,4.11.19,6.15.26,4.31.59,8.62.86,12.93a24.55,24.55,0,0,1,0,3.39,51.09,51.09,0,0,0,.1,10.47,5.59,5.59,0,0,1,0,1.53,1.34,1.34,0,0,1-1,1.09,3.85,3.85,0,0,1-.9.16,68.05,68.05,0,0,0-8.25,1.09,17.12,17.12,0,0,1-3.06.31c-2.35,0-4.7.56-7.06.09-1.61.52-3.27.21-4.91.26-2.36.07-4.71.18-7.07.43a36.55,36.55,0,0,1-8,.06c-5-.6-10-.85-15-1.33a41.34,41.34,0,0,0-5.25-.14c-3.49.11-7-.16-10.47.23a25.82,25.82,0,0,1-3.7-.15l-.86-.06,3.89,4.17,4.56-.27a5.46,5.46,0,0,1,1.51,0,17.71,17.71,0,0,0,5.22.21,29.58,29.58,0,0,1,5.2.05c1.12.13,2.24.31,3.36.39a64.49,64.49,0,0,1,6.77.47,40,40,0,0,0,8.3.5c4.42-.12,8.83-.38,13.25-.59,4.82-.22,9.65-.39,14.46-.8a37.67,37.67,0,0,0,5.48-.8,12.25,12.25,0,0,1,1.82-.29,2.34,2.34,0,0,1,1.43.22c1.45-.35,2.89-.69,4.36-1l0,0a4.16,4.16,0,0,0,.33-.77A4.42,4.42,0,0,1,446,419.67ZM62.35,250.7a.63.63,0,0,1-.48.3,1.55,1.55,0,0,1-.8-.3c-.19-.16-.41-.49-.36-.68s.4-.34.72-.59a7.55,7.55,0,0,1,.91.73A.58.58,0,0,1,62.35,250.7Zm235.06,2.45c.08,0,.17.07.26.1-.11.1-.23.31-.33.3-.48-.07-.94-.18-1.41-.28Zm-3.07.58.58,0-.27.14a1.46,1.46,0,0,1-.55,0C294.17,253.85,294.26,253.73,294.33,253.73Zm-27.6-1.4c.07,0,.14.1.2.15a3.53,3.53,0,0,1-.54.05c-.08,0-.15-.1-.22-.16A4.32,4.32,0,0,1,266.73,252.34Zm-38.25.57a.94.94,0,0,1,.27.07c0,.06,0,.17,0,.17a.5.5,0,0,1-.28,0,.77.77,0,0,1-.21-.16A1,1,0,0,1,228.48,252.91Zm-26.84-2,1.42,0a1,1,0,0,1-.3.14,3.83,3.83,0,0,1-.53,0l-.61-.08Zm-18.09-.66a12.75,12.75,0,0,1,2.14-.13,77.73,77.73,0,0,0,10.14.29,2.84,2.84,0,0,1,.88.23c.08,0,.15.12.22.18-.09.06-.17.16-.26.16h-5.52c-2.13-.07-3.67-.09-5.2-.17-.82,0-1.63-.17-2.44-.28-.09,0-.16-.13-.24-.2A1.26,1.26,0,0,1,183.54,250.27Zm-5.68-.1a1.41,1.41,0,0,1,.3,0c0,.07,0,.19,0,.19a1.39,1.39,0,0,1-.3,0C177.84,250.3,177.84,250.17,177.86,250.17Zm-4.4-.35s.1.14.21.31a5,5,0,0,1-.81.15c-.08,0-.17-.19-.25-.3C172.89,249.93,173.17,249.86,173.46,249.82Zm-7.79-.1a2.78,2.78,0,0,1,.62.23c-.39,0-.69,0-1,0-.08,0-.15-.11-.22-.17A2.5,2.5,0,0,1,165.67,249.73Zm261.56,50.54a15.41,15.41,0,0,1-3.06-.28,21.5,21.5,0,0,0-12.15.36,32.42,32.42,0,0,1-8.48,1.44,37.64,37.64,0,0,0-5.2.54c-2.83.5-5.71.71-8.58,1-1.94.2-3.88.39-5.83.54-3.49.26-7,.59-10.46.72-5.34.2-10.67.72-16,.41a87.49,87.49,0,0,0-9.24.37c-1.44.07-2.87.29-4.31.26-5.77-.09-11.53-.2-17.29-.41-2.88-.11-5.76-.1-8.64,0-2.67.07-5.35,0-8-.21a103.58,103.58,0,0,0-11.4-.24,154.51,154.51,0,0,1-16,.27c-2.05-.13-4.1-.35-6.15-.51-1.33-.1-2.67-.26-4-.25a96.85,96.85,0,0,0-12.33.46c-2.65.36-5.32.49-8,.8a83.82,83.82,0,0,1-10.18.25,6.73,6.73,0,0,1-.92-.07c-3.36-.48-6.71-1-10.08-1.44-3.57-.47-7.15-.87-10.73-1.29s-7-.79-10.43-1.18a6,6,0,0,0-.92-.1c-3.39.15-6.77-.37-10.18-.12-2.67.2-5.35.19-8,.2a6.68,6.68,0,0,0-2.73.29,1.2,1.2,0,0,1-.61.09c-2.67-.37-5.32.22-8,.23a49.17,49.17,0,0,0-6.15.29,31,31,0,0,1-6.15-.11,40.05,40.05,0,0,1-4-.38,20.14,20.14,0,0,0-7.33.53,25.23,25.23,0,0,1-5.18.74c-1.11,0-2.21.46-3.33.54-1.54.11-3.09.09-4.63.06a7.75,7.75,0,0,0-3.64.36,2.15,2.15,0,0,1-1.21.1,26.86,26.86,0,0,0-5.54,0,39.07,39.07,0,0,1-4.92-.35c-1.73-.17-3.39-.77-5.2-.56a5,5,0,0,1-2.34-.63c-1.42-.61-2.8-1.29-4.17-2-.9-.46-1.89-.84-2.3-1.93a1,1,0,0,0-.74-.42c-1.16-.11-1.58-.73-1.57-1.85a9.16,9.16,0,0,0-.28-1.82.57.57,0,0,1,.45-.69,7.43,7.43,0,0,1,2.11-.39c2.76.11,5.52.11,8.28.49a35.14,35.14,0,0,0,6.14.09,40.38,40.38,0,0,1,11,.77,6.42,6.42,0,0,1,1.39.65c.07,0,.1.18.09.27a.25.25,0,0,1-.18.16,10.5,10.5,0,0,1-1.84.18c-2.4-.13-4.64.78-7,1.06-.22,0-.5.4-.58.66a.84.84,0,0,0,.49,1,6.87,6.87,0,0,0,1.14.45,1.67,1.67,0,0,0,.61-.06,8.1,8.1,0,0,1,1.52-.19,38.36,38.36,0,0,0,9.47-.89c1.12-.21,2.23-.15,3.32-.27,3.69-.39,7.38-.42,11.07-.44.82,0,1.63.1,2.45.13s1.42,0,2.13,0c.3,0,.66-.2.9-.1,1.8.73,3.62.2,5.43.18a12.41,12.41,0,0,1,2.45.27,45,45,0,0,0,9.83.55c.61,0,1.21,0,1.82,0a35.17,35.17,0,0,0,3.69,0,26.35,26.35,0,0,1,8.29.23,20.59,20.59,0,0,0,6.15.19,17.57,17.57,0,0,1,2.46-.16c3.51.22,7-.28,10.47-.45.71,0,1.42-.22,2.13-.32a3.21,3.21,0,0,1,1.21-.12c3,.82,5.91-.14,8.86.05a21.89,21.89,0,0,0,4.6-.28,44.72,44.72,0,0,1,8-.53,5.74,5.74,0,0,0,1.51-.26,31.31,31.31,0,0,1,9.45-1c1.43.09,2.89-.14,4.31,0,2.13.24,4.24.67,6.37.12a79.14,79.14,0,0,0,9.53.39,8,8,0,0,0,3.94.23,3.75,3.75,0,0,1,1.52.2,5.27,5.27,0,0,0,2.74.19,7.26,7.26,0,0,1,3.31.32c2.89.73,5.8,1.37,8.7,2a4.2,4.2,0,0,0,3.55-.55,1.9,1.9,0,0,0,.63-1,1,1,0,0,0-.28-.81,1.48,1.48,0,0,0-.81-.41c-4.26-.68-8.51-1.36-12.77-2-1.28-.19-2.59-.22-3.88-.32a4.23,4.23,0,0,1,.83-.7,2,2,0,0,1,.91-.09,43.24,43.24,0,0,0,7.69-.29,10.78,10.78,0,0,1,1.85,0,24.9,24.9,0,0,0,5.84-.31,4.77,4.77,0,0,1,1.54-.09,44.36,44.36,0,0,0,8.27-.21c2.55-.19,5.13-.19,7.69-.16,1.32,0,2.65-.5,4,.06a.47.47,0,0,0,.31,0,10.6,10.6,0,0,1,6-.25c.56.14,1.14-.41,1.35-1.05a1.26,1.26,0,0,0-.65-1.55,7.53,7.53,0,0,0-2.06-.52c-1.44-.12-2.88-.07-4.32-.17-3.29-.22-6.56-.55-9.85-.71-4.2-.2-8.4-.38-12.63-.23a91.67,91.67,0,0,1-9.24-.06,126.5,126.5,0,0,0-14.18-.21c-2.45.11-4.92-.13-7.38-.19-1,0-2.06-.05-3.09,0a17.23,17.23,0,0,1-6.12-.39,3.57,3.57,0,0,0-1.22-.12c-4.1.28-8.2-.28-12.3-.15a8.51,8.51,0,0,1-1.32-.11c-3.94.64-7.89,1.22-11.86,1.69a4.57,4.57,0,0,1,0,.52l.21,0a6.8,6.8,0,0,0,3,0,16.87,16.87,0,0,1,2.76,0c1.82,0,3.66.51,5.45-.29a1.82,1.82,0,0,1,1.19.07,8.65,8.65,0,0,0,4.28.2,14.4,14.4,0,0,1,4,0,109.35,109.35,0,0,0,12.58.58,14.41,14.41,0,0,1,4.53.14,4.64,4.64,0,0,0,1.84,0,31.1,31.1,0,0,1,6.11-.06c1.22.08,2.45,0,3.68,0a7.15,7.15,0,0,1,1.85.08,17.9,17.9,0,0,0,6.37.56c.07,0,.15.1.23.15-.1.12-.19.34-.32.36a10.22,10.22,0,0,1-1.23.08c-3.19.11-6.37.23-9.56.31-1.24,0-2.46.31-3.66.37-1.93.1-3.8,1.07-5.78.38a1.7,1.7,0,0,0-.92.06,34.9,34.9,0,0,1-6.4.82c-2,.15-4.07.25-6.13.25a45,45,0,0,0-7.67.65c-2.25.39-4.51.26-6.75.58a44.68,44.68,0,0,1-5.23.27,16.92,16.92,0,0,1-1.82-.19,16.21,16.21,0,0,0-4,0,55.87,55.87,0,0,1-6.09.57c-1.11.05-2.17-.5-3.34-.36-3.05.38-6.15,0-9.2.57a10.76,10.76,0,0,1-4-.06,30.82,30.82,0,0,0-7.36-.43,41.79,41.79,0,0,1-8-.27,3.89,3.89,0,0,0-1.23-.1c-2.43.45-4.93-.19-7.34.55a2.52,2.52,0,0,1-1.21-.06,29.35,29.35,0,0,0-8.3-.25,18.2,18.2,0,0,1-2.44-.06c-3.59-.24-7.19-.5-10.78-.43a35.88,35.88,0,0,1-6.08-.3c-1.63-.25-3.26-.46-4.9-.58a17.23,17.23,0,0,1-5.61-1.55,2.23,2.23,0,0,1-.46-.38,1.46,1.46,0,0,1,.46-.18c.72,0,1.44,0,2.15,0a8.67,8.67,0,0,1,1.21.23v-.1c2.55.16,5.11.33,7.66.46.82,0,1.64,0,2.45,0a10.7,10.7,0,0,1,2.45.1c2.84.7,5.72.55,8.59.59,1.75,0,3.5,0,5.24.09a40.89,40.89,0,0,0,7.08-.14,32.92,32.92,0,0,1,4.31-.15c1.63,0,3.26.23,4.88-.43.59-.24,1.45.24,2.1.06a10.12,10.12,0,0,1,4.24-.11,5.12,5.12,0,0,0,1.19-.16,7.64,7.64,0,0,0,3.52-.87,5.79,5.79,0,0,0,3.34-.06,5,5,0,0,1,1.23-.09,26.25,26.25,0,0,0,5.57-.44,3.68,3.68,0,0,1-.33-.55,39,39,0,0,1-7.82-1.28,18.42,18.42,0,0,0-4.45.58,1.16,1.16,0,0,1-.3.05c-3.7.11-7.39.16-11.09.33-1.95.09-3.88.4-5.82.59a4.69,4.69,0,0,1-1.81.08,14.39,14.39,0,0,0-4.28-.38c-5.86-.16-11.72-.37-17.58-.7-4.2-.23-8.42-.17-12.6-.77a6.1,6.1,0,0,0-2.75.11,6.23,6.23,0,0,1-1.83.13c-1.85,0-3.7,0-5.55-.07-.17,0-.34-.16-.51-.29-.81,0-1.63,0-2.44-.1a4.49,4.49,0,0,1-1.65-.47,40,40,0,0,1-6.68.82,6.33,6.33,0,0,0-1.52.15c-.6.18-1.29.62-1.22,1.22.16,1.32-.66,1.6-1.59,1.84s-1.59.35-2.38.52a5.48,5.48,0,0,0-2.05.49,1.66,1.66,0,0,1-2.45-.15c-.22-.21-.53-.33-.74-.55-.57-.63-1.59-1.11-1.59-2a3.46,3.46,0,0,1-.65-.74h0a4.57,4.57,0,0,1-2.86-1.68,20.35,20.35,0,0,1-4-4.13c-.23-.31-.07-.66.26-.91l-.12-.12a12,12,0,0,1-2.82-2l-.09-.12a2.05,2.05,0,0,1-.4-.26c-.51-.44-1-.87-1.51-1.32a3.54,3.54,0,0,1-2.23-1.86c-.13-.25-.43-.92-.68-1.5a.5.5,0,0,1-.55-.28,1.12,1.12,0,0,1-.14-.61c-.48-.35-1-.71-1.43-1.12a3.28,3.28,0,0,1-.63-.76,2.12,2.12,0,0,1-1.37-.61c-.32-.26-.72-.41-1-.66s-.81-.65-1.13-.92a42.75,42.75,0,0,1-10.82-10.36,3.38,3.38,0,0,1-2.47-1.29c-.73-.86-1.46-1.73-2.26-2.52s-1.7-1.47-2.56-2.2a1.52,1.52,0,0,1-.39-1.93c.46-.9,1.25-1.62,1.33-2.73,0-.16.45-.39.71-.42a12.18,12.18,0,0,1,1.62,0c.53.07,1.14.14,1.75.24a58.75,58.75,0,0,0,13.19.55,59.2,59.2,0,0,1,6.44.1l1.58.06c12.28-.63,24.65-1.11,36.55,1.23,1.7-.08,3.4-.16,5.09-.32a75.56,75.56,0,0,1,10.78,0,7.94,7.94,0,0,1,1.53.14,45.58,45.58,0,0,0,8,.77c1.74.12,3.49.24,5.22.42a21.58,21.58,0,0,0,5.84.22,9.36,9.36,0,0,1,1.85,0c3,.12,6,.27,8.93.36.8,0,1.61-.24,2.4-.18s1.37.47,2.07.57c1.11.15,2.24.16,3.36.25.09,0,.19.25.24.4s-.12.2-.19.2l-4.67.25a3.41,3.41,0,0,1,1.89,1.58l2.22.2q3-.12,6.09-.19c1.94,0,3.88-.23,5.82-.35a3.87,3.87,0,0,1,.61,0,.64.64,0,0,1,.2.11c-.08.06-.16.15-.25.17l-.41.1c12.52-.36,25-.83,37.55-1.2,27.51-.8,54.93-.13,82.41.7l.08-.06a4.44,4.44,0,0,0,.79-.93,1.1,1.1,0,0,0-.44-1.57c-1.16-.42-2.34-.79-3.51-1.17-.29-.1-.59-.17-.88-.29-.07,0-.11-.17-.12-.26s.1-.12.16-.14a.89.89,0,0,1,.3,0c6.17,0,12.33-.38,18.51-.21a61.43,61.43,0,0,0,11.09-.58,12.92,12.92,0,0,1,2.77-.08c1.53.1,3.05.43,4.57-.17.33-.13.79.06,1.19.12,1.82.32,3.63.73,5.46,1,3.06.38,6.13.71,9.21,1a20.17,20.17,0,0,1,4.23.77,18,18,0,0,0,2.69.65,6.55,6.55,0,0,1,3.34,1.47c1.11.91,2.23,1.83,3.27,2.82,2.31,2.19,4.58,4.43,6.87,6.64a10.77,10.77,0,0,0,1.14,1,27.64,27.64,0,0,1,3.11,3c3.51,3.47,6.9,7.1,11.17,9.68a57.85,57.85,0,0,1,7.55,5.83c5,4.27,10,8.57,15.2,12.56,1.38,1.06,3,1.84,4.14,3.19.06.06.1.22.07.27S427.36,300.27,427.23,300.27Zm-160.49-5.95a3.7,3.7,0,0,1,.53,0c.06,0,.1.12.16.18a1.77,1.77,0,0,1-.49.12C266.87,294.6,266.8,294.42,266.74,294.32Zm6.11.13c0-.13.49-.34.78-.4a3,3,0,0,1,3,.67c-1,0-2,0-3,0C273.38,294.71,272.86,295,272.85,294.45Zm15.24-3.7a1.56,1.56,0,0,1,.26-.08,1.85,1.85,0,0,1,.29,0l.25.26a1.85,1.85,0,0,1-.53.09C288.26,291,288.18,290.85,288.09,290.75Z"/><path d="M393.74,433.54a9.71,9.71,0,0,1,.58-3.33c.19-.76.5-1.59-.21-2.21a3.1,3.1,0,0,0-2.91-.79c-.33.09-.64.29-1,.39a7.32,7.32,0,0,1-1.51.36c-2.53.18-5.05.4-7.58.46a52.32,52.32,0,0,0-9.12.82c-2.05.41-4.15.62-6.2,1-3.34.65-6.66,1.37-10,2.09a5.77,5.77,0,0,0-1.45.56,1,1,0,0,0-.05,1.58,2,2,0,0,0,1.47.43c1.12-.17,2.25-.33,3.35-.57,2.64-.57,5.26-1.24,7.91-1.78,1.88-.39,3.8-.57,5.68-1a29.85,29.85,0,0,1,8.58-.73,2,2,0,0,0,1-.08,5.91,5.91,0,0,1,3.3-.27c1.22.06,2.44.06,3.66.12a1.22,1.22,0,0,1,1.27,1.35c0,1-.11,1.92-.1,2.88,0,1.56-.17,1.72-1.79,1.89-.26,0-.52,0-.78.07a17.63,17.63,0,0,0-5.59,1.3,3.88,3.88,0,0,1-1.77.41,40.35,40.35,0,0,1-5.75-.18,16.56,16.56,0,0,0-5-.17c-2.17.28-4.33.56-6.51.77a36.46,36.46,0,0,1-8.36,0,30.37,30.37,0,0,0-6.26-.25c-4.87.37-9.76.49-14.59,1.31a20.24,20.24,0,0,1-2.87.28,15.62,15.62,0,0,1-5.18-.53,35.89,35.89,0,0,1-5.32-2.18c-3-1.53-5.92-3.39-9.45-3.68-1-.08-1.1-.31-1-1.39,0-.7.14-1.39.16-2.09,0-.87,0-1.74,0-2.61s-.18-1.91-.25-2.86a28.82,28.82,0,0,0-1.3-7.19,1.35,1.35,0,0,0-.75-.63c-.33-.14-.87.31-1,.71a4.8,4.8,0,0,0-.13,1c0,1,.1,1.92.16,2.88.17,2.7.35,5.4.51,8.11,0,.44-.27.69-.63.56-1.52-.54-1.52-.55-2.32.54-.1.14-.18.3-.28.44s-.5.56-.87.37a.84.84,0,0,1-.34-.62,17.59,17.59,0,0,0-.94-5.12,9.08,9.08,0,0,1-.6-2.25c-.06-.87.94-1.19,1.28-1.9s.66-1.23.92-1.88a7.09,7.09,0,0,0-.27-6.54,20.69,20.69,0,0,1-.88-1.9c-.41-.93-.41-1,.42-1.79.56-.54,1-1.23,1.77-1.51l1.5,1a3.12,3.12,0,0,0,.47.23,1.41,1.41,0,0,0,1.89-.88,3,3,0,0,0,.12-1.28c-.13-.77-.4-1.52-.56-2.29-.68-3.26-1.3-6.52-.63-9.86a25.32,25.32,0,0,0,.45-5.21c0-1.66,0-3.32.1-5a8.59,8.59,0,0,1,.74-3.55,2,2,0,0,1,1.57-1.22c1.21-.15,2.41-.42,3.61-.61a13.73,13.73,0,0,1,1.56-.15c.56,0,.91.42.87,1s-.48,1-1,.71a13.47,13.47,0,0,0-1.32-.82,1.14,1.14,0,0,0-1.49,1,4.23,4.23,0,0,0,.23,1.27,24.73,24.73,0,0,1,.93,10.85,7.46,7.46,0,0,1-.45,2c-1.08,2.64-.54,5.35-.33,8a6.48,6.48,0,0,0,.77,2.22,1.72,1.72,0,0,0,3,.37,10.29,10.29,0,0,0,2-3.65,31.14,31.14,0,0,0,.9-4.86,27.52,27.52,0,0,0-.24-10.41,10.35,10.35,0,0,1,.14-5.18,3.17,3.17,0,0,1,.54-1.18,7.73,7.73,0,0,1,1.93-2.07,8.28,8.28,0,0,1,2.79-.58c1.21-.17,2.42-.31,3.64-.43q5.22-.49,10.44-.93c1-.09,2.09-.16,3.14-.18s1.46.31,1.55,1.32a38.52,38.52,0,0,1,0,6.27c-.1,1.39-.1,2.78-.1,4.17,0,2.35.06,4.71,0,7.06a16.07,16.07,0,0,0,.41,4.16,32.43,32.43,0,0,1,.77,3.58,7.47,7.47,0,0,0,1.78,4,2.57,2.57,0,0,0,2.72-1.55,17.18,17.18,0,0,0,1-2.43c.2-.57.32-1.18.53-1.75a16.05,16.05,0,0,0,1-8,36.46,36.46,0,0,1-.33-6.53,63.06,63.06,0,0,1,.53-8.87,1.64,1.64,0,0,0-1-1.7,1.39,1.39,0,0,0-2,1,4.23,4.23,0,0,0,0,.78,25.23,25.23,0,0,1,0,3.92c-.13,2.18-.14,4.36-.12,6.54s.14,4.54.2,6.81a17.22,17.22,0,0,1-1,5.91.57.57,0,0,1-.34.34c-.37.08-.4-.26-.45-.49-.14-.77-.29-1.54-.38-2.32a90.86,90.86,0,0,1-.5-11c0-2.8.23-5.58.46-8.36a9.1,9.1,0,0,0,0-3.11c-.14-.52.21-.8.6-1a1.69,1.69,0,0,1,.48-.2c1.7-.39,3.41-.75,5.1-1.18s3.22-.8,4.79-1.33c2.52-.85,3.14-2.13,2.38-4.62a2,2,0,0,0-2-1.44,58.45,58.45,0,0,0-8.32.91,48.46,48.46,0,0,1-4.91.74.91.91,0,0,1-1-.95c-.11-2.53-.23-5.06-.29-7.59,0-1.56.32-1.87,1.81-1.84a11.12,11.12,0,0,0,1.57,0,6.39,6.39,0,0,0,1.75-.46,1.35,1.35,0,0,0,.6-.79,1,1,0,0,0-.51-1.1,9.75,9.75,0,0,0-2-.6c-.59-.14-1.2-.17-1.79-.32a1,1,0,0,1-.88-1.12,73.55,73.55,0,0,0,0-9.13,1,1,0,0,1,1-1.22q3.13-.27,6.27-.48a7.26,7.26,0,0,1,1.3.13c.64.08.77.2.74.8-.1,2.44-.44,4.87-.31,7.31.09,1.56-.09,2.93-1.69,3.77a1.14,1.14,0,0,0-.23,1.83,2.74,2.74,0,0,1,.69,2.64c-.1.69-.22,1.38-.26,2.08a4.69,4.69,0,0,0,.41,2.56,4.74,4.74,0,0,0,.59.85,1.06,1.06,0,0,0,1.43,0c.76-1,1.42-2.06,1-3.36a7,7,0,0,1,0-3.1,1.5,1.5,0,0,1,.87-1.22,6.29,6.29,0,0,0,.69-.37,1,1,0,0,0,.22-1.19,2.43,2.43,0,0,0-.42-.65,1.8,1.8,0,0,1-.58-1.63c.25-2.6.05-5.23.44-7.83a2.73,2.73,0,0,0-.42-2c-.27-.4-.1-.65.33-.71a14.62,14.62,0,0,1,4.17-.12,1.64,1.64,0,0,0,1.62-2.13,5.43,5.43,0,0,0-.84-1.62A28.13,28.13,0,0,1,358,333c-.72-1.49-1.32-3-2-4.57a9.22,9.22,0,0,1-.64-1.7c-.15-.74.69-.93,1-1.43a1.39,1.39,0,0,0-.73-2.13,6.54,6.54,0,0,0-3.36-.15c-.43.08-.84.26-1.27.31-2.07.23-4.15.4-6.23.63-3.47.39-6.94.82-10.41,1.22a14.81,14.81,0,0,1-2.61.14,46.82,46.82,0,0,0-7.32.31c-3.83.35-7.66.71-11.49,1a16.36,16.36,0,0,1-2.35,0,11.21,11.21,0,0,0-4.63.6,5.5,5.5,0,0,1-2.25.43,1.07,1.07,0,0,0-1.18,1.35,7.3,7.3,0,0,0,.42,1.5c.27.74.59,1.46.89,2.18a1.18,1.18,0,0,1-.26,1.44,2.05,2.05,0,0,0-.66,2.12c.17.85.29,1.72.47,2.57a31.35,31.35,0,0,1,.94,6.46,21.43,21.43,0,0,0,.25,2.34c.36,3.21.73,6.41,1.07,9.62a10.43,10.43,0,0,1,0,1.57,33.64,33.64,0,0,1-.91,5.93,10.23,10.23,0,0,0-.33,2.33,2.61,2.61,0,0,0,3.45,2.47c.49-.18.89-.85.6-1.26a5,5,0,0,1-.61-3.77c.14-1.12.25-2.25.41-3.37.31-2.12.32-2.15,2.38-2.32s4.36-.23,6.53-.47a24.83,24.83,0,0,1,3.66,0,1,1,0,0,1,1,1,31.31,31.31,0,0,0,.63,4.66,30.47,30.47,0,0,1,.21,4.7,1.29,1.29,0,0,1-1.29,1.39c-1.73.23-3.48.36-5.21.62a26.85,26.85,0,0,1-6.79.24,10,10,0,0,0-2.08.1,1.21,1.21,0,0,0-1,1.07,1.31,1.31,0,0,0,.69,1.31,4.94,4.94,0,0,0,1.51.32c1,0,1.93-.15,2.88-.07a15.61,15.61,0,0,0,4.95-.36,26,26,0,0,1,5.19-.54c1.75-.06,3.49-.16,5.24-.24,5-.25,9.95-.47,14.91-.78a12.18,12.18,0,0,0,3.11-.22,35.86,35.86,0,0,1,8.72-1.67c.7,0,1.39-.17,2.08-.27l1.3-.2a4.48,4.48,0,0,1,.52,0c.31,0,.79.39.71.61s-.23.57-.41.62c-1.34.37-2.69.76-4.06,1a59.27,59.27,0,0,0-8.38,2.06,21.62,21.62,0,0,1-4.08.85c-3,.37-6.08.66-9.12.93-1.47.13-3,.1-4.44.2a35.09,35.09,0,0,0-5.72.5c-1.19.27-2.39.48-3.6.63a24.08,24.08,0,0,0-4.13.7,5.59,5.59,0,0,1-2.58.26,5.54,5.54,0,0,0-1.57,0,6.07,6.07,0,0,1-3.57-.51,5.84,5.84,0,0,0-1.25-.39,1.15,1.15,0,0,0-1.32.58,1.28,1.28,0,0,0,.19,1.24,1,1,0,0,0,.36.37,2.1,2.1,0,0,1,1.17,3.15,3.19,3.19,0,0,0-.17,1.29c0,1.83.07,3.67,0,5.5-.09,2.09-.3,4.18-.46,6.27a3.44,3.44,0,0,1-1,2.09.5.5,0,0,1-.44,0,5.67,5.67,0,0,1-.62-1.95,20.3,20.3,0,0,0-.75-4.37,3.44,3.44,0,0,0-4.94-2.27,7.37,7.37,0,0,0-3.72,4.21,5.89,5.89,0,0,1-2.36,3.32,11.48,11.48,0,0,0-3.73,4.32c-.35.7-.72,1.39-1.06,2.1-.15.31-.25.65-.4,1a.74.74,0,0,1-1.11.29,75.26,75.26,0,0,0-6.44-4.89c-.1-.07-.1-.31-.11-.47s.11-.13.19-.15c.83-.26,1.69-.46,2.49-.79a1.38,1.38,0,0,0,.59-2.32c-.34-.4-.73-.75-1.09-1.13a3.56,3.56,0,0,1-1-2.35c-.08-1.74-.09-3.49-.11-5.23,0-.79,0-1.57,0-2.36a1.7,1.7,0,0,0-1.57-1.78,18.08,18.08,0,0,0-6.24,0,43.78,43.78,0,0,1-5.73.58,42.36,42.36,0,0,0-8.81,1.19,21,21,0,0,1-6,.56,60.5,60.5,0,0,0-11,.17,25.41,25.41,0,0,1-6.53-.06c-1.9-.21-3.83-.25-5.74-.3a6.37,6.37,0,0,0-2.33.25,22.2,22.2,0,0,1-4.06,1,1.45,1.45,0,0,0-.83.55,1.6,1.6,0,0,0,0,1.74,1.42,1.42,0,0,0,1.27.79,3.42,3.42,0,0,0,1-.15c1.06-.3,1.36.13,1.5,1.17s.28,2.08.51,3.1c.36,1.62.79,3.22,1.22,4.82a6.2,6.2,0,0,1,.13,2.59c-.36,2.42-.69,4.84-.93,7.27a14.88,14.88,0,0,0,.26,5.7c.77,2.68,1.29,5.44,2.08,8.11a6.58,6.58,0,0,0,5.08,4.77,7.7,7.7,0,0,0,3.11-.13c2.39-.49,4.76-1.09,7.13-1.69a23.71,23.71,0,0,0,3.25-1,43.87,43.87,0,0,1,8.32-2.19c3.52-.69,7.15-.37,10.66-1.16a3.61,3.61,0,0,1,4.27,1.6,4.35,4.35,0,0,0,4.89,1.67c.51-.12,1-.3,1.52-.42a1,1,0,0,1,1.19.78,8.15,8.15,0,0,1,.07,1.3,4.65,4.65,0,0,0,2,4.31,2.33,2.33,0,0,1,.6.51,3,3,0,0,1,.36,2.75c-.26.89-1,1.14-1.82,1.22l-.68.07a19,19,0,0,1,2,3c.37,0,.74,0,1.11,0a2,2,0,0,1,1.63.69c1,1.39,2.56,1.81,4,2.32a6.13,6.13,0,0,0,3.35.34,2.3,2.3,0,0,0,2-2.13c0-.26,0-.52,0-.79.08-1.29.73-1.56,1.69-1.22a5.73,5.73,0,0,0,2.28.44,4.16,4.16,0,0,1,3.12,1,16.53,16.53,0,0,0,2.4,1.58,2.87,2.87,0,0,0,3.59-.6l1.5-1.81a1.4,1.4,0,0,1,1.4-.49c1.73.26,3.46.46,5.19.73a7,7,0,0,1,1.74.52c2.07.93,4.12,1.89,6.18,2.85.95.44,1.89.91,2.84,1.34a15.09,15.09,0,0,0,7.13,1.31c3.83-.24,7.65-.68,11.48-1.07a54.29,54.29,0,0,1,11.49-.28,41.89,41.89,0,0,0,9.93-.13c4.94-.63,9.9-1,14.87-1.43,1-.08,2.06-.45,3,.34.23.19.85,0,1.23-.12A24.18,24.18,0,0,1,390,439.1a30,30,0,0,0,3.65-.4,1.52,1.52,0,0,0,1-2.55A4.05,4.05,0,0,1,393.74,433.54Zm-77-36.51c-.08-.12-.25-.26-.22-.35a2.35,2.35,0,0,1,.34-.54l.29.42Zm24.79-43.41a1.63,1.63,0,0,1-1.49,1.58,12.19,12.19,0,0,1-4.17.17,38.76,38.76,0,0,0-6.26-.34,1.12,1.12,0,0,0-.52,0c-.28.16-.66.35-.75.61a1.37,1.37,0,0,0,.2,1,1.69,1.69,0,0,0,1.23.89c.77.12,1.55.23,2.33.29,2,.16,4,.29,6,.44a9.25,9.25,0,0,1,1,.12,1.57,1.57,0,0,1,1.42,1.62c0,.26,0,.52,0,.78q.11,3.14.22,6.28a9.54,9.54,0,0,1,0,1.31,1,1,0,0,1-.81.92,5.45,5.45,0,0,1-1.29.19,79.53,79.53,0,0,0-10.19.63,6.5,6.5,0,0,1-1.3,0,.73.73,0,0,1-.72-.63c-.22-1.29-.43-2.58-.62-3.88a36.13,36.13,0,0,1-.58-6.24,2.05,2.05,0,0,1,.37-1.48,1.36,1.36,0,0,0-.07-2.06,2.39,2.39,0,0,1-.33-1.22,16.23,16.23,0,0,1-.1-1.83,13.39,13.39,0,0,0-1.61-5.47,1.88,1.88,0,0,0-1.16-1,1.63,1.63,0,0,0-1.73.11,1.44,1.44,0,0,0-.13,1.92,9.63,9.63,0,0,1,1.54,4.4,8.3,8.3,0,0,1,0,1,1.27,1.27,0,0,1-.88,1.18l-.51.12a68.55,68.55,0,0,1-10.39,1,7.27,7.27,0,0,1-.79,0,1.26,1.26,0,0,1-1.31-1.06c-.15-.77-.25-1.55-.33-2.33-.18-1.65-.33-3.3-.49-5h-.19c-.13-2.18-.27-4.35-.39-6.53,0-.13.18-.39.24-.38.23,0,.57.1.65.26.55,1.09,1,2.2,1.57,3.3.23.47.48.93.74,1.38a1.5,1.5,0,0,0,1.5.84c.52,0,1-.09,1.56-.17L323.21,345c4.76-.7,9.56-1,14.36-1.18.7,0,1.4,0,2.09,0,.86,0,1.13.23,1.33,1A22.75,22.75,0,0,1,341.57,353.62Zm-4.47-12.33a4.31,4.31,0,0,1-1,0c-2.9-.44-5.74.23-8.6.47-1.82.15-3.62.48-5.46.52a8.48,8.48,0,0,0-2.31.38,30.31,30.31,0,0,1-6.21.8,1.57,1.57,0,0,1-1.58-.73,16,16,0,0,1-1.3-2.25c-1.06-2.48-2.32-4.86-3.58-7.24a28.72,28.72,0,0,1-1.2-2.89c-.3-.76,0-1.14.83-1.15,4.82.43,9.55-.81,14.34-.89a17.19,17.19,0,0,1,1.83-.13c3.69.34,7.31-.42,11-.6,2.18-.11,4.36-.18,6.53-.34a29.62,29.62,0,0,0,3.88-.52,27.61,27.61,0,0,1,6.26-.37,1.64,1.64,0,0,1,1.62,1.09c.79,2,2.11,3.81,2.68,6a13,13,0,0,0,1.25,2.29c.47.93.91,1.88,1.31,2.84.27.65-.16,1.18-.9,1.22h-.52a53.75,53.75,0,0,0-7.57.43C344.57,340.57,340.83,340.92,337.1,341.28Zm-41,63.58a23.93,23.93,0,0,1,.34-4.93,10.08,10.08,0,0,0,.06-3.87,3.85,3.85,0,0,1,1-3.37.8.8,0,0,1,1.3.23,17.88,17.88,0,0,1,1,5.63c.25,1.1.64,2.7,1,4.31a19.84,19.84,0,0,1,.34,2.57.94.94,0,0,1-1.09.85c-.42-.1-.83-.27-1.25-.35a4.5,4.5,0,0,0-1.26-.11C296.32,406,296.18,405.89,296.13,404.87Zm-65-16.67a13.42,13.42,0,0,1,3.13-.1,24.58,24.58,0,0,0,6.52-.08,24.45,24.45,0,0,1,3.13,0c1.22,0,2.44.08,3.66.13.7,0,1.39.05,2.08.11a15.39,15.39,0,0,0,7.46-.79,11.78,11.78,0,0,1,4.09-.85c2-.09,4-.23,6-.21a15.53,15.53,0,0,0,4.15-.42,1.06,1.06,0,0,1,1.3.62c.27.55.48,1.13.75,1.67.52,1,1.08,2,1.6,3,.44.85.89,1.7,1.24,2.59a1.21,1.21,0,0,1-.87,1.65,13.84,13.84,0,0,1-1.58.31l-5.71.27a5.23,5.23,0,0,0-1,.08c-3,.77-6.05.36-9.09.41-.61,0-1.23,0-1.83.07a56.24,56.24,0,0,1-11.5-.22,36.86,36.86,0,0,0-7.06,0c-3.84.38-3.06.74-5.33-2.76a25.41,25.41,0,0,1-1.86-4.31A.91.91,0,0,1,231.09,388.2Zm37.15,19.85c-2,.92-2.34,2.42-1.31,4.57a7.92,7.92,0,0,0,1,1.23c.65.85.44,1.55-.56,2.09a16.05,16.05,0,0,1-7.41,1.71,57.75,57.75,0,0,0-14.7,2.82,95,95,0,0,1-10.58,2.81,3.07,3.07,0,0,1-3.86-2.21,8.76,8.76,0,0,1-.37-1.25,23.2,23.2,0,0,0-1.45-4.73,13.06,13.06,0,0,1-.69-6.68c.21-1.9.41-3.81.79-5.68a15.08,15.08,0,0,0,0-4.93,1.77,1.77,0,0,1,.08-.77.46.46,0,0,1,.41-.19,2.64,2.64,0,0,1,1.48,1.38c1.48,2.33,1.74,2.82,4.88,1.92a15.4,15.4,0,0,1,4.14-.52c3,0,6.09.18,9.14.08,1.37,0,2.76.2,4.16.18,3.48,0,7,0,10.45,0a6.32,6.32,0,0,0,1.55,0,28.8,28.8,0,0,1,6-.38,1.22,1.22,0,0,1,1.46,1.18,15.1,15.1,0,0,0,1.69,5.19,3.25,3.25,0,0,1,.16.5.79.79,0,0,1-.84,1,12.22,12.22,0,0,0-3.64.07A9.23,9.23,0,0,0,268.24,408.05Zm6.71,10.6a1.54,1.54,0,0,1-1.2.89.85.85,0,0,1-.47-.14s-.06-.19,0-.24c.38-.56.78-1.1,1.16-1.64.3.2.51.27.54.39A1.28,1.28,0,0,1,275,418.65ZM302,435.16c-.21.32-.53.52-.87.29a1.82,1.82,0,0,1-.6-.78c0-.11.2-.36.31-.54a7.76,7.76,0,0,1,.84.2A.54.54,0,0,1,302,435.16Zm-2.19-15c-.43.55-.86,1.1-1.32,1.63a3.19,3.19,0,0,0-.5,3.44c.33.9.67,1.8,1,2.71.21.66-.19,1.09-.8.87-2.75-1-2.41-.92-4.3,1.35-.11.13-.2.32-.34.39a2,2,0,0,1-1,.28,7.77,7.77,0,0,1-1.5-.45,2.64,2.64,0,0,0-2.88.69,8,8,0,0,0-.67.8,1.89,1.89,0,0,1-1.36.69c-.6.06-1.27.32-1.74-.2a1.71,1.71,0,0,1-.07-2,15.49,15.49,0,0,1,1.12-1.76c.61-.95,1.24-1.89,1.83-2.86a1.23,1.23,0,0,0-.27-1.44,2.06,2.06,0,0,0-2.15-.62c-.58.17-1.13.47-1.7.65a4,4,0,0,1-1.27.2c-.15,0-.43-.37-.4-.52a4.09,4.09,0,0,1,.45-.93c.61-1.25,1.27-2.49,1.82-3.76a1.52,1.52,0,0,0-.64-2c-.75-.56-1.8-.22-2.44-.78s-1-1.43-1.79-1.84a10.34,10.34,0,0,0-3.16-1.18,10,10,0,0,1-4.21-1.33.84.84,0,0,1-.31-.66,1.18,1.18,0,0,1,.42-.6,1.34,1.34,0,0,1,.48-.2.64.64,0,0,1,.25-.05c1.91.16,3.83.26,5.73.5A5.92,5.92,0,0,1,280,412a2,2,0,0,0,2.21-.21,1.21,1.21,0,0,0,.36-1.81c-.43-.54-.94-1-1.4-1.54-1-1.17-2.1-2.32-3.1-3.53a5.67,5.67,0,0,1-.73-1.37.5.5,0,0,1,.13-.46,1,1,0,0,1,.68-.26,2.67,2.67,0,0,1,.9.51,36.26,36.26,0,0,1,4.49,4,2,2,0,0,0,2.35.62,3.27,3.27,0,0,1,1.27-.12,1.06,1.06,0,0,0,1.14-.86c.3-1,.59-2,.89-3a5.26,5.26,0,0,1,1.28-2.26c.23-.23.57-.52.83-.49.48.05.63.54.71,1,0,.26.06.52.09.78s.07.7.1,1h-.06c.12.78.19,1.56.37,2.33.38,1.62,1.16,2.05,2.87,1.52.53-.16.88-.09,1.08.36a19.32,19.32,0,0,0,2.55,3.95c.43.55.72,1.2,1.16,1.74C301.77,415.84,301.3,418.28,299.86,420.16Z"/><path d="M347,407.73a4.19,4.19,0,0,0,2.32.17l2.34-.29a2.66,2.66,0,0,1,2.93,1.26,1.79,1.79,0,0,0,2,.88c.69-.06,1.35-.32,2-.41a1.34,1.34,0,0,1,1.44,1.87,1.65,1.65,0,0,1-1.73,1.31c-2.05-.43-4,.16-5.94.54-2.74.53-5.52.85-8.25,1.42-3.76.78-7.56,1.29-11.34,1.93-2.15.36-4.32.62-6.48.91a8,8,0,0,1-3.62-.33,2,2,0,0,1-1.34-1.49,1.34,1.34,0,0,1,1.1-1.73,4.88,4.88,0,0,1,1,.07,23.19,23.19,0,0,0,7.8.12c3.43-.64,6.89-1.13,10.33-1.67.86-.14,1.72-.29,2.58-.35a6.17,6.17,0,0,0,2.43-.84s.05-.15,0-.22-.09-.16-.15-.17a9.71,9.71,0,0,0-1-.08c-2.09,0-4.19,0-6.28-.06a41.48,41.48,0,0,0-6,.24c-4.34.46-8.68.87-13,1.3a9.33,9.33,0,0,0-2.29.42,1.93,1.93,0,0,1-2.34-2.06,1.09,1.09,0,0,1,1-1c1.22-.05,2.44-.06,3.66-.09,1.57,0,3.14,0,4.7-.14,3.91-.31,7.82-.76,11.74-1,2.61-.17,5.23-.15,7.85-.12a11.47,11.47,0,0,0,2.57-.36Z"/><path d="M349.34,428.55c1.87-.47,3.79-.5,5.65-1a26,26,0,0,1,3.63-.42c3.63-.52,7.25-1.08,10.88-1.61a12.47,12.47,0,0,1,2.35-.19,17.77,17.77,0,0,0,7.41-1.21,1.88,1.88,0,0,1,1-.14,21.28,21.28,0,0,1,2.75.78,1.23,1.23,0,0,1,.6.78c.12.46-.21.82-.57,1.09a1.53,1.53,0,0,1-.71.3A27.33,27.33,0,0,0,377,428a5.58,5.58,0,0,1-2.08.13,37.56,37.56,0,0,0-7.58.37c-2.17.24-4.34.46-6.51.75-1.38.19-2.75.5-4.12.73-2.93.48-5.85,1-8.79,1.39a10.59,10.59,0,0,1-2.61,0,1.86,1.86,0,0,1-1-.69,1,1,0,0,1,.44-1.52,12.68,12.68,0,0,1,1.79-.36C347.42,428.72,348.38,428.64,349.34,428.55Z"/><path d="M368.58,415.53c-.27.48-.41,1.15-.78,1.32-1.7.77-3.3,2-5.4,1.31a4.66,4.66,0,0,0-1.81,0c-3.47.34-7,.59-10.4,1.07-2.84.4-5.64,1.1-8.45,1.66-.77.15-1.54.29-2.32.38-1.64.19-3.29.36-4.94.5a16.15,16.15,0,0,1-2.61.08,2.77,2.77,0,0,1-2.42-1.75,1.62,1.62,0,0,1,.17-1.73,1,1,0,0,1,1.16-.3c.08,0,.18.07.22.13.7,1.18,1.76,1.26,3,1a3.86,3.86,0,0,1,1.3,0,10,10,0,0,0,3.37-.3c1.62-.33,3.24-.67,4.88-.93,2.58-.41,5.12-1,7.66-1.54a53.56,53.56,0,0,1,5.43-.71c2-.24,4-.43,6-.69,1.29-.17,2.57-.44,3.86-.66a1.67,1.67,0,0,1,1.49.26A6.31,6.31,0,0,1,368.58,415.53Z"/><path d="M367.5,421.65a22.16,22.16,0,0,0-5.41.92,2.88,2.88,0,0,1-.77.13,80.84,80.84,0,0,0-8.51,1.42c-1.8.36-3.5,1-5.28,1.4-1.45.31-2.91.54-4.37.77a4.43,4.43,0,0,1-1.3-.06,1.91,1.91,0,0,1-1.4-1.7,1.49,1.49,0,0,1,.94-1.45c1.12-.45,2.26-.95,3.52-.36a3.09,3.09,0,0,0,2.05,0c2.72-.63,5.44-1.2,8.15-1.86a39.76,39.76,0,0,1,5.94-1c2.26-.2,4.51-.41,6.76-.7a13.49,13.49,0,0,0,2-.66,1.87,1.87,0,0,1,1.92.51,1.38,1.38,0,0,1-.55,2.32,4.67,4.67,0,0,1-1,.14C369.24,421.59,368.37,421.61,367.5,421.65Z"/></svg>