<svg id="Calque_1" data-name="Calque 1" xmlns="http://www.w3.org/2000/svg" viewBox="0 0 453.54 609.45"><title>SUFI_COM_Webst_HomeDRAWINGS_UPDT</title><path d="M313.92,117.27c-.11-.4-.58-.72-.66-1.12a2.15,2.15,0,0,0-2.72-1.91c-.24,0-.56-.33-.79-.56a31.12,31.12,0,0,0-2.34-2.43c-1-.83-2.2-1.46-3.26-2.24-1.46-1.07-2.88-2.18-4.31-3.3-1-.78-1.94-1.61-2.94-2.38a11.7,11.7,0,0,1-1.36-.86,28.17,28.17,0,0,0-2.85-3.15,59.33,59.33,0,0,0-5.08-3.13c-2-1.21-4-2.42-5.91-3.68a10,10,0,0,1-2.55-1.94c-2-2.58-4.77-4.22-7.47-5.89a31.76,31.76,0,0,0-3.51-1.46c-1-.45-1.89-1.28-3-.36-.12.1-.4,0-.59,0a11.22,11.22,0,0,0-1.32.44c-.3.12-.56.39-.87.45-1.21.22-2.44.33-3.64.59-1.79.39-3.55.93-5.35,1.27-.94.18-2-.13-2.88.14a24.18,24.18,0,0,0-3.72,1.75,12.42,12.42,0,0,1-2.84,1.54c-2.7.54-5.46.8-8.19,1.21-.62.09-1.21.35-1.82.48a51.24,51.24,0,0,0-5.13,1.08c-2.71.87-5.31,2.08-8,2.94s-5.55,1.48-8.32,2.23c-1.13.31-2.23.7-3.35,1-.89.26-1.8.5-2.7.74-2.93.79-5.88,1.54-8.79,2.38-1.55.44-3,1.11-4.58,1.54-1.84.51-3.74.84-5.59,1.31s-3.65,1-5.46,1.57c-.58.18-1.09.62-1.67.77-1.85.49-3.74.79-5.56,1.36-1.6.51-3.1,1.32-4.67,1.93-2.9,1.13-5.83,2.2-8.73,3.33-2.62,1-5.23,2.1-7.84,3.16-1.95.79-3.89,1.57-5.83,2.39a43.07,43.07,0,0,1-4.81,2c-1.35.38-2.13,2.1-3.81,1.54,0,0-.07,0-.1,0-1.7.57-3.39,1.18-5.1,1.7s-3.38.8-5,1.42c-3,1.15-6.08,1.23-9.15,1.65-1.11.15-2.25.1-3.35.31-2.22.43-4.4,1.1-6.63,1.43a18.4,18.4,0,0,1-4.08-.13,2.27,2.27,0,0,0-2.54,2.29,16,16,0,0,0,1,3.68c.13.33.87.38,1.17.7,1.21,1.29,2.33,2.66,3.56,3.94,1.07,1.12,1.44,2.88,3.12,3.46a1.06,1.06,0,0,1,0,.66c-.26.56-.78,1.08-.82,1.64-.13,1.88-.12,3.77-.11,5.66,0,.86.22,1.72.21,2.58,0,1.42-.28,2.85-.22,4.26.15,3,.47,5.91.66,8.87.13,2,.09,4.06.26,6.09a12,12,0,0,0,.78,2.41c.15.48.26,1,.37,1.48,0,.06-.1.14-.16.21a6.5,6.5,0,0,1-.93-.9c-.25-.35-.29-.86-.56-1.18-1.2-1.42-.53-3.85-2.59-4.8-.09,0,0-.36-.06-.55-.11-1.56-.28-3.12-.32-4.69-.05-1.93,0-3.86,0-5.78,0-.32.57-.77.48-.92-.83-1.37-.48-2.78-.53-4.25a62.28,62.28,0,0,1,.84-10.1,3.57,3.57,0,0,0-.54-2.54,2.44,2.44,0,0,0-2.28-.28,2.69,2.69,0,0,0-1.18,2c-.21,2.59-.25,5.19-.27,7.78,0,1.86.3,3.75.11,5.59a46.59,46.59,0,0,0-.25,8.73c.1,1.32-.3,2.68-.19,4,0,.55-.48,1.86,1,1.76.15,0,.4.38.48.63s0,.87.22,1.15a1.62,1.62,0,0,1-.45,2.5c-.51.41-1.1,1.51-.9,1.88a4,4,0,0,1,.61,2.15,29.17,29.17,0,0,0,.56,4.21c.17,1.22.27,2.45.51,3.65.18.9.59,1.74.77,2.64a11.42,11.42,0,0,1,0,1.7c0,1,.17,2,.21,3,.07,1.76,0,3.54.15,5.28.4,3.64,1,7.26,1.43,10.9.39,3.21.72,6.43,1.06,9.65a33.53,33.53,0,0,1,.31,4.24c0,1.62-.31,3.24-.49,4.85a44.92,44.92,0,0,0-.52,4.8c0,2.69.22,5.39.3,8.08,0,.46-.29.94-.28,1.4,0,.93.26,1.86.26,2.79,0,1.55-.18,3.11-.2,4.66,0,1.22.22,2.45.14,3.67-.14,2.18-.43,4.35-.63,6.53a9.66,9.66,0,0,0,0,2c.31,2.64.74,5.27,1,7.92.1,1-.18,2.12-.17,3.19,0,2.28.15,4.56.2,6.84,0,1.56,0,3.12,0,4.68,0,.15-.17.29-.36.43l0,2.4a4.3,4.3,0,0,1-.09.9c0,.52-.06,1-.1,1.56a1.74,1.74,0,0,1,.16.46,41.61,41.61,0,0,1,.58,6.21c0,2.86-.26,5.73-.16,8.59s.65,5.88.77,8.83c.13,3.24.05,6.5-.06,9.75,0,1.39-.58,2.77-.62,4.16-.07,2.63.17,5.26.09,7.89-.07,2.43-.2,2.52,2.1,3,.52.1,1.7-.6,1.73-1,.07-1.14.73-1.34,1.56-1.59.67-.2,1.29-.59,2-.76,2-.48,4-.91,6-1.36,0-1.34-.1-2.68-.16-4a9.91,9.91,0,0,1-1.09-1.84c-.13-.22,0-.6,0-.9h-.11c0-1.74,0-3.48-.08-5.22,0-.64-.46-1.26-.52-1.91-.32-3.4-.6-6.8-.85-10.2-.15-2-.33-4-.34-6s.19-4,.26-6.07c0-1-.39-2.31.06-3.08,1.38-2.33-.32-4.39-.22-6.58.12-2.49,0-5-.08-7.5s-.07-5.23-.09-7.85c0-3.08,0-6.16-.06-9.24-.06-3.77-.17-7.53-.27-11.3-.08-3.21-.09-6.43-.27-9.64-.16-2.89-.57-5.77-.77-8.66-.12-1.74,0-3.49-.09-5.23s-.23-3.74-.24-5.61c0-2.05.08-4.1.13-6.16,0-1.22.11-2.44.14-3.66,0-1.57.12-3.14.09-4.72,0-3.18-.06-6.36-.26-9.53-.13-2.09-.58-4.15-.85-6.24a17.47,17.47,0,0,1-.06-2.18c0-.13.13-.25.2-.38a2.57,2.57,0,0,1,.72.48c1.47,2,2.9,4,4.35,6.06.92,1.27,1.91,2.49,2.78,3.79,1.45,2.17,2.66,4.51,4.29,6.53a8.91,8.91,0,0,0,3.91,3.27,10.43,10.43,0,0,1,3.59,2.77,12.61,12.61,0,0,0,5.51,3.18,32.84,32.84,0,0,1,3.47,1.52c.12.05.22.18.35.2,1.8.3,3.61.56,5.4.88.51.09,1,.38,1.51.43,1.45.14,2.91.25,4.36.28,2.48.06,5-.11,7.42.19.56.07,1.05,1.59,1.36,2.51a6,6,0,0,1,0,2.1,12,12,0,0,1-.21,1.34c-.67-.26-1.58.85-2.08-.39a1.58,1.58,0,0,0-1.92-1.1c-.92.13-1.94-.35-2.83-.16s-1.6,1-2.47.06c0,0-.24,0-.24.07-.19,1.8-2.54,1-3,2.45a.94.94,0,0,1-.57,0,3.76,3.76,0,0,0-4.52,1.24,3.41,3.41,0,0,0,.93,3.76c2.65,1.79,1.75,4.4,1.76,6.79,0,1.84-.13,3.69-.24,5.53-.13,2.13-.33,4.25-.44,6.37,0,.87.11,1.75.13,2.62,0,1.18-.1,2.36,0,3.53.23,3.45.47,6.9.82,10.34a42.58,42.58,0,0,0,.88,4.28,3.65,3.65,0,0,1,0,.5c.16,2.5.29,5,.48,7.5.24,3.1.65,6.18.78,9.28.17,3.86.17,7.72.19,11.59,0,1.93-.49,4-.06,5.77.49,2.06-.11,3.95-.07,5.91,0,1.81,0,3.62-.09,5.43a.24.24,0,0,1-.07.13,5.64,5.64,0,0,1,0,1v.07a4.11,4.11,0,0,1,.55,2.09c0,.52,0,1-.05,1.53a.88.88,0,0,1,.13.22,9.32,9.32,0,0,1,.62,2,4.58,4.58,0,0,0,1.07,2.92c6.18-.3,12.23,1.28,18.37,1.62h0q1.07.06,2.15.06a4,4,0,0,1,1.36-.66c2.21-.12,4.42-.15,6.63-.16a19,19,0,0,0,3.15.12c1.73-.31,3.38-1.08,5.11-1.32,2.25-.3,3.77-1.27,4.35-3.49a12.72,12.72,0,0,0,0-1.64c.25-2.15.69-4.29.79-6.44.12-2.61,0-5.22,0-7.84a1.6,1.6,0,0,1,.24-.84,9.55,9.55,0,0,1,.16-4.58c-.51-.16-.77-.89-.73-2,.08-2.22.11-4.44.1-6.66s0-4.22-.15-6.32-.53-4.33-.66-6.5c-.15-2.72-.14-5.46-.21-8.18s-.09-5.26-.27-7.87c-.1-1.44-.57-2.86-.67-4.3s.26-2.64.14-3.93c-.25-2.76-.67-5.5-1-8.24-.27-2-.43-4.07-.86-6.06s-1.14-3.81-1.67-5.73a33.56,33.56,0,0,1-.86-3.71,25,25,0,0,0-.37-3.59c-.33-1-.85-2.25-2.39-2.32a13,13,0,0,1-1.74.27c-.22,0-.51-.26-.65-.48s.27-.37.38-.58c.29-.57.89-1.27.74-1.69a2.81,2.81,0,0,0-1.57-1.66,21.93,21.93,0,0,0-4.18-.23c-1.68,0-3.37-.12-5,0a15.51,15.51,0,0,0-3,.63c-.95.25-1.87.6-2.81.86-.09,0-.39-.28-.4-.45a25.2,25.2,0,0,1-.08-3.63,1.61,1.61,0,0,1,1-1.13c2-.41,4.34-.15,6-1.1,2.16-1.25,4.54-1.14,6.73-2,3.21-1.28,6.69-1.84,10-2.9,1.75-.56,3.34-1.6,5.06-2.3a26.39,26.39,0,0,1,3.37-.9c.1,0,.21,0,.3,0,.93-.36.88-.36,1,.87s.41,2.25.44,3.37c0,1.36-.16,2.72-.19,4.08-.06,2.24.05,4.5-.14,6.73-.27,3.12.77,6.31-.64,9.4a12.47,12.47,0,0,0-.55,3.61c-.21,1.78-.49,3.57-.56,5.36-.1,2.56.05,5.14-.05,7.7s-.45,5.36-.58,8c-.08,1.65.06,3.31.1,5,0,.27,0,.54.05.81.13,3.11.11,6.23.42,9.31.29,2.85.89,5.67,1.41,8.5.4,2.2.88,4.38,1.32,6.57a12.47,12.47,0,0,0,4.47,7c.29.26.84.19,1.23.37a.54.54,0,0,1,.16.12,3.7,3.7,0,0,1,.58.28c.84.52,1.7,1,2.58,1.43.22-.35.66-.2,1.14,0a15.55,15.55,0,0,0,2.86,1,14.26,14.26,0,0,1,5.88,1.92c.68.43,1.69.31,2.39.72,1.43.82,2.65,1,4.12,0,2.44-1.75,3.42-4.27,4.16-7,.22-.8.53-1.57.77-2.36.41-1.36.77-2.74,1.21-4.09a5.7,5.7,0,0,1,.58-1.42,3.63,3.63,0,0,1,.25-1.49c.4-1,.77-2.06,1.1-3.1-.09-.05-.17-.11-.17-.16a4.29,4.29,0,0,1,.09-1.61,23,23,0,0,0,.73-10.07,29.47,29.47,0,0,1-.19-7.46,30.78,30.78,0,0,0-.31-7.31,49.94,49.94,0,0,1,.28-5.56,22.27,22.27,0,0,0-.33-2.92c-.16-1.38-.29-2.76-.46-4.14-.1-.8-.28-1.58-.39-2.37-.23-1.72-.37-3.45-.68-5.15a24.56,24.56,0,0,0-.9-2.41,16,16,0,0,0-.63-2.69c-1.16-2.29-1.86-4.8-3.88-6.7-1.16-1.08-1.61-2.89-2.49-4.3-1-1.63-1.44-3.77-3.59-4.51-.17-.06-.43-.22-.44-.35-.19-1.65-1.72-2.2-2.67-3.21-.3-.32-.92-.31-1.37-.5a1,1,0,0,1-.55-.45c-.35-.89-.63-1.82-1-2.71-.06-.15-.38-.18-.53-.32-.64-.64-1.26-1.3-1.85-2a1,1,0,0,1,.42-.51c2.15-.85,4.35-1.56,6.44-2.53a31.85,31.85,0,0,0,3.85-2.47c.19-.12.45-.41.53-.37,1.21.75,1.79-.48,2.66-.8,1.27-.46,2.59-.77,3.86-1.23,1.82-.65,3.61-1.36,5.41-2.05,2.79-1.08,5.58-2.15,8.35-3.25,2.41-1,4.82-1.9,7.2-2.93,1.16-.5,2.21-1.3,3.38-1.76,1.76-.68,3.59-1.17,5.38-1.78a2.93,2.93,0,0,0,.91-.57c1-.88,2.13-1.73,3.07-2.71.69-.71,1-.21,1.12.28.24,1.53.21,3.12.52,4.63.37,1.84-.84,3.33-1.65,4.35-1.22,1.52-1.55,3.58-3,4.78-1.8,1.45-3.56,2.89-6.19,3-1.39,0-2.8,1.13-4.1,1.92a38,38,0,0,0-3.67,2.78c-.2.16-.26.51-.37.77s-.1.47-.22.51c-1.88.61-1.7,2.5-2.08,3.82a90.08,90.08,0,0,0-1.78,8.89c-.41,2.21-.81,4.43-1.15,6.65-.11.73,0,1.49,0,2.22-.24,3-.5,6-.77,9a1.47,1.47,0,0,1-.14.58,3.05,3.05,0,0,0,1.12,4.2,18.49,18.49,0,0,0,7.47,3c1.4-.33,2.79-.68,4.2-.91a5.4,5.4,0,0,1,.51,1.5c.5,2.25.84,4.55,1.5,6.76a41.9,41.9,0,0,1,1.82,7.48,29.43,29.43,0,0,0,1.4,5c.06.19.2.36.24.56.12.55,0,1.49.33,1.61a20.76,20.76,0,0,0,4.17,1.34c.61.12,1.25.23,1.88.29,6.07-1.5,12.24-2.76,18.24-3.76a63.74,63.74,0,0,1,7-.81h0c.59-1.36,1.65-2.55,1.16-4.25a21.25,21.25,0,0,1-.7-3.84c-.15-1.56-.14-3.13-.19-4.7,0-.1.12-.2.18-.3.09.09.22.17.26.28a12,12,0,0,1,1,2.67c.32,2.24.42,4.51.68,6.76.13,1.11.37,2.21.54,3.32a33.32,33.32,0,0,1,5.66.54l-.34-.15c-1.25-.48-1.77-.81-1.26-2.11.07-.18-.19-.48-.27-.74-.19-.64-.39-1.27-.52-1.92s-.24-1.57-.39-2.35c-.08-.39-.43-.82-.33-1.12.67-2.09-1-3.55-1.35-5.35s-.67-3.5-.92-5.26c-.1-.71.33-1.59,0-2.14-.63-1.2.13-1.49.9-1.72,2.48-.72,5-1.39,7.47-2,1.62-.41,2.36-1.3,2.11-3-.21-1.37-.75-2.7-.9-4.07-.19-1.72-.06-3.48-.21-5.2a11.57,11.57,0,0,0-.71-3.13c-.67-1.74-1.52-3.42-2.26-5.13a64.75,64.75,0,0,0-2.93-6.78,54.3,54.3,0,0,0-5.38-7.85,46.11,46.11,0,0,0-6.53-6.26c-1.22-1-2.5-2.63-4.62-1.53a4.7,4.7,0,0,1-2.37.29c-.81-.05-1.61-.52-2.42-.54-2.12-.06-3.54-1.11-5.15-2.45a2.71,2.71,0,0,1-1-3.63,2.18,2.18,0,0,0,0-.91,34.57,34.57,0,0,0-.47-4.1,22.08,22.08,0,0,0-1.24-3.36c-.25-.62-.93-1.35-.78-1.81a17.29,17.29,0,0,1,1.79-3.35,49.87,49.87,0,0,0,2.81-4.44A61.29,61.29,0,0,0,279,165.8c.82-2.28,1.69-4.53,2.41-6.84.49-1.58.71-3.24,1.12-4.85.55-2.17,1.15-4.33,1.77-6.48a6.14,6.14,0,0,1,.7-1.24c.17.51.58,1.08.47,1.53-.74,3.22.42,6.31.51,9.47a7.34,7.34,0,0,0,.28,1.36,32.18,32.18,0,0,1,.81,3.66c.18,1.74-.1,3.56.3,5.23a25,25,0,0,1,.65,7.83c-.15,1.86-.16,3.73-.25,5.59a26.62,26.62,0,0,1-.23,3.48c-.18,1-1.1,2,.1,3,.06,0,0,.27,0,.39a5.18,5.18,0,0,0,.31,4.3c.21.39.16,1.31.24,1.32a8.15,8.15,0,0,0,3-.27c.35-.14.49-1.33.4-2-.23-1.61-.66-3.18-1-4.78a3.25,3.25,0,0,1,0-1.2c.19-1,.45-2,.68-3,.18.09.49.17.5.28.07.72.06,1.45.12,2.17.14,1.75.32,3.51.48,5.26.12,1.32-.62,3,1.45,3.48a3.37,3.37,0,0,0,1.8,0,1.49,1.49,0,0,0,.72-1.19,30.71,30.71,0,0,0-.54-4c-.39-2-1-4-1.26-6.08-.39-3.52-.6-7.07-.79-10.62-.18-3.25-.22-6.51-.34-9.76,0-.74-.21-1.47-.23-2.2-.07-1.9-.08-3.81-.16-5.71s-.26-3.71-.32-5.57c0-1.39,1.14-2.83-.22-4.16a1.55,1.55,0,0,1,.38-.48,18.84,18.84,0,0,0,3.32-2.57,53.6,53.6,0,0,0,3.24-5,.58.58,0,0,1,.56-.06,8.74,8.74,0,0,0,5.49,2c1.89.26,3.11-1.72,4.15-3.6.65-1.18.59-2.73,1-4.06a14.94,14.94,0,0,0,0-7.91c-.19-.83-.79-2.31,1.17-2.37.43,0,.85-.62,1.24-1a4,4,0,0,0,.72-.94A1.48,1.48,0,0,0,313.92,117.27ZM108.34,133.39a1.55,1.55,0,0,1,.31-1.29c2.74-.49,5.5-.86,8.24-1.31.56-.09,1.08-.39,1.63-.54.18,0,.4.08.61.12a2.11,2.11,0,0,0-.19.65,4.87,4.87,0,0,0,.26,2.22c.27.42,1.22.39,1.85.58a6,6,0,0,1,2,.71,34.53,34.53,0,0,1,2.83,2.84c.83.86,1.7,1.7,2.48,2.6.49.57.83,1.32,1.8.83,0,0,.27.23.34.39a5.35,5.35,0,0,0,.42,1.09c1.66,2.15,3.33,4.28,5,6.38,1.05,1.3,2.23,2.49,3.26,3.81.49.63.61,1.63,1.18,2.13a9.48,9.48,0,0,1,2.17,3.11,34.11,34.11,0,0,0,2.92,4c.6.85,1,1.82,1.6,2.7a3,3,0,0,0,3.48,1.49,2.17,2.17,0,0,0,1-1.91,3.47,3.47,0,0,0-1.73-2c-1.14-.51-1.54-1.45-2.14-2.34-.73-1.06-1.63-2-2.38-3.06-1.53-2.17-3-4.43-4.52-6.58s-3.31-4.38-5.05-6.5c-1.55-1.89-3.18-3.72-4.83-5.53-2-2.14-4-4.25-6-6.34-.54-.56-1.23-1-1.82-1.5-.15-.13-.17-.4-.24-.61l.75-.17,5-1c.54-.11,1.11-.12,1.65-.27,2.37-.66,4.74-1.33,7.1-2,1.69-.51,3.39-1,5-1.66,2.53-1,5-2.16,7.53-3.21a45.91,45.91,0,0,1,4.83-1.79,2.39,2.39,0,0,1,1.9.43,26.64,26.64,0,0,1,3.08,3.15c1.16,1.37,2.14,2.89,3.33,4.22,2.23,2.49,4.56,4.9,6.85,7.33.53.56,1,1.13,1.62,1.65.92.82,1.93,1.54,2.8,2.41,1.08,1.08,2.09,2.24,3.07,3.42,2.19,2.63,4.33,5.29,6.49,7.94.12.15.19.34.3.49.3.4.54,1,.94,1.15a2.21,2.21,0,0,0,2.91-1,2.31,2.31,0,0,0-.27-2c-1.93-2.38-3.91-4.72-6-6.94-1.84-1.93-3.91-3.65-5.82-5.52-1.4-1.37-2.68-2.87-4.06-4.27-.9-.92-1.91-1.72-2.79-2.66-1.16-1.25-2.24-2.58-3.36-3.87a23,23,0,0,1-1.73-1.94c-.77-1.11-1.4-2.32-2.12-3.47a5.15,5.15,0,0,0-1.19-1.59c-1.65-1.12-.27-1.32.46-1.63,2.5-1.08,5-2.15,7.53-3.14a41.17,41.17,0,0,1,4.94-1.57c.45-.11,1.06.3,1.56.55a12.3,12.3,0,0,1,5.22,4.23c1.09,1.72,2.72,3.08,4,4.67.83,1,1.43,2.23,2.22,3.29,1.36,1.83,2.76,3.63,4.18,5.4,1.14,1.42,2.34,2.81,3.54,4.19.87,1,1.81,2,2.65,3,1.54,1.91,3,3.87,4.54,5.81a1.28,1.28,0,0,1,.2.57,3.14,3.14,0,0,0,2.56,1.72,2,2,0,0,0,1.06-3.43c-.79-1-1.71-1.83-2.48-2.81-1.09-1.39-2-2.9-3.17-4.26-.8-1-1.85-1.7-2.69-2.63-1.09-1.21-2.08-2.51-3.13-3.77-1.37-1.64-2.8-3.23-4.12-4.91-1-1.3-1.86-2.73-2.88-4-1.35-1.74-2.78-3.43-4.21-5.1-1.08-1.26-2.25-2.45-3.34-3.71-.2-.23-.4-.82-.29-.92a2.75,2.75,0,0,1,1.25-.7c.92-.21,1.89-.19,2.8-.44,3.18-.87,6.33-1.88,9.53-2.66a2.67,2.67,0,0,1,2.15.76c1.47,1.61,2.73,3.41,4.12,5.1,1,1.26,2.17,2.45,3.23,3.69,1.25,1.45,2.42,3,3.73,4.36,2.86,3,5.77,6,8.68,9,2.32,2.39,4.78,4.65,7,7.16a7.71,7.71,0,0,1,1.64,3.81c.18,1.25,1.16,1.06,1.57,1a2.67,2.67,0,0,0,1.91-1,2.58,2.58,0,0,0,0-2.13,18.36,18.36,0,0,0-2.55-4.2c-1.4-1.59-3.12-2.88-4.67-4.34-1.08-1-2.12-2.09-3.17-3.15-1.9-1.91-3.9-3.75-5.68-5.77-2.6-3-5.06-6-7.56-9.08-1.69-2.06-3.36-4.15-5-6.24-.09-.12-.17-.25-.25-.38a5.65,5.65,0,0,1,1-.52q3.61-1,7.23-1.87c3.52-.88,7.05-1.7,10.55-2.64,2.66-.72,5.28-1.58,7.92-2.39,1.48-.46,2.94-1,4.42-1.45,1.24-.4,1.52-.1,2.15,1.28a2.87,2.87,0,0,0,1.71,1.57c2.1.31,3,2,4.21,3.28,1.74,1.77,3.3,3.7,5,5.54a62.38,62.38,0,0,1,4.75,5.22c1.62,2.26,2.86,4.78,4.28,7.18.51.86,1.09,1.67,1.55,2.55.35.67.53,1.44.87,2.11.79,1.55,1.58,3.11,2.52,4.57.12.19,1.28,0,1.64-.31a7.88,7.88,0,0,0,1.11-2.16l-1.14-2.13c-.08-.14-.24-.31-.21-.43.63-2.4-1.47-3.23-2.58-4.66-.86-1.11-1.36-2.5-2.17-3.66-1.38-2-2.86-3.86-4.32-5.77-1.28-1.68-2.54-3.38-3.92-5-1.66-1.92-3.48-3.71-5.18-5.59-1.3-1.44-2.54-2.94-3.8-4.43-.25-.3-.46-.63-.69-.94.5-.16,1.2-.61,1.46-.43.88.62,1.55.06,2.33-.09,1.53-.29,3.11-.35,4.61-.74s3.11-1.08,4.66-1.63a20.7,20.7,0,0,1,2.78-.94c.31-.06.8.4,1.11.72.84.85,1.64,1.74,2.42,2.65,1.42,1.65,2.84,3.29,4.21,5a33.87,33.87,0,0,1,2.58,3.55c1.54,2.52,2.93,5.14,4.48,7.65a39,39,0,0,0,3.41,4.79c1.36,1.6,3,3,4.43,4.5.18.19.16.56.3.81s.46.64.69,1a3.47,3.47,0,0,1,.3.47c.11.22.19.45.28.68a4.63,4.63,0,0,1,.53-.55.77.77,0,0,1,.51-.18c.43.07,1.07.45,1.23.29a3.43,3.43,0,0,0,1.07-1.7c.3-1.8-1.12-2.88-2.35-3.44a12.44,12.44,0,0,1-5.1-4.9c-1.72-2.57-3-5.43-4.72-8-2-2.93-4.17-5.71-6.37-8.49-1.45-1.84-3.08-3.54-4.57-5.34-.08-.1.25-.79.45-.82,1.26-.2,2.57-.21,3.82-.45,1.6-.31,3.15-.82,4.74-1.19a5.42,5.42,0,0,1,2.07-.23,19.58,19.58,0,0,1,8.35,4.15c.89.68,1.67,1.52,2.59,2.15,3.1,2.13,6.25,4.2,9.37,6.31a31.06,31.06,0,0,1,4.74,3.3,61.46,61.46,0,0,0,8.52,7.23,36.44,36.44,0,0,1,3.73,3.57c.36.33.94.41,1.33.72a17.17,17.17,0,0,1,1.46,1.47c.21.22.51.41.6.67a1.63,1.63,0,0,1,.09,1.12,15.44,15.44,0,0,1-1.7,2.84,5.11,5.11,0,0,1-2.19,1.79c-.83.24-1.86-.21-2.8-.3a8,8,0,0,0-2.89-.11,18.88,18.88,0,0,0-4.47,2c-3.29,2-7,2.79-10.69,3.29a26.61,26.61,0,0,0-8.13,2.77,49.67,49.67,0,0,1-6.59,2.09c-1.71.55-3.4,1.15-5.1,1.73-1.24.43-2.5.84-3.72,1.33-2.18.89-4.3,1.93-6.5,2.75-2,.76-4.13,1.32-6.19,2-1.48.48-3,1-4.44,1.47-2.2.73-4.4,1.47-6.61,2.18-2.94,1-5.87,1.93-8.83,2.82-2,.6-4.07,1-6.05,1.64-1.67.54-3.24,1.39-4.91,2s-3.42,1-5.14,1.42c-3.08.76-6.39,1-9.2,2.35s-5.56,1.9-8.29,3c-3,1.19-6.19,1.7-9.27,2.59-2,.57-3.86,1.39-5.84,1.9s-4.22.8-6.32,1.23c-.51.1-1,.43-1.47.56-2.46.67-4.91,1.34-7.38,1.93-1.15.28-2.35.33-3.51.57-1.86.38-3.71.85-5.57,1.23-.43.09-.91-.09-1.35,0-.72.12-1.42.37-2.14.52s-1.32.15-2,.27a6.75,6.75,0,0,0-1.94.47c-.95.5-1.49,0-2-.62a45.4,45.4,0,0,0-3.23-3.93c-1.4-1.31-3.07-2.33-4.6-3.52a14.45,14.45,0,0,1-1.16-1.22,57.3,57.3,0,0,0-10.29-8.15,16.54,16.54,0,0,1-5.66-5,62.74,62.74,0,0,0-5.41-6.74C111.67,136.87,109.93,135.2,108.34,133.39Zm125.55,19c-.49,1.7-.46,3.53-1.94,4.91-1.23,1.16-2.09,2.7-3.33,3.85a19.65,19.65,0,0,1-3.57,2.35c-2.91,1.7-4.53-.71-6.48-2.08-.41-.29-1.22-.25-1.38-.58-.61-1.26-.95-2.64-1.55-3.9A13.65,13.65,0,0,0,214,154.6a2.14,2.14,0,0,0-.63-.39,3.32,3.32,0,0,1,.57-.45c1.94-.93,3.85-2,5.86-2.72a27.77,27.77,0,0,1,6.26-1.65,7.77,7.77,0,0,0,3.77-1.18,1.44,1.44,0,0,1,.54-.23q2.29-.43,4.58-.83a5.55,5.55,0,0,1,.74,0c-.13.64-.14,1-.23,1C232.7,148.71,234.31,150.94,233.9,152.36Zm-45.71,12.22c.61,1.21-.63,1.71-.9,2.55a12.4,12.4,0,0,1-2,3.45c-1.34,1.79-2.74,3.53-4.25,5.18a4.48,4.48,0,0,1-2,.78c-.85.25-1.71.43-2.29.57a35.19,35.19,0,0,1-3.61-.54,3,3,0,0,1-1.24-1,7,7,0,0,1-2.11-5,15.54,15.54,0,0,0-.13-3c-.19-1.18.62-1.44,1.38-1.69,1.92-.64,3.85-1.22,5.79-1.8.31-.09.67,0,1,0,2.22-.4,4.47-.71,6.65-1.27,2.76-.71,5.5-1.56,8.19-2.5s5.22-2.2,7.91-3.06c2.37-.76,4.85-1.13,7.27-1.73,1.19-.3,2.35-.74,3.53-1.09a4.5,4.5,0,0,1,.75-.1c-.05.24-.09.48-.16.71a12.64,12.64,0,0,1-1.09,3.29c-1.59,2.38-.32,5.73-2.71,7.75-1.55,1.31-3.18,2.54-4.83,3.74a21.27,21.27,0,0,1-2.35,1.32,2,2,0,0,1-.63.31,21.72,21.72,0,0,1-3.42.35,3.81,3.81,0,0,1-2.29-.71,4,4,0,0,1-1.05-2.21c-.31-1.89-.43-3.81-.66-5.71a1,1,0,0,0-.43-.72c-.57-.26-1.26-.67-1.77-.53a5.34,5.34,0,0,0-2.08,1.32C188.35,163.51,188,164.27,188.19,164.58Zm-40.32,7a2.25,2.25,0,0,1,1.4-1.26c1.45-.31,3-.31,4.42-.54,2.11-.33,4.22-.67,6.29-1.15,1.77-.41,2.35-.26,2.4,1.43.11,3.21.34,6.49-1.1,9.5a9.76,9.76,0,0,1-4.8,4.39c-1,.48-1.93,1-3.21,1.63-.9-.67-1.83-1.34-2.73-2a8.89,8.89,0,0,1-2.92-4.6,2.45,2.45,0,0,1,0-.91c.13-1.49.31-3,.38-4.47C148.06,172.91,147.68,172.16,147.88,171.59Zm-29.68,161c-1.18.31-2.33.69-3.52,1-.19,0-.66-.23-.66-.36,0-1.2.07-2.41.1-3.61s0-2.25.06-3.37c.1-4.11.29-8.21.26-12.32,0-2.14-.47-4.27-.65-6.42-.2-2.39-.45-4.79-.41-7.18a78.16,78.16,0,0,1,.6-7.8c.16-1.42.8-2.8.86-4.22.07-1.79-.3-3.6-.37-5.41-.06-1.56.06-3.13.09-4.69,0-1,0-1.91,0-2.86.07-1.75.22-3.5.24-5.24a18.87,18.87,0,0,0-.31-2.88c-.25-1.7-.63-3.38-.78-5.08a36.61,36.61,0,0,1-.05-4.76c.09-2.13.32-4.25.43-6.37a13.46,13.46,0,0,0-.18-2.39.68.68,0,0,0-.43-.47c-1.52-.23-.93-1.63-1.37-2.44a.4.4,0,0,1,.15-.35c2.69-1.44,1.61-3.78,1.48-5.93-.06-1.11.14-2.22.14-3.34,0-2.56-.09-5.11,0-7.67.06-1.92.45-3.83.47-5.75,0-1.64-.32-3.29-.44-4.93-.17-2.32-.23-4.65-.45-7-.14-1.49-.5-3-.7-4.46q-.52-3.71-1-7.43c-.32-2.72-.63-5.43-.9-8.15-.21-2.09-.29-4.2-.54-6.29-.15-1.23-.55-2.43-.75-3.65a3.76,3.76,0,0,1,.25-1.26,7.32,7.32,0,0,1,.73.85c.76,1.2,1.4,2.47,2.24,3.6,1.4,1.87,1.33,4,1.27,6.17.53,3.64,1.14,7.28,1.56,10.93a42.66,42.66,0,0,1,0,4.87c0,1.81.05,3.63,0,5.44,0,2.1-.09,4.19-.09,6.29,0,1.75.07,3.51.08,5.26,0,.37-.22.75-.17,1.1.43,2.93-.12,5.86,0,8.79.12,2.6.47,5.19.58,7.79.07,1.68-.12,3.37-.15,5.06a16,16,0,0,0,.17,1.87c.14,1.41.36,2.83.41,4.24s-.12,2.86-.08,4.29c0,1.17.23,2.33.35,3.5,0,.06.07.13.07.19-.12,2.63-.28,5.25-.36,7.88,0,.7.29,1.4.29,2.1,0,1.8,0,3.61-.15,5.41s-.46,3.59-.41,5.38.49,3.69.69,5.54c.11,1,.08,1.92.09,2.87,0,.09-.14.23-.25.28-1.35.64-1.79,1.36-1.2,3a30.41,30.41,0,0,1,1.13,6.58c.33,2.76.55,5.53.74,8.31.08,1.1-.13,2.22-.08,3.32.09,1.76.28,3.51.44,5.26l.45,5.22c.15,1.69.38,3.38.42,5.08,0,1.34-.21,2.69-.27,4a2.09,2.09,0,0,0,.25,1.33C119.3,332.19,119,332.42,118.2,332.62Zm4.25-142.25c-1.28-1.46-2.28-3.19-3.65-4.55-2.06-2.05-2.73-4.91-4.49-7.11-.36-.44-.69-.91-1-1.36a7.5,7.5,0,0,0,1.51.73c2.38.55,3.45,2.38,4.51,4.31.64,1.18,1.49,2.24,2.23,3.36a6.18,6.18,0,0,1,.33.64l-.18.09a31.91,31.91,0,0,0,1.63,3.19,21.69,21.69,0,0,0,2,2.22c.08.1,0,.3.07.45-.14,0-.32.1-.4,0A16.68,16.68,0,0,1,122.45,190.37Zm39.78,25.94a1.26,1.26,0,0,1-.74.23q-2.6.14-5.2.23a8,8,0,0,1-1.37-.09c-1.53-.22-3-.44-4.55-.8a22.25,22.25,0,0,1-11.54-6.35c-1-1.05-2.57-1.54-3.61-2.57a53.07,53.07,0,0,1-3.74-4.52c-.11-.13-.17-.32-.3-.4-2.22-1.37-2.76-4.05-4.53-5.79a10.54,10.54,0,0,1-1.46-2.35,6,6,0,0,1-.34-.89l1.36-.15a11.06,11.06,0,0,0,.87,1.07c.32.32.77.53,1.09.85,1.73,1.71,3.38,3.5,5.17,5.15.95.88,2.13,1.5,3.17,2.29.87.66,1.66,1.44,2.55,2.08a24.85,24.85,0,0,0,3.21,2.11,65.18,65.18,0,0,0,6.39,3,34,34,0,0,0,5.4,1.44c1.53.31,3.11.41,4.66.6a4,4,0,0,1,1.55,1.24c.7,1,1.33,2,1.95,3C162.3,215.83,162.33,216.22,162.22,216.31Zm-1.77,12.28c.17.28.31.41.31.52-.07,1.12-.13,2.24-.27,3.34a3.68,3.68,0,0,1-.51,1.05c0-.27,0-.54-.07-.81a16.14,16.14,0,0,1-.34-2.66C159.59,229.6,160.08,229.17,160.45,228.59Zm22.08-.58.31.66-.39,1.78a3.44,3.44,0,0,1-.35-1.14A5,5,0,0,1,182.52,228Zm-11.12,1.73a4.61,4.61,0,0,1,3.76-2.48c.83-.07,1.37-.52,2.09-.62.22,0,.44-.09.66-.14a5.08,5.08,0,0,0-.1.63,13.75,13.75,0,0,0-.07,2.74c.28,1.73,0,3.66,1.7,5a3.28,3.28,0,0,0,4.16.27,5.82,5.82,0,0,0,2.59-3.61,6,6,0,0,1,.57-1c.36.34,1,.72,1,1-.25,2.05,1,3.69,1.37,5.56a2,2,0,0,0,.2.76c1.75,2.47,1.87,5.39,2.31,8.22.25,1.63.57,3.25.69,4.89.17,2.41.15,4.83.29,7.25.1,1.74.36,3.46.47,5.2.16,2.45.22,4.91.37,7.37.09,1.58.34,3.16.38,4.74.09,3.08,0,6.16.15,9.24,0,1.47.33,2.93.42,4.39.12,1.75.12,3.5.23,5.25.12,1.91.31,3.81.46,5.72a2.33,2.33,0,0,1,0,.3,29.37,29.37,0,0,1,.33,8.62,6.3,6.3,0,0,1-.13.74c.19,1.78-.24,3.67,0,5.42a11.43,11.43,0,0,1-1.69,7,5.07,5.07,0,0,1-5.76,2.83c-2.23.13-4.75.26-7.27.42-1,.06-1.6-1.32-1.5-2.37a65.49,65.49,0,0,0,.13-6.76c0-1-.27-2.07-.27-3.1,0-2,.16-4,.18-5.94,0-2.71,0-5.41,0-8.12,0-.65.29-1.3.28-1.95,0-2-.17-4-.23-6,0-1.71,0-3.42-.08-5.13-.09-1.92-.32-3.84-.43-5.76-.07-1.33,0-2.66-.08-4a6.06,6.06,0,0,0-.18-1.65,19.67,19.67,0,0,1-1.09-3,33.23,33.23,0,0,1,.11-3.45,23.49,23.49,0,0,0-.42-4.07,48.71,48.71,0,0,0-1.7-6.28c-.3-.84-1.24-1.46-1.89-2.18-.61.74-2.22.42-2.12,1.87a19,19,0,0,0,.52,2.91c.53,2.32,1.58,4.51,1.05,7-.18.88.59,1.93.75,2.93.4,2.38.7,4.78,1,7.18a49.05,49.05,0,0,1,.58,4.93c.06,1.68-.23,3.36-.22,5,0,1.25.34,2.5.37,3.76.07,2.87.07,5.75.06,8.62,0,2-.09,4.06-.17,6.08-.09,2.39-.33,4.77-.27,7.16.05,1.9.65,3.79.68,5.68a49.49,49.49,0,0,1-.56,6.07c0,.12-.32.25-.52.3-2.47.69-4.89-.13-7.33-.27a34.71,34.71,0,0,0-5,.06,3.08,3.08,0,0,1-3.05-2.46,35.39,35.39,0,0,1-1-4.88c-.18-2.33-.09-4.69-.14-7,0-1.5-.11-3-.13-4.51s0-3,.05-4.54c0-2.48,0-5,0-7.44,0-1.82-.12-3.64-.29-5.45-.28-3-.67-6-1-8.93-.22-2.21-.34-4.43-.53-6.65-.15-1.77-.36-3.53-.5-5.29-.27-3.42-.66-6.84-.72-10.26,0-2.7.42-5.4.51-8.1.05-1.74-.22-3.48-.26-5.23,0-1.31.1-2.62.12-3.94,0-1.72,0-3.45,0-5.17a5.3,5.3,0,0,1,.36-1.28c.21.31.43.61.63.93a9.72,9.72,0,0,0,1.66,2.54,3.78,3.78,0,0,0,2.77.9c1.06-.26,2.41-.82,2.37-2.43a2,2,0,0,1,.09-.5c.31-1.27.6-2.54,1-3.79a2.73,2.73,0,0,1,.7-1.36c.16-.13.79.4,1.23.52a5.09,5.09,0,0,0,1.08,0,9,9,0,0,0,2.11.05C170.1,230.58,171.11,230.29,171.4,229.74Zm29.86-22.91c-.46.25-1.25-.16-1.77,0-1.35.52-2.62,1.26-4,1.8-.43.17-1-.1-1.5,0a9.15,9.15,0,0,0-1.34.56c-1.15.41-2.29.82-3.46,1.18s-2.56.69-3.82,1.1c-.39.13-.67.59-1.06.71-.91.28-1.87.38-2.77.67-1.57.49-3.11,1.1-4.68,1.59-.53.17-1.43.38-1.62.15a7.4,7.4,0,0,1-.85-2.11c.65-.14,1.29-.3,1.94-.41,1-.17,2-.29,3-.47a17,17,0,0,0,2.08-.44c1.55-.47,3.06-1.08,4.63-1.48s3.51-.57,5.19-1.08c2.79-.84,5.51-1.9,8.27-2.83q5-1.68,9.93-3.3a14.24,14.24,0,0,1,2.2-.52c.22,0,.49.2,1.24.54-1.36.61-2.27,1.06-3.21,1.43s-2.13.77-3.2,1.17c-.14.05-.26.31-.37.3C204.29,205.19,202.79,206,201.26,206.83Zm17.15,8.8a9.13,9.13,0,0,1,.45,1.81c.24,1.08.43,2.17.71,3.24.39,1.5.84,3,1.27,4.49.05.19.14.38.18.57.31,1.56.67,3.11.9,4.69.3,2.07.43,4.17.73,6.24.34,2.37.84,4.72,1.18,7.09s.55,4.67.84,7c.2,1.64.56,3.27.65,4.92.14,2.75.09,5.51.16,8.27s.23,5.45.27,8.17a4.15,4.15,0,0,1-.57,1.43,2.9,2.9,0,0,0-1-.39c-.61,0-1.21.18-1.82.23a3.15,3.15,0,0,1-1-.14c-1.74-.43-3.47-1.2-5.21-1.21s-1.44-.67-1.43-2c0-3.74-.26-7.48-.38-11.22,0-1.36,0-2.73.07-4.09s.18-3,.1-4.45c-.11-2-.39-4-.58-6a2.46,2.46,0,0,1,0-1.14,4.56,4.56,0,0,0-.81-4.38,1.57,1.57,0,0,0-1.12-.37,2.72,2.72,0,0,0-2.19,2.51h0c.26,1.9.54,3.34.62,4.78.12,2.2.07,4.41.12,6.61s.09,4.58.2,6.86c.11,2.46.34,4.92.44,7.38.13,3.17.19,6.34.28,9.51a14.84,14.84,0,0,0,.14,3.57,21.5,21.5,0,0,0,1.94,4.29,18.87,18.87,0,0,0,2.12,3,2.15,2.15,0,0,0,1.45.67c1.33,0,2.76-.47,3.95-.11.85.26,1.26-.16,1.87-.21,1.21-.1,2.46,0,3.65-.17A6,6,0,0,0,229,286c.27-.2.15-.92.24-1.39a44.81,44.81,0,0,0,1-5.62c.09-1.89-.33-3.8-.42-5.7-.15-3.08-.21-6.17-.32-9.25-.06-1.51-.16-3-.21-4.53-.08-2.24-.13-4.47-.21-6.71-.05-1.42,0-2.85-.23-4.25-.1-.72-.73-1.37-.84-2.09-.25-1.57-.31-3.17-.46-4.76,0-.37-.13-.73-.18-1.1-.41-2.75-.78-5.51-1.24-8.25-.35-2.07-.78-4.13-1.22-6.19-.57-2.68-1.18-5.35-1.77-8a1.92,1.92,0,0,1,0-.47c.19.12.43.19.55.36,1.21,1.76,2.84,3.39,3.45,5.35s2.22,2.45,2.91,3.92a49.82,49.82,0,0,1,3,6.83,65.89,65.89,0,0,1,1.47,7.94,55.42,55.42,0,0,1,.94,6.26c.15,2.87,0,5.75,0,8.62,0,1,.08,2.08.1,3.12,0,2.2.1,4.4.11,6.6,0,.9-.07,1.81-.12,2.71,0,.13-.11.31-.05.37,1,1.21-.16,2.35-.09,3.51,0,.59.43,1.18.39,1.75-.07,1.12-.34,2.23-.53,3.35a38.79,38.79,0,0,1-.89,5c-.29.94-1.2,1.68-1.73,2.57a1.29,1.29,0,0,0,0,1.13c.63.95,1.22,1.78,0,2.78-.27.22-.2.82-.36,1.22s-.49,1-.75,1.5c0,.09-.17.15-.18.23-.29,1.28-.62,2.56-.84,3.85-.16,1-2.48,2-3.54,1.57-1.84-.76-3.69-1.53-5.57-2.16-2.06-.7-4.23-1.09-6.23-1.92a12.37,12.37,0,0,1-4-2.61,15,15,0,0,1-2.3-3.73,5.37,5.37,0,0,1-.31-1.72c0-.3,0-.61-.06-.9-.24-1.17-.54-2.33-.74-3.51-.5-2.92-1-5.83-1.42-8.76-.25-1.85-.29-3.73-.4-5.59a25.59,25.59,0,0,1-.07-3.12c.14-2.22.42-4.43.56-6.65.13-2,.15-4.08.2-6.13,0-1.38,0-2.76,0-4.14.08-2,.22-4,.36-6,.1-1.38.18-2.76.38-4.12.29-2,.7-3.9,1-5.86a17,17,0,0,0,.11-2.52c0-1.82,0-3.64-.06-5.46s-.21-3.81-.23-5.72c0-2.22,0-4.43.1-6.65a7.57,7.57,0,0,1,.41-1.69s.2-.07.29,0a5.29,5.29,0,0,1,1,.44,7.34,7.34,0,0,1,.7.64c.2.17.44.3.64.48.42.36.81.76,1.25,1.08a25.66,25.66,0,0,0,2.93,2c.45.24,1.27-.16,1.66.11A4.07,4.07,0,0,1,218.41,215.63Zm7.72,63.21c-.19,1.19-.36,2.38-.56,3.56a1.55,1.55,0,0,1-.22.42c-.1-.12-.21-.24-.31-.38-.6-.88-.52-4.1.13-5,.08-.11.31-.22.41-.18a.68.68,0,0,1,.39.4,7.35,7.35,0,0,1,0,1.11Zm-8.62,1a17.59,17.59,0,0,1-.21,2.57,1.53,1.53,0,0,1-.08.27c-.1-.06-.25-.1-.29-.19a15.7,15.7,0,0,1-1.64-5.84c-.07-2.09.81-1.11,1.59-.95.12,0,.21.18.14.11C217.21,277.3,217.44,278.56,217.51,279.83ZM228,196.93c-1.49.74-3,1.38-4.54,2.08-1.67.78-3.33,1.56-5,2.42-1.06.56-2.11.47-2.15-.57.1-.11.28-.47.55-.57,2.44-.95,4.9-1.85,7.35-2.77,1.14-.43,2.27-.88,3.41-1.31a4.83,4.83,0,0,1,.72-.16C228.22,196.36,228.18,196.82,228,196.93Zm40.12-18.66c-1.66,1-3.48,1.68-4.18,3.71a.7.7,0,0,1-.37.34c-1.78.78-3.6,1.48-5.33,2.35-1.28.64-2.42,1.53-3.68,2.22a7.32,7.32,0,0,1-2.85,1.17c-2.5.12-4.26,1.76-6.37,2.68-1.36.59-2.72,1.19-4.11,1.68-1.62.56-3.27,1-4.92,1.5-.76.22-1.54.37-2.32.52-.11,0-.25-.1-.37-.15.14-.18.23-.44.41-.52,1.31-.55,2.63-1.08,4-1.6l6.44-2.48c1.74-.67,3.54-1.23,5.21-2,2.28-1.09,4.46-2.4,6.7-3.57,1.29-.68,2.63-1.25,3.91-1.94,1.61-.86,3.2-1.76,4.79-2.68a8.63,8.63,0,0,0,1.25-.95c1-.84,1.94-1.7,2.92-2.53.11-.09.33-.05.49-.07l.22.42A9.06,9.06,0,0,1,268.07,178.27Zm17,24.25c2.08-2.69,3.59-2.65,5.56.15.87,1.23,2.17,2.15,3.15,3.32A45.75,45.75,0,0,1,297,210.4c1.06,1.63,2,3.35,2.9,5.08.63,1.22,1.13,2.51,1.64,3.78s.93,2.68,1.49,4c1.12,2.57,1.94,5.15.9,8-.06.15-.15.4-.09.45,1.15,1.1.43,2.42.28,3.59-.05.42-1,.86-1.65,1.05-1.18.35-2.4.52-3.61.78a1.18,1.18,0,0,0-.42.23c-1.25.93-2.37.64-2.9-.74-.21-.55-.48-1.09-.72-1.63,0-.09-.16-.23-.14-.25.91-1.08.18-2.14-.25-3-.83-1.7-.28-4-2.26-5.15a1.58,1.58,0,0,0-1.35-.14c-.6.46-1.88.34-1.56,1.71.37,1.62.65,3.26.94,4.9s.54,3.07.75,4.62c.28,2,.54,4.09.72,6.14,0,.54-.32,1.11-.33,1.67a13.67,13.67,0,0,0,.25,1.76c.16,1.51.3,3,.43,4.53,0,.36-.1.72-.08,1.08.12,1.9.29,3.8.39,5.7a1,1,0,0,1-.38.82,46.36,46.36,0,0,1-6.29,2.33c-2.3.55-4.71.59-7.06,1-1.12.17-2.18.71-3.3.86-1.74.23-3.53,1.13-5.23-.16a.48.48,0,0,0-.44-.06c-1.67,1.21-2-.57-2.29-1.29a50.5,50.5,0,0,1-1.7-5.23c-.28-.86-.63-1.7-1-2.55l.34-.12c-.5-2.08-1-4.14-1.48-6.23-.24-1.13-.28-2.29-.48-3.43-.27-1.49-.7-2.95-.92-4.44-.34-2.31-.66-4.64-.83-7-.15-2,0-4.05-.13-6.07a1.6,1.6,0,0,0-2.19-1.05.32.32,0,0,1-.31,0,2.81,2.81,0,0,1-.32-.46c-.35.35-1,.68-1,1-.1,2.41-.17,4.83,0,7.24.09,1.76.5,3.5.74,5.26a2.46,2.46,0,0,1-.19.83,2.49,2.49,0,0,1-.68-.28,2.14,2.14,0,0,0-2.75,0c-.82.49-1.68.7-2.4-.29-.15-.2-.66-.14-1-.18a2.85,2.85,0,0,1-.95-.13.92.92,0,0,1-.36-.71c0-2.57,0-5.15.23-7.71.19-2.15.74-4.27,1.09-6.4.57-3.46,1.23-6.92,1.63-10.41.33-2.85,1.08-5.48,3.27-7.42a18.8,18.8,0,0,1,3.33-2,.38.38,0,0,1,.35.13,18.11,18.11,0,0,0,4.65,5,13.09,13.09,0,0,0,7.43,3.08c2,.11,4.12,0,5.74-1.61.51-.52,1.26-.81,1.73-1.35C281.19,207.18,283.19,204.91,285,202.52Zm-12.2-6.85a13.18,13.18,0,0,0,7.29,4c.47.11,1.24.7,1.19.94a6.68,6.68,0,0,1-1,2.35,23.46,23.46,0,0,1-2,2.47,6.8,6.8,0,0,1-1.25,1.28c-1.44,1-2.92,1.89-4.49,2.89a40.57,40.57,0,0,1-5.44-2.38,24.34,24.34,0,0,1-3.65-3.34c-.86-.82-.37-1.37.48-1.61a10.83,10.83,0,0,0,6.21-5,8.67,8.67,0,0,1,1.73-1.8C272.11,195.29,272.66,195.47,272.84,195.67Zm5.82-48.92c-.19,1.6-.5,3.2-.82,4.78-.53,2.54-1.07,5.08-1.69,7.61a10.36,10.36,0,0,1-1,2.26q-1.57,3-3.21,6a12.09,12.09,0,0,1-1.53,2.33,19.55,19.55,0,0,1-2.42,2.06c-1.46,1.14-2.93,2.26-4.41,3.37s-3.15,2.53-4.85,3.6a52.31,52.31,0,0,1-5.95,3.21c-1.66.77-3.46,1.24-5.18,1.89-1.33.5-2.64,1.07-3.94,1.64s-2.84,1.34-4.28,2c-2,.86-3.95,1.71-5.95,2.51-3.23,1.29-6.47,2.56-9.73,3.77a28.38,28.38,0,0,1-4.77,1.45c-.59.11-1.34-.6-2-.93-.23-.11-.49-.38-.66-.33-.75.22-1.47.55-2.21.81-1.17.41-.57,1.15-.54,1.91,0,.37-.87.89-1.43,1.15a17.08,17.08,0,0,1-2,.56c-1.22.39-2.44.79-3.63,1.26-1.89.75-3.75,1.59-5.64,2.34-.89.35-1.73,1.28-2.85.39-.1-.08-.6.42-1,.56-1.66.66-3.31,1.34-5,1.91-1.16.39-2.39.56-3.56.91-.92.28-1.77.8-2.7,1-1.89.42-3.82.72-5.73,1q-3.39.58-6.79,1.1a1.13,1.13,0,0,1-.79-.14,6.72,6.72,0,0,0-6.47-1.28,3.65,3.65,0,0,1-1.09,0c-.13,0-.38,0-.39.06-.25,1.33-1.23.85-2,.8-2.05-.13-4.11-.21-6.15-.46-2.54-.31-5-.62-7.35-2.07s-4.65-2.2-6.94-3.37a16.11,16.11,0,0,1-2.43-1.77c-2.24-1.75-4.62-3.36-6.68-5.3a69.49,69.49,0,0,1-6.51-7.07,51.29,51.29,0,0,1-3.31-5.43c-1.17-1.89-2.34-3.79-3.6-5.62a3.38,3.38,0,0,0-1.49-1,2,2,0,0,1-1.26-2.3,2.27,2.27,0,0,0-.17-1.29c-1.64-2.64-1.7-5.48-1.47-8.47.12-1.66-.43-3.36-.59-5.05-.14-1.46-.12-2.93-.27-4.39-.1-.91-.47-1.8-.55-2.71a20.45,20.45,0,0,1,.15-2.45c0-1.16,0-2.33.07-3.49a2.11,2.11,0,0,1,.11-.45,3,3,0,0,1,.34.32c.65.83,1.32,1.65,1.94,2.5,2,2.75,5.08,4.06,7.77,5.89,1.25.86,2.35,1.93,3.53,2.9s2.29,1.79,3.35,2.77c2,1.86,4,3.79,6,5.7,1.69,1.64,3.36,3.29,5,4.94,0,0,.07,0,.08.06.53,1.45,1.93,2.4,1.44,4.46a9.52,9.52,0,0,0,1.75,8.41c1.88,2.17,3.39,5.19,6.83,5.44a9.63,9.63,0,0,0,3.54-.45,17.63,17.63,0,0,0,6.89-4.33c.54-.53.78-1.43,1.37-1.84,2-1.36,1.55-3.46,1.88-5.34,0-.86.06-1.73.15-2.59,0-.24.24-.46.36-.69a3.69,3.69,0,0,1,.44.5,21.84,21.84,0,0,0,2.41,3.9,10.3,10.3,0,0,0,3.29,1.8,5.48,5.48,0,0,0,2.18.62c1.82,0,3.64-.22,5.46-.32,2.74-.16,4-2.16,5.42-4.12.62-.88,1.55-1.53,2.22-2.37s1.36-1.94,2-2.92a2.5,2.5,0,0,1,.41-.37c.07.14.15.28.22.42.83,1.85,2.12,3.53,4,3.93s3.94,0,5.92-.17a6.67,6.67,0,0,0,2.14-.67,41.38,41.38,0,0,0,4.68-2.31,20.54,20.54,0,0,0,2.79-2.47c.31-.29.6-.61.94-.86a6.5,6.5,0,0,0,2.54-4.89c0-.21.21-.39.33-.59.19.12.38.22.56.35a50.88,50.88,0,0,0,4.85,3.4,17.23,17.23,0,0,0,4.39,1.44,3.16,3.16,0,0,0,2.15-.25c1.58-.95,3-2.09,4.53-3.18a9.23,9.23,0,0,0,1.33-1.18c1.64-1.78,3.32-3.54,4.86-5.41a6.47,6.47,0,0,0,.68-2.15,2.7,2.7,0,0,1,.26-.48,1.35,1.35,0,0,1,.29.24c.67,1,1.28,2,2,3,2.2,2.87,4.22,2.83,7,1.27a55.09,55.09,0,0,0,6.49-3.84,5.88,5.88,0,0,0,2.43-4.49c0-.51.62-1,1-1.45.08-.07.68.26.93.51,1.86,1.92,3.92,3.53,6.69,3.78,1,.09,2-.38,3-.32a4.16,4.16,0,0,0,3.22-.83c1.44-1.25,2.94-2.44,4.27-3.79a20.94,20.94,0,0,0,2.45-3.21,11.22,11.22,0,0,0,.75-1.88c.06-.15.25-.24.38-.36.09.16.25.32.27.49A10,10,0,0,1,278.66,146.76ZM290,157.88c-.1.19-.43.27-.65.4a1.87,1.87,0,0,1-.26-.54c-.25-2.14-.58-4.27-.7-6.41a44.57,44.57,0,0,1,.17-4.72c0-.11.18-.2.28-.3a2.11,2.11,0,0,1,.34.67c.09,1,.1,2,.19,3,.22,2.34.48,4.68.73,7.17A1.41,1.41,0,0,1,290,157.88Zm16.87-27a3.09,3.09,0,0,1-1.06,2.73c-1.15.91-2.09,1.09-3-.14a5.65,5.65,0,0,1-.94-2.61c-.14-1.24-1.72-2.88-3-2.82-1.47.07-2,1-2,2.62a15,15,0,0,1-.8,3.48,8.38,8.38,0,0,1-3,4.24c-1.24,1.07-2.45,2.17-3.74,3.17-2.11,1.64-5.92,1.8-7.75.06-.67-.64-.53-2.06-.92-3.07a6.46,6.46,0,0,0-1.48-2.66,3.17,3.17,0,0,0-2.44-.13c-.4.11-.66,1-.86,1.51a33.7,33.7,0,0,0-1.88,6c-.33,2.33-1.82,3.86-3.26,5.21a7.23,7.23,0,0,1-5.56,2.22c-2.24-.23-4.34-.89-5.42-3.19a.79.79,0,0,0-.32-.36,3.29,3.29,0,0,1-1.78-2.68c-.28-1.72-1.32-2.17-2.76-1.32a3.12,3.12,0,0,1-.86.18c-.18,0-.49.09-.5.17-.14,1.06-.25,2.12-.35,3.18a9,9,0,0,1-.08,1.67c-.66,2.28-1.38,4.61-3.41,6a32.68,32.68,0,0,1-5.15,2.81c-.89.41-2.92-1.23-3.53-2.55s-1.44-2.81-2.13-4.22a23.7,23.7,0,0,0-1.1-2.42c-.24-.37-.84-.52-1.28-.76a3.76,3.76,0,0,0-.5-.18,3.9,3.9,0,0,0,.46-.33c2-1.88,4.59-1.83,7-2.43.62-.15,1.2-.49,1.81-.71.78-.28,1.58-.48,2.35-.77,1.84-.71,3.65-1.46,5.49-2.18,2.21-.86,4.43-1.69,6.63-2.57a31.26,31.26,0,0,1,3-1.35c1.34-.38,2.77-.42,4.12-.77,1.11-.28,2.14-.83,3.22-1.21.37-.13.84,0,1.2-.17,1.89-.78,3.73-1.68,5.64-2.4a38.17,38.17,0,0,1,4.94-1.46c1.3-.29,2.67-.25,4-.53a55.9,55.9,0,0,0,6.21-1.58,32,32,0,0,0,3.56-1.87,1.79,1.79,0,0,1,1.06.11c.4.11.77.32,1.17.44,2.38.72,3.66-1.4,5.49-2.12,1.15-.46,2.27-1,3.41-1.44.09,0,.42.22.42.33C307.13,126.33,307,128.6,306.9,130.88Z"/><path d="M244.75,128.61c-.12,1.05,0,1.88-.33,2.32s-1.54.85-1.74.64c-.55-.55-1.92.16-1.88-1.33,0-.52-.78-1.05-1.2-1.59-1.57-2.05-3.16-4.1-4.71-6.17-1.11-1.48-2.13-3-3.27-4.48-.92-1.17-2-2.19-2.93-3.37a23.31,23.31,0,0,1-1.07-2.16c-.59-1-1.31-1.87-1.93-2.83a21.47,21.47,0,0,0-7-7c-1.18-.71-2.51-1.18-3.72-1.84-.35-.19-.79-.73-.75-1.05a3.38,3.38,0,0,1,.75-2.05c1.51-1.26,2.31-1.1,4.17.51,2,1.76,4.17,3.44,6.07,5.34a21.06,21.06,0,0,1,2.42,3.62c.07.11.07.29.16.35a3.56,3.56,0,0,1,1.66,2.31c.2,1,1.42,1.8,2.09,2.76s1.3,2.13,2,3.18a10.13,10.13,0,0,0,.91,1.18c.87,1,1.79,2,2.63,3a16.87,16.87,0,0,1,2.63,3.54c.87,2,2.69,2.77,4.15,4A6,6,0,0,1,244.75,128.61Z"/><path d="M140.72,123.18a9.57,9.57,0,0,1,1.78,1.36c1,1.19,1.79,2.5,2.71,3.73,1.57,2.1,3.15,4.2,4.77,6.26s3.47,3.64,4.6,5.78c1.44,2.73,4,4.31,5.78,6.6a24,24,0,0,0,2.11,2.67,23.88,23.88,0,0,0,3.39,2.62c1.17.76,1.5,1.78.73,2.88a5.88,5.88,0,0,1-.75,1.09c-1.45,1.29-1.73-.54-2.5-1a6.4,6.4,0,0,1-1.26-1.25c-1.35-1.5-2.68-3-4-4.51-.75-.83-1.6-1.59-2.29-2.46q-3-3.78-5.88-7.63c-.92-1.23-1.72-2.55-2.58-3.83,0-.05-.08-.13-.14-.14-2.45-.71-2.9-3.26-4.43-4.83a36.9,36.9,0,0,0-3.54-3,3.15,3.15,0,0,1-.65-2.49A2,2,0,0,1,140.72,123.18Z"/><path d="M290.83,304.61c.52.79,1.06,1.57,1.56,2.38a6.25,6.25,0,0,1,.51,6,37.45,37.45,0,0,1-2,4.8,15.41,15.41,0,0,1-2.68,2.81c-1.12,1.1-2.29,2.16-3.38,3.29a11.53,11.53,0,0,1-5.34,3.41c-1,.26-1.82,1-2.8,1.33-1.9.65-3.86,1.16-5.79,1.74l-6.29,1.92c-.15,0-.38.14-.46.07-1.42-1.11-2.84-.34-4.3-.13a7.14,7.14,0,0,1-2.87-.31c-2.28-.64-4.74-.65-6.79-2.17-.88-.65-2.12-.78-3.16-1.24-1.74-.77-3.23-1.7-3.72-3.84-.28-1.23-1.43-2.25-1.79-3.48s.07-2.36-.14-3.5c-.43-2.29,1.48-4.54.17-6.77-.88-1.51-.4-2.9-.24-4.44.17-1.7,1.15-2.17,2.34-2.81a8.63,8.63,0,0,0,1.61-1.56c.57-.55,1.14-1.09,1.74-1.6.12-.1.34-.08.5-.15A1.9,1.9,0,0,0,248,300c.18-.17.31-.56.46-.56,1.7,0,2.11-1.72,3.26-2.41a26.61,26.61,0,0,1,3-1.35c.09,0,.23,0,.3,0,2.11-1.53,4.8-1,7.13-2,1.85-.83,4.1-.85,6.19-1a28.34,28.34,0,0,1,4.79,0c2.52.19,5,.55,7.55.77a16.43,16.43,0,0,0,3.09,0,4.33,4.33,0,0,1,3.61,2.19c.35.85.93,1.61,1.3,2.46a2.75,2.75,0,0,1-.05,1.2,19.7,19.7,0,0,0-.21,2.35,5.34,5.34,0,0,0,.44,1.71.71.71,0,0,0,.66.19C290.93,302.59,290.94,303.55,290.83,304.61Zm-13-5-.31-.34c.64-.47,1.23-1.23,1.92-1.35,1.12-.2,3,2.4,2.73,3.55a4.28,4.28,0,0,0,0,.52c.14-.08.35-.12.41-.24.55-1.16,1.11-2.31,1.57-3.51.06-.15-.36-.69-.61-.73-1.41-.25-2.84-.43-4.26-.59a72.68,72.68,0,0,0-7.72-.78,34.54,34.54,0,0,0-6.11.86c-.76.13-1.46.55-2.21.72s-1.54.15-2.29.32c-.21,0-.36.43-.51.68a1.23,1.23,0,0,0,.33.25,25.3,25.3,0,0,1,3.82,1.83c1.25.88,2.18,2.23,3.43,3.11a30,30,0,0,0,3.56,1.66c.4.21.65,1,1,1a16.88,16.88,0,0,0,3-.41,13.8,13.8,0,0,1,1.7-.37c.91,0,3.32-1.65,3.58-2.52.05-.17-.06-.56-.12-.57-.48-.05-1.09-.22-1.44,0-1.5.94-1.13-.6-1.28-1A7,7,0,0,1,277.88,299.6Zm-12.25,27.79.09.19,1.58-.66a7.85,7.85,0,0,0-.79-1.47c-2-2.31-4-4.58-5.94-6.88-.7-.82-.67-.84-1.43-.27a.29.29,0,0,1-.18.06c-1.2-.14-2.82.14-3.52-.53-1.33-1.27-2.5.2-3.74-.33a35.4,35.4,0,0,0-5.13-1.49,6.57,6.57,0,0,0-1.36-.07c0,.7-.19,1.61.16,2.06s1.27.42,1.95.57c.38.08.9-.07,1.13.14a16.79,16.79,0,0,1,1.72,1.93c.82,1,1.6,2,2.43,3,.13.16.47.16.71.23a1.73,1.73,0,0,0-.14-.57c-.42-.62-.93-1.19-1.31-1.83a1.63,1.63,0,0,1-.22-1.16c.5-1.56,2.09-.81,2.49-.5,1.47,1.15,2.61,2.71,4,4,1.09,1,1.8,2.7,3.75,2.42a.61.61,0,0,1,.51.27c.5,1.47,1.48,1.46,2.67.93A1.65,1.65,0,0,1,265.63,327.39Zm1.49-19.17.05.21.87-.26-.75-.58c-.67-.54-1.38-1-2-1.62-.85-.79-1.57-1.72-2.46-2.46-1.09-.9-2.3-1.65-3.44-2.48a1.47,1.47,0,0,1-.44-.55c-.23-.49-.9-1.1-1.23-1a16.47,16.47,0,0,0-2.44.53c-.37.13-.6.62-.91.93a5.24,5.24,0,0,1-1,.82c-.49.29-1.33.35-1.52.74a7.11,7.11,0,0,1-3.17,3,1.46,1.46,0,0,0,.07,1.26c1.46.71,3,1.31,4.51,1.9a3.14,3.14,0,0,0,1,0c-.25-.28-.47-.58-.74-.83a16.79,16.79,0,0,1-2.05-1.91,1.71,1.71,0,0,1-.11-1.58,1.56,1.56,0,0,1,1.48-.43,22.79,22.79,0,0,1,4.57,3.14c1.31,1.29,3.14,2.93,4.86,2.47Zm13.51,14.08,1.13-1.12-1-.5a.78.78,0,0,1-.27-.23,23.66,23.66,0,0,0-1.74-2.59c-.76-.86-1.89-1.44-2.5-2.38a1.27,1.27,0,0,0-1.66-.6c-.61.15-1.2.38-1.8.57a1.06,1.06,0,0,0-.47,1.88c1.31,1.33,2.59,2.68,3.94,4,.24.23.76.22,1.15.23a9.36,9.36,0,0,0,1.25-.11c-.13,1.62.58,1.48,1.58.76C280.3,322.18,280.35,322.21,280.62,322.31ZM267.07,317a17.94,17.94,0,0,0-2,.46.85.85,0,0,0-.12.77c1.42,1.69,2.86,3.37,4.35,5a6.51,6.51,0,0,0,1.36.92,6.31,6.31,0,0,0,1.31.78,3,3,0,0,0,1.49.1,1,1,0,0,0,.33-.88,40.19,40.19,0,0,0-2.69-3.31c-1.11-1.21-2.32-2.34-3.49-3.49A3.36,3.36,0,0,0,267.07,317Zm22.12-6.56.47-.25c-.64-1-1.28-2.06-1.94-3.07-.06-.09-.33-.15-.38-.1-.58.63-1,1.5-1.74,1.87-1.22.63-.91,1-.11,1.7,1,.83,2.78.75,3,2.5.23-.12.64-.23.65-.37C289.24,312,289.2,311.21,289.19,310.45Zm-3.34,5.79-.84-.52a2.43,2.43,0,0,1-.51-.38c-1.12-1.27-1.93-3-4.12-2.52a4.74,4.74,0,0,0-1.1.6c1.09.86,2.18,1.73,3.29,2.56a5.35,5.35,0,0,0,1.28.71,11.27,11.27,0,0,0,1.73.46S285.71,316.72,285.85,316.24Zm-39.84-7s-.14.16-.11.25c.16.53.21,1.21.57,1.55,2.08,1.93,4.9,2,7.42,2.79a.44.44,0,0,0,.38-.2.47.47,0,0,0-.12-.44c-.7-.33-1.41-.64-2.12-.92-1.25-.5-2.55-.91-3.77-1.49A17.45,17.45,0,0,1,246,309.28Zm9.41,3.91-.35.19c.21.2.41.57.62.58a10.15,10.15,0,0,0,1.89-.18c.08,0,.18-.25.18-.39s-.18-.2-.29-.21C256.92,313.17,256.37,313.18,255.43,313.19Z"/><path d="M274.21,303.5c-2.72-.1-5.55-3.31-5.21-5.81.08-.57.42-.89,1.35-.92,1.79-.06,1.67,1.32,2.29,2.18a2.8,2.8,0,0,0,1.08,1c1,.39,1.27,1.16,1.63,2.09C276,303.72,274.55,303.12,274.21,303.5Z"/><path d="M339,298.22c-.86-1.93-1.63-4-2.71-6a30.49,30.49,0,0,0-4-5.86,74,74,0,0,0-6.45-5.69,12.18,12.18,0,0,0-2.23-1.66c-3.06-1.57-6.29-2.86-9.21-4.65-2.05-1.26-3.62-3.29-5.57-4.73s-4.18-3.21-7-2.81c-1.18.16-2.38.91-3.49.75-2.58-.37-4,1.69-6,2.45-.82.31-2.14,1-2.15,1.47a4,4,0,0,0,2.19,3.92,46.53,46.53,0,0,1,6,3.77c2.27,1.69,4.37,3.61,6.5,5.48a39.24,39.24,0,0,1,3,2.94c1.55,1.68,1.56,3.15-.12,4.79-1.5,1.46-3.19,2.73-4.8,4.07-1.11.92-2.3,1.76-3.35,2.74-2.36,2.2-5.32,2.68-8.34,3.07a1.58,1.58,0,0,1-1.84-2.11c.2-.73,1.5-1.19,2.37-1.68a6.6,6.6,0,0,1,1.42-.36c.68-.19,1.35-.38,2-.64a12.85,12.85,0,0,0,3.1-1.35c1.86-1.4,3.56-3,5.33-4.51,1-.82,1.53-1.48.09-2.54-3-2.18-5.75-4.59-8.69-6.79-2-1.48-4.36-2.5-6.05-4.23-1.23-1.25-3.25-2.7-2.09-5.15a.78.78,0,0,0,0-.5c-.21-.73-.85-1.76-.59-2.12,1-1.31,1.77-2.84,3.81-3,1.62-.13,3.47.29,4.67-1.63.45-.73,1.76-1,2.72-1.32,1.6-.61,3.23-1.15,4.85-1.7a1.69,1.69,0,0,1,.83-.17c2.62.6,5.07,1.13,7.35,3.07,3.44,2.94,7.49,5.18,11.38,7.57,2.16,1.33,4.66,2.14,6.72,3.58a35.53,35.53,0,0,1,5.23,4.9,57,57,0,0,1,5.55,6.44,28.89,28.89,0,0,1,2.5,5.62,14.44,14.44,0,0,1,.68,2.3,28,28,0,0,1,.55,3c.22,2,.37,3.94.55,5.9a5,5,0,0,1,.13.61c-.16,4.09-.46,8.17-.47,12.26,0,3.49.36,7,.46,10.47.06,1.91-.15,3.83-.13,5.74,0,2.25.21,4.49.29,6.74,0,1.34,0,2.68.06,4,0,3.09.14,6.18.11,9.26,0,4.44,0,8.91-.41,13.31a9.87,9.87,0,0,1-2.66,5c-2.82,3.15-5.9,6.09-9,9a66.09,66.09,0,0,1-5.85,5c-2.39,1.8-4.92,3.41-7.41,5.06-2,1.32-4,2.69-6.07,3.84-3,1.65-6.13,3.06-9.14,4.69-1.86,1-3.52,2.38-5.41,3.32-3.64,1.83-7.41,3.4-11.06,5.22-2.5,1.25-4.88,2.73-7.32,4.11-1.95,1.1-3.9,2.18-5.84,3.28s-3.9,2.3-5.89,3.37-4.23,2.08-6.32,3.18c-1.39.73-2.68,1.64-4.08,2.34-3.45,1.74-6.93,3.4-10.39,5.12-1.69.84-3.33,1.78-5,2.59-2.91,1.38-5.86,2.71-8.79,4-1.19.54-2.4,1.06-3.61,1.57-3.52,1.49-7,3.11-10.59,4.41a68.52,68.52,0,0,1-7.43,1.91c-3.83.92-7.67,1.84-11.52,2.71-1.93.44-3.88.73-5.82,1.14s-4,1.21-6,1.3c-3.71.16-7.45,0-11.16-.18-3.07-.15-6.14-.47-9.19-.81a40.62,40.62,0,0,1-5.12-.93c-3.48-.86-7-1.7-10.4-2.78-2.54-.8-5-2-7.45-3-.15-.06-.26-.23-.42-.29-2.38-.82-4.79-1.55-7.13-2.45a51.92,51.92,0,0,1-4.79-2.28c-2.52-1.28-5.06-2.54-7.5-4-1.56-.9-2.95-2.1-4.46-3.11-1-.68-2.16-1.2-3.19-1.89-1.65-1.12-3.62-2-4.75-3.58-.92-1.24-.89-3.24-1.09-4.93-.14-1.2.57-2.93,0-3.55-1.4-1.46-.81-3.07-.86-4.52-.12-3.77.17-7.56.17-11.34,0-2-.36-4-.41-6.07s.15-4.11.15-6.16c0-1.79-.12-3.57-.14-5.36,0-2,0-4,0-6,0-1.05-.56-2.21-.26-3.12.84-2.54-.35-4.91-.29-7.35a13.19,13.19,0,0,1,.44-2.26c0-.15.14-.34.09-.45-1.43-3.06-.46-6.33-.83-9.48a6.51,6.51,0,0,1,.35-3.72c1.42-2.49-.37-4.36-.78-6.49a4.84,4.84,0,0,1,0-1.36,12,12,0,0,0,.26-2.57c-.25-1.9.54-2.74,2.47-3.22a65.55,65.55,0,0,0,6.61-2.29,9.13,9.13,0,0,1,2.37-1c1.89-.08,2.77-1.54,4-2.49a9.17,9.17,0,0,1,1.88-1.22c2.7-1.13,5.4-2.31,8.17-3.23s5.1-2.92,8.05-2a17.79,17.79,0,0,1,5.28,2.82c1.79,1.35,3.22,3.16,4.93,4.63a45.84,45.84,0,0,0,3.94,2.74c.58.4,1.12.87,1.73,1.21,2.1,1.17,4.2,2.35,6.35,3.43a22.75,22.75,0,0,0,4.25,1.75,39,39,0,0,0,6,1.1c3.11.32,5.94-.81,8.78-1.93,3.05-1.2,6.19-2.17,9.27-3.32,1.55-.58,3-1.33,4.54-2,1.92-.92,3.79-2,5.75-2.8s4.26-1.5,6.34-2.38,4.27-2.08,6.44-3.06c1-.45,2.08-.67,3.1-1.06,2.79-1.09,5.57-2.19,8.33-3.36,1.15-.48,2.19-1.23,3.34-1.7,3.1-1.28,6.24-2.47,9.36-3.7a.68.68,0,0,0,.12,0c1-.68,2.16-1.53,2.93.25.54,1.23-1,3.57-2.41,4.09-2.34.87-4.63,1.88-6.94,2.82l-3,1.22c-.85.35-1.71.71-2.55,1.09-2.41,1.07-4.81,2.17-7.23,3.22-2.19.95-4.39,1.85-6.6,2.75-2.53,1-5.09,2-7.59,3.06s-4.66,2.23-7,3.31c-1.36.63-2.76,1.17-4.15,1.73-1.95.78-3.89,1.57-5.85,2.3-2.45.91-4.9,1.85-7.4,2.61a32.76,32.76,0,0,1-6,1.32c-2.61.27-5.26.22-7.46-1.65a1,1,0,0,0-.71-.24c-3.09.51-5.08-1.64-7.39-3-1.36-.81-2.8-1.51-4.13-2.37a29.42,29.42,0,0,1-3.12-2.38,70.83,70.83,0,0,1-6.29-5.61,12.88,12.88,0,0,0-5.34-3.51,4.13,4.13,0,0,0-2.38-.25,67.24,67.24,0,0,0-7.08,2.59,13.85,13.85,0,0,0-2.64,2,1.34,1.34,0,0,1-.65.37c-2.47.07-4,2.05-6.07,2.93-1.35.57-2.75,1-4.12,1.54a27.26,27.26,0,0,0-4,1.61c-.58.33-1.89,1-.48,2.12,2,1.69,4,3.48,5.87,5.32,1.26,1.22,2.34,2.63,3.54,3.92,1.78,1.91,3.55,3.83,5.4,5.67a16.83,16.83,0,0,0,2.14,1.29c.93.67,1.79,1.45,2.7,2.14,3.47,2.64,6.82,5.45,10.47,7.82,2.77,1.8,6,2.66,9.19,3.73,2.92,1,5.54,2.83,8.42,4a51.74,51.74,0,0,0,6.93,1.74c.24.06.53-.08.75,0,2.92,1.07,5.81.73,8.75,0s5.76-1.25,8.67-1.71a93.5,93.5,0,0,1,9.51-1.18c3.64-.2,6.73-1.86,10-3.11,3.82-1.47,7.81-2.51,11.63-4,3.49-1.35,6.82-3.07,10.26-4.54,3-1.29,6.13-2.44,9.18-3.67q3.46-1.39,6.9-2.85c3.13-1.33,6.28-2.65,9.37-4.07,1.59-.73,3-1.75,4.63-2.46s3.16-1,4.69-1.71c1.06-.46,2-1.23,3-1.78,1.73-.93,3.5-1.77,5.22-2.71.87-.47,1.64-1.12,2.48-1.63,3.23-2,6.44-4,9.72-5.88s6.74-3.69,10.1-5.56c3-1.67,6-3.31,8.95-5.09,2.33-1.41,4.49-3.1,6.82-4.52,2.1-1.28,4.34-2.33,6.49-3.55,1.91-1.09,3.73-2.32,5.65-3.39,1.59-.88,3.31-1.55,4.89-2.45a19.43,19.43,0,0,0,2.9-2.15c2.65-2.25,5.61-4.21,7.3-7.4A18.79,18.79,0,0,0,339,298.22ZM199,442.79a7.14,7.14,0,0,0,1.11-.07c3.49-.89,7-1.89,10.46-2.68a58.09,58.09,0,0,0,13.94-4.63c1.62-.84,3.46-1.26,5.1-2.06,2.16-1,4.21-2.29,6.32-3.43,1.18-.64,2.34-1.31,3.56-1.85,2.85-1.24,5.78-2.29,8.58-3.63,2.2-1.06,4.22-2.5,6.38-3.65,2.67-1.42,5.43-2.65,8.09-4.08,2.15-1.16,4.18-2.54,6.31-3.76,2.28-1.31,4.61-2.53,6.91-3.81,2-1.11,3.94-2.28,6-3.34,1.18-.63,2.46-1.07,3.65-1.67,2.08-1.05,4.12-2.19,6.21-3.24,2.44-1.22,5-2.28,7.36-3.6,2.66-1.47,5.18-3.2,7.81-4.72,1.74-1,3.61-1.78,5.35-2.77,1.13-.64,2.12-1.52,3.2-2.26,2.14-1.46,4.35-2.82,6.44-4.35,1.05-.77,1.84-1.89,2.86-2.7,2.25-1.78,4.72-3.31,6.83-5.24a42.86,42.86,0,0,0,5.7-6.36,12.45,12.45,0,0,0,2.47-8.55c-.31-3.79-.4-7.6-.47-11.4-.05-3.11.14-6.23.1-9.34-.06-4.32-.22-8.64-.36-13q-.27-8.24-.6-16.48c0-.23-.47-.68-.62-.64a7.55,7.55,0,0,0-2,.77c-3.61,2.16-7.17,4.39-10.78,6.53-3.88,2.29-7.83,4.48-11.71,6.77-3.22,1.9-6.34,4-9.58,5.83-3.52,2-7.18,3.81-10.67,5.87-5.63,3.32-11.15,6.81-16.75,10.17-2.82,1.69-5.67,3.34-8.59,4.85-2.26,1.17-4.64,2.08-7,3.13-1.81.82-3.61,1.68-5.42,2.49-1.37.61-2.77,1.18-4.16,1.77-1.63.69-3.24,1.41-4.89,2s-3.13.93-4.61,1.57c-1.84.8-3.57,1.87-5.41,2.68-1.25.55-2.66.73-3.92,1.26-2.15.9-4.22,2-6.34,2.93q-2.41,1.1-4.85,2.12c-1.6.67-3.2,1.34-4.83,1.91-2.17.74-4.39,1.34-6.56,2.08-2.68.92-5.27,2.2-8,2.81-3.52.78-7.17,1-10.75,1.55-3.4.48-6.78,1.08-10.19,1.47a75.83,75.83,0,0,1-8.36.55,65,65,0,0,1-6.93-.58,5.07,5.07,0,0,1-1.73-.52c-2.2-1.12-4.31-2.43-6.56-3.42-3.65-1.6-7.39-3-11.09-4.5a11.71,11.71,0,0,1-2.11-1.06c-1.74-1.17-3.5-2.33-5.14-3.63-1.47-1.16-2.82-2.48-4.2-3.75-.81-.74-1.54-1.57-2.38-2.27-1.58-1.32-3.24-2.53-4.8-3.87-.81-.7-1.32-1.91-2.23-2.32-1.62-.73-1.79-3-3.76-3.21,0,0-.08-.14-.12-.22-1-1.45-1.58-3.23-3.47-3.9a1.54,1.54,0,0,1-.75-.83A2.24,2.24,0,0,0,114,345c-1.49.5-1.09,1.8-1.08,2.93,0,1.42-.07,2.84-.09,4.26,0,1.58-.17,3.18,0,4.75.33,3.94.89,7.86,1.15,11.8.24,3.75.22,7.51.28,11.27,0,1.85-.05,3.71,0,5.56,0,4.18.06,8.36.21,12.53.09,2.38.48,4.75.62,7.14.1,1.8,0,3.62,0,5.42.1,2.79.16,5.58.47,8.34a4.78,4.78,0,0,0,1.42,3.17c3.15,2.11,6.5,3.92,9.8,5.81,1.82,1,3.7,2,5.52,3s3.78,2.38,5.77,3.36c1.11.55,2.06,1,2.46,2.29a1.84,1.84,0,0,0,1.24,1.07c1.76.21,3.56.1,5.3.37a28.05,28.05,0,0,1,3.61,1.24c2.26.69,4.54,1.31,6.8,2,.38.11.71.44,1.08.49,1.19.17,2.4.19,3.58.4,4,.72,8,1.72,12,2.18a85.27,85.27,0,0,0,11.51.39,72.84,72.84,0,0,0,8.79-.95C196,443.66,197.62,443.13,199,442.79Z"/></svg>