<svg id="Calque_1" data-name="Calque 1" xmlns="http://www.w3.org/2000/svg" viewBox="0 0 453.54 609.45"><title>SUFI_COM_Webst_HomeDRAWINGS_UPDT</title><path d="M251.45,230.15c0,1.54.18,1.16,1.36,1.15a1.5,1.5,0,0,1,1.09.41,4,4,0,0,1,.76,3.71,2,2,0,0,1-.38.57c-.25.31-.58.56-.59,1,0,.13-.14.26-.24.37a.67.67,0,0,0,.2,1.18,1.66,1.66,0,0,0,.67.2,1.7,1.7,0,0,1,1.51,2.38c-.19.64-.74.8-1.1,1.18s-1.1.54-1.43,1a1.27,1.27,0,0,0-.07.79c.09.66.26,1.31.31,2,0,.22-.23.46-.39.68s-.38.29-.43.47a1.07,1.07,0,0,1-.76.7,2.82,2.82,0,0,1-1.13,0c-1.13-.11-.92-.29-.85.81a3.48,3.48,0,0,1-.11.77,3.59,3.59,0,0,0-.1.48,1.85,1.85,0,0,1-1.43,1.89,1.79,1.79,0,0,1-1.64-.29,4.29,4.29,0,0,1-1.18-1c-.16-.21-.51-.27-.79-.36,0,0-.19.15-.22.25-.24.89-.46,1.78-.69,2.68,0,.08-.06.2-.12.22-.63.25-1.19.74-1.94.64-1.14-.16-1.62-1-2-1.91a1.29,1.29,0,0,1,0-.5c0-.54,0-1.07,0-1.61,0-.16-.17-.31-.26-.47a3.51,3.51,0,0,0-.32.37,13.77,13.77,0,0,1-.93,1.4,6.36,6.36,0,0,1-1,.75,3.24,3.24,0,0,1-1.58.56s-.09,0-.09,0c-.09.53-.63.67-.9,1s-.62.87-.91,1.31a2.3,2.3,0,0,0-.17.35,2.43,2.43,0,0,1-.24.53q-1,1.28-2.07,2.54c-.35.41-.77.76-1.08,1.2a17.69,17.69,0,0,0-.89,1.6l-.8,1.45c-.2.36-.44.71-.6,1.09a18.3,18.3,0,0,1-1.38,2.62,21.27,21.27,0,0,0-1,2.07c-.41.81-.33,1.79-.94,2.52a.14.14,0,0,0,0,.09c0,.29-.29.71.14.83.16,0,.45-.33.67-.53s.53-.52.79-.79.3-.37.48-.53a7.65,7.65,0,0,1,1.83-1.51c.85-.35,1-1.24,1.73-1.68a18.57,18.57,0,0,0,1.82-1.4c.56-.45,1.1-.92,1.66-1.38a.79.79,0,0,1,.34-.18.83.83,0,0,0,.7-.38c.22-.33.76-.45,1.17-.65a5.76,5.76,0,0,1,.55-.24c.24-.09.49-.16.74-.26a.85.85,0,0,0,.37-.22c.16-.21.28-.39.57-.19,0,0,.17-.07.26-.11.83-.45,1.67-.91,2.51-1.34a.84.84,0,0,1,.43,0,14.85,14.85,0,0,0,2.26.21,9.76,9.76,0,0,0,3.4-.53,1,1,0,0,1,1.17.19c.16.16.41.23.55.4a1.21,1.21,0,0,1,0,1.78c-.53.52-.61,1.24-1,1.82s-.52,1.54-1.23,2.08c-.18.14-.2.49-.32.73-.19.41-.39.81-.6,1.21-.05.1-.18.18-.2.28a8.62,8.62,0,0,1-1.09,2.64,4.58,4.58,0,0,1-.63.79c-.2.21-.44.37-.64.57a6.54,6.54,0,0,1-1.15,1.11,3.74,3.74,0,0,0-.59.64c-.71.74-1.4,1.51-2.16,2.18a8.32,8.32,0,0,1-1.5.9c-.49.27-1,.53-1.48.81s-1.31.5-1.92.82a2.16,2.16,0,0,0-.8.57,2.15,2.15,0,0,1-1.39.79,11.54,11.54,0,0,0-1.51.78,6,6,0,0,1-1,.34c-.51.14-1,.24-1.55.37a1.9,1.9,0,0,1-.34.09,10.11,10.11,0,0,0-2.56.67c-.58.18-1.19.29-1.78.41a.81.81,0,0,1-.42-.06c-.56-.21-1.27-.1-1.62-.77,0,0-.2,0-.21.08a11.68,11.68,0,0,0-.81,4.15.55.55,0,0,1,0,.3,4.38,4.38,0,0,0-.29,3c0,.2.09.4.11.6,0,.52-.12.65-.6.46a4.84,4.84,0,0,1-.71-.27,1.66,1.66,0,0,1-.88-1.16,6.41,6.41,0,0,1,.09-2.44c.11-.61.15-1.24.24-1.86a4.39,4.39,0,0,1,.7-2.42c.1-.12,0-.37.06-.55s.17-.42.24-.64a3.16,3.16,0,0,0,.16-.5,4.76,4.76,0,0,1,.68-2.14,1.3,1.3,0,0,0,.14-.38c.31-.93.62-1.87.92-2.8.13-.39.21-.8.33-1.2.28-.86.59-1.7.86-2.56.21-.67.21-1.41.78-1.93.06-.06.07-.18.08-.28a4.75,4.75,0,0,1,.67-2c.43-.64.52-1.52,1-2.21.22-.35.4-.72.59-1.09.49-.92,1-1.85,1.48-2.76.28-.5.63-1,.92-1.44s.73-1.24,1-1.89a2.66,2.66,0,0,0,.1-.86,4,4,0,0,0-.77.11,11.34,11.34,0,0,1-1.68.62,8,8,0,0,0-1.53.4,2.63,2.63,0,0,1-1.09,0,14.62,14.62,0,0,1-4.89-1.08,10.79,10.79,0,0,1-2.35-1.36,3.7,3.7,0,0,1-1.21-2.1c-.09-.34-.12-.7-.17-1a1.52,1.52,0,0,1,1.21-1.56,8.42,8.42,0,0,1,2.37-.11c.27,0,.54-.1.82-.1a10.6,10.6,0,0,1,3.41.47,4.17,4.17,0,0,0,1.13.31,6.67,6.67,0,0,0,1.27-.24,1,1,0,0,1,.38,0c.25.06.52.26.73.2a1.42,1.42,0,0,1,1,.07,9.59,9.59,0,0,0,1.58.65c.53.14.92.61,1.52.61.15,0,.33.26.45.43s.1.36.2.51a2.47,2.47,0,0,0,.41.39,1.76,1.76,0,0,1,.33-.38,2.36,2.36,0,0,0,.65-.84c.48-.73,1-1.43,1.49-2.15a1,1,0,0,0,.11-.43,4.43,4.43,0,0,1,.49-1.86.88.88,0,0,0-.57-1.29.61.61,0,0,0-.28,0,5.36,5.36,0,0,1-.7.23,3.69,3.69,0,0,1-2.05-.11c-.06,0-.14-.06-.19,0a1.69,1.69,0,0,1-1.56-.29,2.43,2.43,0,0,1-.69-.71,5.68,5.68,0,0,1-.6-1.11.65.65,0,0,1,.09-.55c.33-.38.71-.72,1.06-1.08a3.85,3.85,0,0,0,.58-.68c.06-.11,0-.43-.07-.45-.41-.12-.59-.57-1.1-.62a2,2,0,0,1-1.17-.63,4.46,4.46,0,0,1-.92-1.43,2.38,2.38,0,0,1,1.18-2.4c.53-.27,1-.6,1.56-.89a1.1,1.1,0,0,1,.45-.2c.49,0,.47-.3.35-.62a1.52,1.52,0,0,1,0-1.26,1.12,1.12,0,0,1,.86-.74,5.73,5.73,0,0,0,1.41-.6,5.81,5.81,0,0,0,1.07-.55c.38-.3.28-.48.16-.78a5,5,0,0,1-.64-2.37,2.48,2.48,0,0,1,1.19-2,3.22,3.22,0,0,1,2.48-.43,3.9,3.9,0,0,1,.55.31c.34.16.7.3,1,.45a1.46,1.46,0,0,1,.27.13c.44.31.56.25.73-.28a9.72,9.72,0,0,1,1.43-2.89c.15-.21.3-.67.77-.48,0,0,.11-.06.16-.1a2,2,0,0,1,2.5-.14,2.32,2.32,0,0,1,.37.58c.58.9,1.15,1.81,1.75,2.69a.53.53,0,0,0,.47.18c.56-.2,1.11-.46,1.66-.7a.64.64,0,0,1,.3-.09c.41.06.8.19,1.21.23a1.87,1.87,0,0,1,1.74,1.76A9.48,9.48,0,0,1,251.45,230.15Zm-29.89,49.78c0,.6.06.62.68.52.08,0,.19.09.27.15.5.39,1,.85,1.69.48.17-.09.3-.27.47-.32.87-.26,1.75-.5,2.64-.72.33-.08.69,0,1-.11.47-.15.89-.46,1.42-.35a.37.37,0,0,0,.24,0l2-1.22a4.81,4.81,0,0,0,.87-.56c.32-.3.56-.66,1.09-.6a1.14,1.14,0,0,0,.54-.2,3.73,3.73,0,0,1,1-.5,4.21,4.21,0,0,0,2.05-1c.8-.66,1.48-1.47,2.22-2.21.4-.4.81-.78,1.22-1.17a3.43,3.43,0,0,0,1.2-1.66.45.45,0,0,1,.14-.21c.42-.39.48-1,.8-1.43a9.83,9.83,0,0,0,.86-2.14l.42-1.14a2.28,2.28,0,0,1,.22-.55c.37-.51.78-1,1.14-1.49.2-.28,0-.88-.32-.92a14.24,14.24,0,0,0-1.77-.09,4.67,4.67,0,0,1-1.86,0c-.41-.15-1-.44-1.27.28,0,0-.07,0-.09,0-.58.5-1.37.49-2,.85s-1.15.25-1.62.73c-.28.29-.76.37-1.12.6a10,10,0,0,0-.87.7,1.58,1.58,0,0,1-.25.16c-.34.18-.7.34-1,.55a7.54,7.54,0,0,0-.57.5c-.33.26-.67.49-1,.74-.81.61-1.31,1.53-2.23,2a9.46,9.46,0,0,0-1.75,1.44c-.37.35-.64.8-1,1.19s-.88.7-.93,1.33c0,0-.07.11-.09.1-.35-.08-.34.21-.45.41-.28.5-.59,1-.87,1.47a15.12,15.12,0,0,0-.92,1.81.71.71,0,0,1-.57.49c-.52.15-1.19.13-1.39.8C221.68,279.1,221.63,279.54,221.55,279.94Zm22.9-50.09a4.22,4.22,0,0,0-1.4-3.45c-.34-.31-.53-.31-.84.09a4.15,4.15,0,0,0-.4.68,9,9,0,0,0-.76,1.62,3.27,3.27,0,0,0,.18,2.36c.24.49.5,1.06,0,1.55-.19.17-.35.59-.7.17a.38.38,0,0,0-.23-.07c-.75-.08-1.37-.31-1.58-1.14a1.13,1.13,0,0,0-.38-.46c-.6-.54-1.23-1.06-1.82-1.61-.25-.23-.5-.5-.81-.31a1.13,1.13,0,0,0-.38.71,3.31,3.31,0,0,0,2,3.11.88.88,0,0,1,.73.81,2.89,2.89,0,0,0,.27.7c.1.22.23.26.41,0a2.53,2.53,0,0,1,1.85-.66c.44,0,.91.35,1.35,0,0,0,.1,0,.15,0a9.05,9.05,0,0,0,1.41.08,7.18,7.18,0,0,1,2.54.09,1.82,1.82,0,0,1,1.4,1.11,10.31,10.31,0,0,1,.52,3.79c0,.4-.11.81-.11,1.21a3.8,3.8,0,0,1-1.09,2.72,11.69,11.69,0,0,1-1.49,1.34,16.09,16.09,0,0,1-1.55.93.13.13,0,0,1-.1,0c-.47-.19-.77.19-1.14.34-.59.25-.38.7-.35,1.11a1.2,1.2,0,0,1,0,.15c-.07,1.21-.16,2.41-.21,3.62a3,3,0,0,0,.2.82c.11-.24.23-.48.33-.72a1.61,1.61,0,0,0,.22-.58c0-.84-.07-1.68-.07-2.53a13.25,13.25,0,0,1,.11-1.36s.09-.11.11-.1a.85.85,0,0,0,1-.34.64.64,0,0,0,0-.19,1.61,1.61,0,0,0,.13.18l.24.24a8.07,8.07,0,0,1,.59.62c.37.47.26,1.15.77,1.61s.91,1.24,1.66,1.58c.41.18.55.15.61-.3a2.19,2.19,0,0,0-.84-2.1,2.29,2.29,0,0,1-1-1.58c-.06-.58.23-1,.81-.9s1.44-.06,2,.57c.06.07.22.06.34.1l1,.38c.22.08.48.27.64.21s.7-.39.71-.6a1.49,1.49,0,0,0-.41-1.14c-.38-.25-1-.16-1.43-.3a2.17,2.17,0,0,1-1.09-.56c-.46-.6-.32-1,.24-1.5a.82.82,0,0,1,1.1-.22,1.24,1.24,0,0,0,1.25,0,1.77,1.77,0,0,1,.48-.24c.4-.12.81-.2,1.22-.31s.5-.22.44-.57-.21-.54-.58-.48a3.16,3.16,0,0,0-.64.13,1.73,1.73,0,0,1-1.73-.45c-.68-.55-.41-2.31.38-2.89a2.55,2.55,0,0,0,.41-.36c.24-.27.46-.56.69-.84.08-.1.22-.18.26-.3a13.06,13.06,0,0,0,.48-1.6.65.65,0,0,0-.3-.52c-.31-.17-.36.13-.38.34a1,1,0,0,1-.71.88c-.5.21-.92.77-1.53.23,0,0-.07,0-.09,0a1.66,1.66,0,0,1-.44-.26c-.14-.14-.19-.36-.32-.51a2.13,2.13,0,0,1,0-2.19,11.56,11.56,0,0,0,.56-1.58,2,2,0,0,0-.14-.92c-.07-.24-.22-.28-.47-.14a3.62,3.62,0,0,0-1.42,1.9c-.18.41-.4.81-.61,1.21-.34.64-1,.42-1.44.36a.92.92,0,0,1-.75-1C244.42,231.12,244.45,230.55,244.45,229.85Zm-6.17,10.6a5.4,5.4,0,0,0,0,.64,1.26,1.26,0,0,0,.14.32c.11-.06.29-.09.33-.18.22-.51.42-.26.63,0s.47.35.72,0c.05-.07.19-.16.25-.13s.28.15.3.26a1.19,1.19,0,0,0,1.37,1.06c.09,0,.2.09.28.16s.36.45.59.53,1.48-.71,1.55-1.13c0-.24.06-.49.41-.45a.19.19,0,0,0,.16-.08,6.88,6.88,0,0,0,.34-1c.18-1,.29-1.93.49-2.87a2.15,2.15,0,0,0-1.15-2,.41.41,0,0,0-.24,0c-.5.12-1-.12-1.53.15a4.73,4.73,0,0,1-1.76.15c-.36,0-.68.08-.58.54a1.43,1.43,0,0,1-.79,1.6C238.91,238.62,238.14,239.35,238.28,240.45ZM218.19,253v-.07a5.51,5.51,0,0,0-.74.13.41.41,0,0,0-.25.27,1.42,1.42,0,0,0,.42,1.3c.64.53,1.29,1,2,1.5a2.26,2.26,0,0,0,2,.31c.08,0,.2-.05.24,0,.48.55,1.14.17,1.7.34.25.08.61-.07.79.06s.56.09.83,0l.81-.26c.11,0,.23,0,.34-.08.7-.23,1.4-.5,2.11-.69a.69.69,0,0,0,.4-1.18,6.52,6.52,0,0,0-1.14-.82,1.88,1.88,0,0,0-.82-.39,10.93,10.93,0,0,0-2.32.11,4.7,4.7,0,0,1-1.84-.23,7.94,7.94,0,0,0-2.91-.4C219.23,252.94,218.71,252.93,218.19,253Zm16.76-9.89.17.06c-.13.27-.2.72-.39.78a13.33,13.33,0,0,1-2.45.54,1.34,1.34,0,0,0-1.08.75.59.59,0,0,0,.53.86,1.67,1.67,0,0,1,1.41.24c.05,0,.2,0,.29,0,.36-.09.72-.16,1.07-.28a2.65,2.65,0,0,0,.61-.32c.41-.27.81-.57,1.23-.84.05,0,.18.06.27.08s.46,0,.32-.3c-.24-.49-.55-.94-.83-1.4a1.85,1.85,0,0,1-.25-.41,8.3,8.3,0,0,1,.49-4.58c.11-.39.25-.81.36-1.21a7.36,7.36,0,0,1,.17-.74c.28-.72.26-.78-.44-.91a10.23,10.23,0,0,0-1.52-.26c-.42,0-.84.18-1.27.19s-.64.12-.69.49a.67.67,0,0,0,.5.83,4,4,0,0,1,1.14.41,1.23,1.23,0,0,1,.79,1.18,1.31,1.31,0,0,1-.49,1,2,2,0,0,1-1.27,0,8.58,8.58,0,0,1-1.36-.6.41.41,0,0,0-.24,0c-.78.19-1.56.37-2.33.6a1.29,1.29,0,0,0-.51.39c-.31.34-.28.66.14.87a2.4,2.4,0,0,0,1.54.46,9.33,9.33,0,0,1,1.85.11c.59,0,1.14-.27,1.74-.22.38,0,.9.67.78,1S235.05,242.66,234.95,243.08Z"/><path d="M112.79,277c-.07.53-.15,1.06-.19,1.59a2,2,0,0,0,.16.6l.49-.21c.27-.11.62-.16.8-.35.68-.76,1.51-.25,2.25-.27.29,0,.7.42.86.74a3.41,3.41,0,0,1,0,3,12.38,12.38,0,0,1-1.34,2.52,1.64,1.64,0,0,0-.37.74.77.77,0,0,0,.31.56,33.66,33.66,0,0,1,2.71,2,2.59,2.59,0,0,1,.69,2.54c-.19.78-.5,1.61-1.5,1.8-.1,0-.18.14-.27.19s-.43.34-.58.3a4.27,4.27,0,0,0-1.81.05.48.48,0,0,0-.31.33.68.68,0,0,0,.18.46,4.67,4.67,0,0,1,.93,3.29c0,1-.1,2.24-1.34,2.71a3.69,3.69,0,0,1-1.41.1,13.87,13.87,0,0,1-1.49-.18.34.34,0,0,1-.2-.14c-.36-.55-1-.66-1.51-1l0,0-.75-.42c-.05.27-.12.55-.16.82-.13.9-.23,1.8-.4,2.69a2.34,2.34,0,0,1-.4.88,2.25,2.25,0,0,0-.62,1.84c.61,3.25,1.1,6.52,1.71,9.76.25,1.35.72,2.67,1,4,.25,1.18.37,2.4.58,3.59.08.46.25.91.38,1.37s.18.65.26,1a1.59,1.59,0,0,1-.62,1.44,1.42,1.42,0,0,1-1.81-.63,6.79,6.79,0,0,1-.19-1.39,25.62,25.62,0,0,0-.95-5c-.58-2.35-1-4.76-1.44-7.14-.21-1-.44-2-.66-3.06a4,4,0,0,1-.1-.55c-.1-1.29-.21-2.59-.27-3.88a4.66,4.66,0,0,0-.88-2.42,12.23,12.23,0,0,1-1.73-3.23,1.83,1.83,0,0,0-.18-.34,1.66,1.66,0,0,0-.24.24c-.77,1.11-1.54,2.23-2.29,3.35-.21.32-.3.72-.54,1a2.37,2.37,0,0,1-2.22.84A1.46,1.46,0,0,1,95.94,302a4.57,4.57,0,0,1-.24-3.76.67.67,0,0,0-.19-.63.49.49,0,0,0-.73.19c-.12.22-.45.32-.69.46a1.79,1.79,0,0,0-.22.11,5.23,5.23,0,0,1-2.29,1c-.18,0-.38-.07-.58-.09l-1-.07a1.87,1.87,0,0,1-1.4-2.09c.27-.67.69-1.29,1-1.95.16-.34.18-.75.33-1.09.26-.59.51-1.2,1.25-1.37.09,0,.19-.23.2-.35,0-.77,0-.74-.76-1a11.23,11.23,0,0,1-1.73-.75,3.14,3.14,0,0,1-1-2.44,1.19,1.19,0,0,0-.36-1.26c-.35-.37-.79-.66-1.18-1a2.38,2.38,0,0,1-.78-1.8c0-.59.52-.74.84-1.08s.66-.26,1-.18c.15,0,.34-.23.53-.28a10.85,10.85,0,0,1,1.26-.25c.77-.11,1.54-.19,2.31-.3a2.09,2.09,0,0,0,.47-.19,2,2,0,0,0-.23-.44,2.12,2.12,0,0,1-.69-2,15.11,15.11,0,0,0,.19-2.16,7.53,7.53,0,0,1,1-2.63c0-.08.18-.13.29-.17a6.39,6.39,0,0,1,2.67-.09.7.7,0,0,1,.36.16,1.42,1.42,0,0,0,1,.42c.44,0,.87.5,1.31.76.24.14.49.24.74.36s.31.18.48.24a6.24,6.24,0,0,0,.76.23.48.48,0,0,0,.11-.28c-.12-.61-.28-1.21-.38-1.82a1.5,1.5,0,0,1,.33-1.17,1.75,1.75,0,0,0,.18-1.08,1,1,0,0,1,.45-1,2.06,2.06,0,0,1,1.33-.57,3.61,3.61,0,0,1,1.72.49c.35.18.61.55,1,.76a5.44,5.44,0,0,1,1.66,2.24c.16.27.3.29.63.05a13,13,0,0,1,2.37-1.43,1.65,1.65,0,0,1,1.23.17,3.67,3.67,0,0,1,1.35.78,4.94,4.94,0,0,1,1,3,1,1,0,0,1,0,.2Zm3.75,12.8a1.52,1.52,0,0,0-1.08-1.54,4.56,4.56,0,0,1-1-.54,3.62,3.62,0,0,0-1-.38,6.81,6.81,0,0,1-1.35-.47,6.51,6.51,0,0,1-1-.94c-.06-.06-.25-.09-.27-.06a3.81,3.81,0,0,0-.5.89c-.16.53-.1,1.12-.55,1.56a7.15,7.15,0,0,0-.69.94l-.25.35c-.34.45-.69.89-1,1.35a.49.49,0,0,0-.12.36c0,.11.21.27.3.26a1.1,1.1,0,0,1,1.15.74c.14.3.18.65.32.95.45,1,.89,1.95,1.4,2.89.17.32.55.53.81.81a2,2,0,0,0,1.44.45.79.79,0,0,0,.33-.34,2,2,0,0,0-.24-2c-.45-.82-1-1.59-1.49-2.4-.38-.63-.72-1.29-1-1.95a2.42,2.42,0,0,1-.22-.87.59.59,0,0,1,.55-.69,2.87,2.87,0,0,1,2.2.52,4.07,4.07,0,0,0,1.2.49,6.7,6.7,0,0,0,1.73.13C116.63,290.25,116.58,290.09,116.55,289.78Zm-8.67-11.86.12,0c0,.27,0,.54,0,.81,0,.59-1,1.4-1.51,1.15a3.36,3.36,0,0,1-1.6-1.7c-.31-.79-.45-1.65-.73-2.45s-.63-1.52-1-2.27c0-.1-.22-.17-.34-.2s-.24.06-.24.1a5.56,5.56,0,0,0,0,2.49,37.22,37.22,0,0,1,1.15,3.92,2.07,2.07,0,0,0,1.36,1.54,8.26,8.26,0,0,1,1.52.41,5.68,5.68,0,0,0,1.43.65,4.18,4.18,0,0,1,1.23.66l.18.11a1.59,1.59,0,0,0,0-.24,5.25,5.25,0,0,1,0-1.19c.23-1.07.48-2.13.81-3.17a4.75,4.75,0,0,0-.13-3c-.13-.43-.53-.52-.73-.3a12,12,0,0,0-1.08,1.06A5.17,5.17,0,0,0,107.87,277.92Zm-14.3.81h0c0,.22,0,.44,0,.66a1.08,1.08,0,0,0,.89,1.13c.1,0,.24,0,.29.07.53.66,1.57.26,2.07,1,0,0,.1,0,.14,0,.31-.14.5,0,.7.23a.42.42,0,0,0,.39.06c.86-.4,1.7-.84,2.56-1.24.34-.16.41-.34.13-.66a8.52,8.52,0,0,0-.64-.71,2.42,2.42,0,0,0-.65-.5,11.4,11.4,0,0,1-2-.85,18.27,18.27,0,0,0-2.08-1.05c-.81-.43-1.26-.25-1.59.61A6.49,6.49,0,0,0,93.58,278.74Zm-2.09,17.55c0,.73.24.91.74.71a14.21,14.21,0,0,0,1.54-.77,6.63,6.63,0,0,0,1.14-.78,11.2,11.2,0,0,1,1.41-1.37,1.4,1.4,0,0,0,.68-.85c.1-.28.39-.49.53-.76s.4-.73.29-.92-.61-.46-.93-.67c0,0-.08,0-.12.07-.37.37-.76.72-1.11,1.11-.72.81-1.9,1-2.51,1.95-.3.46-.93.55-1.11,1.14A7.6,7.6,0,0,1,91.49,296.29Zm13.35-1.48a4.89,4.89,0,0,0,.62,3,1.77,1.77,0,0,0,.42.44c.11.1.28.16.36.28a3.86,3.86,0,0,1,.21.57,1.14,1.14,0,0,0,.16.22.88.88,0,0,0,.11-.21,13.74,13.74,0,0,0,.24-4.2,15,15,0,0,0-.58-2.55c-.15-.52-.3-.52-.74-.23-.07,0-.16.06-.23.11-.42.29-1,.46-.83,1.19C104.69,293.88,104.76,294.41,104.84,294.81Zm-10.62-8.72c.16-.06.42-.09.46-.19a8.07,8.07,0,0,0,.38-1.45c0-.16-.13-.5-.24-.51a5.58,5.58,0,0,0-1.42,0c-.55.06-1.09.22-1.64.34l-1.95.42a.19.19,0,0,1-.14,0,.33.33,0,0,0-.56.15.7.7,0,0,0,.21.62,9.19,9.19,0,0,0,1.78.87,2.39,2.39,0,0,0,1.38.07C93.05,286.15,93.56,285.77,94.22,286.09Zm3.77,13,.05.67a3.28,3.28,0,0,0,.58-.25c.1-.06.13-.23.19-.34l.37-.59.77-1.2c.48-.74.6-1.69,1.33-2.29.07-.05.07-.18.11-.27.1-.26.23-.51.3-.77a6.55,6.55,0,0,0,.13-.73c-.18,0-.35,0-.53,0a1.51,1.51,0,0,1-.44-.1c-.31-.15-.48-.1-.61.25a17.3,17.3,0,0,1-.73,1.64,8.18,8.18,0,0,0-.61,1C98.56,297,98.28,298.07,98,299.05Zm13.49-15.14.12.08c-.1.44.12.54.47.42a3.55,3.55,0,0,0,.92-.36,2.9,2.9,0,0,0,1.07-.94,3.35,3.35,0,0,1,.78-1.09.73.73,0,0,0,.17-.49c0-.16-.07-.42-.18-.47s-.35.06-.49.15-.67.32-.69.77c0,0-.12.09-.19.13a2.65,2.65,0,0,0-.53.29c-.33.3-.62.63-.93.95Zm-8.08,1.37c0,.43.09.84.54.78s.78.14,1,.59c.06.15.31.23.49.31,0,0,.17-.11.16-.15a2.89,2.89,0,0,0-1-1.82,2,2,0,0,0-1-.23A4.48,4.48,0,0,0,103.41,285.29Zm6.84-1.73c0,.12-.11.29-.07.41.16.41.36.8.55,1.19a.82.82,0,0,0,.11.14s.11-.09.12-.14c.06-.22.11-.45.16-.67A.85.85,0,0,0,110.24,283.56Zm-14.66,5.32c-.11-.26-.23-.59-.39-.89-.06-.11-.23-.16-.35-.24a3.57,3.57,0,0,0-.34.68c0,.09.14.26.25.35a3.75,3.75,0,0,0,.5.3l.24.13Z"/><path d="M347.69,284.38a30.78,30.78,0,0,1-3.13-.34,3.89,3.89,0,0,1-1.31-.81,11.69,11.69,0,0,1-.93-.83c-.15-.13-.34-.25-.42-.42-.24-.5-.69-.49-1.11-.48-.73,0-1.47.12-2.2.17a.63.63,0,0,1-.39-.07,14.09,14.09,0,0,1-2-1.51,4.54,4.54,0,0,1-.86-1.62c-.12-.32-.29-.49-.55-.47a5,5,0,0,1-2.24-.38,10.53,10.53,0,0,1-2.54-1.06,2.68,2.68,0,0,1-1.36-2.4,1.75,1.75,0,0,1,.55-1,4.66,4.66,0,0,1,2.31-1.12,21.48,21.48,0,0,0,2.46-.69c.06,0,.16-.05.18,0,.44.47,1,.15,1.49.23.06,0,.14,0,.2,0,.63.07.56.05.69-.6a7.35,7.35,0,0,1,.63-1.89,2.43,2.43,0,0,1,2.51-.83,4.19,4.19,0,0,0,.72,0,.83.83,0,0,1,.28.07c.09,0,.2.16.26.14.62-.22,1,.31,1.42.51.27.12.36.06.49-.2a10,10,0,0,1,.93-1.6,1.29,1.29,0,0,1,1.53-.49,1.69,1.69,0,0,0,.7.07,4.56,4.56,0,0,1,2,.4,1.87,1.87,0,0,1,1.26,1.64c.21,1.08.6.81,1.45.6s1.49-.61,2.25-.05a.25.25,0,0,0,.14.06c.78,0,1,.55,1.31,1.12a1.77,1.77,0,0,0,.31.52c.71.7.11,1.93-.49,2.36a1.77,1.77,0,0,0-.58.7.42.42,0,0,0,.29.65,5.76,5.76,0,0,1,1.54.79,2.88,2.88,0,0,1,.68.92,2.39,2.39,0,0,1-.35,2.51,10.78,10.78,0,0,1-.89.71,5.73,5.73,0,0,0-1.22,1c-.58.81-1.51,1-2.28,1.4a2.36,2.36,0,0,1-1.2.45c-.17,0-.33.25-.51.36-.43.25-.47.8-.78,1.07A3.62,3.62,0,0,1,347.69,284.38ZM343,273.66v.07a7.06,7.06,0,0,0-1.09.08,2.61,2.61,0,0,0-.67.37c.12.2.2.46.38.57.54.33,1.14.56,1.67.91a4.53,4.53,0,0,0,1.85.83c.16,0,.31.19.45.31a1.08,1.08,0,0,0,1.42-.06,7.12,7.12,0,0,1,.9-1c.3-.22.15-.43.05-.58a3.53,3.53,0,0,0-2.28-1.34A21.62,21.62,0,0,0,343,273.66Zm-6,2.1v.14l.92-.42c.17-.08.45-.16.46-.26a.7.7,0,0,0-.22-.55,2.23,2.23,0,0,1-.89-1c-.11-.34-.59-.3-.65-.13-.12.34-.38.25-.58.34-.49.23-.9-.11-1.34-.2a6.27,6.27,0,0,1-.86-.33c-.07,0-.21,0-.23,0a2.51,2.51,0,0,1-1.54.94c-.42.13-.42.52-.06.81a3.18,3.18,0,0,0,1.84.68C334.95,275.81,336,275.76,337.06,275.76Zm14.07,4.06a4.89,4.89,0,0,0,.52-.36c.19-.16.32-.39.51-.54.43-.34.91-.62,1.3-1a.88.88,0,0,0,.2-.71c0-.17-.36-.42-.5-.39-.78.15-1.61-.23-2.35.28a2.37,2.37,0,0,1-.69.17.58.58,0,0,0-.23.13.87.87,0,0,0-.1,1.26C350.13,279.07,350.17,279.84,351.13,279.81Zm-3.79,1.52c-.05-.88-.24-1.56-1.05-1.88a1,1,0,0,1-.29-.19c-.41-.38-.93-.19-1.4-.24a.72.72,0,0,0-.12.45c.13.45.35.87.46,1.33a1.1,1.1,0,0,0,1.26.93,1.51,1.51,0,0,1,.55,0C347.24,281.87,347.36,281.65,347.34,281.34Zm5-9.48c0-.49-.21-.79-.52-.68a3.62,3.62,0,0,0-2,1.26c-.2.29-.46.69-.09,1a.84.84,0,0,0,.68.22,3.66,3.66,0,0,0,.83-.6,1.5,1.5,0,0,1,.39-.27A1.15,1.15,0,0,0,352.39,271.85Zm-11.62-.28.11.13c.17-.16.41-.3.48-.5s-.07-.46-.39-.51-.8-.18-1.2-.23c-.15,0-.44.08-.45.15a3.08,3.08,0,0,0,0,1c0,.09.34.21.5.19A6.48,6.48,0,0,0,340.77,271.57Zm5.54-2.54c-.48,0-.76.2-.78.6a1.15,1.15,0,0,0,.94,1.12c.58,0,.44-.55.49-.87A.66.66,0,0,0,346.31,269ZM341.25,278c-.07-.07-.3-.42-.41-.39a3.46,3.46,0,0,0-1,.57.53.53,0,0,0,0,.9A1.06,1.06,0,0,0,341.25,278Z"/><path d="M257.22,42.19a.67.67,0,0,1,1,.4,23.32,23.32,0,0,1,.76,3.23c.19,1.44.24,2.91.34,4.37a2.74,2.74,0,0,1,0,.76c-.55,2.5-.22,5-.23,7.56a32.29,32.29,0,0,1,.05,4.61,3.69,3.69,0,0,0,0,.76c.17,2.82.27,5.64.54,8.45.29,3-.06,6,.08,9a1,1,0,0,1-.1.44,4.46,4.46,0,0,0,0,3.27,36.87,36.87,0,0,1,1,6.42,16.87,16.87,0,0,1-.45,7.35,4,4,0,0,0-.12,1.05,13.74,13.74,0,0,0,.58,4.19,26.56,26.56,0,0,1,.83,4,32.33,32.33,0,0,1,0,3.94c0,.9-.14,1.81-.1,2.71.06,1.46.25,2.92.32,4.39.12,2.72.21,5.45.25,8.18a33.51,33.51,0,0,1-.16,4.53,21.6,21.6,0,0,0-.13,4.07,29.87,29.87,0,0,1,0,4.55c-.13,1.5-.33,3-.58,4.49a41.79,41.79,0,0,0-.4,7c0,1.56.42,3.15.45,4.76s.3,3,.36,4.52c.06,1.72-.06,3.44,0,5.15.13,2.66.34,5.32.56,8,.16,2,.42,3.92.56,5.88.19,2.51.31,5,.45,7.53.09,1.56.2,3.12.21,4.68a13.81,13.81,0,0,0,.56,4.64,1.63,1.63,0,0,1,.12.87,24.63,24.63,0,0,0-.61,5.78c0,1.66,0,3.32.08,5a9.94,9.94,0,0,1,.05,2.83c-.51,1.77.18,3.65-.65,5.35a.66.66,0,0,0,.06.44c.39,1-.15,2-.24,3a8.25,8.25,0,0,0-.15,2.76c.24.86-.22,1.69.19,2.48a8.54,8.54,0,0,0-.15,4.31,10.81,10.81,0,0,1,0,1.8c0,.65-.06,1.3,0,2a2.71,2.71,0,0,1-.35,2,1.16,1.16,0,0,0-.07,1A1.83,1.83,0,0,1,262,238a32.2,32.2,0,0,0-.54,3.71c-.11,1.05-.18,2.11-.21,3.17,0,.29.19.58.21.87.08,1.16.14,2.32.2,3.47a6.82,6.82,0,0,0,2.76-1.62,13.16,13.16,0,0,0-.14-3.1,3.36,3.36,0,0,1,0-1.05c.1-1.35.23-2.7.31-4,.07-1.15.06-2.31.14-3.46s.26-2.19.34-3.29c0-.58-.07-1.18,0-1.75a7.53,7.53,0,0,0,0-2.25,31.09,31.09,0,0,1-.34-3.89c-.07-2,.36-4.09.1-6.14a.53.53,0,0,1,.05-.3c.74-1.39.65-2.93.8-4.43a5,5,0,0,0,.09-1.89,5.86,5.86,0,0,1,0-2.09c0-.8,0-1.6,0-2.4,0-.64.13-1.28.2-1.92.05-.44.28-.93.16-1.31a6.15,6.15,0,0,1,0-2.83,9.25,9.25,0,0,0,.09-1.51,12.29,12.29,0,0,0-.16-3.61c-.44-1.32.1-2.45.12-3.66a23.45,23.45,0,0,0-.45-4.51,38,38,0,0,1-.27-4.5,50.42,50.42,0,0,0-.66-7.71,21.56,21.56,0,0,1-.36-3.16c-.14-2.22-.24-4.44-.36-6.65-.08-1.41-.19-2.82-.23-4.24,0-.7.21-1.42.13-2.11-.18-1.71-.54-3.4-.69-5.1a47.87,47.87,0,0,1-.27-6.18c.1-2.41.57-4.81.75-7.23.26-3.42.43-6.85.6-10.28,0-.75-.19-1.52-.12-2.27a53.29,53.29,0,0,0,.1-8.79,63.56,63.56,0,0,1-.08-9.71,22.24,22.24,0,0,0-.27-3.93,10.32,10.32,0,0,0-.42-2.67,14,14,0,0,1-.69-5.23c0-1.56.25-3.12.35-4.68a23,23,0,0,0-.46-6.92,22.12,22.12,0,0,1-.47-6.64c.18-3.07.38-6.15-.5-9.17a2.15,2.15,0,0,1,0-.74,12.47,12.47,0,0,0,.15-1.62c-.07-1.66-.23-3.31-.3-5,0-.75.14-1.5.14-2.26,0-2,0-4-.07-6.06,0-2.78,0-5.56-.11-8.34a20.41,20.41,0,0,0-.51-4.22,7.34,7.34,0,0,1,.49-5.31,4.48,4.48,0,0,0,.45-3.79,2,2,0,0,1,0-.9,7.56,7.56,0,0,0-1.41-4.86c-1-1.64-2.09-3.2-3.06-4.84a4.24,4.24,0,0,0-1.46-1.47c-1.94-1.18-3.94-2.25-5.88-3.43A9.91,9.91,0,0,0,246,16.7a21.42,21.42,0,0,1-2.55-.32c-2.08-.43-4.14-.91-6.21-1.36a14.9,14.9,0,0,1-3.24-.73c-2.28-1.09-4.74-1.06-7.13-1.25a28.22,28.22,0,0,1-4.62-.56,6.65,6.65,0,0,0-1.2-.15l-9.07-.53c-.1,0-.2-.05-.3-.06-2-.17-3.92-.47-5.88-.48-2.83,0-5.67.11-8.5.26-2.07.11-4.14.32-6.2.57s-4.09.63-6.14.91c-1,.14-2.11.19-3.16.29-1.56.16-3.11.31-4.66.51-3.66.48-7.31,1-11,1.49a61.75,61.75,0,0,1-8.14.82c-2,0-4,.23-6,.42A25,25,0,0,0,145.66,18a28.55,28.55,0,0,1-2.75.81c-2.2.57-4.4,1.1-6.59,1.67-.83.22-1.64.52-2.47.72-1.11.27-2.34.11-3.26,1-.09.09-.29.05-.44.08-1.12.22-2.26.36-3.35.68-2.25.66-4.46,1.45-6.7,2.13a51,51,0,0,1-5.68,1.53c-1.87.34-3.72.74-5.54,1.23a20.78,20.78,0,0,0-4.85,2,9.65,9.65,0,0,1-2.45,1.09,11.89,11.89,0,0,0-4.7,2.22A15.91,15.91,0,0,1,94.35,35a28.32,28.32,0,0,0-3.78,2.77,6.63,6.63,0,0,0-1.45,1.51c-.88,1.22-1.72,2.48-2.51,3.76A1.44,1.44,0,0,0,86.86,45c.27.28.66.45,1,.72s.49.46.49.7c0,1.05,0,2.11-.08,3.16s-.11,2.22-.12,3.33a38.52,38.52,0,0,1,0,4.08,23.13,23.13,0,0,0-.31,5.14,48,48,0,0,1,.13,5.59c0,1.16-.15,2.31-.15,3.46,0,1.41.09,2.82.09,4.24,0,.69-.15,1.39-.16,2.08,0,2.53,0,5.07-.1,7.59s-.51,5-.77,7.54c-.12,1.15-.23,2.31-.35,3.46a36.69,36.69,0,0,0,0,5.44c.13,2.72.06,5.45,0,8.18,0,1.82-.15,3.64-.24,5.45,0,.65-.14,1.3-.13,2a26.17,26.17,0,0,1-.18,5.15,4.57,4.57,0,0,0,.06,1.51,11.89,11.89,0,0,1,.4,2c-.1,3.07-.31,6.14-.45,9.22a8.52,8.52,0,0,0,.08,2.12,16.85,16.85,0,0,1,.51,4.67,3.92,3.92,0,0,0,.16.74c.07.49.13,1,.16,1.49,0,.65.08,1.31.1,2a6.39,6.39,0,0,1,0,2.24c-.58,1.61-.26,3.24-.23,4.82a12.54,12.54,0,0,1-.1,3.58,1,1,0,0,0,0,.6c.46,1.17.11,2.36.12,3.55,0,2.51.09,5,.14,7.52,0,.25.11.49.13.74.07,1,.14,2.1.16,3.14a6.48,6.48,0,0,0,0,2.38c.26.72-.39,1.43-.44,2.18a.51.51,0,0,0,0,.15c.5,2-.2,4,0,6.06a5,5,0,0,1-.3,1.76c-.24.81.3,1.47.35,2.18a11.89,11.89,0,0,1-.34,2.38c0,.19.13.39.13.59a7.05,7.05,0,0,1,0,1,6.28,6.28,0,0,0-.13.7c0,2.09.8,4.15.36,6.27a1.09,1.09,0,0,0,.08.45,12.35,12.35,0,0,1,.31,3.13c0,1.91.22,3.83.33,5.74.08,1.29.17,2.57.19,3.86,0,.64-.38,1.37-.17,1.9a4.17,4.17,0,0,1,.06,1.92,7.46,7.46,0,0,0,0,1.46,13.08,13.08,0,0,1,0,3.57,16,16,0,0,0-.46,2c0,1.51-.1,3-.16,4.52a10.27,10.27,0,0,0-.06,1.5,34.8,34.8,0,0,0,.41,4,3.11,3.11,0,0,1,.2,1.15c-.32,1.71.09,3.43-.1,5.13-.12,1.15.64,2.23.18,3.38.6,1.26.16,2.59.16,3.86,0,3.17-.31,6.33-.37,9.5,0,1.28-.14,2.59-.05,3.84s.18,2.26.16,3.42c0,2.15.1,4.31.2,6.46.12,2.72.28,5.45.42,8.17a1.76,1.76,0,0,0,.06.6,1.19,1.19,0,0,0,.44.57,2.16,2.16,0,0,0,2.82-1.64c0-1.06-.23-2.11-.22-3.16a75.89,75.89,0,0,1,.06-8.79c.06-.47,0-1-.44-1.21-.82-.36-.86-1-.89-1.76s0-1.21,0-1.82a18.72,18.72,0,0,0-.16-2.86,1.73,1.73,0,0,1,0-1.27,2.1,2.1,0,0,0,.2-.88c.11-3.17.28-6.33.29-9.5,0-2.17-.19-4.35-.33-6.52s0-4.35-.64-6.46a2.23,2.23,0,0,1,.12-1,3.26,3.26,0,0,0,0-1.91,5.65,5.65,0,0,1-.06-2.08c0-1,.14-2,.2-3a4.3,4.3,0,0,1,.06-1,5,5,0,0,0,0-2.55,7,7,0,0,1,0-1.48c0-1,.11-2.06.13-3.1,0-2.37.07-4.74.11-7.11s.08-4.54.11-6.82a2.24,2.24,0,0,0,0-.3,19.81,19.81,0,0,1-.45-4.16,33.25,33.25,0,0,0-.23-4.65c-.05-1.26,0-2.53,0-3.79a13.38,13.38,0,0,1,.07-4,4.7,4.7,0,0,0,0-1.21,36.29,36.29,0,0,1,.13-5.44,58.62,58.62,0,0,0,.35-6.79c.15-3,0-6.05-.11-9.08,0-1.11-.09-2.2,0-3.31.12-1.8,0-3.62,0-5.43-.05-2.52.74-5,.18-7.56,0-.09.05-.2.05-.29a21.45,21.45,0,0,0,.05-2.57c-.18-2-.46-3.91-.66-5.87a26.32,26.32,0,0,1,0-6.81,11,11,0,0,0,.07-2.42,92.56,92.56,0,0,1,.07-10.59c.14-2.93.37-5.86.35-8.8,0-1.11.13-2.22.11-3.33,0-1.81-.26-3.63-.17-5.44.16-3.28.48-6.56.76-9.83.1-1.21.34-2.41.39-3.62.09-2.17.07-4.35.13-6.52s.13-4.36.27-6.53A58.08,58.08,0,0,0,91.27,64a19.51,19.51,0,0,1,0-3.17c.1-1.61.31-3.22.43-4.83a15.58,15.58,0,0,0,.12-3.33A17.12,17.12,0,0,1,91.89,47c.06-.3.1-.6.13-.9a1.81,1.81,0,0,0-1-1.91c-.24-.14-.65-.36-.64-.52a1.55,1.55,0,0,1,.46-.91,2.08,2.08,0,0,1,.92-.49,1.3,1.3,0,0,0,1.15-1.52,1.61,1.61,0,0,1,.72-1.56c1.52-1.18,3-2.45,4.55-3.54a52,52,0,0,1,6.2-3.13,46.13,46.13,0,0,1,10.38-3.31,67.5,67.5,0,0,0,9.59-2.87,25.75,25.75,0,0,1,4.06-1.16c.64-.15,1.3-.19,1.93-.36,1.91-.49,3.81-1,5.73-1.51,4.16-1.08,8.33-2.17,12.5-3.22a31.29,31.29,0,0,1,7.5-.93,60.44,60.44,0,0,0,7.88-.39,70.74,70.74,0,0,0,8.84-1.36,6.23,6.23,0,0,1,1.06-.08c1.81-.16,3.63-.31,5.44-.5,2-.21,4-.47,6-.71,1.51-.18,3-.27,4.52-.58a42.23,42.23,0,0,1,7.55-.77c1.92,0,3.85.11,5.75-.05a48.31,48.31,0,0,1,6.06.16c.81,0,1.61.15,2.42.19,1.66.08,3.33.07,5,.22,3,.27,5.94.63,8.85.94a14.63,14.63,0,0,1,5.14.62q6.21,1.43,12.44,2.81c.34.08.71.05,1.06.11a13.44,13.44,0,0,1,5.21,1.48c1.37.86,2.79,1.64,4.17,2.47a4.16,4.16,0,0,1,1.21.91c1.34,1.77,2.92,3.32,3.92,5.38a5.67,5.67,0,0,1-.29,5.74,3.87,3.87,0,0,0-.52,1.24,1.66,1.66,0,0,1-1.37,1.59c-.29.06-.53.42-.77.66-.81.82-1.6,1.68-2.43,2.48a8.9,8.9,0,0,1-2.8,2.09,23.16,23.16,0,0,0-3.52,2,4.48,4.48,0,0,0-1.18,1.12c-.47.64-.73,1.51-1.82,1.06-.13-.05-.36.14-.55.22-1.17.44-1.68,1.65-2.67,2.3,0,1-.76.9-1.29.74a1.32,1.32,0,0,0-1.39.26,7,7,0,0,1-2.44,1.28c-1.48.53-3.08.69-4.49,1.51a23.17,23.17,0,0,1-3.51,1.32c-.94.35-1.87.75-2.81,1.09-1.27.46-2.57.86-3.83,1.33a20,20,0,0,1-5.49,1.56c-2.5.18-4.79,1.11-7.19,1.62-2,.43-4,.88-6.08,1.22-1.89.32-3.81.41-5.69.76-3.12.58-6.26,1.15-9.32,2a48.61,48.61,0,0,1-8.36,1.36c-3.56.33-7.12.56-10.66,1.15a9.79,9.79,0,0,1-2.12,0c-1.72-.1-3.44-.14-5.16-.29-2-.17-4-.23-6.05-.31-1.26-.05-2.51,0-3.77-.09-2.11-.12-4.22-.29-6.33-.44a2,2,0,0,1-.58,0,19,19,0,0,0-5-1c-1.7-.2-3.46-.06-5.07-.69-3.41-1.34-7-1.83-10.56-2.63a7.18,7.18,0,0,0-1.8-.26,13.7,13.7,0,0,1-6.32-1.79,23.26,23.26,0,0,0-4.19-1.92c-1.12-.28-2.17-.85-3.29-1.11a17.43,17.43,0,0,1-7.26-3.63,6.09,6.09,0,0,1-2.3-2.72c-.32-1-1.29-1.22-2.2-1.37a1,1,0,0,0-1.12.63c-.19.4-.43.86,0,1.28,1.23,1.32,2.05,2.94,3.46,4.18a22.28,22.28,0,0,0,8.3,4.56,43.57,43.57,0,0,1,6.69,2.45,25.23,25.23,0,0,0,7.3,2.46,78.08,78.08,0,0,1,9.8,2.09,33.13,33.13,0,0,0,4.26,1c2,.32,4,.37,6,.74a99.27,99.27,0,0,0,13,1.28c4.34.22,8.7.2,13,.66a8.61,8.61,0,0,0,2-.12c1.91-.24,3.81-.68,5.72-.75a89.07,89.07,0,0,0,18-2.87,62.49,62.49,0,0,1,8.94-1.69,47.86,47.86,0,0,0,8.35-1.58c1.85-.51,3.76-.81,5.63-1.24,1.37-.31,2.76-.62,4.1-1,1.58-.51,3.12-1.16,4.68-1.75a55.79,55.79,0,0,0,5.23-2,25.66,25.66,0,0,1,2.91-1.21,31.66,31.66,0,0,0,3.4-1.25c2.8-1.38,5.56-2.84,8.33-4.28a3,3,0,0,0,.76-.5A15.72,15.72,0,0,1,249,47.77,22.7,22.7,0,0,0,253,45.15c.86-.7,1.73-1.39,2.63-2A9.91,9.91,0,0,1,257.22,42.19Z"/><path d="M115.57,216.78c0,2,0,4,0,6.06,0,1.36-.21,2.72-.29,4.08,0,.45,0,.9,0,1.35a13.72,13.72,0,0,1,0,2.11,1.75,1.75,0,0,1-1.79,1.35,1.39,1.39,0,0,1-1.38-1.35c-.13-1-.14-2.09-.33-3.11-.21-1.18-.6-2.32-.84-3.5-.15-.73-.15-1.5-.25-2.24a20.87,20.87,0,0,0-.55-3.26,4.42,4.42,0,0,1,0-2.38,2.19,2.19,0,0,0-.24-1.67,3.81,3.81,0,0,1-.49-2c.26-1.7-.44-3.23-.62-4.84a18.71,18.71,0,0,1,0-3.29,11,11,0,0,0-.2-2.85,6.37,6.37,0,0,1-.13-2.24,26.13,26.13,0,0,0,.09-3c0-1.21.11-2.42.14-3.63,0-.69-.1-1.4-.05-2.09.14-2,.38-3.91.48-5.86.06-1.2-.12-2.41-.08-3.62s.21-2.61.33-3.91a11.9,11.9,0,0,1,.25-2.52c.46-1.46-.05-2.93.24-4.38a5.33,5.33,0,0,0,.14-2.22,32.51,32.51,0,0,1-.45-6.3c-.15-2.91-.49-5.81-.72-8.72-.11-1.41-.12-2.82-.28-4.22-.24-2-.58-4-.87-6a2.54,2.54,0,0,1-.06-.45,17,17,0,0,0-.53-3.88c-.39-2-.59-4-.9-6a3.62,3.62,0,0,0-.38-1.13,2.51,2.51,0,0,1,2-3.65,1.07,1.07,0,0,1,1.25.85,7.56,7.56,0,0,1,.21,1.65,97.51,97.51,0,0,0,1.06,11.18,6.71,6.71,0,0,0,.59,1.51,6.33,6.33,0,0,1,.51,1.38c.23,1.65.28,3.34.59,5a51.44,51.44,0,0,1,.63,7.71c.09,2.43.34,4.85.49,7.27s.32,4.75.39,7.13a19.81,19.81,0,0,1-.9,5.68,17.26,17.26,0,0,0-.5,7.38,44.25,44.25,0,0,0,1.48,5.24c0,.16.25.27.38.41.12-.14.36-.28.36-.42,0-.9.47-1.79.08-2.7a.61.61,0,0,1,0-.45c.53-1.13,0-2.27,0-3.4a6,6,0,0,1,.15-1.8,13.06,13.06,0,0,0,.2-5.21,2.58,2.58,0,0,1,0-.75,28.72,28.72,0,0,0,.5-5.53,29.18,29.18,0,0,1,.34-3.32,23.61,23.61,0,0,0,.05-5.57c-.16-1.84-.13-3.7-.18-5.55a2.1,2.1,0,0,1,0-.45,44.75,44.75,0,0,0,.5-13.35c-.24-2.24-.69-4.52-.15-6.81a2,2,0,0,0-.1-1,6.24,6.24,0,0,1,.14-3.27,8,8,0,0,0,.19-2.08,10.8,10.8,0,0,1,.36-3.75,6,6,0,0,0,.22-2.39,10.52,10.52,0,0,1,.07-3.62,21.69,21.69,0,0,1,2.08-6.16,2.44,2.44,0,0,0,.33-.68c.16-1.07.68-1.67,1.84-1.52.54.07.61-.41.84-.72a1.86,1.86,0,0,1,2.43-.16,1.06,1.06,0,0,1,.27.68,38.17,38.17,0,0,1-.17,4.38c-.51,3.79-.9,7.54.36,11.27a6.14,6.14,0,0,1,.2,1.95,1.72,1.72,0,0,1-1,1.58c-1.08.56-2.13,1.19-3.24,1.67a1.73,1.73,0,0,0-1.19,1.58,38,38,0,0,0-.31,6.35,68.66,68.66,0,0,1,.15,8.2c-.12,2.72-.57,5.43-.84,8.15a9.68,9.68,0,0,0,0,2,45.83,45.83,0,0,1,0,8.95c-.2,2.17-.25,4.35-.45,6.52s-.53,4.22-.75,6.33c-.1,1-.07,1.92-.09,2.88,0,.45,0,.91,0,1.36a49.85,49.85,0,0,0,.19,11.15c.21,1.65.29,3.32.46,5s.36,3.22.5,4.83c.26,2.87.5,5.74.74,8.61.2,2.41.35,4.83.59,7.24a16.45,16.45,0,0,0,.63,3.12c.16.52.26,1.19.92,1.44,0-.5.06-1,.1-1.49.24-3,.34-5.94.88-8.88a3.77,3.77,0,0,0,.12-1,42.47,42.47,0,0,1,.54-9.52,4.5,4.5,0,0,0,.06-1.5c-.47-2-.14-4-.09-6a11.38,11.38,0,0,1,.38-3.73c0-.09.1-.22.07-.29-.62-1.24.08-2.62-.43-3.88-.2-.49.28-1,.13-1.6a26.42,26.42,0,0,1-.67-4.56,57.67,57.67,0,0,1,.22-10.68c.11-.94,0-1.91.11-2.86a63.38,63.38,0,0,0-.11-10.45c-.2-2.57-.7-5.11-1-7.67a16.21,16.21,0,0,1-.22-3.16c.12-1.76.56-3.5.61-5.26a9.09,9.09,0,0,1,1.14-4,8.94,8.94,0,0,0,.6-3,1.6,1.6,0,0,1,1.18-1.42,1.35,1.35,0,0,1,1.74,1,2.47,2.47,0,0,1,.06.76,24.46,24.46,0,0,0,.4,5.59c.08.55,0,1-.5,1.3a1.21,1.21,0,0,0-.6,1.16c-.06,2.07-.22,4.16-.11,6.22.14,2.68.44,5.35.78,8,.28,2.25.78,4.48,1.06,6.74.34,2.76.54,5.54.8,8.32a105.59,105.59,0,0,1,.17,14,34.62,34.62,0,0,1-.65,7.39,18.22,18.22,0,0,0-.2,3.31c-.11,1.77-.24,3.53-.36,5.3,0,.3,0,.6,0,.91a61.58,61.58,0,0,0,0,6.52c.16,1.62-.08,3.3.68,4.89a9.17,9.17,0,0,1,.61,4.33q-.15,3.71-.48,7.42c-.11,1.29-.19,1.28-1.42,1.55-1.88.41-2,.58-1.83,2.58A22.28,22.28,0,0,1,125,234c-.11,1.16-.8,1.43-1.78.82a2.09,2.09,0,0,1-.88-1.36c-.34-1.27-.48-1.34-1.64-1.08-1.43.32-1.81.09-2.08-1.31a2.83,2.83,0,0,1-.1-.75,16.24,16.24,0,0,0-.87-5.45,23,23,0,0,1-1-8.21,10.5,10.5,0,0,0-.17-2.41c0-.22-.26-.41-.4-.61-.11.2-.3.39-.32.59-.08.86-.12,1.72-.17,2.58Zm-4-15a23.17,23.17,0,0,0,.51,7.42c.1.39.1.8.19,1.18,0,.11.22.17.33.26.06-.11.2-.24.18-.34-.43-2.5,0-5,0-7.51a6.83,6.83,0,0,0-.17-1.92c-.28-1-.7-2-.16-3.08a1.16,1.16,0,0,0,.05-.74,3.16,3.16,0,0,0-.37-.72,5.53,5.53,0,0,0-.5.66c-.06.12,0,.3,0,.45C111.62,199,111.62,200.59,111.62,201.8Zm8.15-77c0,.6.06.9.06,1.2s0,.87.57.85,1.07,0,1.17-.7a2.94,2.94,0,0,0-.06-1.18A14.82,14.82,0,0,1,121,120a1.45,1.45,0,0,0-.08-.59.45.45,0,0,0-.31-.27.41.41,0,0,0-.32.25c-.07.75-.1,1.49-.15,2.24,0,.54-.08,1.08-.14,1.61S119.81,124.47,119.77,124.77Z"/><path d="M107.53,105.42a2.35,2.35,0,0,1,2,3.21,3.89,3.89,0,0,0-.21,3,41.66,41.66,0,0,1,1.34,9.44,2.39,2.39,0,0,1-1.67,2.54,15.31,15.31,0,0,1-4.16,1.37,1.51,1.51,0,0,0-1.49,1.46,8,8,0,0,0-.15,1.36q0,2.65,0,5.3,0,1.37.11,2.73c.11,1.71.29,3.42.36,5.13.07,1.56.09,3.13,0,4.68-.08,2-.2,3.94-.43,5.9a59.69,59.69,0,0,0,.16,9.83c0,.2,0,.49.07.58.9.74.47,1.62.35,2.51a10.61,10.61,0,0,0,.23,3.9,16,16,0,0,1,.35,3.47c0,2.1-.16,4.2,0,6.31.08,1.1-.12,2.22-.13,3.33a50.05,50.05,0,0,0,.69,8.41c.31,1.89.39,3.82.63,5.73s.58,3.8.8,5.7c.15,1.36.18,2.73.25,4.09.13,2.27.23,4.55.37,6.82a48.06,48.06,0,0,1,.23,8.47,38.44,38.44,0,0,0,0,4.54,1.36,1.36,0,0,0,0,.45,26.67,26.67,0,0,1,1.1,5.94,22.4,22.4,0,0,0,1.08,3.31c.21.71,0,1.08-.66,1.27a1.29,1.29,0,0,1-.84-.1,4.09,4.09,0,0,1-2.49-3.72c0-1.86-.66-3.56-.88-5.35-.24-2-.69-4.05-.08-6s0-3.86-.08-5.77-.6-3.79-.55-5.68a19.39,19.39,0,0,1,0-3.59,1.42,1.42,0,0,0,0-.45c-.17-1.45-.36-2.9-.54-4.35-.08-.6-.17-1.2-.24-1.8-.24-2.34-.56-4.68-.68-7a28.47,28.47,0,0,0-.28-3.14,4.57,4.57,0,0,1,.12-.89,1.55,1.55,0,0,0-.06-.84,3.87,3.87,0,0,1-.26-3.5,6.44,6.44,0,0,1,.34-1c.16-.32.18-.56-.12-.78a1.62,1.62,0,0,1-.49-1.66c.17-1.34.4-2.67.61-4,0-.2.18-.45.1-.58-.84-1.42-.32-3-.43-4.44s0-3-.15-4.51a29.17,29.17,0,0,0-.75-3.34,13.53,13.53,0,0,1-.3-1.64c-.21-2.11-.45-4.22-.55-6.33a26.2,26.2,0,0,1,.59-7.81,4,4,0,0,0,.06-1.19c-.19-3.58-.17-7.18-.71-10.74a4.88,4.88,0,0,1,.1-1c0-.24.1-.55,0-.73-.79-1.22-.4-2.56-.41-3.84,0-1.6.16-3.2.29-4.8.1-1.16.24-2.31.39-3.47a1.43,1.43,0,0,1,1.15-1.42c.71-.13.82-.57.87-1.2a34.7,34.7,0,0,0,.4-3.46,15.07,15.07,0,0,1,.84-4.91,35.74,35.74,0,0,1,1.56-4.09A2.33,2.33,0,0,1,107.53,105.42Zm.19,13.32.13,0c-.16-.83-.32-1.66-.49-2.49,0-.08-.13-.22-.18-.21a.5.5,0,0,0-.34.18,9.29,9.29,0,0,0-.93,4.37.59.59,0,0,0,.84.57,1.23,1.23,0,0,0,1-1.19C107.72,119.55,107.72,119.15,107.72,118.75Z"/><path d="M169.67,93.82a4.17,4.17,0,0,1-.82,2.26,15.85,15.85,0,0,1-4.76,4.58,4.07,4.07,0,0,1-3.48.28c-2.83-.94-4.08-3.08-4.8-5.75-.61-2.27.54-4.1,1.36-6,.08-.18.3-.3.37-.48.59-1.68,2-2.12,3.53-2.48a10.48,10.48,0,0,0,1.33-.29c1.8-.69,3.07.21,4.09,1.47a20.65,20.65,0,0,1,2.89,5.12A7.48,7.48,0,0,1,169.67,93.82Zm-7.18-4.23a1.65,1.65,0,0,0-2,.66,7.25,7.25,0,0,0-1.59,3.85,4,4,0,0,0,2.31,3.74,2,2,0,0,0,2.48-.39c.68-.74,1.42-1.42,2.15-2.11a1.63,1.63,0,0,0,.5-1.79,39,39,0,0,0-1.54-3.61,1,1,0,0,0-1.27-.54A7,7,0,0,1,162.5,89.58Z"/><path d="M219.91,82.8a6.12,6.12,0,0,1,2.89-5.41c.17-.11.38-.23.45-.39.39-1,1.28-1.08,2.1-1.26a3.54,3.54,0,0,1,2.48.42,11.44,11.44,0,0,1,3.81,3.41,5.35,5.35,0,0,1,.85,3.62,8.4,8.4,0,0,1-2.36,5.61,8.88,8.88,0,0,1-4.34,2.35,3.06,3.06,0,0,1-2.72-.65,6.45,6.45,0,0,1-2.55-3.82C220.33,85.37,220.12,84.08,219.91,82.8Zm3.18,1.66c.2.69.39,1.57.7,2.41a1.35,1.35,0,0,0,1.56.93,6.74,6.74,0,0,0,2-.68,5.07,5.07,0,0,0,2.4-5.16,1.22,1.22,0,0,0-.22-.55A18.54,18.54,0,0,0,228,79.74c-.56-.5-.87-.5-1.42.08a2.17,2.17,0,0,1-1.72.72c-.87,0-1.14.28-1.31,1.15S223.25,83.39,223.1,84.46Z"/><path d="M400.14,321.29c-.56-3-.71-6.06-1.33-9.06a38.92,38.92,0,0,0-1.13-4.55,34.58,34.58,0,0,0-2.05-5,15.66,15.66,0,0,1-.59-1.53,33.83,33.83,0,0,0-3.19-6.53c-.74-1.11-1.38-2.28-2.11-3.39q-1.67-2.55-3.41-5.07c-.71-1-1.55-2-2.23-3-1.6-2.51-3.12-5.07-4.71-7.58-.5-.79-1.09-1.53-1.65-2.28-1-1.38-2.53-2.33-3.61-3.64a22.09,22.09,0,0,0-3.19-3.08,4.17,4.17,0,0,1-1-1,22.91,22.91,0,0,0-4.82-5.1,8.23,8.23,0,0,0-2.4-1.45c-1.32-.53-2.68-.87-4-1.3a6.25,6.25,0,0,0-2.31-.14c-.87,0-1.19.63-1.43,1.34s.19.85.5,1.2a4.39,4.39,0,0,0,2.5,1.64,2.76,2.76,0,0,1,1,.6,32.37,32.37,0,0,0,5.33,3.37,6.13,6.13,0,0,1,1,.61,16.34,16.34,0,0,1,4.14,4.1,8.38,8.38,0,0,1,1.44,2.59,14.34,14.34,0,0,0,1.66,3.36,2.81,2.81,0,0,0,1,.93,2.26,2.26,0,0,1,1.09,1.15,7.94,7.94,0,0,0,1,1.59c1.18,1.65,2.34,3.31,3.54,5a29.72,29.72,0,0,1,2.4,4c.93,1.81,1.76,3.66,2.58,5.52a25.3,25.3,0,0,1,2.24,7.39,7.78,7.78,0,0,1,.1,1.63,54.69,54.69,0,0,0-.07,6.75,24.18,24.18,0,0,0,.16,2.76,16.87,16.87,0,0,0,.85,2.68c.28.9.57,1.79.82,2.7a4.63,4.63,0,0,1,.08,2.56c-.73,2.39-1.38,4.82-2.31,7.14-1,2.61-2.39,5.1-3.56,7.66-.59,1.28-1,2.63-1.44,4a33.1,33.1,0,0,1-2.1,3.92,26.18,26.18,0,0,0-1.61,3.65c-.42,1.29-1.36,2.24-1.93,3.43a10.7,10.7,0,0,1-2.19,3,10.11,10.11,0,0,0-1.41,1.86,4.53,4.53,0,0,1-1,1.26,22.33,22.33,0,0,0-3,2.68c-.93,1-2,1.93-3.07,2.87-.58.53-1.14,1.08-1.74,1.58-1.22,1-2.46,1.93-3.7,2.89-.87.67-1.74,1.32-2.61,2-1.37,1-2.71,2.12-4.13,3.09a6.67,6.67,0,0,1-2,.73,5.08,5.08,0,0,1-1.4.17,4.11,4.11,0,0,0-2.56,1,1,1,0,0,0-.38,1,2.08,2.08,0,0,0,.1.46,1.31,1.31,0,0,1-.44,1.84c-.32.23-.42.8-.57,1.23a.71.71,0,0,0,.47.72c1.32.19,2.51,0,3.27-1.25a5.89,5.89,0,0,1,.66-1,2,2,0,0,1,.75-.54c.86-.33,1.75-.61,2.63-.89a.27.27,0,0,1,.21.08.23.23,0,0,1,.05.19,1.13,1.13,0,0,1-.17.43q-1.28,1.51-2.59,3a2.35,2.35,0,0,1-.69.63c-1.34.61-2,1.91-3.09,2.82a1,1,0,0,0-.38,1,3.21,3.21,0,0,1,0,.93,1.25,1.25,0,0,1-1.19,1,1,1,0,0,1-1.1-.68c-.23-.5-.4-1-.66-1.51a1.54,1.54,0,0,1,.08-1.75,1.6,1.6,0,0,0,0-1.78,4.16,4.16,0,0,1-.6-1.5,1.69,1.69,0,0,0-1.1-1.38,1.06,1.06,0,0,0-1.48.22,4.53,4.53,0,0,1-3.6,1.9,2.09,2.09,0,0,0-1.09.36,13.07,13.07,0,0,1-4.52,1.91,31.19,31.19,0,0,0-3.88,1.42,3.7,3.7,0,0,1-1.44,3.55,11.09,11.09,0,0,0-2,2c2-.7,3.89-1.46,5.78-2.34a20.28,20.28,0,0,1,2.21-.74c1.85-.61,3.73-1.12,5.54-1.84a10.8,10.8,0,0,1,1.79-.52.66.66,0,0,1,.57.29,24.21,24.21,0,0,1,1.05,3.1,1.76,1.76,0,0,1-1.16,2.28c-1.19.39-2.13,1.31-3.44,1.43-.48,0-.93.51-1.39.8s-.75.65-1.17.73a24.89,24.89,0,0,0-3.31,1.17c-1.1.38-2.27.57-3.4.84l0-.15c-.38.07-.77.11-1.15.22a1.76,1.76,0,0,1-1.57-.23,2.48,2.48,0,0,0-2.67-.1,24.11,24.11,0,0,0-.73,4.43,4.72,4.72,0,0,1,2.12,0c1,.25,1.93.65,2.88,1,.06,0,.15.12.15.17s-.06.34-.14.36c-1.14.3-2.27.63-3.42.83a3.31,3.31,0,0,0-1.69.83c0,1,0,2,.09,3a2.58,2.58,0,0,0,1.55,0c.37-.12.76-.21,1.12-.36a11.67,11.67,0,0,1,4.58-.87c.31,0,.63,0,.94-.05,2-.17,4.07-.37,5.79-1.66a1.75,1.75,0,0,1,.86-.32,13.24,13.24,0,0,0,4.49-1.31,4.35,4.35,0,0,1,1.37-.26.55.55,0,0,1,.65.51,20.44,20.44,0,0,1,.29,5.15c-.06.56-.24.89-.75,1s-1.07.19-1.6.31c-1.84.4-3.7.72-5.5,1.25a18.6,18.6,0,0,1-6.64,1.09,12.68,12.68,0,0,0-5.57.61,2.59,2.59,0,0,1-.46.11,1.64,1.64,0,0,1-1-.07,3.59,3.59,0,0,1-3.33,2.37,3.41,3.41,0,0,1,.09.36,1.79,1.79,0,0,0,1.41,1.41,3.06,3.06,0,0,0,2.3-.11,10.58,10.58,0,0,1,3.88-.82c2.5-.18,5-.39,7.51-.6a3.93,3.93,0,0,0,2.45-.67,5.91,5.91,0,0,1,3.45-1.34,19.74,19.74,0,0,0,7.54-2.42,3.69,3.69,0,0,1,1.77-.56c1.27,0,1.81-.81,2.07-1.87a4,4,0,0,0,.09-1.62c-.13-.76-.46-1.49-.64-2.25a10.87,10.87,0,0,1-.26-1.84.69.69,0,0,1,.71-.77,1.63,1.63,0,0,0,1.61-1.12c.41-.84.9-1.65,1.39-2.46a2.94,2.94,0,0,1,.7-.93A3.6,3.6,0,0,0,355,392a3.71,3.71,0,0,1,1.62-1.94,66.7,66.7,0,0,0,9.33-7.43,6.61,6.61,0,0,1,.94-.69c1.9-1.24,3.85-2.4,5.64-3.79a22.65,22.65,0,0,0,3-2.23,25.63,25.63,0,0,1,4.35-4.25.81.81,0,0,0,.16-.17c1.71-2.13,4-3.73,5.4-6.15a34,34,0,0,1,2.15-2.77,9.17,9.17,0,0,0,1.46-2.39,19.06,19.06,0,0,1,2.07-3.91,29.66,29.66,0,0,0,1.56-2.59,26.48,26.48,0,0,1,3-5.24,2.22,2.22,0,0,0,.45-2.4,2.33,2.33,0,0,1,0-1.59,23.62,23.62,0,0,0,.77-3.9,10.47,10.47,0,0,1,1.58-4.61,12.86,12.86,0,0,0,1.58-4.37A28.68,28.68,0,0,0,400.14,321.29ZM338.26,396a9,9,0,0,1-3.53,1.17,4.9,4.9,0,0,0-2,.61c-.76.47-1.31.25-2-.61a.38.38,0,0,1,.05-.37,4.53,4.53,0,0,1,.8-.47q1.69-.78,3.4-1.54a2.62,2.62,0,0,1,3.23.41,1.25,1.25,0,0,1,.17.42C338.39,395.72,338.36,395.91,338.26,396Zm5.59-1.8-.55,0a1.38,1.38,0,0,1-1.52-.71c-.2-.33-.49-.61-.65-1a.62.62,0,0,1,.22-.54,2.76,2.76,0,0,1,.86-.33c1.59-.39,2.13,0,2.23,1.67C344.47,393.87,344.3,394.12,343.84,394.17Zm45.32-96.29a.24.24,0,0,1,.22,0,2.07,2.07,0,0,1,.46.5c.42.83.81,1.66,1.19,2.5a2.91,2.91,0,0,1,.1.6,9.88,9.88,0,0,1-.76.67.41.41,0,0,1-.36-.12c-.18-.83-.3-1.66-.49-2.49-.11-.51-.31-1-.45-1.52A.22.22,0,0,1,389.16,297.88Zm.4,8.82c.05-.54.09-1.09.16-1.63,0-.27-.18-.74.32-.7.24,0,.53.33.68.58a4.54,4.54,0,0,1,.69,3.1,3.68,3.68,0,0,1,0,2.33,2.58,2.58,0,0,0-.07,1.15,8.84,8.84,0,0,1-.09,2.79c0,.17-.17.33-.26.49-.1-.11-.25-.2-.3-.34A15.57,15.57,0,0,1,389.56,306.7Zm-22.74,58.15a1.35,1.35,0,0,0,.6-.35c1.61-1.94,3.73-3.3,5.61-4.93a25.51,25.51,0,0,0,3.71-4.22,17.27,17.27,0,0,0,2.11-3.9c.35-.86.92-1.63,1.36-2.46.79-1.53,1.52-3.09,2.33-4.6a25.33,25.33,0,0,0,2.36-5.61,13.12,13.12,0,0,1,.76-2,.83.83,0,0,1,.46-.44c.34-.08.32.24.34.46a13.64,13.64,0,0,1,.15,1.64,1.38,1.38,0,0,0,1,1.38c.51.22.59.45.41.9a14.89,14.89,0,0,1-2.32,4.57,2.3,2.3,0,0,0-.28.38,14.89,14.89,0,0,1-1.61,2.83,28.85,28.85,0,0,0-2.06,2.23c-1.24,1.71-2.48,3.4-3.55,5.22a4.59,4.59,0,0,1-1.31,1.62,5.74,5.74,0,0,0-1.36,1.6,16.49,16.49,0,0,1-6.56,5.5,9.63,9.63,0,0,0-2.2,1.3,2.14,2.14,0,0,1-.82.29C366,365.66,366.11,365.09,366.83,364.85Zm-4.07,3.93a8.19,8.19,0,0,1,2.56-2.3,1.57,1.57,0,0,1,.58-.12,2.73,2.73,0,0,1-.43.72c-.73.69-1.48,1.35-2.24,2a.49.49,0,0,1-.4.06A.39.39,0,0,1,362.76,368.78Zm-5.8,17a25,25,0,0,1-4.79,3.27.8.8,0,0,1-.86,0,.26.26,0,0,1,0-.22c1.14-1.15,2.06-2.55,3.59-3.24a13.26,13.26,0,0,1,1.34-.46c.36.05.54,0,.65.11s.11.24.13.36A.28.28,0,0,1,357,385.77Zm31.58-35.3c-.13.19-.25.39-.37.59a56.12,56.12,0,0,1-3.24,5.12,26.93,26.93,0,0,0-2.44,4.53c-.41.84-.69,1.74-1.07,2.61a4.8,4.8,0,0,0-.53,2.26c.09,1.27-1,1.66-1.76,2.27a.48.48,0,0,1-.43-.06c-1.11-.83-2.1-.15-3.08.26-.72.3-1.35.78-2,1.14-1.25.65-2.53,1.23-3.76,1.91a33.53,33.53,0,0,0-3.18,2,28,28,0,0,0-2.71,2.22,50.41,50.41,0,0,1-4.46,3.37c-1.57,1.15-3.23,2.17-4.82,3.3a2.91,2.91,0,0,1-1.78.45c-.07,0-.2,0-.21-.07s-.09-.31,0-.41a10.21,10.21,0,0,1,2.08-2.52c1.43-1.2,2.78-2.51,4.18-3.76.35-.31.74-.56,1.12-.84l2.07-1.52a1.83,1.83,0,0,1,.59-.38,7.15,7.15,0,0,0,3.11-2,26.26,26.26,0,0,1,4.4-3.09c1.42-.81,2.79-1.71,4.14-2.62a16.1,16.1,0,0,0,1.6-1.36,1.59,1.59,0,0,1,1.49-.35,2,2,0,0,0,2.24-1.86c0-2.64,1.43-4.55,2.92-6.47.19-.25.48-.42.66-.66a25.54,25.54,0,0,1,2.11-2.81c.82-.82,1.73-1.57,2.54-2.42a35,35,0,0,1,2.8-2.46s.15,0,.2,0,0,.12.07.22Zm5.34-20.84a2.19,2.19,0,0,1-.29.87c-.75,1.55-1.49,3.11-2.28,4.64-.51,1-1.1,1.89-1.68,2.81-.1.16-.37.22-.56.33-.1-.19-.29-.38-.29-.57a12.74,12.74,0,0,1,1.32-5.18,5.35,5.35,0,0,0,.55-2.73,1.06,1.06,0,0,0-.63-.92,2.19,2.19,0,0,1-.73-.43c-.08-.1.09-.42.18-.63q1.16-2.82,2.34-5.63c.17-.41.51-.5,1-.36.65.2,1.13.5,1.17,1.27s.1,1.25.18,2.24C394.57,326.54,393.89,328.08,393.88,329.63Zm1.62-14.92c0,.93-.14,1.38-.52,1.24-.65-.25-.26-.77-.29-1.18A2.81,2.81,0,0,1,395,313a1.46,1.46,0,0,0,.11-.43,2,2,0,0,1,.13.33c.11.53.21,1.06.28,1.45C395.5,314.56,395.5,314.63,395.5,314.71Z"/><path d="M263.06,286.8a2.25,2.25,0,0,1-1-.14,2.22,2.22,0,0,0-2,.08,4.65,4.65,0,0,1-2.67.39,4.22,4.22,0,0,1-3.05-2.35.88.88,0,0,0-1-.48,9.32,9.32,0,0,0-1,.26c-.41.11-.81.26-1.22.33a2.58,2.58,0,0,1-3-2,3.9,3.9,0,0,1,0-2.09,10.7,10.7,0,0,1,1.94-3.93c.55-.64,1.06-1.32,1.61-2a1.24,1.24,0,0,0,.29-1.17,10.5,10.5,0,0,1-.08-3.57,6.11,6.11,0,0,1,.33-1.43,1.33,1.33,0,0,1,.53-.63,2.35,2.35,0,0,1,2.53.26,2.8,2.8,0,0,0,.68.48.56.56,0,0,0,.52-.15c.16-.3.18-.67.32-1a14.2,14.2,0,0,1,.85-1.69,4.55,4.55,0,0,1,6.07-1.7A2.15,2.15,0,0,1,265,266a2.75,2.75,0,0,0,.15.82.64.64,0,0,0,.48.31c.7,0,1.4-.08,2.1-.1.42,0,.84,0,1.26,0a2,2,0,0,1,1.74,2.25,9.14,9.14,0,0,1-.57,2c-.39,1-.42,1.1.7,1.35a3.4,3.4,0,0,1,2,1,1.64,1.64,0,0,1,.44,1.34,3.17,3.17,0,0,1-1.49,2.64c-.48.28-.83.76-1.3,1.06-.89.58-1.47,1.17-1,2.38a4,4,0,0,1,0,1.88,2.61,2.61,0,0,1-1.34,2A11.68,11.68,0,0,1,263.06,286.8Zm3.61-4.76a1.79,1.79,0,0,0-.3-.47,2.2,2.2,0,0,0-1.35-.51,4.89,4.89,0,0,1-2.6-.75.82.82,0,0,0-1,.08,5.23,5.23,0,0,1-2.16.8,1.9,1.9,0,0,0-.9.46,8.28,8.28,0,0,0-.88.91c-.29.31-.38.76-.14.93a1.4,1.4,0,0,0,.75.27.85.85,0,0,0,1-.65,2,2,0,0,1,1-1.55,3,3,0,0,1,2.26-.11.7.7,0,0,1,.4.44,2.13,2.13,0,0,0,1.46,1.65c.84.25,1.47-.31,2.12-.7a.82.82,0,0,0,.26-.32A2.69,2.69,0,0,0,266.66,282Zm-1-4a6.13,6.13,0,0,0,4.05-2.17.44.44,0,0,0,0-.38c0-.1-.19-.24-.28-.23a11.27,11.27,0,0,0-2.87.36c-1.21.46-2.33.89-3.57.21,0,0-.23.17-.23.24a4.66,4.66,0,0,0,.18,1,.73.73,0,0,0,.38.45C264.25,277.75,265.13,277.91,265.67,278Zm-13.44,3.66.74-.11a1.86,1.86,0,0,0,1.51-1,7.43,7.43,0,0,1,.62-.84.6.6,0,0,0,.13-.38,5,5,0,0,0-.68-2.38.55.55,0,0,0-.73-.16,1.84,1.84,0,0,0-.5.37,9.25,9.25,0,0,0-2,4.11c0,.26.14.36.35.4A3.75,3.75,0,0,0,252.24,281.69Zm7.5-11.74c.07,0,.16,0,.19-.06.55-.71,1.12-1.41,1.63-2.15a1.18,1.18,0,0,0,0-.78c0-.2-.42-.14-.75,0-1.18.62-1.2,1.74-1.26,2.85C259.58,269.88,259.68,269.91,259.74,269.94Zm7.71-.11a.69.69,0,0,0-.1-.17.34.34,0,0,0-.17-.1c-1.13-.15-2,.77-2.36,2.1,0,0,.19.21.28.2a1,1,0,0,0,.58-.17c.61-.54,1.18-1.11,1.77-1.68C267.47,270,267.44,269.9,267.44,269.84Zm-4.94,2.95c-.51,0-.7.32-.64.72a.38.38,0,0,0,.58.31l.17-.1a.49.49,0,0,0,.16-.12c.1-.16.29-.43.25-.47A2.27,2.27,0,0,0,262.51,272.79Z"/><path d="M96.4,321.19a5.67,5.67,0,0,0-.12.65c-.06,1,.06,1.08,1.06,1a4.94,4.94,0,0,1,4.15,1.64,3.49,3.49,0,0,1,.89,2.91,2.21,2.21,0,0,1-.72,1.48,5.52,5.52,0,0,0-.83.94.7.7,0,0,0-.05.6c.25.5.58,1,.86,1.45a5.71,5.71,0,0,1,.69,3.26,1.47,1.47,0,0,1-.73,1.22,5.6,5.6,0,0,1-4.41.93,6.92,6.92,0,0,0-1-.23c-.5,0-1,0-1.23.57-.17.38-.47.71-.59,1.11a4.73,4.73,0,0,1-1.41,1.8,1.47,1.47,0,0,1-1.57.37,11.7,11.7,0,0,1-1.16-.48c-.83-.38-1.66-.77-2.48-1.17a4.26,4.26,0,0,1-2.63-2.81,2.27,2.27,0,0,0-.86-1.4c-.22-.17-.38-.41-.6-.59a10,10,0,0,1-3-5,1.28,1.28,0,0,1,.29-1.36,8.23,8.23,0,0,1,.76-.73,1.61,1.61,0,0,0,.54-1.31,8.56,8.56,0,0,0,.07-1.46c-.23-1.3.47-2.32,1-3.36a1.92,1.92,0,0,1,2.11-1.06,5.41,5.41,0,0,1,2.87,1.21c.43.35.81.78,1.21,1.17a.34.34,0,0,0,.52-.06c0-.06.1-.11.11-.18.23-1.69,1.34-2.92,2.21-4.27.55-.85.93-1,2-.65a6.85,6.85,0,0,1,1.17.46.79.79,0,0,1,.4.45C96,319.27,96.22,320.24,96.4,321.19Zm-3.16,1.47.1-.12,0,.17a3.11,3.11,0,0,0-.24.25s0,.09,0,.13Zm2.84,9.23v-.07c-.48.08-1,.15-1.43.25a.37.37,0,0,0-.19.31,2.42,2.42,0,0,0,1.28,2,5,5,0,0,0,3.06.43,1,1,0,0,0,.75-1.42,2.28,2.28,0,0,0-2.41-1.6C96.78,331.82,96.43,331.87,96.08,331.89Zm-11.31-6.15a.9.9,0,0,0,.14.52,3.29,3.29,0,0,0,1.92,1.52c.8.14.94,0,1.33-.83s.4-1.42-.38-1.95a.77.77,0,0,1-.2-.36,2.38,2.38,0,0,0-1.85-1.52C85.24,323,84.79,324.18,84.77,325.74Zm11.62,2.73a5,5,0,0,0,2.74-1,.82.82,0,0,0,.24-1c-.19-.37-.37-.83-.84-.86a3.2,3.2,0,0,0-3,2.26.6.6,0,0,0,.24.5A1.43,1.43,0,0,0,96.39,328.47Zm-4.1,7.23a1.78,1.78,0,0,0-.43-.47.58.58,0,0,0-.55.09,2.79,2.79,0,0,1-2,1,1,1,0,0,0-.49.32c-.13.12.1.52.4.65.45.19.91.37,1.37.54.66.23.8.17,1.19-.44A2.12,2.12,0,0,0,92.28,335.7Zm-7.81-5.45s-.1.06-.13.11a.28.28,0,0,0,0,.19,4.66,4.66,0,0,0,2.57,2.76c.09,0,.38-.13.48-.27a.45.45,0,0,0-.12-.7,7.73,7.73,0,0,1-2.56-2S84.54,330.27,84.47,330.25Z"/><path d="M216.68,327.92a6.38,6.38,0,0,0,3.27-.59,3.64,3.64,0,0,1,1.19-.4,10,10,0,0,0,4.07-2.11,1.48,1.48,0,0,1,1.91-.13,2.17,2.17,0,0,1,.53.33.8.8,0,0,1,.22.56,2.75,2.75,0,0,1-.4,1.18,20,20,0,0,1-2.23,2.51,37,37,0,0,0-3.26,3.57.4.4,0,0,0,0,.38.44.44,0,0,0,.36.14c.35,0,.68-.15,1-.19a4.64,4.64,0,0,1,3.39.88,2.53,2.53,0,0,1,1.06,2.77,7.17,7.17,0,0,1-1.34,3c-1.05,1.3-2,2.7-2.94,4.09a14.05,14.05,0,0,1-3.66,3.42,6.4,6.4,0,0,0-1.53,1.08,1.18,1.18,0,0,1-.54.3L213,350.33a.78.78,0,0,1-.41.07,3.31,3.31,0,0,1-2.4-1.52c-1-2-2-4-3-6.05a5.64,5.64,0,0,1-.46-2.65c0-1.95.89-3.67,1.33-5.5a4,4,0,0,1,.67-1.31,26.4,26.4,0,0,1,1.8-2.34,25.68,25.68,0,0,1,2.1-2,3.59,3.59,0,0,1,2.09-.92Zm-3.26,19.28c.53-.13.94-.21,1.35-.33a5.27,5.27,0,0,0,1-.38c.57-.31.65-.5.31-1a4.89,4.89,0,0,1-.48-.68,1.65,1.65,0,0,1,0-1.6,7.35,7.35,0,0,1,2.58-3,19.37,19.37,0,0,1,2-1.21,3.05,3.05,0,0,1,3.19-.09.68.68,0,0,0,1.08-.22,18.5,18.5,0,0,0,1.26-1.93c.33-.58,0-1.07-.66-1.22a3.61,3.61,0,0,0-2.64.27,8,8,0,0,0-2,1.11,3.5,3.5,0,0,1-.95.43,1.68,1.68,0,0,1-2.19-1.77,3.45,3.45,0,0,1,.46-1.37A26.83,26.83,0,0,1,220,331c.08-.08,0-.36-.06-.52s-.28-.1-.38,0a14.35,14.35,0,0,0-1.44.87,1.62,1.62,0,0,1-1.77.21,2.25,2.25,0,0,0-2.68.53,12.63,12.63,0,0,0-3,4.28,5,5,0,0,0-.33,1.21.59.59,0,0,0,.36.68c.33.13.68.17,1,.29a2.9,2.9,0,0,1,2,2.5c0,.21.06.42.09.63a1.69,1.69,0,0,1-.67,1.67c-.44.34-.93.62-1.39.93a.5.5,0,0,0-.2.72,17.06,17.06,0,0,0,1.13,1.77A2.39,2.39,0,0,0,213.41,347.2Z"/><path d="M281.16,357.23l.32,0c2.17.06,2.05-.5,1.7-2.27-.11-.55-.34-1.08-.41-1.63a5.67,5.67,0,0,1,.67-4.05,2.65,2.65,0,0,1,1.06-1,4.84,4.84,0,0,1,3.86-.22,6.32,6.32,0,0,1,4.12,3.89c.08.19.15.4.24.58.25.48.14,1.21.79,1.4a2.83,2.83,0,0,0,2.24,0,5.55,5.55,0,0,1,2.66-.52,10.56,10.56,0,0,1,2.63.56,1.33,1.33,0,0,1,.51.37c1.13,1.08,1.63,3.39.31,4.55a1.27,1.27,0,0,0-.38.49,8.72,8.72,0,0,1-2,2.65,10.49,10.49,0,0,1-5.35,3.55,3.81,3.81,0,0,0-1.5,1.11,4.23,4.23,0,0,1-1.72,1.14,4.28,4.28,0,0,1-3.26-.24l-.19-.1a3.3,3.3,0,0,0-3.23,0,1.91,1.91,0,0,1-1.62.19,1.58,1.58,0,0,1-1-2.2,12.39,12.39,0,0,1,1.2-1.71c.74-.93,1.53-1.83,2.28-2.76a.71.71,0,0,0-.34-1,9.42,9.42,0,0,0-5,.1,1.69,1.69,0,0,0-.52.35.7.7,0,0,0-.17.93.58.58,0,0,0,.75.11,2.26,2.26,0,0,1,.37-.2,1.15,1.15,0,0,1,1.26.52,1,1,0,0,1,0,1A2.3,2.3,0,0,1,279,364.3l-.63-.05a2.57,2.57,0,0,1-2.39-2.5,8.7,8.7,0,0,1,.08-1.47,2.72,2.72,0,0,1,2.13-2.56A7.85,7.85,0,0,1,281.16,357.23Zm8.89-2.7h0a7.08,7.08,0,0,0-.14-1.44,3.37,3.37,0,0,0-2.72-2.33,1,1,0,0,0-1.16.65,6.06,6.06,0,0,0,.83,5.2,2,2,0,0,0,.82.64c.36.18.64-.15,1-.29l1-.41a.85.85,0,0,0,.58-1C290.09,355.23,290.08,354.88,290.05,354.54Zm5.33,7.74a3.65,3.65,0,0,0,.81-.37,12.78,12.78,0,0,0,2.84-2.74,15.44,15.44,0,0,0,.83-1.43c.18-.37.36-.78,0-1.17s-.72-.36-1.33,0a4.82,4.82,0,0,1-4,.58.65.65,0,0,0-.4.06,1.25,1.25,0,0,0-.33.24c-.15.13-.12.24,0,.34a1.05,1.05,0,0,1,.32.26c.8,1.15,1.66,2.28.88,3.81C295,361.9,295.25,362.11,295.39,362.28Zm-4.8.35h0c-.08-.63-.15-1.25-.25-1.88s-1-.85-1.32-.45a15.43,15.43,0,0,0-2.39,3.17.75.75,0,0,0,.42,1,5,5,0,0,0,2.87.4,1,1,0,0,0,.84-1C290.75,363.45,290.66,363,290.58,362.63Z"/><path d="M176.7,379.51a4.77,4.77,0,0,1,3.09-.12s.25-.15.26-.23c0-.7,0-1.4.07-2.1a10.67,10.67,0,0,1,.25-1.45,2.31,2.31,0,0,1,2.19-1.95,5.41,5.41,0,0,1,4.87,1.39c.38.4.94.64,1.33,1,1.14,1.13,2.42,2.15,2.93,3.78a2.45,2.45,0,0,0,.44.71,6.53,6.53,0,0,1,1,3.16c.34,2-1.88,4.17-3.88,4.08a6.44,6.44,0,0,1-3-.83c-.62-.36-.75-.31-1.25.25a3.86,3.86,0,0,1-1.07,1,3.36,3.36,0,0,1-3.23-.14,6.11,6.11,0,0,1-2.22-1.89.51.51,0,0,0-.88,0c-.18.21-.35.44-.51.67a2.33,2.33,0,0,1-1.61.89,2.68,2.68,0,0,1-3.24-2.87,12.17,12.17,0,0,1,.54-3.11,27.39,27.39,0,0,1,4-8.09,10.38,10.38,0,0,0,.79-1.69,2.1,2.1,0,0,1,2-.83,1.41,1.41,0,0,1,.89,2.29,18.87,18.87,0,0,0-2.79,4.67c-.26.49-.59.95-.89,1.42-.32.91-.65,1.81-.94,2.72a5.53,5.53,0,0,0-.16,1,.24.24,0,0,0,.09.17.15.15,0,0,0,.14,0A5.63,5.63,0,0,0,176.7,379.51Zm3.48,2.1a5.19,5.19,0,0,0,1,2.87,3.67,3.67,0,0,0,.77.69.72.72,0,0,0,1-.06,2.39,2.39,0,0,0,.61-.82,8.55,8.55,0,0,0,.33-1.63,1.73,1.73,0,0,1,1.1-1.43,2.28,2.28,0,0,1,2.28,1.08c.26.72.46,1.47.79,2.16a1.24,1.24,0,0,0,1.61.61,1.45,1.45,0,0,0,1.13-1.57,4.36,4.36,0,0,0-.93-2.73c-.37-.42-.62-.93-.95-1.38a5.32,5.32,0,0,0-.81-1,9,9,0,0,0-3.46-1.93,1.41,1.41,0,0,0-1.76.69,6,6,0,0,0-.47,1.39,2.06,2.06,0,0,1-1.41,1.68c-.13,0-.31.06-.38.16a2.3,2.3,0,0,0-.4.69A1.24,1.24,0,0,0,180.17,381.61Z"/><path d="M127.09,338c.89.06,1.87.1,2.85.2a2.41,2.41,0,0,1,1,.35,1.43,1.43,0,0,1,.78,1.59c-.06.27-.09.55-.12.83,0,.06,0,.16.08.17a.64.64,0,0,0,.36,0,.77.77,0,0,0,.28-.31,2.06,2.06,0,0,1,1.61-1.23,3.89,3.89,0,0,1,2.66.42,8.75,8.75,0,0,1,3.38,3.67,6.71,6.71,0,0,1,.27,5.52A6.23,6.23,0,0,1,138,352a3,3,0,0,1-4-.08c-.17-.13-.31-.28-.47-.42a.63.63,0,0,0-.78-.07c-.18.11-.35.24-.54.33-.73.35-1.36,1-2.34.55-1.27-.55-2.44-1.12-2.79-2.62-.08-.34-.16-.69-.25-1s-.32-.5-.77-.22c-.71.45-1.4,1-2.14,1.34a3.15,3.15,0,0,1-3,0,1.89,1.89,0,0,1-1-1.07,2.89,2.89,0,0,1,.08-2.82,1.3,1.3,0,0,0,.2-.6c.19-2.21,1.64-3.83,2.62-5.67a1.93,1.93,0,0,1,1.31-1C125,338.4,126,338.23,127.09,338Zm11.32,8.72A16,16,0,0,0,138,345a2.19,2.19,0,0,0-.57-.86c-.61-.58-1.26-1.11-1.9-1.66a.7.7,0,0,0-1.1.1c-.19.21-.34.45-.52.66a1.17,1.17,0,0,1-1.48.45.69.69,0,0,0-.9.34,18,18,0,0,0-1.42,2.57,6.41,6.41,0,0,0-.28,2.06c0,.65.57.92,1.19.6a1.11,1.11,0,0,0,.63-.78c.15-.68.29-1.37.48-2a1.72,1.72,0,0,1,1.41-1.12,1.41,1.41,0,0,1,1.26.66,2.41,2.41,0,0,1,.32,1.19,4.51,4.51,0,0,0,.65,2.41.65.65,0,0,0,.92.16,7.87,7.87,0,0,0,1.52-2.26A2.5,2.5,0,0,0,138.41,346.74Zm-11.75-6c-1-.08-1.85.78-2.4,1.86a19.39,19.39,0,0,0-1.6,4.06c0,.08.11.21.2.28s.14,0,.2,0a.47.47,0,0,0,.19-.07c1.65-1.27,3.48-2.32,4.82-4,.13-.16.29-.3.43-.45.32-.35.94-.59.8-1.13s-.93-.43-1.43-.56A6.49,6.49,0,0,0,126.66,340.73Z"/><path d="M251.05,322.33a7.26,7.26,0,0,1-4.39-.83,1.58,1.58,0,0,1-.69-2.28,1.21,1.21,0,0,0,.06-1.51,1.17,1.17,0,0,1,.14-1.37l4.22-6.47a1.3,1.3,0,0,1,.41-.47,4.6,4.6,0,0,0,1.67-2.06,35.61,35.61,0,0,1,3.88-5,1.48,1.48,0,0,1,2-.5c.13,0,.27.09.39.15a1.19,1.19,0,0,1,.71,1.38c-.28,1.16-.62,2.3-.92,3.45a.6.6,0,0,0,.45.8c.27.06.55.1.83.15l1.65.35a2.41,2.41,0,0,1,1.81,2.52,6.15,6.15,0,0,1-.35,1.64,9.76,9.76,0,0,1-3.34,4.5,3.54,3.54,0,0,0-1.18,1.42,5.39,5.39,0,0,1-2.93,2.86,7,7,0,0,0-1.15.52A5.3,5.3,0,0,1,251.05,322.33Zm5-7.5v.06a4.84,4.84,0,0,0,1.43-.27,5.65,5.65,0,0,0,2.91-3.68c0-.1-.25-.41-.37-.4-1.17.06-2.26.31-2.63,1.63a5.09,5.09,0,0,1-1.1,1.77,1.47,1.47,0,0,1-1.74.23,2.25,2.25,0,0,1-.86-2.39c.24-.65.59-1.26.89-1.89a2.4,2.4,0,0,0,.23-.57c0-.09-.11-.22-.19-.31s-.16,0-.19.06c-1.33,2-2.7,3.91-4,5.91a15.52,15.52,0,0,0-1.12,2.49,1.53,1.53,0,0,0,1.67,2.16,5.74,5.74,0,0,0,2.87-1.17c.47-.38.53-.46.3-1-.08-.19-.22-.37-.28-.56a1.5,1.5,0,0,1,1.11-1.92A9.59,9.59,0,0,1,256,314.83Z"/><path d="M273.45,319.37c-.46-1.48.27-2.91,1.12-4.32a4.16,4.16,0,0,1,.44-.71,1.32,1.32,0,0,1,.67-.47,2.54,2.54,0,0,1,2.51.64,2.73,2.73,0,0,0,.47.42.77.77,0,0,0,1.12,0,4.43,4.43,0,0,1,.77-.71,5.19,5.19,0,0,1,5.53-.71,2.38,2.38,0,0,1,1.44,1.43,9.54,9.54,0,0,0,1.61,2.92,7.17,7.17,0,0,0,1.09,1.24,1.44,1.44,0,0,1,.4,2.06,32.21,32.21,0,0,0-2.7,5.21,5.26,5.26,0,0,1-2.07,2.31c-.59.37-1.24.66-1.86,1a1.92,1.92,0,0,1-1.81,0,2.77,2.77,0,0,1-1.86-3.12c0-.28.07-.55.09-.83,0-.06-.05-.12-.08-.19s-.25.08-.29.16c-.25.5-.48,1-.7,1.53a1.62,1.62,0,0,1-2.76.33,13.6,13.6,0,0,1-1.12-1.77c-.66-1.53-1.68-2.91-1.86-4.63C273.54,320.59,273.51,320.1,273.45,319.37Zm3.11,1.07a7.36,7.36,0,0,0,.73,2.64.48.48,0,0,0,.83.16c.36-.43.71-.88,1-1.34a1.78,1.78,0,0,1,1.46-.74c1.64-.07,2.78.8,2.76,2.45,0,.49,0,1,0,1.47,0,.28,0,.56,0,.84a.45.45,0,0,0,.62.34,2.54,2.54,0,0,0,.8-.62c.54-.82,1-1.68,1.52-2.53a7.69,7.69,0,0,0,.68-1.3,1.08,1.08,0,0,0-.31-1.34,3,3,0,0,1-1.11-2.19,7.23,7.23,0,0,0-.19-1,1.56,1.56,0,0,0-2.38-.84c-.82.64-1.73,1.27-1.83,2.46a1.07,1.07,0,0,1-.56.83c-.35.23-.67.51-1,.76a.83.83,0,0,1-1.14.05,2.08,2.08,0,0,1-1.2-1.85.74.74,0,0,0-.17-.36s-.12,0-.17,0-.17,0-.17.08C276.65,319.05,276.6,319.75,276.56,320.44Z"/><path d="M135.91,365.24a4.09,4.09,0,0,1,0-.77c.64-2.44.51-5,1.56-7.4a7.32,7.32,0,0,0,.32-1.86,1.32,1.32,0,0,1,1.24-1.21,2.63,2.63,0,0,1,1.43.16,1,1,0,0,0,1.48-.22s.11-.09.16-.14c1.25-1.52,2.74-1.12,4.21-.48a6.06,6.06,0,0,1,1.59,1,25.63,25.63,0,0,1,4.58,4.92,3.52,3.52,0,0,1,.2,3.56,2.12,2.12,0,0,1-1.51,1.34,9.93,9.93,0,0,1-2.44.56,1.47,1.47,0,0,0-1.44,1,6.54,6.54,0,0,1-.67,1.31,2.85,2.85,0,0,1-4.79.38,7.13,7.13,0,0,1-.93-1.4c-.53-1-.51-1-1.29-.09-.14.16-.27.33-.42.47a1.91,1.91,0,0,1-2.16.28A1.81,1.81,0,0,1,135.91,365.24Zm7.32-4.37h-.09c.09,1,.15,2.09.28,3.13a2.64,2.64,0,0,0,.44.93.43.43,0,0,0,.35.15.47.47,0,0,0,.32-.21,1.5,1.5,0,0,0,.18-.6c0-.63,0-1.26.06-1.89a1.67,1.67,0,0,1,1.67-1.57,2.21,2.21,0,0,1,1.75.56,2.69,2.69,0,0,0,.87.54.73.73,0,0,0,.93-.6,2.48,2.48,0,0,0-.43-1.79,28,28,0,0,0-4.06-3.64.7.7,0,0,0-.39-.13,1.23,1.23,0,0,0-.61.06A3.1,3.1,0,0,0,143,359C143.07,359.62,143.14,360.24,143.22,360.87Z"/><path d="M225.21,304.82a6.82,6.82,0,0,1,.24-.84c.1-.26.34-.47.41-.73.64-2.22,2.54-3.06,4.36-4a2.42,2.42,0,0,1,2.59.28,1.39,1.39,0,0,1,.58,1.47,23,23,0,0,1-.68,2.21,3.21,3.21,0,0,1-.62.83,15.64,15.64,0,0,0-1.85,2.27,5.73,5.73,0,0,1-1.05,1,1.88,1.88,0,0,1-1.93.49,2.3,2.3,0,0,1-1.83-1.82C225.35,305.69,225.3,305.33,225.21,304.82Z"/><path d="M193.49,358.39a1,1,0,0,1,0,.47.6.6,0,0,1-.43.34,3,3,0,0,1-2.28-.88,2.66,2.66,0,0,0-2-.93,2.92,2.92,0,0,1-1-.28,1.53,1.53,0,0,1-.76-2.25,1.41,1.41,0,0,0,.26-1.35,1.63,1.63,0,0,1,.29-1.58,1.58,1.58,0,0,1,2.64-.08,12,12,0,0,1,1.24,2.42,5.29,5.29,0,0,0,1.65,2.62C193.56,357.24,193.47,357.76,193.49,358.39Z"/><path d="M151.87,374.92c-.08-.75.23-1.17.77-1.25a4.39,4.39,0,0,1,1,0,1.13,1.13,0,0,1,1,.89,4.89,4.89,0,0,1,.17.82,33.58,33.58,0,0,0,1.27,5.08,1,1,0,0,0,.67.74,7.82,7.82,0,0,1,1.12.55,1.05,1.05,0,0,1,0,1.63,2.36,2.36,0,0,1-2,.44,1.4,1.4,0,0,1-1-.68,39.11,39.11,0,0,1-3.06-8.23C151.85,374.85,151.86,374.77,151.87,374.92Z"/><path d="M211.89,369.41a1.71,1.71,0,0,1,1.52,1.48,4,4,0,0,1,0,.62c0,.84-.13,1.67-.1,2.51a12.83,12.83,0,0,1,0,2.92,3.24,3.24,0,0,0,.24,1.42,1.65,1.65,0,0,1-.38,1.55.73.73,0,0,1-1.1,0,4.62,4.62,0,0,1-.76-1.23,16.51,16.51,0,0,1-.78-3.45c-.16-1.32-.26-2.64-.35-4A1.68,1.68,0,0,1,211.89,369.41Z"/><path d="M217.67,378.13c0-.91,0-1.83,0-2.73a2.83,2.83,0,0,1,.38-1.19,1.6,1.6,0,0,1,2.54-.17.7.7,0,0,1,.17.37,2.49,2.49,0,0,1,0,.84,9.13,9.13,0,0,0,.27,5.78,1.74,1.74,0,0,1-.89,1.75.63.63,0,0,1-.58-.09,4.8,4.8,0,0,1-.91-1.14A9.19,9.19,0,0,1,217.67,378.13Z"/><path d="M202.74,394.29a6.94,6.94,0,0,1,.33-3.21,2.93,2.93,0,0,1,2.65-2.33,1.07,1.07,0,0,1,1.06,1.25.94.94,0,0,1-.15.38,5.94,5.94,0,0,0-1.34,4.68,1.74,1.74,0,0,1-.15.81,1,1,0,0,1-.8.6,1.29,1.29,0,0,1-1.57-1.26C202.74,394.94,202.75,394.66,202.74,394.29Z"/><path d="M201.44,358.07l.52.06a.67.67,0,0,1,.48.62,3.08,3.08,0,0,1-.09.41,3.67,3.67,0,0,0,1.09,4.2.94.94,0,0,1-.06,1.32,1.87,1.87,0,0,1-1.34.52.59.59,0,0,1-.39-.12,7.71,7.71,0,0,1-2.33-2.94,3,3,0,0,1,.06-2.43c.12-.25.29-.48.41-.74A1.71,1.71,0,0,1,201.44,358.07Z"/><path d="M196.11,360a2,2,0,0,1,2,1.26,10.06,10.06,0,0,0,2.05,3.13,2.16,2.16,0,0,1,.51.9,1.32,1.32,0,0,1-.09.8c-.12.3-.43.3-.72.24a3.35,3.35,0,0,1-1.85-.9c-.67-.71-1.38-1.39-2-2.14a7.65,7.65,0,0,1-1.07-1.77A1.08,1.08,0,0,1,196.11,360Z"/><path d="M162,368.44c.26-1,.45-2,.81-3a1.47,1.47,0,0,1,2.31-.26,1,1,0,0,1,.2.58,1.58,1.58,0,0,1-.14.81,4.11,4.11,0,0,0-.43,3,2.78,2.78,0,0,1,0,.63,1,1,0,0,1-.75.9,1,1,0,0,1-1.26-.47C162.48,369.93,162.27,369.2,162,368.44Z"/><path d="M199.27,351.57a4.89,4.89,0,0,1-.17.83.56.56,0,0,1-.64.42,2.65,2.65,0,0,1-1.17-.35c-.89-.78-1.7-1.65-2.53-2.49a1.11,1.11,0,0,1-.17-1.36,1.26,1.26,0,0,1,1.3-.85,2,2,0,0,1,1.15.36,18.66,18.66,0,0,1,1.82,2.28A4.58,4.58,0,0,1,199.27,351.57Z"/><path d="M218.42,387.87a4.64,4.64,0,0,1-.17-.68,1.43,1.43,0,0,1,.79-1.55,3.56,3.56,0,0,1,1.2-.28c.74,0,1.55.39,1,1.46a10.48,10.48,0,0,0-.5,2.86,1.2,1.2,0,0,1-1.77.8,1.35,1.35,0,0,1-.48-.63,2.5,2.5,0,0,1-.16-.82C218.35,388.76,218.39,388.48,218.42,387.87Z"/><path d="M214,395.17a1.27,1.27,0,0,1,1.28.54.84.84,0,0,1,.15,1c-.35.6-.66,1.23-1,1.82a1.35,1.35,0,0,1-2.29.17,2.54,2.54,0,0,1-.63-1.94.94.94,0,0,1,.28-.54A3.88,3.88,0,0,1,214,395.17Z"/><path d="M346.63,354.81a1.93,1.93,0,0,1,.4.83c.36,1.45.77,2.89,1,4.36.39,2.44.63,4.9,1,7.34a9.67,9.67,0,0,0,1.32,3.93,1.83,1.83,0,0,0,1.7.88c.66,0,.71-.6.87-1.1a.67.67,0,0,1,1.22-.15c.28.38.48.82.72,1.23a7.82,7.82,0,0,1,2.76-.91,2.34,2.34,0,0,1-.52-1.05c-.48-2-1-4-1.37-6a39,39,0,0,0-1.25-5.57,18.63,18.63,0,0,1-.92-6.4c.05-1.37.57-1.81,1.94-1.85a21.86,21.86,0,0,0,3.08-.14c2.23-.39,4.46-.82,6.29-2.35a12.5,12.5,0,0,0,3.85-5.12,3.15,3.15,0,0,0,.08-1.94,11,11,0,0,0-4.25-6.09c-1-.64-1-.89-.39-2.05a3.42,3.42,0,0,1,.72-.79,16.64,16.64,0,0,0,1.9-1.8,18.05,18.05,0,0,0,3.79-8.8,4.83,4.83,0,0,0-2.58-5.37,3.08,3.08,0,0,1-.47-.39c-1.28-1.1-2.59-2.16-3.82-3.31a4.37,4.37,0,0,0-4.58-1.22c-1,.3-2,.57-3,.79-.63.14-.88-.06-1-.66,0-.36,0-.72,0-1.08a9.75,9.75,0,0,0-.44-2.85c-.53-1.15-.3-2.5-1.22-3.56a6.29,6.29,0,0,1-.76-2.26,1.1,1.1,0,0,0-1-.82,2.92,2.92,0,0,1-1.38-.56,1.23,1.23,0,0,0-1.55-.18c-.43.22-.84.45-1.21-.11-.05-.08-.28-.08-.42-.07-1.33.11-2.74-.38-4,.53a1.72,1.72,0,0,0-1.63,1c-.78,1.19-1.47,2.44-2.2,3.67a4.3,4.3,0,0,1-.62,1.06c-1.18,1.06-1.54,2.5-2,3.91a14,14,0,0,0-.85,3.58,2.51,2.51,0,0,1-.23.9,2.38,2.38,0,0,1-.61.85c-1.21.92-2.38,1.82-4.12,1.47a9.59,9.59,0,0,0-2.76.26,22.65,22.65,0,0,1-3.06.3,38,38,0,0,0-7.51.75c-3.48.59-6.11,2.58-8.52,5a2.73,2.73,0,0,0-.72,1.33,26.45,26.45,0,0,0-.56,4,10.51,10.51,0,0,0,.3,3.52,27.78,27.78,0,0,0,4.64,8.68,5.33,5.33,0,0,0,1.16,1q2.2,1.56,4.44,3.08a6.24,6.24,0,0,0,3.79,1.1,11,11,0,0,0,3.17-.63,8.49,8.49,0,0,1,2.11-.38c.59,0,.85.29.82.87,0,.25-.11.5-.15.76a33.59,33.59,0,0,0-.45,10.08,15,15,0,0,0,.26,2.83c.56,2.24,1.18,4.45,3.27,5.93a6.59,6.59,0,0,0,8.12-.28,22.57,22.57,0,0,0,3.9-4.85A14,14,0,0,0,345,355.1a5.39,5.39,0,0,1,.59-1.16A9.27,9.27,0,0,1,346.63,354.81ZM347.4,344c-.87-.55-1.67-1.2-2.49-1.82-.55-.42-1.13-.83-1.83-.42a2.28,2.28,0,0,0-1.23,1.86,6.64,6.64,0,0,0,.1,1.23,30,30,0,0,1,0,6.16,5.2,5.2,0,0,0-.05.62c.16,3.76-1.77,6.67-3.88,9.48a3.72,3.72,0,0,1-3.48,1.29,2.49,2.49,0,0,1-1.58-.88,6.49,6.49,0,0,1-1.61-3.94,23.8,23.8,0,0,1,1.41-13.48c.4-.94.75-1.91,1.12-2.86a2,2,0,0,0-.52-2.12,1.59,1.59,0,0,0-1.88,0,11.57,11.57,0,0,1-4.76,1.69c-1.32.2-2.6.62-3.91.89a3.79,3.79,0,0,1-3.22-.67c-1.27-1-2.62-1.83-3.85-2.85a8.15,8.15,0,0,1-1.42-1.81,18.46,18.46,0,0,1-2.53-5.93,6.9,6.9,0,0,1,2.57-7.54,10.46,10.46,0,0,1,4.84-1.85c1.43-.19,2.87-.25,4.31-.36v-.13c.46,0,.93-.06,1.39-.11,1.53-.17,3.06-.38,4.6-.53.87-.08,1.74-.09,2.61-.09A3.71,3.71,0,0,0,335,319a4.85,4.85,0,0,1,2.23-1c1.63-.35,2.45-1.21,2.28-3.2a10,10,0,0,1,.55-3.93,20.89,20.89,0,0,1,2.82-5.93,2.86,2.86,0,0,0,.43-1.27,1.19,1.19,0,0,1,.91-1.11,4,4,0,0,1,2.41-.22,6.06,6.06,0,0,0,1.53.09c1.77.09,2.36.64,3,2.3a15.36,15.36,0,0,1,.76,7.23,19.58,19.58,0,0,1-1.11,4c-.38,1.23-.86,2.42-1.19,3.66a1.73,1.73,0,0,0,.78,2,1.59,1.59,0,0,0,2.52-.76,13.88,13.88,0,0,0,.59-1.92c.53-2.31,2.22-3.47,4.23-4.33.47-.2,1-.33,1.44-.55a2,2,0,0,1,2.31.29c.63.53,1.23,1.1,1.85,1.64.89.77,1.77,1.57,2.7,2.29a2.55,2.55,0,0,1,1.06,2.12,9.2,9.2,0,0,1-.63,3.31,11.27,11.27,0,0,1-3.54,5.15,7.26,7.26,0,0,1-5.3,1.78,2.39,2.39,0,0,0-1.77.36,1.88,1.88,0,0,0-.86,1.86,1.74,1.74,0,0,0,1.29,1.4,31.65,31.65,0,0,1,4,1.49,11.11,11.11,0,0,1,4.54,3.84,2.59,2.59,0,0,1-.34,3.63c-2.66,3-6,3.72-9.83,3.06a42,42,0,0,1-4.81-1.11A10.21,10.21,0,0,1,347.4,344Z"/><path d="M314.48,401.35c-.34-1.09-.66-2.19-1-3.29l-.06-.07a22,22,0,0,1-1.67-2l-.18.12c-.54.34-1,.8-1.57,1.1a25.44,25.44,0,0,0-5.75,4.19,14.24,14.24,0,0,1-5.9,3.12,25.66,25.66,0,0,0-3.29,1.09c-5,2.34-10.42,3.27-15.47,5.35-2.49,1-5,2.06-7.42,3.21a46.65,46.65,0,0,1-8.38,3.4c-2.61.66-5.26,1.15-7.9,1.66-1.77.34-3.54.68-5.33.86-5,.52-10,.83-14.93,1.64a16.16,16.16,0,0,1-5,.06,46,46,0,0,0-9.19-.84,22.92,22.92,0,0,1-2.87-.21c-4.22-.33-8.41-.82-12.67-.39a22.59,22.59,0,0,1-8.24-.47c-2.22-.6-4.49-1-6.73-1.56-2.56-.61-5.14-1.15-7.65-1.92q-7.09-2.18-14.11-4.59a148.64,148.64,0,0,1-15.64-6c-1.73-.82-3.39-1.82-5.08-2.73-2.77-1.49-5.55-2.95-8.3-4.48-2.24-1.25-4.37-2.7-6.66-3.84-5.28-2.62-10.47-5.45-15.95-7.67a27,27,0,0,1-6.95-4.09c-1.34-1.09-2.81-2-4.21-3-.58-.41-1.14-.83-1.72-1.23-2.54-1.75-5.13-3.44-7.63-5.24-2.34-1.69-4.65-3.43-6.87-5.27-1.63-1.35-3.06-2.94-4.65-4.34a28.27,28.27,0,0,1-4.77-5.22c-2.3-3.41-5.09-6.41-7.7-9.56a69,69,0,0,1-4.83-6c-1-1.52-2.1-3-3-4.58-1.8-3-3.86-5.94-3.24-9.78A1.85,1.85,0,0,0,60.83,327a1.63,1.63,0,0,0-1.9.57,14,14,0,0,0-1,1.79,4.37,4.37,0,0,1-.42.52,3.23,3.23,0,0,1-.2-.69,11.27,11.27,0,0,0,0-1.15c-.37-2.16-1.86-2.81-3.52-1.51-.62.48-1,.81-1.41-.2a1,1,0,0,0-1.46-.55,1.92,1.92,0,0,0-1.14,2.78A5.69,5.69,0,0,0,51,330.28a5.67,5.67,0,0,1,1.94,4.4c0,1.24-.66,2.56.57,3.59,0,0,.06.15,0,.18-.85.87.15,1.77-.06,2.69a11,11,0,0,0-.09,2.49c0,.24.13.68.21.68,1.17,0,.72.83.79,1.43.14,1.19,0,2.44.84,3.48a1.15,1.15,0,0,1,.24.88,3.61,3.61,0,0,0,.48,3.62c.14.16.09.5.08.76a2.15,2.15,0,0,0,.69,1.51,8.7,8.7,0,0,1,1,2c.26.56.46,1.15.74,1.71s.57.82.78,1.27c.58,1.2,1.09,2.43,1.69,3.62s1.1,2.17,1.73,3.21c1,1.63,2.1,3.19,3.06,4.83a10.32,10.32,0,0,0,3.85,4.18,1,1,0,0,1,.49.51c.57,2.38,2.34,4.06,3.65,6a54.42,54.42,0,0,0,4.84,5.71,32.75,32.75,0,0,0,3.94,3.88c1.87,1.46,3.36,3.3,5.24,4.77a85.06,85.06,0,0,1,6.72,6.54c.6.58,1.3,1,1.89,1.64a50.61,50.61,0,0,0,6.08,5.51c1.79,1.29,3.8,2.08,5.61,3.27a1.29,1.29,0,0,0,.88,0c.7-.16,1.3-.3,1.25.79a.94.94,0,0,0,.53.72c1.39.42,2.69,1.66,4.29.46.19-.14.75,0,1,.23.55.34,1,.77,1.75.55a1,1,0,0,1,.78.33,2.91,2.91,0,0,0,2.21,1,.9.9,0,0,1,.68.27c.56.88,1.51.89,2.35,1.13,1.35.39,2.74.66,4,1.18,2.43,1,4.79,2.12,7.19,3.15.87.37,1.8.63,2.69.95a2.3,2.3,0,0,1,.67.32A14.54,14.54,0,0,0,143.6,428c3.6,1.06,7.25,1.93,10.63,3.68a22.54,22.54,0,0,0,6.32,2.26,12,12,0,0,1,5.12,1.91,8.12,8.12,0,0,0,1.93.84c.65.25,1.35.38,2,.69,3.1,1.53,6.55,1.62,9.82,2.42a4.42,4.42,0,0,0,.77,0c1.91.1,3.83.13,5.72.35a15.39,15.39,0,0,0,5.74-.13c.39-.1.67-.69,1-.74s.62.46,1,.61a.75.75,0,0,0,.69-.18c.74-1,1.83-.75,2.82-.84a8,8,0,0,0,2.08-.17c1.08-.42,1.82-.46,2.3.79.15.4.7.49.79-.09.15-.86.57-.84,1.22-.61s1.24.32,1.85.53.29.4,0,.61c-.14.09-.33.31-.29.4a.59.59,0,0,0,.41.32,1.63,1.63,0,0,0,.92-.08c.53-.32,1-.71,1.23.25,1.53.38,3.06.8,4.6,1.12.29.06.66-.34,1-.46a1.27,1.27,0,0,1,.86-.07c2.18,1.15,4.54.6,6.79.58,1.08,0,2.12.27,3.17.18a14.22,14.22,0,0,1,3.43.11,13.82,13.82,0,0,0,7.94-.63,5.64,5.64,0,0,1,.92-.27c2.43-.6,4.85-1.23,7.29-1.78,2.69-.61,5.25-1.71,8-2,2.29-.22,4.57-.64,6.84-1.06s4.51-1,6.76-1.48a3.45,3.45,0,0,1,3.1.52,2.06,2.06,0,0,0,2.19.24,8.47,8.47,0,0,1,1.11-.32c5.28-1.45,10.54-2.93,15.43-5.48,1.94-1,3.9-2,5.9-2.85a30.74,30.74,0,0,0,6.81-4.33,30.44,30.44,0,0,1,8.9-4.88,20.28,20.28,0,0,0,6.21-3,6.51,6.51,0,0,0,2.48-5.54A73.35,73.35,0,0,1,314.48,401.35ZM116,391.38a3.12,3.12,0,0,1,.71.13c2.15.93,4.31,1.86,6.44,2.84s4.54,2,6.74,3.19a40.77,40.77,0,0,1,4.78,2.77c1.93,1.36,4.06,2.42,6.1,3.62a4.17,4.17,0,0,1,1.38,1,1.86,1.86,0,0,1,.08,1.41c-.17.56-.73.46-1.14.25-2.5-1.28-5.35-1.82-7.66-3.52a4,4,0,0,0-1.18-.65c-4.38-1.3-8-4-11.79-6.38-1.13-.7-2-1.8-3.27-2.34-.53-.22-.87-.9-1.33-1.42Zm-2.88-1.4a4.32,4.32,0,0,1,1.21.38c.18.12.19.53.24.82,0,.08-.14.18-.3.37-.23-.07-.62-.08-.76-.27a4.51,4.51,0,0,1-.48-1.16S113.06,390,113.08,390Zm-7.64-4.23a2.48,2.48,0,0,1,.28-.73,2.22,2.22,0,0,1,.77.16q2.41,1.71,4.77,3.49a.73.73,0,0,1,.14.67c-.08.19-.36.32-.57.42a.47.47,0,0,1-.37,0,15.19,15.19,0,0,1-4.8-3.29A1.13,1.13,0,0,1,105.43,385.75Zm-8.75,14a1.85,1.85,0,0,1-.67-.18c-1.74-1.37-3.34-2.92-5.06-4.33-2-1.6-3.46-3.61-5.32-5.29-1-.9-2-1.83-2.91-2.77s-1.63-1.6-2.41-2.44-1.55-1.7-2.3-2.56-1.63-1.8-2.36-2.77c-2.35-3.12-4.75-6.21-7-9.43-1.56-2.26-2.86-4.71-4.27-7.07l0,0c-.3-.64-.59-1.29-.91-1.92-1.29-2.51-2.6-5-3.89-7.52a7.28,7.28,0,0,1-.74-2.55c-.22-1.9-.74-3.77-1.1-5.66a9.28,9.28,0,0,1-.12-1.71c0-.15.2-.41.32-.42s.59.06.65.2c.59,1.41,2.07,2.28,2.35,3.87a.54.54,0,0,0,.16.34c1.28.82,1.26,2.25,1.66,3.49a8.06,8.06,0,0,0,.56,1.23c1.69,3.24,3.36,6.48,5.08,9.7,2,3.74,4.05,7.45,6,11.19.93,1.75,1.66,3.62,2.69,5.31A24.41,24.41,0,0,0,80,381.82c1.83,2.06,3.7,4.07,5.55,6.11.17.18.24.52.43.61,3.08,1.44,4.75,4.43,7.24,6.52a32.18,32.18,0,0,1,2.6,2.57,7,7,0,0,1,1,1.39C96.91,399.16,96.74,399.47,96.68,399.7Zm22.49,14.64a.79.79,0,0,1-.6.37,6.15,6.15,0,0,1-.93-.2c-3.67-.44-3.67-.45-6.45-2.18-1.24-.77-2.49-1.54-3.76-2.27a8.51,8.51,0,0,1-4.1-4.13c-.27-.71-1-.58-1.28-1a3.5,3.5,0,0,1-.27-.95,6.26,6.26,0,0,1,1.31.3c1.3.67,2.6,1.34,3.86,2.1,1,.59,1.84,1.36,2.81,2,2.38,1.44,4.76,2.91,7.27,4.13a12.77,12.77,0,0,1,1.93,1.25A.72.72,0,0,1,119.17,414.34Zm24.17,8.78c-.19-.12-.47-.19-.54-.36s.1-.41.21-.79c.32.27.61.39.64.56S143.46,422.93,143.34,423.12Zm3.54-4.91c-2.58-.67-5.07-1.72-7.63-2.49-2.94-.89-5.91-1.67-8.87-2.47-1.61-.44-3.4-.54-4.82-1.32-2.36-1.31-4.93-2-7.36-3.08a13.17,13.17,0,0,1-1.83-1.07c-1.61-1-3.17-2.18-4.82-3.16A80.19,80.19,0,0,1,97,393c-2.1-2-4.15-4.15-6.2-6.25-2.41-2.48-4.85-4.94-7.17-7.49a10.89,10.89,0,0,1-2.75-4.55,3.63,3.63,0,0,0-.76-1.09,13.34,13.34,0,0,1-2.81-5.42,3.5,3.5,0,0,0-.64-1.14c-.75-1.11-1.57-2.18-2.27-3.33-.79-1.3-1.46-2.67-2.19-4a1.18,1.18,0,0,1,.23-1.58,1.54,1.54,0,0,1,1.21-.22,3.54,3.54,0,0,1,2.64,2,35.08,35.08,0,0,0,1.89,3.41c.16.49.35,1.24.63,2a29.69,29.69,0,0,0,3.72,6c2.82,4,6.59,7,10.45,9.8A53.49,53.49,0,0,1,99.52,387a41.75,41.75,0,0,0,5.34,4.28c3.26,2.4,7,4,10.34,6.23,2.19,1.43,4.43,2.82,6.54,4.34a64.88,64.88,0,0,0,6.71,3.72c1.43.8,2.93,1.49,4.44,2.15,1.75.77,3.54,1.46,5.3,2.19a59.8,59.8,0,0,0,11.13,3.69,9,9,0,0,1,1.35.66,49.36,49.36,0,0,0,8.35,2.84,44,44,0,0,1,6.61,2.1c2.28.85,4.46,1.94,6.75,2.78s4.4,1.41,6.6,2.09c1.2.37,1.5.72,1.6,1.84,0,.49-.3.87-.66.71-1.61-.75-3.52.42-5-.81-1.94.11-3.62-1.33-5.61-.9-2.42-.65-4.86-1.23-7.25-2-2.81-.89-5.52-2.14-8.37-2.85C151.37,419.56,149.15,418.8,146.88,418.21ZM209,437.68a17.83,17.83,0,0,1-3-.6,2.58,2.58,0,0,0-1.65-.09c-.83.25-1.83,1-2.49-.34-1,0-2,0-3,0s-2.15.2-3.23.3a1,1,0,0,1-.57-.06c-1.48-.89-3.12-.53-4.71-.64-1-.07-2.09.14-2.86-.81a.71.71,0,0,0-.69,0c-.66.47-1.36.24-2.06.2-1.54-.08-3.08-.23-4.62-.22a27.71,27.71,0,0,1-4.93-.78c-4-.69-7.65-2.56-11.43-4-1.25-.47-2.53-.88-3.74-1.43a7.62,7.62,0,0,1-1.83-1.31.91.91,0,0,1-.08-.86.94.94,0,0,1,.78-.34,15.27,15.27,0,0,1,2.08.41c4.55,1.14,9.07,2.43,13.65,3.41,3.82.82,7.75,1.19,11.58,2,3,.62,6.13.63,9.12,1.21,3.65.71,7.41.58,11,1.6a23.82,23.82,0,0,1,2.84,1.11c.21.09.35.35.67.67C209.48,437.35,209.2,437.71,209,437.68Zm54.15-11.12a6.06,6.06,0,0,0-2.52,2,3.62,3.62,0,0,1-1,.58,41.39,41.39,0,0,1-9.89,3.07c-3,.49-6.07,1.12-9.12,1.44-2.48.26-5,.14-7.49.2-1.6,0-3.2.13-4.8.1-1.14,0-2.27-.24-3.42-.3a54.49,54.49,0,0,0-6.91-.28,13.72,13.72,0,0,1-6.65-1.68.83.83,0,0,1-.16-1.43,4.49,4.49,0,0,1,1.74-.73,15.49,15.49,0,0,1,2.5-.13,19.68,19.68,0,0,0,7-1.1,25,25,0,0,1,4.52-.9c3.47-.63,6.89,0,10.33.39a12.7,12.7,0,0,0,6-.61,19.42,19.42,0,0,1,7.35-1.2c1.6.05,3.21.2,4.81.17,1.4,0,2.79-.32,4.2-.4,1.08-.06,2.17,0,3.25.06a.56.56,0,0,1,.42.31C263.34,426.21,263.24,426.52,263.13,426.56Z"/><path d="M207.56,282.69c.22,1.69-.63,3-1.43,4.24a6.54,6.54,0,0,1-.76.94c-.9,1-.95,1-.31,2.14a3.42,3.42,0,0,1,.65,2.7,5.75,5.75,0,0,1-1.79,3.08c-2.12,1.64-4.35,3.06-7.16,3.1a1.89,1.89,0,0,0-1.54.79c-.28.35-.61.67-.87,1a3.32,3.32,0,0,1-1.47,1.25,2.32,2.32,0,0,0-.87.58c-1.51,1.77-3.6,2.09-5.72,2.26a4.13,4.13,0,0,1-1.89-.41,2.51,2.51,0,0,1-1.34-3.83,5,5,0,0,1,1.34-1.78c1.07-.83,1.3-2.21,1.9-3.35a.74.74,0,0,0-.19-.65,5.74,5.74,0,0,1-1.55-3,2.2,2.2,0,0,0-.27-.68c-.66-1.06-1.44-2.05-2-3.16a25.94,25.94,0,0,1-2.37-5.33,6.68,6.68,0,0,1,.73-5.37,6.16,6.16,0,0,1,3-2.58,5.1,5.1,0,0,1,3.79.18,8.62,8.62,0,0,1,2.62,2.11,4.67,4.67,0,0,1,1.41,2.9,2.78,2.78,0,0,0,.15.58c.27.74.52.87,1.25.45,1.78-1,3.53-2.09,5.29-3.14A6.12,6.12,0,0,1,202,276.5a5.38,5.38,0,0,1,4.5,3.09A24.77,24.77,0,0,1,207.56,282.69Zm-14.34,13a3,3,0,0,1,0-1c.38-1,.83-2,1.29-3a.84.84,0,0,1,.48-.33,2.18,2.18,0,0,1,2.77,1.6c.14.63.32,1.26.4,1.9,0,.37.19.43.48.33s.75-.3,1.13-.42a5.17,5.17,0,0,0,2.19-1.56,1.51,1.51,0,0,0,.2-1.82,1.14,1.14,0,0,0-1.36-.67A12.34,12.34,0,0,0,199,291a2.76,2.76,0,0,1-2.54-.6,2.13,2.13,0,0,1-.75-2.16,1.6,1.6,0,0,1,1.37-1.58,9.63,9.63,0,0,1,2.53-.22,4.14,4.14,0,0,0,2.72-.54,3.44,3.44,0,0,0,.95-5.47,1.48,1.48,0,0,0-1.75-.51,7.8,7.8,0,0,0-2.65,1.38c-.62.56-1.43.91-2.1,1.42a17.7,17.7,0,0,0-2.5,2.12c-.89,1-.84,1.09-2.13.71-.59-.18-1-.1-1.19.5a1.85,1.85,0,0,1-1.64,1.35,1.11,1.11,0,0,0-.71.51,4,4,0,0,0-.74,3.14,3.23,3.23,0,0,0,.72,1.27c.37.39.72-.07,1.07-.21l.28-.1a1.78,1.78,0,0,1,2.36,1.46c.24,1.34.25,2.43-1.59,3.32s-2.51,2.4-3.38,3.92c-.2.36.07.6.42.58a2.19,2.19,0,0,0,1-.27,18.17,18.17,0,0,0,3.09-2.13C192.71,298.06,193.72,297.15,193.22,295.71Zm-10.31-14.64c.4,1.29.74,2.6,1.22,3.85.35.91,1,1,1.53.14a1.79,1.79,0,0,1,1.56-1c1,0,1.31-.66,1.52-1.51a5.64,5.64,0,0,0-.68-4,2.46,2.46,0,0,0-3.64-.76A3.53,3.53,0,0,0,182.91,281.07Z"/><path d="M301.38,272.27c1,.62,1.69-1,2.67-.31,1.79-.57,3.21.49,4.71,1.11a5,5,0,0,1,3.08,3.36c.68,2.32,2.61,3.19,4.58,4,.59.25,1.14.58,1.73.81,2.33.88,3.2,3,4.23,5a7.48,7.48,0,0,1,.78,5.38,13.22,13.22,0,0,1-3.93,6.51,5.3,5.3,0,0,1-4.43,1.51,2.34,2.34,0,0,0-2.08.67,15.36,15.36,0,0,1-2.22,1.52,5,5,0,0,1-5.6-.36c-.25-.2-.43-.49-.68-.68a1.61,1.61,0,0,0-2.09-.17,18.76,18.76,0,0,1-3.33,1.45,5.1,5.1,0,0,1-4.74-.84,4.39,4.39,0,0,1-2.06-4.9,12.39,12.39,0,0,1,3.24-6.62c1.06-1.13,1.07-1.17.17-2.38a7.15,7.15,0,0,1-1.34-4.34,16.64,16.64,0,0,1,2-7.74C296.72,273.87,299.49,272.34,301.38,272.27Zm18.11,17.14c-.45-2.55-1.39-4.61-4.1-5.36a5.06,5.06,0,0,1-.71-.3c-1.38-.62-1.54-.61-2.26.68s-1.2,2.4-1.83,3.58c-.49.93-1.08,1.79-2.32,1.72a2.75,2.75,0,0,1-2.82-2.18,6.31,6.31,0,0,1,.76-5.36c.51-.73,1-1.47,1.59-2.16a2.06,2.06,0,0,0,.31-2.33,3.71,3.71,0,0,0-2.19-2c-1.79-.69-5.82.55-6.45,3.2a30.41,30.41,0,0,0-.58,4.19,2.54,2.54,0,0,0,.72,1.9c1.52,1.85,3.46,3.45,3.77,6.09.1.86.85,1.15,1.73,1.21,1.75.12,2.38.85,2.4,2.55a4,4,0,0,0,0,1,3.67,3.67,0,0,0,.6,1.38c.61.72,1.26.63,1.9-.12a7.74,7.74,0,0,0,1.59-3.47,32.55,32.55,0,0,1,.87-3.35,1.94,1.94,0,0,1,2.35-1.48,2.2,2.2,0,0,1,1.89,1.88c.07.38,0,.85.18,1.12.41.57-.13,1.45.65,1.86a8.84,8.84,0,0,0,1.43-1.76A11.23,11.23,0,0,0,319.49,289.41Zm-22.4,6.9c0,.26.05.51.06.77a.76.76,0,0,0,.87.8,4,4,0,0,0,2.95-1.55c.82-.93-.11-1.39-.32-2-.39-1.11-.76-1.26-1.79-1C297.47,293.76,296.93,294.66,297.09,296.31Z"/><path d="M269.72,341.27s.06.24.09.49a9.71,9.71,0,0,1-4.63,8.94,1.67,1.67,0,0,1-.71.28c-1.51,0-2.31.93-3,2.07-1.6,2.72-4.21,4-7.1,4.48s-6.15-.26-7.68-3.1a4,4,0,0,0-.32-.48c-.71-1-.9-1-1.9-.47-.51.27-1,.6-1.53.82a6,6,0,0,1-4.5.3,4.19,4.19,0,0,1-3-4.22,9,9,0,0,1,1.62-5.66c1.74-2.08,3.22-4.54,5.92-5.63a4.53,4.53,0,0,0,2-2,28.88,28.88,0,0,1,4.59-5.38,18,18,0,0,1,7.16-4,9.81,9.81,0,0,1,5.68.33,14.44,14.44,0,0,1,1.72.82,5.17,5.17,0,0,1,2.53,2.28C268.37,334.27,269.81,337.4,269.72,341.27Zm-3.76-.9c-.05-2-1-3.75-1.74-5.52a4.85,4.85,0,0,0-3.2-3.12,7.29,7.29,0,0,0-6,1.14,16.43,16.43,0,0,0-5.5,6,3.61,3.61,0,0,0-.4,1.63,2.79,2.79,0,0,1-1.55,2.67,1.82,1.82,0,0,0-.74.57,3.93,3.93,0,0,0-.25,1.09,3.67,3.67,0,0,0,1,.18c2.22-.23,3.28,1,2.93,3.22a12.28,12.28,0,0,0-.1,2.68,3.58,3.58,0,0,0,2.76,2.49,5.75,5.75,0,0,0,5.25-3,2.77,2.77,0,0,0,.24-2.39,10.14,10.14,0,0,1-.34-2.85,2,2,0,0,1,1.3-2,2.79,2.79,0,0,1,3.52.47c1.32,1.16,2.14,1,2.56-.72A18.26,18.26,0,0,0,266,340.37Z"/><path d="M269.46,372.57a15.29,15.29,0,0,1-1.19,7.54,7.42,7.42,0,0,1-5.35,4.55,4.93,4.93,0,0,1-1.51.07c-2.26-.27-2.77,0-3.74,2.05a8.82,8.82,0,0,1-5.79,5,6.85,6.85,0,0,1-5.5-.93,17.09,17.09,0,0,1-5.29-5.5c-.07-.11-.12-.23-.2-.33-.62-.83-.92-.86-1.68-.2-1.21,1-2.1,1.15-3.21.22a2.86,2.86,0,0,1-.94-1.58,11.48,11.48,0,0,1-.07-3.07c.24-2.17.6-4.32.9-6.47a16.25,16.25,0,0,1,3-7.21c.52-.73,1-1.5,1.5-2.23a4.34,4.34,0,0,1,5.74-1.39,5.66,5.66,0,0,1,2.51,2.57c.25.44.43.93.66,1.39.65,1.33,1.44,1.5,2.56.5a14,14,0,0,0,1.09-1.33,19.4,19.4,0,0,1,2.44-2.69c2.44-1.91,5.11-1.82,7.72-.38a11.46,11.46,0,0,1,5.93,7C269.22,370.92,269.31,371.75,269.46,372.57Zm-3.5.67a7.6,7.6,0,0,0-3.46-6.35,3.27,3.27,0,0,0-4.69.31c-.87.86-1.71,1.75-2.5,2.69-1,1.23-2,2.52-3,3.77a1.82,1.82,0,0,1-2,.76c-.82-.23-1.44-.69-1.38-1.6a1.45,1.45,0,0,0-.9-1.51,3.5,3.5,0,0,1-1.08-1.29c-.32-.55-.49-1.19-.77-1.76-.91-1.88-1.5-1.39-2.85-.59-.25.15-.39.5-.57.76a20.67,20.67,0,0,0-3.12,7.83,1.6,1.6,0,0,0,.46,1.59,4.1,4.1,0,0,0,.88.73,5.72,5.72,0,0,1,2.63,3,14.89,14.89,0,0,0,1.56,2.66,18.75,18.75,0,0,0,2.31,2.82,3.07,3.07,0,0,0,3.36.88,6.35,6.35,0,0,0,3.33-2.78,15.46,15.46,0,0,0,1.68-6.65c.06-.83,0-1.67.12-2.5.15-1.18.44-1.5,1.27-1.66a1.84,1.84,0,0,1,2.24,1.07,6.07,6.07,0,0,1,.62,1.82,4,4,0,0,0,1.68,2.49,1.2,1.2,0,0,0,1.86-.12A8.2,8.2,0,0,0,266,373.25Z"/><path d="M184.09,328.37c-.08.43-.19,1.11-.32,1.79-.23,1.27-.48,2.55-.69,3.82-.06.34-.16.51-.54.58a1.25,1.25,0,0,0-1.09,1.41,1.93,1.93,0,0,1-1.31,1.84,5.6,5.6,0,0,0-1.35.91c-1,.9-2.37,1-3.58,1.44a4.68,4.68,0,0,1-3.25-.31,3.18,3.18,0,0,0-3.34.62,7.41,7.41,0,0,1-5.24,1.47c-2.85-.26-4.5-2-5.5-4.45a8.91,8.91,0,0,1-.73-3.06,11.92,11.92,0,0,1,.41-4.77,17.21,17.21,0,0,1,1.42-3.13c.73-1.14,1.73-1.09,2.71-1.07a2.88,2.88,0,0,1,1.9.79c1.2,1.32,2.57,2.56,3,4.42.28,1.17.7,2.3,1,3.45.1.34.19.78.65.65a1.25,1.25,0,0,0,.71-.66c.22-.56.27-1.18.47-1.75.26-.76.66-.93,1.4-.72a2.51,2.51,0,0,1,1.91,2.68,9.72,9.72,0,0,0,0,1.36,1.4,1.4,0,0,0,1.56,1.46,2.79,2.79,0,0,0,1.18-.17,4.2,4.2,0,0,1,2-.56,1.06,1.06,0,0,0,.69-.27c.65-.61,1.27-1.25,1.88-1.9.43-.46.34-.75-.24-1a2,2,0,0,1-1.55-2.32c0-.63-.37-1.22-.06-1.91a3.27,3.27,0,0,1,1.29-1.74c1.07-.63,1.17-1.39.37-2.33a19.45,19.45,0,0,0-1.66-1.75,2.29,2.29,0,0,0-2.78-.14,8,8,0,0,0-2.88,3.78c-.24.6-.57,1.16-.83,1.75a12.26,12.26,0,0,0-.46,1.26,1.73,1.73,0,0,1-2.13,1.39,2.06,2.06,0,0,1-1.38-2.49c.46-1.15,1.09-2.24,1.66-3.35.25-.48.52-.94.78-1.41,0-.09.07-.23.14-.26,1-.36,1.31-1.26,1.72-2.09a.8.8,0,0,1,.28-.35c1.59-.9,3.24-1.75,5.12-1.18a9.2,9.2,0,0,1,2.18,1.27,12.32,12.32,0,0,1,1.4,1.08,7.92,7.92,0,0,1,.9,1c.12.15.12.44.26.53C183.68,325,183.67,326.6,184.09,328.37Zm-23.75,6.07c.22.77.43,1.54.68,2.3a2.87,2.87,0,0,0,3.06,2.16,2.41,2.41,0,0,0,2.18-1.13,2.18,2.18,0,0,0-.55-2.49.81.81,0,0,1-.1-.12,13.8,13.8,0,0,1-.75-1.27c-.4-.86-.73-1.75-1.13-2.61a5.34,5.34,0,0,0-.7-1.14.84.84,0,0,0-1.4-.07,4.41,4.41,0,0,0-.59.86A6.83,6.83,0,0,0,160.34,334.44Z"/><path d="M137.1,316.22a9.37,9.37,0,0,1-2.14-.53,2,2,0,0,0-2.23.31,19.74,19.74,0,0,1-2.43,1.48,13.36,13.36,0,0,1-2.54.9c-2.34.59-4.88-1.16-5.69-3.4-.09-.24-.14-.48-.22-.72-.35-1.12-.59-1.25-1.72-1a6.64,6.64,0,0,1-2.6.63c-3.94-.47-5.1-3-3.89-6.23a9.07,9.07,0,0,1,1.66-2.67,7,7,0,0,1,2-1.38,28.94,28.94,0,0,1,3.11-1.53,6.85,6.85,0,0,1,2.05-.45,1.76,1.76,0,0,0,1.68-1.45,1.73,1.73,0,0,1,1.37-1.41,1.31,1.31,0,0,0,.67-.5c.28-.4.52-.55,1-.24s.59.08.42-.38c0,0-.07-.11-.05-.14s.18-.42.3-.44c.87-.16.7-1.73,1.89-1.39.43.12.58-.11.62-.42.11-.93.86-1.15,1.53-1.18a25,25,0,0,1,4,.14,4.89,4.89,0,0,1,1.59.77c.3.16.57.38.85.57,1.79,1.21,3.74,2.3,4.8,4.25a23.3,23.3,0,0,1,1.92,4.86,6.78,6.78,0,0,1-.11,2.83c-.45,2.63-1.3,5.05-3.76,6.55a15.9,15.9,0,0,0-1.35,1A6.27,6.27,0,0,1,137.1,316.22Zm-12.65-4.09-.1,0a9.49,9.49,0,0,0,0,1.06c.21,1.37,1.41,2.72,2.88,2.39.58-.13,1.09-.42,1.65-.53,1.22-.24,1.87-1.28,2.8-1.92.15-.11.18-.45.19-.69s-.06-.6-.06-.9a1.22,1.22,0,0,1,1.25-1.37,1.63,1.63,0,0,1,1.72,1,2.83,2.83,0,0,0,.46.94,4.89,4.89,0,0,0,1.44,1c.28.11.74-.09,1.07-.24a7.54,7.54,0,0,0,4.47-6.12c.35-2.18-.57-4-1.19-6-.27-.84-1.3-.84-1.84-1.41-.07-.07-.16-.12-.23-.19a10.17,10.17,0,0,0-3.32-2,4,4,0,0,0-4,.39c-.59.38-1.12.86-1.73,1.21a9,9,0,0,0-3.81,4.11,1.24,1.24,0,0,1-1.59.78,2.9,2.9,0,0,0-2.05.23,33.37,33.37,0,0,0-3.54,1.68,5.76,5.76,0,0,0-2.92,3.81c-.23,1.16.2,1.74,1.38,1.71a2.23,2.23,0,0,0,.89-.11,22.7,22.7,0,0,0,3.45-1.45,1.29,1.29,0,0,1,2.18.6A11.27,11.27,0,0,1,124.46,312.12Z"/><path d="M327.38,381.5l-11,5.86c-3.23,1.73-4.85,2.93-4.22,6.78.43,2.62.51,6.31,3.73,7,3,.61,6.67-2.35,9.18-3.69,2.84-1.51.32-5.83-2.52-4.32-1.68.89-4,1.69-5.46,2.9q.82,1.1.46,0l-.29-1.6c-.32-1.64-.64-1.27.63-2.2,3.53-2.57,8.12-4.34,12-6.4,2.84-1.52.32-5.83-2.52-4.32Z"/><path d="M321.63,400c-2.34-.26-4.16,1.58-4.83,3.67a7.11,7.11,0,0,0-.22,3.25c.19,1.33.78,2.65.32,4-1.06,3,3.77,4.35,4.82,1.33a9.31,9.31,0,0,0,0-5.13,8.76,8.76,0,0,1-.19-1.68c0-.18.12-.33.16-.5s-.95,0,0,.07a2.52,2.52,0,0,0,2.5-2.5,2.56,2.56,0,0,0-2.5-2.5Z"/></svg>