<svg id="Calque_1" data-name="Calque 1" xmlns="http://www.w3.org/2000/svg" viewBox="0 0 453.54 609.45"><defs><style>.cls-1{fill:#697330;}.cls-2{font-size:35px;fill:#fdf3db;font-family:WorkSans-Regular, Work Sans;}.cls-3{letter-spacing:-0.02em;}.cls-4{letter-spacing:-0.01em;}</style></defs><title>SUFI_COM_Webst_HomeDRAWINGS+CUTS_UPDT</title><path d="M291.45,457.57c-.16-.64-.35-1.28-.51-1.92-.1-.41-.17-.83-.23-1.24-.14-.91-.25-1.83-.41-2.74-.11-.64-.31-1.26-.44-1.89-.2-1-.39-2-.55-3.07-.11-.72-.13-1.45-.22-2.17-.05-.43,0-1-.26-1.26-.55-.65-.24-1.37-.35-2s-.17-1.51-.28-2.26c0-.1-.14-.18-.21-.27-.08.08-.19.15-.22.25a4.72,4.72,0,0,0-.21.84c-.16,1.17-.31,2.34-.44,3.51-.08.75-.1,1.5-.16,2.24a15.9,15.9,0,0,1-.55,3.64c-.29.9-.52,1.82-.78,2.74-.13.45-.3.88-.39,1.34-.21,1-.36,2.05-.57,3.08-.16.81-.42,1.61-.53,2.43-.14,1-.13,2.05-.25,3.07-.15,1.22-.38,2.42-.54,3.64-.13,1-.19,1.94-.29,2.91a8.12,8.12,0,0,1-.16,1.15c-.2.79-.47,1.57-.66,2.37a3.35,3.35,0,0,1-2.14,2.55,18.3,18.3,0,0,1-2,.72c-1.31.33-2.64.63-4,.87a14.42,14.42,0,0,1-2.3.18,4,4,0,0,1-1.12-.22c-.49-.14-1-.35-1.46-.46s-.75,0-1.1-.06-.92-.33-1.38-.48-1.1-.31-1.63-.51-.76-.4-1.15-.59c-1.08-.52-2.17-1-3.24-1.56A3.77,3.77,0,0,1,259,470c-.33-.94-.46-1.92.59-2.61.29-.19.48-.55.77-.76.65-.46,1.32-.88,2-1.3a2.2,2.2,0,0,1,.53-.22,5.24,5.24,0,0,0,.53-.11c.22-.1.42-.28.64-.35a5.08,5.08,0,0,0,.95-.21,5.63,5.63,0,0,1,2.84-.8c.19,0,.49-.11.54-.24a10.24,10.24,0,0,0,.42-1.6c.1-.51.11-1,.19-1.56.13-.86.3-1.71.42-2.56.2-1.41.38-2.82.54-4.24.1-.91.16-1.82.22-2.74s.1-1.94.19-2.9.27-2.2.35-3.3.12-2.28.17-3.42c0-.56.08-1.12.07-1.68,0-1.14-.06-2.27-.09-3.41,0-.15.06-.31,0-.46-.05-.71-.15-1.42-.17-2.12,0-.95,0-1.9,0-2.85,0-.73-.07-1.46-.07-2.19a45.17,45.17,0,0,0,.07-5.15.31.31,0,0,1,0-.19c.24-.36.07-.77.11-1.15a23.41,23.41,0,0,0,0-2.69c0-.77,0-1.53,0-2.3,0-1.18-.1-2.36-.13-3.53,0-.79,0-1.59,0-2.38,0-.53-.09-1.06-.09-1.58,0-.83,0-1.66,0-2.49a3.89,3.89,0,0,0-.09-1.55,3.37,3.37,0,0,1,.09-1.39c.07-.78.18-1.56.22-2.35.06-1.27.11-2.55.11-3.82s-.15-2.56-.06-3.83a20.9,20.9,0,0,1,.09-2.29,20.83,20.83,0,0,0,0-3.67c0-.84,0-1.68,0-2.52,0-.69,0-1.37,0-2.06s-.11-1.14-.07-1.71c0-.39,0-.54-.44-.63-1.43-.32-2.86-.68-4.28-1a10.2,10.2,0,0,1-1-.25c-.53-.19-1-.41-1.56-.64s-1-.46-1.53-.69a6.94,6.94,0,0,0-1.37-.61,4.92,4.92,0,0,1-1.78-.76c-.66-.44-1.39-.77-2.06-1.2s-1.25-.86-1.86-1.31-1.41-1.15-2.17-1.62a4,4,0,0,1-1.61-2.08.93.93,0,0,1,.15-1.09,4.15,4.15,0,0,1,1.89-.87c-.06-.82-.11-1.62-.19-2.42a1,1,0,0,1,.42-1,.65.65,0,0,0,.22-.74,2.08,2.08,0,0,1,.21-1.94l.21.25.12-.46a3.38,3.38,0,0,1,.8-.23,3.83,3.83,0,0,1,2,.64c.46.28.9.6,1.46,1,0-.3,0-.46,0-.61,0-.5.11-1,.64-1.06a2.5,2.5,0,0,1,1.44.27,2.65,2.65,0,0,1,.92,1.08,10.15,10.15,0,0,1,.87,2.15A3,3,0,0,0,265,368.2a2.34,2.34,0,0,1,.44.21s.11-.13.19-.14a2.55,2.55,0,0,0,1.45-.81,2.24,2.24,0,0,1,.72-.59,4.13,4.13,0,0,0,1.89-1.85c.66-1,.83-2.28,1.71-3.19a15.89,15.89,0,0,0,1.35-1.8c.5-.7,1-1.41,1.48-2.11l1-1.4,1.46-2a4.8,4.8,0,0,1,.56-.82c.6-.55,1.26-1,1.88-1.55a5.54,5.54,0,0,1,.52-.46c.41-.26.84-.48,1.26-.72a.53.53,0,0,1,.26-.1c.42,0,.56-.23.63-.49l-.25-.4a11.58,11.58,0,0,0-.78-1.36c-.54-.7-1.14-1.34-1.71-2-.15-.17-.25-.38-.39-.56-.31-.41-.64-.8-.92-1.22-.07-.1,0-.29,0-.46l-.27.16a7.24,7.24,0,0,1-.59-1.11,6.4,6.4,0,0,1-.27-1.41c0-.34.23-.75-.27-1,0,0,0-.18,0-.27a27.23,27.23,0,0,0-.65-3,5.67,5.67,0,0,1-.21-3,1.85,1.85,0,0,0,.09-.65,7.15,7.15,0,0,1,.48-2.87c.2-.92.46-1.83.72-2.74a4.56,4.56,0,0,1,.54-1.53c.28-.37.43-.81.71-1.19a6.7,6.7,0,0,1,1.74-1.76,7.7,7.7,0,0,1,1.79-.75,16.8,16.8,0,0,1,1.68-.37l.19.47c.07-.48.33-.43.68-.38a5.86,5.86,0,0,0,1.1-.06c.07.07.2.32.33.32.65,0,1,.32.93,1.1l.35-.58.65.17c.28.08.63.29.83.2.35-.17.5,0,.72.17s.4.27.61.4.5.29.72.46c.55.43,1.06.92,1.64,1.32.36.25.64.47.49,1l.36-.12a9.93,9.93,0,0,0,.48,1.35,5.18,5.18,0,0,1,.71,1.86.71.71,0,0,0,.08.36,3.13,3.13,0,0,1,.52,2c.08,1.22,0,2.45,0,3.68,0,.49.14,1,.16,1.48,0,1,0,2.05,0,3.08,0,.5.23,1-.19,1.28.06.29.11.47.14.65s0,.22,0,.25c.35.3.27.71.33,1.09.1.66.2,1.31.28,2,.06.5.33,1,0,1.5,0,0,0,.05,0,.08l.37-.17c.11.71.18,1.37.32,2,.08.36.28.68.39,1a2.36,2.36,0,0,1,.12.86c0,.16-.23.3-.39.49l.49.11c.11.29-.51.46-.06.78l.18-.51a1.66,1.66,0,0,1,.11.28A6.65,6.65,0,0,0,297,354c.1.31.22.57-.08.84-.07.06-.07.19-.1.29l.16.1.18-.43.15.06c.24,1.35.48,2.71.73,4.06.05.27.19.52.24.79.1.49.18,1,.27,1.49a.14.14,0,0,0,0,.08c.56.38.42,1.05.61,1.57.12.32-.18.78.3,1.07,0,0-.1.35-.16.54s-.07.2-.11.3l.13.09.15-.37.17.11-.23.74.27,0c.23,1.13.43,2.21.68,3.29.21.92.49,1.83.68,2.76a18.53,18.53,0,0,1,.23,2.05c0,.51,0,1,.08,1.54.19,1.24.44,2.47.65,3.71.12.71.18,1.42.27,2.13.05.43.1.86.16,1.29.08.62.2,1.24.25,1.86s-.05,1,0,1.57c.08,1.29.25,2.57.29,3.85,0,.65-.18,1.3-.19,2,0,2,0,4-.05,6,0,.08.07.16.1.24l.39-.15v.6h-.42c-.51.61.31,1.33-.35,1.86,0,0,0,0,0,0,.05.28.09.57.16.84a1.36,1.36,0,0,0,.18.32l-.47,0,.2,1a6.08,6.08,0,0,1,.17.93c0,.3-.1.61-.1.91,0,1.59.1,3.18.1,4.77,0,1-.09,2-.15,3q-.11,2.12-.22,4.24a24.28,24.28,0,0,1-.18,2.75,11.4,11.4,0,0,0,.06,1.26c0,.52.12,1,.12,1.56,0,.72-.09,1.44-.11,2.15s0,1.17,0,1.76c-.06,1.22-.15,2.45-.23,3.67a10.72,10.72,0,0,0,0,1.12c0,1,.1,2,.18,3,0,.42,0,.9.66,1.17-.53,0-.71.07-.48.46.06.1,0,.27,0,.41,0,.75,0,1.5,0,2.25,0,.6,0,1.2,0,1.8,0,.32,0,.64,0,1-.15.08-.23.23-.1.51a1.19,1.19,0,0,1,.08.49c0,1,0,2,0,3s0,1.79,0,2.69c0,.46-.16.92-.13,1.38.06.95.27,1.89.29,2.84a8.86,8.86,0,0,1-.18,3,1.32,1.32,0,0,0,0,.51,5.6,5.6,0,0,1,.07.63c0,.84-.07,1.68-.06,2.52a17.78,17.78,0,0,1,.11,2.35,4.78,4.78,0,0,1-.3,2s0,.09,0,.14c0,.26-.05.52-.06.78a1.9,1.9,0,0,0,0,.73,4,4,0,0,0,.57,1,2.2,2.2,0,0,1,.35,1.91A6,6,0,0,1,302,469a12.86,12.86,0,0,1-3.33,2.84,1.41,1.41,0,0,1-1.19.14,6.66,6.66,0,0,1-2-1.3,35,35,0,0,1-2.47-3c-.53-.68-1-1.42-1.48-2.12a7.45,7.45,0,0,1-.71-1,20.47,20.47,0,0,1-.81-2,5.68,5.68,0,0,1-.24-2.63c0-.24,0-.59.17-.7a17.94,17.94,0,0,1,1.64-1C291.55,458.08,291.51,457.82,291.45,457.57Zm-9.88,4c.13-1,.3-1.92.47-2.87s.36-2,.57-3.05.49-2.3.77-3.45c.15-.62.44-1.21.59-1.83.19-.78.3-1.58.45-2.37.11-.61.25-1.21.35-1.82a9.69,9.69,0,0,0,.09-1.06c0-.32,0-.64,0-1,.14-1.36.37-2.71.39-4.07a6.62,6.62,0,0,1,.27-1.77,27.58,27.58,0,0,0,.52-3.92c.21-1.43.46-2.85.7-4.27.08-.5.17-1,.29-1.48.21-.8.45-1.59.67-2.39.11-.41.21-.82.32-1.22a5,5,0,0,1,.16-.48,4.64,4.64,0,0,0,.35-1.56,7.63,7.63,0,0,1,.47-1.84c0-.07.14-.11.11-.18a8.74,8.74,0,0,1,.16-1.15c.09-.34.3-.65.42-1a6.47,6.47,0,0,0,.29-1.07c.06-.38,0-.78.58-.85.14,0,.25-.3.35-.43a4.55,4.55,0,0,1,.62,0c.1,0,.25.09.27.17a.5.5,0,0,1,0,.41c-.24.23-.18.4,0,.64a.68.68,0,0,1,0,.51c-.17.54-.39,1.07-.56,1.61-.23.75-.46,1.51-.64,2.28-.14.59-.16,1.21-.3,1.8s-.39,1.3-.55,2-.21,1.32-.38,2a5.28,5.28,0,0,1-.58,1.28c0,.19.47.47,0,.58a5.47,5.47,0,0,0,0,.81.75.75,0,0,0,.25.49,1.25,1.25,0,0,1,.58,1.05,14.89,14.89,0,0,0,.4,2.7,14.77,14.77,0,0,1,.33,3.29c.16,1.56.28,3.12.47,4.67.15,1.2.38,2.38.57,3.58.14.88.26,1.76.43,2.63.06.32.3.61.33.93.05.55.39,1.05.2,1.67-.1.3.14.7.2,1.06.13.8.18,1.61.37,2.39a7.35,7.35,0,0,0,.47,1.88c.61,1,.4,2.17.7,3.23a2.65,2.65,0,0,0,.19.47,3.09,3.09,0,0,0,1.83,1.63,7,7,0,0,1,1.52.74,2.48,2.48,0,0,0,2,0c.45-.27.41-.76.51-1.19a23,23,0,0,0,.14-4.34c0-1.07.13-2.15.15-3.22s0-2.21-.05-3.32-.17-2.15-.18-3.23c0-.81.11-1.62.14-2.42,0-.4-.07-.8-.08-1.21,0-1.42-.1-2.85-.13-4.27,0-1.05,0-2.11,0-3.16,0-.77,0-1.55,0-2.32-.06-1.24-.2-2.48-.26-3.72a13.59,13.59,0,0,1,.09-1.59c0-.31.07-.62.07-.93,0-.72,0-1.45,0-2.17,0-.91,0-1.82.06-2.73,0-1.72,0-3.44,0-5.15,0-1.47.19-2.95.27-4.42,0-.72,0-1.45,0-2.17s.16-1.46.18-2.19-.05-1.38-.06-2.06c0-1,0-2,0-3a2.53,2.53,0,0,0-.07-.79,9.48,9.48,0,0,1-.09-3.58c.06-1,.26-2.07.31-3.11s0-2.36,0-3.55c0-1.64.07-3.27.07-4.91,0-.52-.1-1-.14-1.56,0-.37-.06-.74-.07-1.11-.07-1.56-.08-3.12-.21-4.67-.07-.84-.33-1.67-.48-2.5-.11-.61-.17-1.24-.24-1.86-.14-1.2-.25-2.41-.43-3.61-.14-.9-.39-1.78-.54-2.68s-.3-2-.46-3.06c0-.13-.13-.24-.16-.36-.16-.74-.32-1.49-.46-2.23a19.62,19.62,0,0,0-1-3.43,1.39,1.39,0,0,1-.07-.6c0-.28-.07-.42-.38-.38a7.34,7.34,0,0,0-.36-1.87,4,4,0,0,1-.19-1.55,9.27,9.27,0,0,1,.16-1.11l-.25.4,0,0a12.27,12.27,0,0,1-.55-1.61c-.18-.86-.24-1.75-.39-2.62-.05-.31-.22-.6-.31-.91-.13-.49-.23-1-.34-1.48s-.2-1.07-.36-1.59a9.59,9.59,0,0,1-.63-3.33c0-.76-.2-1.47-.23-2.21,0-.55.11-1.11.1-1.67,0-.71-.1-1.43-.15-2.14s-.16-1.42-.16-2.12a15.9,15.9,0,0,1,.16-1.9,5.94,5.94,0,0,0-.32-2.66c-.15-.44-.26-.9-.4-1.34a5.22,5.22,0,0,0-1.34-2.33,16.74,16.74,0,0,0-1.27-1.25c-.56-.42-1.09-1-1.92-.86-.09,0-.21-.1-.31-.15l-.26-.11a3,3,0,0,1-.64-.28,2,2,0,0,1-.64,0,12.16,12.16,0,0,0-1.13-.49,2.74,2.74,0,0,0-1.15,0,7.4,7.4,0,0,0-1.73.5,3.51,3.51,0,0,0-1.95,1.93c-.5,1.38-.94,2.79-1.39,4.2-.08.26.08.66-.53.58a.62.62,0,0,1,.22,1,4.13,4.13,0,0,0-.28,2.15c0,.08.19.18.31.22a14.26,14.26,0,0,1,1.36.48c.18.09.27.37.43.6.29-.09.59-.06.66.34.19,0,.44,0,.48,0a1,1,0,0,1,.1.61c0,.1-.23.22-.37.25-.53.11-.88-.34-1.34-.47s-.6-.32-.92-.41c-.14,0-.46.11-.47.2a2.2,2.2,0,0,0,.2.71c.22-.3.27-.75.67-.39,0,0,.09,0,.11.08a3.61,3.61,0,0,1-.18,1.72c-.26.24-.48.41-.12.78.15.15.14.47.15.72a3.46,3.46,0,0,0,.52,1.81,9.32,9.32,0,0,1,.41,1.13,2.77,2.77,0,0,0,.48.61c.1.11.21.2.4.37l-.33-.07,0,.07a2.31,2.31,0,0,1,.62.41,3,3,0,0,1,.31.76l.16-.12a13.27,13.27,0,0,1,1.59,1.54,11.52,11.52,0,0,1,1,1.83l1.28-.81c.07,0,.17-.08.22-.14.35-.52.87-.31,1.27-.21a1,1,0,0,1,.12,1.82,9.48,9.48,0,0,1-1.86,1.17c-.82.3-1.28,1.06-2.07,1.37a8,8,0,0,0-1,.63,2,2,0,0,1-.42.14c-.12,0-.28,0-.34.12-.6.77-1.5,1.22-2.12,2-.28.33-.45.75-.71,1.11-.41.57-.87,1.11-1.27,1.69-.79,1.13-1.55,2.28-2.32,3.42-.39.58-.82,1.13-1.19,1.73-.49.8-.89,1.65-1.39,2.44a15.71,15.71,0,0,1-1.34,1.83,7,7,0,0,1-1.21,1.09c-.38.28-.83.44-1.22.7a2.43,2.43,0,0,0-.64.61,1.83,1.83,0,0,1-1.45.61,8.52,8.52,0,0,1-2.11-.17,2,2,0,0,1-.72-.31c-.72-.43-1.43-.89-2.15-1.33a.32.32,0,0,0-.25,0c-.54.21-.92-.15-1.32-.38s-.74-.51-1.16-.8l-.11-.59c-.72.21-.85-.64-1.49-.72.28.54.19,1.2,1,1.41.17,0,.27.58.28.9s-.51.79-.87.84-.54.15-.38.6.31.91.49,1.35a1.19,1.19,0,0,1-.26,1.48,4.72,4.72,0,0,1-.44.34c.46.31.8.55,1.16.78.7.43,1.43.82,2.1,1.29a17.86,17.86,0,0,0,1.92.91A17.56,17.56,0,0,1,264,377a9.7,9.7,0,0,0,1.41.57,11.31,11.31,0,0,0,2.31.58c.79.22,1.6.4,2.4.56.33.07.68,0,1,.09a4.37,4.37,0,0,0,.77.16c.53,0,1.05-.13,1.58-.2l.38,0a2.85,2.85,0,0,0,1.85-.67c.28-.3.67-.49,1-.79s.56-.73.86-1.07a5.52,5.52,0,0,1,1-1,9.92,9.92,0,0,0,2.39-2.43c.75-1,1.65-1.9,2.43-2.87a16.41,16.41,0,0,0,1.26-1.84,1.24,1.24,0,0,1,1.88-.1.47.47,0,0,1,0,.38c-.3.71-.58,1.44-.95,2.12a4.56,4.56,0,0,1-.87,1.09,8.9,8.9,0,0,0-1.8,2.26l-.05.08-2.76,2.77c-.64.65-1.25,1.33-1.9,2a5.9,5.9,0,0,1-2.11,1.73c-.41.14-.85.2-1.27.3l-.84.2-.7.14c0,.88.05,1.81,0,2.74s-.1,2-.1,2.93.09,1.84.09,2.76-.08,2.12-.08,3.17c0,1.56.06,3.12.08,4.68,0,1.13,0,2.25,0,3.38s-.25,2.37-.34,3.56c-.05.78,0,1.56,0,2.34,0,2.36.09,4.73.12,7.09,0,1,0,2.09,0,3.13,0,.79.1,1.58.12,2.38a22,22,0,0,1,0,4.77,14.14,14.14,0,0,0,0,2.43c0,.92-.09,1.84-.1,2.76,0,1.13,0,2.27,0,3.4,0,1.48,0,3,0,4.45,0,1.13.05,2.25.06,3.38s0,2.19-.06,3.28-.14,2-.28,3.05a14.91,14.91,0,0,1-.45,1.67.76.76,0,0,0,0,.33c0,.1.09.19.09.28,0,1.15-.08,2.3-.17,3.44s-.23,2.51-.41,3.75-.47,2.77-.69,4.15c-.11.69-.12,1.39-.23,2.08a17.06,17.06,0,0,1-.42,1.85c-.13.48,0,.69.5.74l1.78.16,1.86.19a2.16,2.16,0,0,0,.56,0,15.93,15.93,0,0,1,4.15-.21,11.23,11.23,0,0,0,1.9-.16C281.31,463.87,281.42,462.71,281.57,461.55Zm-13.5,11.7a.3.3,0,0,0,.41.11,1,1,0,0,1,1.16.44.49.49,0,0,0,.44.16c.47-.22.61-.17.77.3.33,0,.64-.06,1-.11a11,11,0,0,0,2.57-.45,29.23,29.23,0,0,1,3.43-.81,4.12,4.12,0,0,0,1.89-1.12,3,3,0,0,0,.5-1.19c.21-.68.37-1.37.55-2.06a.94.94,0,0,0-1-1.21c-.9,0-1.79-.08-2.69-.12a3,3,0,0,0-.55,0,16.06,16.06,0,0,1-3.29.07,12.38,12.38,0,0,1-1.9-.16,6.77,6.77,0,0,1-3-.9,3.38,3.38,0,0,0-.64-.35.93.93,0,0,0-.91,0,13.58,13.58,0,0,1-1.73.68c-.46.17-.94.29-1.39.48a4.73,4.73,0,0,0-.64.42,12.26,12.26,0,0,0-1.12.68,7.41,7.41,0,0,0-.94.93c-.06.06,0,.24,0,.35a6.67,6.67,0,0,0,.32.78.4.4,0,0,0,.23.2,3.54,3.54,0,0,1,1.78.87,3.74,3.74,0,0,0,1.07.5l1.5.66c.27.11.55.19.81.31a2.94,2.94,0,0,1,.44.3C267.55,473.15,267.93,473.09,268.07,473.25Zm24-10.79a5.73,5.73,0,0,0,.72,1.34c.62.95,1.28,1.88,1.92,2.81a1.32,1.32,0,0,0,.19.2,8.9,8.9,0,0,1,1.55,2,1.25,1.25,0,0,0,2.16.26c.41-.39.87-.74,1.24-1.16a5.82,5.82,0,0,0,.59-1.05l-.48,0c.12-.41.28-.79-.18-1.08-.08,0-.05-.28-.08-.44-.47,0-1,.05-1.42,0a2.31,2.31,0,0,1-1.48-.65,3.78,3.78,0,0,0-.85-.52c-1.33-.72-2.88-1.16-3.61-2.69A6.1,6.1,0,0,0,292,461l-.12,0A7.4,7.4,0,0,0,292.09,462.47ZM279.67,325.08l.1-.38c-.69,0-.71,0-.64.8C279.36,325.38,279.26,324.9,279.67,325.08Zm14.67,16.35.19,0,.13-.9-.22,0Z"/><path d="M317.08,338.49c-.75.23-1,.63-.82,1.32s.24,1.11-.52,1.37c.45.39,0,1.24.84,1.37a2.76,2.76,0,0,0,1.06,1.64,2.63,2.63,0,0,0,1.64,1c.21-.74.09-1.61,1-2,.45-.21.84-.53,1.29-.72a1.47,1.47,0,0,1,1.35.54,1.61,1.61,0,0,1-.25,2.13,8.14,8.14,0,0,0-.51.66,3.53,3.53,0,0,1,.76.24c.69.4,1.37.09,2,0a2.07,2.07,0,0,0,.79-.43,1.36,1.36,0,0,1,1.75.24,1.12,1.12,0,0,1-.33,1.54,6.9,6.9,0,0,1-4.09,1,14.86,14.86,0,0,1-2.36-.19,17.46,17.46,0,0,1-3.17-1,6.88,6.88,0,0,1-1.6-1.26,9.41,9.41,0,0,1-2.13-2.79c-.32-.61-.67-1.2-1-1.82s-.33-1-.55-1.51a12.8,12.8,0,0,1-.92-4,10.57,10.57,0,0,1-.28-2.75c.26-1.65.48-3.31.78-5a9.11,9.11,0,0,1,.55-1.27,7.74,7.74,0,0,1,3.31-4.22,10.27,10.27,0,0,1,2.69-.88c.16,0,.35.06.53,0,.41,0,.82-.14,1.23-.14a7.5,7.5,0,0,1,1.8.1c.92.22,1.81.6,2.72.86a11.08,11.08,0,0,0,1.35.22.38.38,0,0,1,.15,0c.5.34,1,.69,1.5,1,.12.07.3,0,.45.06a3.09,3.09,0,0,1,1.84,1.23,15.34,15.34,0,0,0,1.69,1.37,4.17,4.17,0,0,1,.47.58c.19.24.38.48.55.73a3.73,3.73,0,0,1,.51.86,5,5,0,0,1,.12,1l.44-.07-.17,1c.49-.33.67-.21.73.37,0,.29.36.54.54.82a4.38,4.38,0,0,0,.58.73l1.68,1.19-.18.35c.44-.12.93-.39,1,.24l.68.34a2.22,2.22,0,0,1,.7-.07c1.05.21,2.11.43,3.14.71a5.85,5.85,0,0,1,1.15.59c.07,0,.13.13.21.14a13.68,13.68,0,0,1,2.13.29,5.17,5.17,0,0,1,1.32.86c.43.3.86.62,1.29.93l.57.45.12-.1L352,340l0,0a7.16,7.16,0,0,1,.83.4c.55.35,1.22.51,1.49,1.26.1.28.68.36,1,.59.57.42,1.25.7,1.59,1.42.13.27.59.37.83.61a9.64,9.64,0,0,1,.87,1.12c.24.33.46.69.68,1s.55.42.3.86c-.06.11.19.39.31.62l.13-.1c.19.45.91.61.71,1.23.57.1.67.64,1,.95a5.18,5.18,0,0,1,.59.76,4.38,4.38,0,0,1,.28.55l.57.59c.22.23.33.59.76.57.07,0,.15.34.23.56a.72.72,0,0,1,.3.1,10.6,10.6,0,0,1,.84.75c.1.09.23.26.2.35-.12.45.1.64.68.71l-.67.5.45,0a11.84,11.84,0,0,0,.53,1.19,3.69,3.69,0,0,1,.65,1.8c0,.19.39.36.58.52.16.69.32,1.38.49,2.06a.37.37,0,0,0,.2.23c.54.17.38.5.17.9.76-.18.61.53.88.83a5.34,5.34,0,0,1,.4.62l-.05.37c.76.39.84.53.73,1.06.16.15.33.24.4.39s.12.71.33.88a3.11,3.11,0,0,1,.89,2.2c.12.88.14,1.77.24,2.65,0,.26.22.5.27.77a4.36,4.36,0,0,1,0,.81,3.3,3.3,0,0,1,.11.48,12.75,12.75,0,0,1-.33,4.2c-.12.54,0,1.14-.11,1.68s-.44,1.31-.55,2c-.18,1-1.13,1.4-1.65,2.14a4.67,4.67,0,0,1-1.36,1.45,9.59,9.59,0,0,0-1.24,1.17c-.6.53-1.21,1.06-1.83,1.56a26.09,26.09,0,0,0-2.16,1.66,22.25,22.25,0,0,0-2,2.19,5.18,5.18,0,0,1-3.1,2.06,2.88,2.88,0,0,0-1.89,1.48,2.34,2.34,0,0,0,0,1.32c.14.9.33,1.79.5,2.68a1.29,1.29,0,0,0,.15.56c.57.66.3,1.44.35,2.17s.18,1.32.27,2c0,.08,0,.17,0,.25a7.86,7.86,0,0,1,.2.82,1.93,1.93,0,0,1,0,.87,2.38,2.38,0,0,0-.15,1.79,5.33,5.33,0,0,1,.21,1c.15.92.31,1.83.41,2.75s.07,1.64.16,2.45.32,1.45.4,2.18a3.11,3.11,0,0,1,0,1.18,7.37,7.37,0,0,0-.17,2c0,.92.18,1.84.21,2.76a12.61,12.61,0,0,1-.16,1.38,33.09,33.09,0,0,1-.33,4.17,7.21,7.21,0,0,1-.85,2.95,6.52,6.52,0,0,0-.6,1.87c.24.27.82-.15.94.43.05.25.23.54.16.75a18.92,18.92,0,0,1-.76,2c-.32.74-.71,1.46-1,2.21a5.59,5.59,0,0,1-1.47,2.49c-.33.28-.52.73-.85,1-.91.78-1.87,1.5-2.79,2.26-.27.23-.45.57-.72.79a16.46,16.46,0,0,1-2.66,2.13,3.33,3.33,0,0,1-3.35.23c-1-.62-1.63-1.11-1.36-2.39.12-.57.22-1.14.33-1.72s.17-1,.29-1.47c.22-.88.45-1.75.69-2.63s.46-1.64.72-2.46.2-1.07-.61-1.5a1.73,1.73,0,0,1-.77-1.42c0-.18-.14-.35-.19-.53a3.56,3.56,0,0,1-.12-.68c-.05-.92-.08-1.85-.13-2.78a.73.73,0,0,0-.18-.49c-.69-.52-.62-1.39-1-2.05,0,0,0,0,0-.05.38-.52,0-1-.06-1.53a12,12,0,0,0-.45-3.45,17,17,0,0,1-.41-1.67c-.18-.63-.41-1.26-.62-1.88a2,2,0,0,1-.07-.26c-.16-.88-.33-1.75-.49-2.63,0-.19,0-.4,0-.59a9.73,9.73,0,0,0-.18-1.61,12.78,12.78,0,0,1-.24-2.18,16,16,0,0,0-.49-2.15c-.15-.65-.3-1.31-.47-2a4,4,0,0,0-.32-.85.31.31,0,0,0-.57.18,5.36,5.36,0,0,0,.28,2.61c.17.38,0,.92-.1,1.39a8.36,8.36,0,0,0-.14,1c0,.53.13,1.07.09,1.6a7.11,7.11,0,0,1-.35,1.28,13.18,13.18,0,0,0-.35,1.41c-.17,1.08-.36,2.16-.42,3.25a5.7,5.7,0,0,0,.34,1.54,2.16,2.16,0,0,1,.12.51c0,.56-.06,1.12-.09,1.68-.06,1.44-.19,2.88-.15,4.32a7,7,0,0,1-.13,1.66,3.6,3.6,0,0,1-.52,1.58c-.61.68-.68,1.72-1.54,2.19a12.1,12.1,0,0,1-2.84,1.45c-.58.14-1.13.41-1.71.55-.85.2-1.71.31-2.56.48-.24.05-.46.23-.7.29-.56.13-1.13.18-1.68.33a11.92,11.92,0,0,0-2.72.83,11.72,11.72,0,0,1-2.31.82,3.44,3.44,0,0,1-1,0c-1.18,0-2.36,0-3.54-.12a3.16,3.16,0,0,1-1.92-.72,2.82,2.82,0,0,0-.66-.45c-.49-.22-.66-.7-.93-1.1,0,0-.06-.12,0-.15.43-.69.17-1.67,1.12-2.21.46-.26.85-.79,1.38-1.07.18-.09.37-.15.55-.24a2.85,2.85,0,0,0,.67-.41,3.6,3.6,0,0,1,1.78-.85c.09,0,.21,0,.25-.11a2,2,0,0,1,1.61-.71,2.84,2.84,0,0,0,.71-.23c.56-.24,1.1-.54,1.68-.72.73-.23,1.5-.33,2.23-.55a.76.76,0,0,0,.35-.62,10.28,10.28,0,0,0-.34-2.83c-.38-1-.11-2.14-.53-3.15a7.87,7.87,0,0,1-.44-1.62c-.14-.75-.23-1.51-.32-2.27a16.18,16.18,0,0,0-.79-2.36,8.45,8.45,0,0,1-.47-3.94,5.3,5.3,0,0,0-.17-1.48c-.1-.86-.18-1.73-.29-2.59s-.22-1.7-.37-2.55a25.41,25.41,0,0,1-.52-5c0-1.4.07-2.8.17-4.19a4.37,4.37,0,0,1,.41-1.38,1,1,0,0,0-.53-1.42,1.81,1.81,0,0,1-1.1-1.72c0-1.09-.23-2.18-.22-3.26,0-1.8.05-3.6.22-5.39.13-1.36.52-2.7.7-4.06a4.48,4.48,0,0,0-.13-1.75,7.53,7.53,0,0,1,0-2.94c.13-1.16.25-2.33.35-3.5,0-.44,0-.88,0-1.33a2.13,2.13,0,0,1,.13-.53c0-.57.09-1,.1-1.42q0-1.74,0-3.48c0-.76-.06-1.52,0-2.27s.26-1.55.34-2.34c.06-.51,0-1,0-1.55.08-1,.21-2.06.27-3.09a2.51,2.51,0,0,0-.18-1.05c-.17-.42.06-.56.32-.79a2.1,2.1,0,0,0,.68-.83,1.55,1.55,0,0,1,2-1.07.76.76,0,0,1,.47.53,1.93,1.93,0,0,1-.24,1.32,7.1,7.1,0,0,0-.47,2c-.14.72-.3,1.45-.4,2.18a6.43,6.43,0,0,0,0,1.14c0,.05,0,.12,0,.15a6.27,6.27,0,0,0-.4,2.81c-.12,1.89-.05,3.79-.13,5.68,0,1-.23,2-.32,3.06-.11,1.18-.2,2.37-.26,3.56s-.08,2.13-.09,3.2c0,.28.18.56.16.83-.05,1.16-.14,2.31-.23,3.47,0,.06-.08.11-.17.23l-.09-.39h-.1c0,.13-.06.32,0,.4.43.47.13,1,.11,1.49,0,1.54-.16,3.07-.25,4.62.58.08.67-.33.77-.6a1.8,1.8,0,0,1,2.41-.82c.18.08.27.36.45.61.77-.5,1.58-.92,2.46,0l.36-1.78a20.09,20.09,0,0,0,.09-4.05c0-.48.07-1,.06-1.43,0-.82-.12-1.65-.11-2.47s.18-1.85.13-2.77c0-.64.52-1.09.35-1.79a2.89,2.89,0,0,1,.27-1.77,6.73,6.73,0,0,0,.28-1.52c.13-.55.13-1.13.22-1.69a15.81,15.81,0,0,1,.47-2.55c.14-.42.66-.71,1-1.08s.81-.36,1.31-.22a4.93,4.93,0,0,1,1.7,1,2.74,2.74,0,0,1,.68.9c.29.48.65.91,1,1.37a2.87,2.87,0,0,1,.32.59c.34.87.66,1.75,1,2.63.06.15.2.26.25.41.17.54.32,1.09.47,1.64.06.23.1.47.16.8.44.38.49.76.2,1.57s-.61,1.81-.9,2.72a4.47,4.47,0,0,1-1.4,2.07,7.14,7.14,0,0,0-1,1.08,3,3,0,0,1-1.76,1.23,2.55,2.55,0,0,0-2.09,2.32c-.13,1-.15,2-.3,2.93a13.75,13.75,0,0,1-.56,1.82c0,.1,0,.21-.05.31a9.91,9.91,0,0,1-.34,1.22c-.26.65-.66,1.26-.86,1.93a1.6,1.6,0,0,1-2.38.74c-.42-.2-.82-.46-1.3-.24a.88.88,0,0,0-.41.38,6.17,6.17,0,0,1-1,1.87,2.05,2.05,0,0,0-.39,1.25,43.26,43.26,0,0,0,0,6.73c.09.8.26,1.59.37,2.39.16,1.23.3,2.46.46,3.68,0,.19.13.37.14.56,0,.81,0,1.63.1,2.44a26,26,0,0,0,.48,2.89c.42,1.82,1.19,3.57,1.13,5.5a4.11,4.11,0,0,0,.19.77c0,.24,0,.49.06.74a1.8,1.8,0,0,0,.06.36c.17.56.39,1.11.52,1.69a22,22,0,0,1,.4,2.33c.12,1.09.18,2.2.29,3.29,0,.12.19.25.33.32a7.29,7.29,0,0,0,.76.29s.16-.21.25-.2c1.09.11,2-.6,3.13-.53a5,5,0,0,0,2.56-.76c.18-.09.19-.6.21-.91,0-1.35.09-2.7.08-4.05a12.56,12.56,0,0,0-.2-2.33,6.62,6.62,0,0,1,.26-3.28,4.41,4.41,0,0,0,.11-.72c.08-.65.16-1.31.25-2a13.18,13.18,0,0,0,.25-1.37c0-1,0-2.07,0-3.11,0-.33-.25-.65-.25-1,0-.89.06-1.77.09-2.66,0-.36,0-.72,0-1.08a26.44,26.44,0,0,1,.2-3.07,1.56,1.56,0,0,1,1.24-1.43c1-.25,1.35-1.09,1.29-2.39a15.06,15.06,0,0,1,0-3.19,31.9,31.9,0,0,1,1.09-3.69,2.08,2.08,0,0,0,0-.24c-.73-.49-1.5-1-1.47-1.92a4.6,4.6,0,0,1,.54-1.73c.23-.48.26-.41-.23-.7a3.57,3.57,0,0,1-1.35-1.13,1.75,1.75,0,0,1-.11-1.64,11,11,0,0,1,3.24-3.92,3.55,3.55,0,0,0,1-1.65,4.09,4.09,0,0,1,.43-1,3.38,3.38,0,0,1,.76-.58c0-.09-.18-.33-.12-.43a12.12,12.12,0,0,0,1-3.52c.33-1.31.59-2.64.95-3.95a4.46,4.46,0,0,1,.65-1.06c0-.19,0-.45,0-.71a13.51,13.51,0,0,0,0-2.18,12.17,12.17,0,0,0-.7-2.45,6.24,6.24,0,0,0-.79-1.11,20.57,20.57,0,0,1-1.86-2.89,14.67,14.67,0,0,0-.78-1.59c-.41-.68-.87-1.34-1.28-2a9.41,9.41,0,0,1-1.38-3.75c-.08-.72.7-1.19,1.43-1.16.89,0,1.21.57,1.42,1.28s.44,1.69.71,2.52a4.71,4.71,0,0,0,.56.81c.23.39.45.78.65,1.19.4.79.78,1.6,1.17,2.4a.41.41,0,0,0,.06.09l1.31,1.47c.07.08.21.18.2.24-.15.59.39.81.61,1.2a9.73,9.73,0,0,1,.76,1.81,14.85,14.85,0,0,1,.55,2.25,6.22,6.22,0,0,1,0,1.81,11.16,11.16,0,0,1-.5,1.53c-.09.3-.1.63-.19.94-.21.75-.44,1.49-.65,2.24-.05.18-.05.38-.09.57a20.56,20.56,0,0,1-.47,2.42,25.26,25.26,0,0,1-1.19,3,12.89,12.89,0,0,1-1,1.57.45.45,0,0,0-.1.24,2.3,2.3,0,0,1-1,1.87c-.25.23-.52.44-.87.72a4.06,4.06,0,0,1,1,0,1.19,1.19,0,0,1,.32,2.16,1.89,1.89,0,0,0-.57.91c-.25.77-.42,1.57-.63,2.35,0,.11-.16.2-.29.35l-.08.81,1.08.35a5.68,5.68,0,0,1,1.62-3,2.15,2.15,0,0,1,1.27-.44c.24,0,.49.37.76.54.46.27.22.6.11.93a5.48,5.48,0,0,0-.12.57,17,17,0,0,0,2-.56c.22-.09.38-.47.47-.74.19-.54.29-1.1.46-1.64.33-1,.65-2,1-3,.26-.68.6-1.33.91-2,0-.08.09-.16.12-.24l1.24-2.72c.31-.7.58-1.42.94-2.08a14.75,14.75,0,0,1,1.25-1.85c.06-.19.1-.39.17-.58s.26-.67.39-1c.27-.68.49-1.39.82-2a12.24,12.24,0,0,0,1.3-2.79c.17-.73.26-1.48.42-2.21a4.31,4.31,0,0,1,.19-.44c.05-.15.16-.36.11-.45-.42-.6-.14-1.25-.21-1.88,0-.09,0-.19,0-.26a3.37,3.37,0,0,1-.6-1.82c0-.09-.15-.18-.2-.29a3.29,3.29,0,0,1-.39-.87,2.8,2.8,0,0,0-.23-1c-.19-.37-.36-.78-.57-1.17a14.52,14.52,0,0,1-1-1.92c-.31-.86-1-1.58-1-2.55a1.58,1.58,0,0,0-.24-.52c-.26-.53-.55-1-.77-1.58s-.42-1.28-.64-1.91c-.15-.44-.34-.87-.51-1.3s-.24-.58-.34-.87c-.31-.92-.61-1.84-.93-2.8a1.32,1.32,0,0,1-.28-.1l-2.48-1.46a9.59,9.59,0,0,0-1.49-.84,15.31,15.31,0,0,0-2.63-.74c-1-.18-2.07-.17-3.09-.31a2.9,2.9,0,0,1-.86-.45l-.33-.17c-.72-.33-1.46-.64-2.17-1a11.19,11.19,0,0,1-1.17-.76,11.37,11.37,0,0,1-2.93-3.4,7.32,7.32,0,0,0-1-1.65,5.21,5.21,0,0,1-.79-1.22,5.67,5.67,0,0,0-2.16-1.94,6.14,6.14,0,0,1-1.07-1s-.07-.1-.11-.12a13.1,13.1,0,0,0-3.71-1.33,17.84,17.84,0,0,1-2.46-.64,4.41,4.41,0,0,0-2.85.17,3.2,3.2,0,0,0-1.49,1.27c-.36.56-.89,1-1.27,1.56s-.54,1.16-.91,1.67-.26,1.18-.35,1.78a13.94,13.94,0,0,0-.31,2.14c0,1,.21,2.05.33,3.08a3.23,3.23,0,0,1,.06.64c-.05.58.09,1,.82,1,.29-.59.58-1.23.9-1.85a3.25,3.25,0,0,1,1.93-1.63,9.94,9.94,0,0,0,1.13-.5.56.56,0,0,0,.18-.23.9.9,0,0,1,1-.46c.43,0,.46.31.5.64,0,.11.12.21.25.41a10.59,10.59,0,0,1-1.72,1,2.15,2.15,0,0,0-1.52,1.47.74.74,0,0,1,0,.1,5.54,5.54,0,0,0-.44,1,3.84,3.84,0,0,0,0,1Zm38.6,73.9a.83.83,0,0,0,.12-.38c-.06-.61-.15-1.22-.23-1.84s-.2-1.46-.27-2.19a7.21,7.21,0,0,1-.06-1.63c.11-.8.47-1.64,0-2.36a3.81,3.81,0,0,1-.28-2.17,4.35,4.35,0,0,0,0-1.17c-.44-1.4-.45-2.89-1.07-4.25a4.21,4.21,0,0,1-.24-1.51c0-.21.25-.44.23-.64a1.25,1.25,0,0,1,.53-1.2,10,10,0,0,0,1.61-1.29,3,3,0,0,1,1.8-.95,1,1,0,0,0,.4-.13c.83-.71,1.66-1.42,2.46-2.16.58-.55,1.07-1.2,1.67-1.72s1.56-1.13,2.28-1.77a41.72,41.72,0,0,0,3.14-3,4.74,4.74,0,0,0,1.59-2.48c.1-.71.36-1.4.51-2.11.07-.35,0-.73.08-1.08a7.1,7.1,0,0,0,.18-3.14,6.21,6.21,0,0,1-.18-1.47,18.32,18.32,0,0,0-1.22-5.5,10.7,10.7,0,0,0-1.26-2c-.22-.36-.38-.76-.56-1.14-.08-.17-.14-.35-.24-.52a11,11,0,0,1-.59-1c-.34-.8-.62-1.63-1-2.42-.17-.37-.55-.66-.66-1s-.81-.73-.35-1.26l-1.54-2.66c-.25,0-.69.11-.64-.49,0-.07-.15-.17-.25-.23-.58-.34-1.14-.65-1.34-1.39-.08-.32-.48-.55-.72-.83-.43-.49-.87-1-1.29-1.47-.16-.19-.28-.42-.42-.62s-.25-.34-.38-.51-.33-.32-.37-.49a4.62,4.62,0,0,0-1.35-1.9,9.9,9.9,0,0,0-.94-1,13.42,13.42,0,0,0-1.28-.89s-.1,0-.24,0a2.33,2.33,0,0,0-.1.88,9.56,9.56,0,0,0,1.37,3.29c.13.16.07.45.16.65.27.6.6,1.17.87,1.76a5.07,5.07,0,0,0,.45,1.18,1.88,1.88,0,0,1,.52.81,10.16,10.16,0,0,0,1.06,2,1.83,1.83,0,0,1,.26.59,3.27,3.27,0,0,0,.51,1.79c.34.42.47.84,0,1.24-.05,0,0,.18,0,.34l.71-.48-.1,1.21c.41.1.5.43.41.85a1.18,1.18,0,0,0,0,.43,5.55,5.55,0,0,1,.16,2.2c-.19.88-.26,1.79-.49,2.68A7.52,7.52,0,0,1,358,368a11.9,11.9,0,0,0-.71,1.38c-.38.79-.75,1.58-1.13,2.38s-.66,1.45-1,2.16c-.44.88-.93,1.74-1.35,2.63-.25.54-.4,1.13-.63,1.69s-.59,1.25-.85,1.89c-.46,1.13-.88,2.28-1.32,3.41a5.52,5.52,0,0,0-.53,1.31,15.06,15.06,0,0,1-1,3.51c-.36,1-.82,2-1.24,3-.49,1.13-1.37,1.45-2.37.66a1.38,1.38,0,0,0-.7-.28,9.77,9.77,0,0,1-2.81-.66,1,1,0,0,0-1.45.84c-.14,1.32-.19,2.64-.29,4,0,.51-.1,1-.17,1.54a5.12,5.12,0,0,0-.19,1.32,11.68,11.68,0,0,0,.25,2.76,22.05,22.05,0,0,1,.78,3.2c.07.34,0,.7.11,1,.11.5.3,1,.39,1.48.13.77.17,1.55.28,2.32a8.07,8.07,0,0,0,.3.94,2.66,2.66,0,0,1,.22,1,16.67,16.67,0,0,0,.28,4,7.92,7.92,0,0,0,.36,1.33,1.3,1.3,0,0,1,.31.41,9.35,9.35,0,0,0,.56,2c.47.82.23,1.73.53,2.55a5,5,0,0,1,0,1c0,.24.2.46.22.7a15,15,0,0,0,.12,1.73,3.25,3.25,0,0,0,.94,2.15.37.37,0,0,1,.13.23c.07.69.15,1.39.2,2.08,0,.29-.07.6,0,.89.15,1.05.17,1.08,1.24,1s2.15-.22,3.22-.24a6.06,6.06,0,0,0,2.52-.67c.52-.25,1.05-.47,1.58-.71.08,0,.19-.06.22-.13a6.16,6.16,0,0,0,.58-2.52,15.7,15.7,0,0,1,.05-1.61c0-.43.15-.84.17-1.27,0-.66,0-1.32,0-2s.11-1.58.1-2.36c0-.5-.16-1-.16-1.49,0-1.72.09-3.45.11-5.17A5.67,5.67,0,0,0,355.68,412.39Zm-21.9,15.79c-.94.18-1.76.37-2.59.49-.48.07-1,0-1.46,0-.68.05-1.36.18-2,.21s-1.17,0-1.76,0a7,7,0,0,1-1,.14,6.34,6.34,0,0,0-2.94.52c-1.41.51-2.8,1.08-4.16,1.73a12.6,12.6,0,0,0-1.82,1.27l-.42.33a5.14,5.14,0,0,0,1,.51,15.19,15.19,0,0,0,1.86.28,5.24,5.24,0,0,0,1.48.08,15.33,15.33,0,0,0,2.1-.63c1-.35,2-.79,3.08-1.06,1.66-.42,3.35-.72,5-1.09a9.53,9.53,0,0,0,1.2-.41,2.42,2.42,0,0,0,.3-.19,19.47,19.47,0,0,0,1.84-1c.57-.4.53-.45,0-.86Zm14.54,6.07c-.48,1.39-1,2.73-1.42,4.09-.24.73-.4,1.48-.57,2.22s-.28,1.53-.51,2.27,0,1.16.72,1a2.05,2.05,0,0,0,1-.57c.53-.51,1-1.13,1.51-1.63a18.18,18.18,0,0,1,1.75-1.3c1.26-.89,2.48-1.83,2.75-3.46.17-1,.57-2.11-.26-3.08,0,0,.06-.13.09-.21Zm-15.95-69.78-.28,0c-1,4.31-1.93,8.61-1.23,13.13a.79.79,0,0,0,.31-.1,10.93,10.93,0,0,0,1.11-.92,13.9,13.9,0,0,0,2.78-3.2,1,1,0,0,0,0-.4c0-.14,0-.3,0-.41.67-1.34,0-2.6-.43-3.76a9.76,9.76,0,0,0-1.31-2.91C333,365.47,332.7,365,332.37,364.47Z"/><path d="M317.06,338.51c.48-.52,1-1.05,1.46-1.56a1.52,1.52,0,0,1,.59-.34A6.55,6.55,0,0,1,322,336c.42.05.83.17,1.23.25-.06,1.51-.29,2.89-1.77,3.62a2.35,2.35,0,0,1-1.69.41c-.64-.16-1.31-.17-2-.26s-1-.68-.7-1.54Zm2.89-.75a.72.72,0,0,0,1.26-.1Z"/><path d="M159,391.69c-.07.62-.15,1.24-.18,1.86,0,.15.18.31.19.47a4.66,4.66,0,0,1,0,1.83c-.09.27.09.62.08.92,0,.68-.13,1.36-.15,2s0,1.28,0,1.92c0,.26-.06.53,0,.78,0,.68.08,1.36.17,2a5.09,5.09,0,0,1-.05,2.19,2.39,2.39,0,0,0,0,.69,2.37,2.37,0,0,1,0,.84,4,4,0,0,0,0,1.59,18.91,18.91,0,0,1-.12,2.12c-.07.67-.21,1.33-.34,2a1,1,0,0,1-.21.51c-.57.52-.31,1.1-.18,1.68a2.09,2.09,0,0,1,.09.61,15.08,15.08,0,0,1-.21,1.73,20.31,20.31,0,0,1-.52,2,1.93,1.93,0,0,1-.39.68c-.52.59-1.12,1.13-1.6,1.75a4.53,4.53,0,0,1-2.35,1.22,6.65,6.65,0,0,0-1.51.76c-.07,0-.13.11-.2.12-.92.06-1.42.85-2.15,1.24-.1.05-.14.21-.22.31s-.16.2-.25.2a3,3,0,0,0-1.6.76,3.51,3.51,0,0,1-2.26.79,2.24,2.24,0,0,0-1.13.17,1.37,1.37,0,0,1-1.52-.22c-.07,0-.13-.12-.2-.12-.73,0-1-.7-1.39-1.12,0,0-.09-.13-.07-.17.18-.46-.28-.87-.06-1.34s.31-.88.47-1.31a5.63,5.63,0,0,1,.29-.69,3.62,3.62,0,0,1,.61-1,7,7,0,0,0,1.45-1.9,10.34,10.34,0,0,1,.78-1.11c0-.05.1-.09.12-.14a4.88,4.88,0,0,1,1.61-2,3.29,3.29,0,0,0,.49-.9,1.29,1.29,0,0,1,.26-.33c.46-.41.48-.47.13-1a.86.86,0,0,0-.18-.22c-.76-.55-.68-1.37-.77-2.18-.13-1.1.27-2.22-.18-3.31-.1-.25.08-.59.06-.89-.07-.7-.18-1.39-.29-2.08,0-.2-.09-.4-.13-.6-.18-.88-.36-1.77-.52-2.65-.12-.66-.21-1.33-.34-2-.17-.9-.38-1.79-.54-2.7a6.37,6.37,0,0,1-.34-2,4.11,4.11,0,0,0-.19-1.17c-.12-.67-.25-1.34-.37-2-.18-1-.37-2-.53-3a7.88,7.88,0,0,1,0-3.11.39.39,0,0,0,0-.19c-.28-.92.12-1.89-.2-2.82-.1-.29.06-.65.05-1,0-.49-.07-1-.09-1.46s0-1.26-.05-1.88a.64.64,0,0,0,0-.09l-.47-2.59a.92.92,0,0,1,0-.28,3.47,3.47,0,0,0-.3-1.35,15.45,15.45,0,0,1-.39-2.52c-.08-1.05,0-2.11-.09-3.16,0-.75-.18-1.5-.29-2.25a8,8,0,0,1,0-3.08,6.67,6.67,0,0,0,0-1.64c0-.19,0-.38,0-.57s0-.58-.07-.87c0-.11,0-.22,0-.33a16.55,16.55,0,0,0-.11-2.77,6.74,6.74,0,0,1,.21-2.3c.07-.56.21-1.11.27-1.67.13-1.19.25-2.38.33-3.57s.07-2.18.15-3.26c0-.69.14-1.37.25-2.05s0-.65-.41-1a15,15,0,0,1-2.23-2.17c-.64-.85-1.35-1.64-2-2.52s-1.07-1.65-1.62-2.46c-.25-.38-.67-.7-.78-1.12-.19-.69-1-1.09-.85-1.93,0-.09-.13-.23-.22-.34a6.34,6.34,0,0,1-.7-.8c-.36-.6-.67-1.24-1-1.87A15.85,15.85,0,0,0,130.8,328a12.41,12.41,0,0,1-1.24-2.75,22.43,22.43,0,0,1-.8-3,.18.18,0,0,1,0-.09c.18-.59.34-1.19.55-1.78a6.33,6.33,0,0,1,.53-1.09,3.63,3.63,0,0,1,.69-.91,1.69,1.69,0,0,0,.72-1.07c.07-.51.55-.71.82-1.06a4.43,4.43,0,0,0,.55-.84,3.12,3.12,0,0,1,1.82-1.55.3.3,0,0,1,.21,0l.71-.62a6.63,6.63,0,0,0,1.21-1.1,9.14,9.14,0,0,1,1.45-1.4c.49-.43,1-.83,1.5-1.25a.3.3,0,0,1,.16-.08,1.75,1.75,0,0,0,1.37-.68.28.28,0,0,1,.21-.07.7.7,0,0,0,.86-.58c.6,0,.75-.21,1-.81s-.06-1.05.07-1.56a7.19,7.19,0,0,1,.35-1c.11-.27.29-.51.41-.78.25-.54.44-1.11.73-1.62a24.7,24.7,0,0,0,1.08-2.82c.36-.86.17-1.81.45-2.67.07-.22.2-.53.38-.59.53-.18.61-.61.67-1s0-.69.05-1c.07-.5.18-1,.26-1.49.13-.8.19-1.62.37-2.41a10.58,10.58,0,0,1,1.13-2.74,8.76,8.76,0,0,1,1.2-1.67,3.56,3.56,0,0,1,1.69-1.16c.18,0,.31-.24.48-.34.7-.4,1.39-.83,2.12-1.18a4.14,4.14,0,0,1,1.35-.4,12.45,12.45,0,0,1,1.65,0,.73.73,0,0,0,.25,0c.07,0,.13-.1.2-.11a3.5,3.5,0,0,1,2.61.81c.32.28.54.53,1,.49a.14.14,0,0,1,.09,0c.78.59,1.85.87,2.16,2a.23.23,0,0,0,.06.13c.55.38.72,1.05,1.16,1.53a1.16,1.16,0,0,1,.26.49c.09.34.1.71.19,1a1.48,1.48,0,0,0,.3.55,5.24,5.24,0,0,1,.83,1.82c.18.56.29,1.13.46,1.69s.33.91.49,1.37c0,.07.08.16.07.23A1.52,1.52,0,0,0,168,296s0,.14,0,.22a3.86,3.86,0,0,0-.08.67,17.87,17.87,0,0,0,.17,2.15c.15.88-.1,1.74,0,2.59a7.43,7.43,0,0,1-.2,2.38.57.57,0,0,0,.28.6,7.81,7.81,0,0,1,.58.6c.09.09.23.22.32.2a.76.76,0,0,1,.76.3,8.65,8.65,0,0,0,2.38,1.62c.26.15.43.47.68.66a14.78,14.78,0,0,0,2.68,2.06l.08.06c1.15,1.21,2.66,2,3.79,3.24a2.7,2.7,0,0,0,.64.49,2.89,2.89,0,0,1,1.16,1.26.59.59,0,0,0,.24.28,15.49,15.49,0,0,1,3,2.39,14.09,14.09,0,0,1,1.72,1.86c.11.13.09.37.2.5a5.11,5.11,0,0,0,.73.66,4.74,4.74,0,0,1,.77.52,15.22,15.22,0,0,1,1.66,2.16,13.1,13.1,0,0,1,.83,2.23c.22.62.42,1.25.64,1.88a.91.91,0,0,1,0,.87.46.46,0,0,0-.05.4.91.91,0,0,1,0,1,4.09,4.09,0,0,1-1.48,1.81,17.44,17.44,0,0,0-1.72,1.41c-.38.32-.73.68-1.1,1s-1,.84-1.54,1.27-.9.78-1.36,1.17l0,0c-.24,1-1.21,1.3-1.74,2-.2.27-.35.56-.55.83s-.61.76-.9,1.15a2.39,2.39,0,0,0-.31.59c-.05.14,0,.36-.26.25,0,0-.06,0-.08.05a4.63,4.63,0,0,1-1.13,1.51,1.3,1.3,0,0,0-.17.27c-.14.21-.29.41-.43.62s-.14.26-.22.38-.23.42-.34.42c-.6,0-.89.51-1.37.7-.29.11-.48.48-.72.73a1,1,0,0,1-1,.36,10.48,10.48,0,0,1-1,.68,2.24,2.24,0,0,0-1.36,2c0,.42-.18.82-.25,1.24a5.3,5.3,0,0,0,0,.85c0,.94,0,1.89,0,2.83a.65.65,0,0,0,.13.43.7.7,0,0,1,.22.71c-.06.39-.09.78-.14,1.17,0,.06,0,.14,0,.18.51.74.16,1.53.12,2.29s-.06,1.35-.09,2,0,1.23-.08,1.84-.1,1.49-.21,2.22-.27,1.19-.41,1.79a.52.52,0,0,0,0,.19,15.8,15.8,0,0,1,0,3.64,4.22,4.22,0,0,0,.07.66c0,.17,0,.34,0,.51,0,.61,0,1.22,0,1.84a7.81,7.81,0,0,1,.11,1.5,15.75,15.75,0,0,0,.08,3.24c0,1.12.14,2.23.23,3.35,0,.29.12.58.17.88.11.65.24,1.3.3,2s0,1.16,0,1.73.21,1.09.29,1.64a8.21,8.21,0,0,1,.44,2.18,10.13,10.13,0,0,0,.24,2.08c0,.65.11,1.3.11,2a4.16,4.16,0,0,0,.41,2c.09.17,0,.42.06.63.13.71.22,1.44.41,2.13a10.37,10.37,0,0,1,0,2.08c0,.29,0,.59.05.89a3.62,3.62,0,0,1,.08.73,1.94,1.94,0,0,0,.27,1.22,7.45,7.45,0,0,1,.67,2.49.32.32,0,0,1,0,.14c-.28.88.22,1.57.53,2.32a3.48,3.48,0,0,1,.19,1.1,5.31,5.31,0,0,1-.06,1.16,1.88,1.88,0,0,0,.08,1.39c.14.24,0,.63,0,.95.07.57.2,1.14.29,1.7a8.68,8.68,0,0,1,.13,2.72,2.62,2.62,0,0,0,0,1,1,1,0,0,1-.5,1.12,1.08,1.08,0,0,0-.48.81c-.06.51-.11,1-.2,1.54a13.43,13.43,0,0,1-.47,2.21,3.66,3.66,0,0,1-.85,1.35c-.8.81-1.87,1.23-2.71,2a12.66,12.66,0,0,1-1.11.92c-.42.29-.88.53-1.32.79s-1.21.38-1.71.84c-.17.16-.5.13-.75.21s-.58.21-.87.34l-1.2.55a10.51,10.51,0,0,1-1,.41,6.71,6.71,0,0,1-1.12.27,12,12,0,0,1-1.79.14,1.55,1.55,0,0,1-1.5-1.63c0-.68.23-1.34.28-2,.07-.86.81-1.2,1.13-1.84a7.28,7.28,0,0,1,.6-1,5.12,5.12,0,0,1,1.35-1.61,3.21,3.21,0,0,0,.62-.74c.42-.51.82-1,1.28-1.52s1-.9,1.47-1.35a.77.77,0,0,1,.24-.15.91.91,0,0,0,.61-1.17,4.53,4.53,0,0,0-.89-2c-.2-.2-.22-.56-.32-.85a9.61,9.61,0,0,1-.69-2.16,7.65,7.65,0,0,0-.55-2,1.14,1.14,0,0,1,0-.42,1.19,1.19,0,0,0-.26-.94,3.88,3.88,0,0,1-.46-1.2c-.27-.76-.57-1.51-.81-2.27a6.55,6.55,0,0,1-.49-2.23,7.49,7.49,0,0,0-.28-1.38c-.17-1-.27-2.05-.49-3.06a22.2,22.2,0,0,0-.72-2.35,5.69,5.69,0,0,1-.53-1.45c0-.43,0-.87,0-1.31s0-1.13,0-1.68a8,8,0,0,0-.25-1.53c-.07-.24-.32-.42-.48-.63Zm.13-13.24h0a3.18,3.18,0,0,1,.4.81,11.62,11.62,0,0,0,.72,3.06,7.88,7.88,0,0,1,.34.91c.19.58.39,1.16.55,1.75s.35,1.44.51,2.16a5.07,5.07,0,0,0,.21,1,4.05,4.05,0,0,1,.36,1.32c.1,1,.26,2,.41,3,.06.39.18.76.23,1.15.15,1.12.26,2.25.41,3.38,0,.31.12.61.19.91.23,1,.48,2.06.69,3.1.12.59.16,1.19.24,1.78s.13,1,.22,1.53.23,1.17.35,1.75a3.46,3.46,0,0,0,.17.8,3.5,3.5,0,0,1,.52,1.69,1,1,0,0,0,.12.4c.21.51.43,1,.63,1.52a1.4,1.4,0,0,1,.09.41,2.83,2.83,0,0,0,.67,2.15.3.3,0,0,1,.07.17c.07.45.16.91.2,1.36a1.54,1.54,0,0,0,.52,1.15,3.13,3.13,0,0,1,.48.64c.35.5.68,1,1.36,1.07s1.56.19,2.35.26,1-.17,1.13-.91c0-.12.1-.23.12-.35a2.06,2.06,0,0,0,.07-.53c0-.35-.08-.69-.1-1a2.18,2.18,0,0,0-.38-1.23,1.24,1.24,0,0,1-.15-.53,3,3,0,0,0-.05-.56,5.26,5.26,0,0,1,0-1.79c0-.31,0-.62,0-.92a9.58,9.58,0,0,1-.15-1.46c0-.68-.16-1.32-.17-2a9.31,9.31,0,0,0-.59-2.26c-.28-1.07-.65-2.13-.87-3.21-.18-.88-.19-1.8-.29-2.7,0-.36-.13-.71-.16-1.07-.07-1-.13-2.07-.19-3.1,0-.79-.09-1.58-.14-2.37s-.08-1.57-.2-2.34-.38-1.63-.57-2.45a2.09,2.09,0,0,1,0-.47c0-.34,0-.69,0-1a6.35,6.35,0,0,0-.28-2.23.31.31,0,0,1,0-.19,3.12,3.12,0,0,0-.12-1.57,18.42,18.42,0,0,1-.31-2c-.07-1.38-.05-2.77-.09-4.15,0-1-.11-2-.15-3.06a10.52,10.52,0,0,1,0-1.32c.08-1,.2-1.92.3-2.88a1.22,1.22,0,0,0,0-.14,18.92,18.92,0,0,1,0-2.09,14.83,14.83,0,0,1,.41-1.85,1.18,1.18,0,0,0,0-.19c0-.69.09-1.39.13-2.08s.08-1.39.11-2.08c0-1.08.06-2.16.11-3.24s.15-1.94.23-2.92c.06-.73.14-1.46.18-2.19a10,10,0,0,0-.05-1.27.31.31,0,0,0-.17-.21,2.29,2.29,0,0,0-.84-.27c-1,0-2,.11-2.93.24a2,2,0,0,1-1.91-1.19.7.7,0,0,0-.57-.56,2.73,2.73,0,0,1-1.36-.82,1.29,1.29,0,0,1-.6-1c0-.43-.23-.84,0-1.28,0-.06-.1-.24-.19-.29a2.79,2.79,0,0,1-1-1.19,1.32,1.32,0,0,1,.23-1.37c.42-.33.85-.64,1.26-1a1.17,1.17,0,0,1,.81-.28,2.42,2.42,0,0,0,1-.35c.06,0-.09-.44-.15-.67s-.11-.22-.09-.31a1.83,1.83,0,0,1,.24-.67c.13-.18.38-.28.55-.44a1.85,1.85,0,0,1,1.68-.38c.08,0,.2,0,.25,0,.31-.31.57-.18.79.1a.57.57,0,0,0,.69.17,1,1,0,0,1,1.1.28.38.38,0,0,0,.28.09c.55-.06.66-.17.79-.75a.46.46,0,0,1,.05-.13c.52-.86.08-1.86.39-2.75a.11.11,0,0,0,0-.09c-.31-.3-.07-.62-.05-.94s0-.61.05-.92,0-.38,0-.56c0-.58-.08-1.16-.12-1.73a4.73,4.73,0,0,1,0-.61c.07-.91.14-1.82.21-2.72a17.33,17.33,0,0,1,.2-2.33,15.28,15.28,0,0,1,.79-2.21c0-.12.17-.29.27-.31.67-.12,1.37-.36,2,.24l1.91,1.93,0,0a11.84,11.84,0,0,0,1.6,1.94.93.93,0,0,1,.21.26,8.84,8.84,0,0,0,1.39,1.79,4.62,4.62,0,0,1,.74,1.09q.48.81.9,1.64a1.16,1.16,0,0,1,0,.46c0,.75-.6,1.15-.93,1.71-.11.19-.18.29-.06.49.28.48.2.7-.27,1l-.79.56a1.69,1.69,0,0,0-.72.28,11.57,11.57,0,0,0-.85.86c-.22.22-.43.45-.66.65s-.78.62-1.16.94a10.18,10.18,0,0,1-2.2,1.89c-.69.33-1.36.73-2.08,1a.76.76,0,0,1-.55,0c-.64-.33-1.11.15-1.64.32-.24.08-.46.22-.7.28-.47.11-.95.16-1.41.27a7.89,7.89,0,0,0-.89.33c-.06.56-.05.55.5.78a.45.45,0,0,1,.23.33c0,.48,0,1-.06,1.51.11.06.31.26.47.23s.52-.09.69.21a3.49,3.49,0,0,1,.45.71c.11.39.56,1,.9.84s.94,0,1.32-.36c.12-.11.38-.24.46-.19.35.23.51,0,.71-.21l.91-.82a.56.56,0,0,1,.21-.11,3.43,3.43,0,0,0,1-.29c.29-.2.73-.25.82-.74a.58.58,0,0,1,.69-.45,4.13,4.13,0,0,0,1-.1c.08,0,.15-.1.22-.16.53-.52,1.07-1,1.59-1.57a4.61,4.61,0,0,0,1.11-1.21,3.41,3.41,0,0,1,.85-1.38,1.74,1.74,0,0,0,.61-.79c.18-.58,1-.86.77-1.6,0,0,0,0,0,0l1.27-1.84c.06-.09.15-.23.22-.23a.5.5,0,0,0,.56-.57l1.27-1.34c.3-.32.57-.69.89-1a26.23,26.23,0,0,0,3-2.69,1.6,1.6,0,0,0,.27-1.53c-.4-1.25-.84-2.49-1.27-3.73a.94.94,0,0,0-.17-.28c-.48-.57-.95-1.15-1.44-1.71s-.85-1.27-1.63-1.54a.31.31,0,0,1-.11-.09c-.38-.41-.76-.83-1.15-1.24a18.67,18.67,0,0,0-3.05-2.82s0-.11-.08-.16a3,3,0,0,0-.43-.53c-.64-.52-1.3-1-1.94-1.53-.38-.31-.72-.65-1.1-1s-.65-.49-1-.76-.65-1.07-1.36-1.16a.11.11,0,0,1-.07-.06c-.18-.47-.62-.63-1-.85a2.24,2.24,0,0,1-.46-.3c-.32-.3-.58-.72-1-.9s-.56-.57-.92-.78c-.6-.35-1.08-.88-1.65-1.29a2.79,2.79,0,0,0-.83-.32c-.26-.08-.61,0-.76-.2a2.35,2.35,0,0,0-1.13-.55c-.23-.07-.47-.07-.7-.14s-.49.06-.6.35a1.29,1.29,0,0,1-.25.4c-.18.2-.4.36-.57.56s-.13.32-.24.44a3.94,3.94,0,0,0-1.15,1.67c0,.13-.24.23-.38.33s-.27.15-.4.25a5.47,5.47,0,0,1-1.1.79c-.39.15-.77.54-1.27.32a.3.3,0,0,0-.27.12c-.11.31-.36.31-.62.31a6,6,0,0,0-1.65,0,8.67,8.67,0,0,1-1.68.1c-.17,0-.35,0-.52,0a1.83,1.83,0,0,1-1.35-.34.56.56,0,0,0-.33-.1,2.22,2.22,0,0,1-2-1.39c-.09-.3-.2-.54-.59-.58-.11,0-.28-.3-.28-.46,0-.4.82-.75,1.12-.47.48.46,1.12.37,1.68.56s1,.07,1.34.28a3.26,3.26,0,0,0,1.6.19c.4,0,.81,0,1.21,0,.25,0,.57.11.74,0,.42-.28.89-.16,1.32-.27a8.85,8.85,0,0,0,1.19-.43c.05,0,.08-.13.11-.21l.17-.42c.46-.06.88-.07.88-.72,0-.28.27-.56.42-.84a.17.17,0,0,1,.12-.08c.3,0,.43-.23.5-.5a1.53,1.53,0,0,1,.15-.44c.28-.46.25-.63-.15-1a1.68,1.68,0,0,1-.45-.57,2.1,2.1,0,0,1-.19-.83,1.37,1.37,0,0,1,.19-.89,2.12,2.12,0,0,0,.54-1.6,14.24,14.24,0,0,1,.55-3.4,14.59,14.59,0,0,0,.37-3.6q0-.53,0-1.06a1.44,1.44,0,0,0-.08-.3,3.55,3.55,0,0,1-.23-1,1.79,1.79,0,0,0-.36-1.36,3.87,3.87,0,0,1-.42-.78c-.27-.55-.48-1.14-.79-1.66a6.52,6.52,0,0,0-2.27-1.79,2.85,2.85,0,0,0-2.06-.27,7.77,7.77,0,0,0-1.6.37,12.66,12.66,0,0,0-1.54.77,5.49,5.49,0,0,0-1.06.62,19.22,19.22,0,0,0-1.34,1.38c-.3.33-.28.51.09.74a7.22,7.22,0,0,1,1,.62,1.27,1.27,0,0,1,.33.68c0,.1-.18.33-.3.35-.57.07-1.16.38-1.71-.07,0,0-.09,0-.25,0,.34.28.07.37,0,.53a2,2,0,0,0-.31.6,5.13,5.13,0,0,0,0,.66c0,.29.07.4.37.41a.87.87,0,0,1,.54.2,1.15,1.15,0,0,0,.94.31,2.07,2.07,0,0,1,1.83.89c.29.37.63.7.93,1.06a.57.57,0,0,1,.11.39.85.85,0,0,1-.8.6c-.47,0-.93.06-1.4.07a1.39,1.39,0,0,1-.69-.09,6.94,6.94,0,0,1-1.2-.88.79.79,0,0,0-.84-.14c-.14,0-.2.38-.25.6a3.41,3.41,0,0,0,0,.66c0,.42-.16.93,0,1.26a8.92,8.92,0,0,0,.74,1.53,3.12,3.12,0,0,0,1.55,1.1c.46.15.58.39.48.86a.88.88,0,0,0,0,.59,1.6,1.6,0,0,1,0,1.76c-.42.84-1,1.62-1.41,2.46a1.12,1.12,0,0,1-1.18.61,1.72,1.72,0,0,0-1.6.6.53.53,0,0,1-.29.15,2.45,2.45,0,0,0-1.53.8c-.08.1-.29.1-.44.14s-.26,0-.31.06a3.45,3.45,0,0,1-1.77,1.05,3.81,3.81,0,0,0-1.34.62c-.32.28-.82.35-1.15.62-.56.47-1,1-1.58,1.54-.82.78-1.66,1.55-2.5,2.33,0,0-.07.11-.12.15l-1,.74a13.55,13.55,0,0,0-1.22.92,10.4,10.4,0,0,0-1,1.2c-.37.48-.73,1-1.07,1.47-.11.16-.14.39-.27.54-.34.43-.78.79-.79,1.41a1.33,1.33,0,0,1-.11.31,9.68,9.68,0,0,0-.27,1,4.19,4.19,0,0,0,.47,2c.26.85.81,1.6,1.13,2.44s1.08,1.47,1.15,2.42a.4.4,0,0,0,.06.13c.47.93.93,1.88,1.42,2.8.21.4.53.74.77,1.13.5.8.94,1.64,1.47,2.41s1,1.23,1.47,1.84,1.06,1.18,1.5,1.83A4.43,4.43,0,0,0,143,341a.66.66,0,0,0,.49,0c.08,0,.1-.25.1-.38,0-.34-.06-.68,0-1a1.2,1.2,0,0,1,1.17-1.19l.51-.08c-.12-.29-.21-.53-.32-.76s-.39-.67-.52-1a1.15,1.15,0,0,0-.55-.66,7,7,0,0,1-1-.66,2,2,0,0,1-.68-.76,2.33,2.33,0,0,0-.87-1,5.25,5.25,0,0,1-1.72-2.05c-.18-.44-.4-.87-.59-1.32-.08-.19-.12-.39-.19-.58s-.1-.43-.24-.54a2.91,2.91,0,0,1-.85-1.17c-.21-.49-.47-.95-.7-1.43-.15-.32-.27-.65-.4-1a3.5,3.5,0,0,1-.26-.75c-.06-.41-.2-.91,0-1.22a4.13,4.13,0,0,1,1.13-1.26,28.69,28.69,0,0,0,2.09-2c.2-.19.53-.25.68-.46.52-.73,1.47-1,1.79-1.94,0,0,0,0,.07-.07a1.64,1.64,0,0,1,1.76-.39,1.49,1.49,0,0,1,.93,1.3c.11.55,0,1.15.34,1.65,0,0,0,.12,0,.19,0,.3,0,.6.07.9.12.75.3,1.49.36,2.24a20.89,20.89,0,0,1,0,2.24,1.12,1.12,0,0,1-.16.58c-.43.63-.29,1.37-.45,2.05a5,5,0,0,0-.05,1.08,8.37,8.37,0,0,0,0,1.22,6.5,6.5,0,0,1,.3,1.65,1.29,1.29,0,0,0,.68,1.34,2.27,2.27,0,0,0,.6.3c.19.07.41.07.59.16a5.61,5.61,0,0,0,2.06.68c.46,0,1,1,.87,1.4a.39.39,0,0,1-.1.16,10,10,0,0,0-.77.66c-.16.17-.39.44-.34.61a4.36,4.36,0,0,0,.64,1.56,1.6,1.6,0,0,1,.08,1.69.62.62,0,0,1-.29.36,8.47,8.47,0,0,1-1.38.49c-.49.11-.69.25-.78.74-.06.31-.1.63-.16.94a1.32,1.32,0,0,1-.7,1.06,14.39,14.39,0,0,0-1.29.7.91.91,0,0,0-.36.39,2.12,2.12,0,0,0-.15.72c0,1,0,1.93-.08,2.89,0,.4-.08.81-.14,1.21s-.1.59-.15.88l-.14.79c0,.25-.11.5-.14.75q-.14,1.34-.25,2.67c-.08.95-.18,1.89-.2,2.84,0,.68.12,1.37.14,2.06,0,.95,0,1.9,0,2.84,0,.61-.05,1.22-.07,1.83a11.9,11.9,0,0,0,0,1.41c0,.57.22,1.14.25,1.71s0,1.21,0,1.82a4,4,0,0,0,.14.74,2.7,2.7,0,0,1,.09.36c.05.78.09,1.57.15,2.35a1.28,1.28,0,0,0,.12.35c.06.15.12.29.18.44.19.51.09,1.08.36,1.57a1.32,1.32,0,0,1,.11.54c0,.6,0,1.21.1,1.8.13,1,.12,1.93.17,2.88s.22,1.9.18,2.88a37.2,37.2,0,0,1,0,3.84,1.42,1.42,0,0,0,.05.32c.06.61.12,1.22.19,1.82s.12,1.19.23,1.78.32,1.39.46,2.09a4.62,4.62,0,0,0,.12,1,4.18,4.18,0,0,1,.32,1.95,2,2,0,0,0,0,.51c.08.34.22.67.3,1s0,.5.09.74.25.53.32.81c.18.66.33,1.33.5,2,.1.43.21.86.31,1.3s.1.6.16.9a9.2,9.2,0,0,1,.24,1c.07.74.09,1.48.14,2.22s.14,1.32.18,2c0,.48,0,1,0,1.45s.05,1,.58,1.16.9.29,1.34.48c.66.28,1.29.77,2.1.53.12,0,.3.12.43.09.46-.1.92-.24,1.37-.38.68-.22,1.3-.48,1.34-1.36a13.5,13.5,0,0,0,.28-2.83c-.11-.68.16-1.4,0-2.12s-.11-1.24-.16-1.86-.08-1.08-.12-1.62c0,0,0-.06,0-.09,0-.35,0-.71-.06-1.06,0-.12-.07-.25-.06-.37,0-.92.07-1.83.06-2.75,0-1.45,0-2.89-.07-4.34,0-1.08-.11-2.17-.23-3.25a14.5,14.5,0,0,1-.25-3,1.56,1.56,0,0,0-.08-.41,2.44,2.44,0,0,1-.09-.51c0-.79.09-1.58.08-2.37,0-1-.07-2-.12-3,0-.43-.06-.86-.11-1.29-.09-.75-.21-1.5-.3-2.25s-.16-1.41-.19-2.11,0-1.3,0-1.95c0-.19,0-.43.06-.55a11.55,11.55,0,0,1,.88-1,.11.11,0,0,1,.09,0c.52.15,1.13,0,1.55.44a1.87,1.87,0,0,1,.48.8,8.22,8.22,0,0,1,.45,1.59,7.49,7.49,0,0,0,.62,1.58C158.88,377.38,159,377.92,159.12,378.45Zm2.83,50c.14.16.24.38.37.39a7,7,0,0,0,1.18,0,.55.55,0,0,0,.32-.17,4.13,4.13,0,0,1,2.09-1,17.31,17.31,0,0,0,2-.87,4.28,4.28,0,0,0,1-.64c.59-.46,1.17-.94,1.72-1.44a9,9,0,0,0,1.12-1.21,2.25,2.25,0,0,0,.56-1.45c0-.57-.07-.86-.62-1-.31-.08-.62-.15-.93-.2a1.67,1.67,0,0,0-.73-.06,7.68,7.68,0,0,0-1.05.54c-.79.41-1.22,1.24-2.1,1.62a5.29,5.29,0,0,0-1.64,1.58,2.41,2.41,0,0,1-1.1.93c-.12,0-.21.19-.29.3s-.2.36-.33.51c-.4.46-.84.89-1.22,1.37A4.57,4.57,0,0,0,161.95,428.43Zm-7-12.49c-.74-.06-1.53-.11-2.3-.19a13.47,13.47,0,0,1-1.74-.26c-.55-.13-.68-.11-1,.37s-.74,1.19-1.17,1.74-.89,1-1.31,1.47a7.92,7.92,0,0,0-1.33,2c-.15.34,0,.62.37.59s.45-.16.67-.19c.6-.08,1.21-.12,1.82-.19s1.36-.15,2-.27a4.92,4.92,0,0,0,.83-.34c.15-.06.35,0,.48-.14.47-.34.93-.72,1.39-1.08a.62.62,0,0,0,.14-.17c.17-.28.31-.58.49-.85.36-.55.74-1.08,1.12-1.62l-.13,0Zm19-80.61c.07-.06.17-.14.27-.21.7-.46,1.36-.94,1.4-1.88a.25.25,0,0,1,.07-.12l.85-1.07a1,1,0,0,0,.11-1l-1.15-1.66c-.43-.61-.86-1.2-1.29-1.81-.24-.34-.59-.25-.91-.26-.09,0-.25.15-.28.25a2.43,2.43,0,0,0-.19,1,9.22,9.22,0,0,1-.26,2.3,1.82,1.82,0,0,1-.19.58c-.18.42-.41.83-.56,1.26a1,1,0,0,0,0,.76,3.06,3.06,0,0,1,.3,1.42c0,.53,0,1.07,0,1.6a.93.93,0,0,0,.86.78c.08,0,.16-.1.23-.16a5.74,5.74,0,0,0,.55-.55,1.41,1.41,0,0,0,.33-.58A2.05,2.05,0,0,0,174,335.32Zm-32-6-.09-.06a4.8,4.8,0,0,1,.07-.62c.27-1.14.64-2.27.8-3.43a3.91,3.91,0,0,0-.06-2.11c-.11-.27-.06-.6-.16-.87s-.27-.5-.42-.5a2.15,2.15,0,0,0-1.16.19,2.45,2.45,0,0,0-1.37,1.48.48.48,0,0,1-.23.29c-.38.18-.36.48-.26.81a4.48,4.48,0,0,0,.22.62,15.48,15.48,0,0,0,.94,1.89c.25.38.56.68.53,1.17,0,0,.06.07.08.12a9.31,9.31,0,0,1,.48.85C141.56,329.44,141.66,329.49,142,329.28Zm16.64,61.66.43-.59-.13-.08C158.71,390.37,158.48,390.48,158.66,390.94Z"/><path d="M61.34,271.18c.41,0,.41,0,.33-.48,0-.08,0-.22,0-.26.22-.17.44-.42.68-.45.85-.12,1.73-.34,2.44.45.22.24.57.37.81.6a2.42,2.42,0,0,1,.42.64c.32.62.63,1.26,1,1.88.12.25.24.5.38.74s.47.7.69,1.05a2.8,2.8,0,0,1,.5,1.1,2.63,2.63,0,0,0,.56,1,8,8,0,0,1,1.06,2.64c.19.68.42,1.35.57,2a5.16,5.16,0,0,1,0,1.09,15.46,15.46,0,0,0,.58,4.57,12.85,12.85,0,0,1,.26,1.37c.09.46.17.92.29,1.37s.34.94.48,1.42.28,1,.39,1.57a2.09,2.09,0,0,0,1,1l3.21.6a5.63,5.63,0,0,1,.69.17l1.84.62a1.94,1.94,0,0,0,.37,0l.79.1c.16,0,.31.08.46.11.71.14,1.43.25,2.13.41a1.29,1.29,0,0,1,.62.32c.46.48,1.1.43,1.66.58a16.27,16.27,0,0,0,2.58.39c.8.08,1.26-.47,1.58-1.15s.19-1.11.39-1.6a1.89,1.89,0,0,0-.1-1.37,8,8,0,0,0-.47-1.14,2.82,2.82,0,0,0-.31-.39,3.29,3.29,0,0,1-.48-2.42,5,5,0,0,0,0-.71,8.86,8.86,0,0,1,0-1.75,14.21,14.21,0,0,1,.65-2,4,4,0,0,1,.18-.38,14.89,14.89,0,0,0,.87-2c.2-.69.91-1,1.08-1.68a3.21,3.21,0,0,0,.14-.5,1.26,1.26,0,0,1,.51-.87,1.17,1.17,0,0,0,.33-.51,4.43,4.43,0,0,1,2.59-3c.1,0,.43,0,.2-.32,0,0,.09-.11.15-.16s.26-.12.3-.22c.45-.92,1.21-.36,1.84-.4a3.83,3.83,0,0,1,.78.09c.31,0,.61.13.91.16s.56,0,.84,0,.5.13.75.14c.55,0,.84.5,1.27.7a1.69,1.69,0,0,0,.78,0,1.14,1.14,0,0,1,1.17.69.58.58,0,0,0,.23.29,3,3,0,0,1,1.23,1.34,2.63,2.63,0,0,1,.33,1.17,1,1,0,0,0,.28.69,1.72,1.72,0,0,1,.32.68,15,15,0,0,1,.43,1.68,12.54,12.54,0,0,1,.07,1.37c0,.23,0,.46.08.69,0,.08.07.15.07.22,0,.62-.1,1.23-.13,1.85a2.4,2.4,0,0,0,.11.46c.06.35.24.76.13,1.06a7.49,7.49,0,0,0-.28,2.53,3.5,3.5,0,0,1-.15.88,6.29,6.29,0,0,0-.17,2.26,13.15,13.15,0,0,0,.18,1.57c.08.43.28.84.39,1.27s.13.88.24,1.3.28.85.43,1.27a7.68,7.68,0,0,0,.33.79,1.64,1.64,0,0,0,.39.62c.73.52,1.51,1,2.24,1.5a2.38,2.38,0,0,1,1.14,1.66.55.55,0,0,0,.1.27,4.52,4.52,0,0,0,1.52,1.54c.43.19.47.58.67.86a3.24,3.24,0,0,1,.61,2.46s0,0,0,0a6.33,6.33,0,0,0,.85,2.37,1,1,0,0,0,.14,1.1c.12.17.06.47,0,.73.42.44.21,1.06.38,1.57a11.39,11.39,0,0,0,.67,1.41c.06.13.21.24.21.36a7.54,7.54,0,0,1-.12,1.45c-.07.34-.16.6.17.84a1,1,0,0,1,.33.79c0,.59.14,1.17.21,1.75a3.54,3.54,0,0,1,.15,1.29,3.18,3.18,0,0,0,.31,1.87.68.68,0,0,1,0,.36,2.47,2.47,0,0,0,.2,1.68,7.45,7.45,0,0,1,.18,1.85c0,.29,0,.59,0,.88.07.61.2,1.22.24,1.83.08,1.14.11,2.28.16,3.41a.25.25,0,0,0,0,.09c.26.51.17,1.12.49,1.65a4,4,0,0,1,.26,1.43c.16,1.06.36,2.12.47,3.19s.08,1.86.14,2.78c0,.66.12,1.32.18,2,0,.43.07.87.11,1.3,0,.19.05.38.08.57.06.46.15.92.17,1.39a11.25,11.25,0,0,1-.28,3.82,1.6,1.6,0,0,1-2.36,1.07,2.87,2.87,0,0,1-.71-.81c-.25-.33-.44-.71-.71-1s-.4-.07-.58.1c-.35.31-.7.63-1.06.92a2.42,2.42,0,0,1-1.66.48.62.62,0,0,0-.7.43,3.06,3.06,0,0,0,.06,2c0,.1.11.21.1.31a11.1,11.1,0,0,0,.26,3.24c.08.62.11,1.26.16,1.88.06.83.15,1.67.15,2.5,0,1.21-.1,2.42-.15,3.63,0,.83-.1,1.66-.07,2.49a15,15,0,0,0,.27,2c.11.63.31,1.24.38,1.87s-.09,1.15,0,1.71a18.45,18.45,0,0,0,.45,2.54c.25,1,.63,2,.89,3a5.06,5.06,0,0,1,.06,1.32c0,.58-.06,1.16-.07,1.74,0,.27.06.53.08.8.06.93.08,1.86.17,2.79.13,1.33.34,2.65.47,4,.08.86.07,1.73.1,2.6,0,.33,0,.66,0,1,0,0,0,.07,0,.09-.35.56-.07,1.16-.08,1.74a12.62,12.62,0,0,0,.17,1.75,13.65,13.65,0,0,0,.53,2.63,4,4,0,0,1,.14.86,7.9,7.9,0,0,1,.06,2.87.61.61,0,0,0,0,.42,5.11,5.11,0,0,1,.37,2.7,14.88,14.88,0,0,1-.31,2.71c-.07.39-.15.84-.68,1-.25.08-.44.37-.59.5.06.47.12.82.13,1.18,0,.56,0,1.12,0,1.68,0,.14,0,.28,0,.42,0,.63,0,1.26,0,1.88s0,1.51,0,2.27a5.93,5.93,0,0,1-.78,2.87,2.71,2.71,0,0,1-2.77,1.32.57.57,0,0,1-.24-.14c-.08-.06-.14-.17-.22-.18-.57,0-.82-.46-1.12-.86s-.83-.86-1.18-1.34a10.37,10.37,0,0,1-.94-1.61c-.26-.54-.41-1.12-.64-1.67a6.21,6.21,0,0,1-.62-1.38,4.42,4.42,0,0,0-.37-1.07c-.13-.32-.28-.62-.4-.94a3.05,3.05,0,0,1-.1-.49,6.16,6.16,0,0,1-.48-.56c-.12-.18-.17-.42-.31-.59a6.85,6.85,0,0,1-1.35-1.86,14.74,14.74,0,0,1-.5-1.52,21.46,21.46,0,0,1-.7-2.95c-.1-.82-.43-1.57-.5-2.36a8.82,8.82,0,0,0-.19-1.42c-.12-.51-.26-1-.39-1.51-.08-.3-.13-.62-.22-.92-.22-.72-.45-1.44-.68-2.16l-.16,0a1.78,1.78,0,0,0-.32.54c-.12.76-.19,1.52-.29,2.28s-.23,1.36-.31,2c-.05.45,0,.92-.06,1.37a29.6,29.6,0,0,1-.71,3.23,6.47,6.47,0,0,1-.9,1.51,5.17,5.17,0,0,1-.82,1.12,11.67,11.67,0,0,1-1.45.94c-.08,0-.14.13-.22.17a1.48,1.48,0,0,1-.85.29c-.25,0-.53.27-.76.46a12.49,12.49,0,0,0-.91.9,5.47,5.47,0,0,0-.37.48c-.55.73-1.1,1.46-1.66,2.19-.3.38-.61.76-.92,1.13-.08.1-.17.25-.26.26-.37,0-.39.32-.53.55a6.22,6.22,0,0,1-.73,1.06,7.41,7.41,0,0,1-1.32,1.29,3.72,3.72,0,0,1-1.89.88,1.14,1.14,0,0,1-1-.46,5.38,5.38,0,0,1-1.59-3.66,7.37,7.37,0,0,1,.23-2.45c.07-.48.08-1,.15-1.44,0-.23.12-.45.17-.68s.1-.68.2-1c.25-.77.52-1.54.79-2.3,0-.09.07-.17.1-.26l.38-1.2c.05-.16.19-.34.16-.49a1.14,1.14,0,0,1,.38-1,1.12,1.12,0,0,0,.13-.49,3.64,3.64,0,0,0,0-1.81,2,2,0,0,1,0-1.65.32.32,0,0,0,0-.23,7.43,7.43,0,0,1,0-2.3c0-.66,0-1.31,0-2a2.57,2.57,0,0,1,.06-.31c0-.1.05-.24,0-.31a5.7,5.7,0,0,1-.6-2.14c-.13-.51-.25-1-.37-1.54a.68.68,0,0,1-.06-.27,12.64,12.64,0,0,0-.13-2.23c.07-1.18-.53-2.18-.64-3.3-.09-.9-.15-1.8-.23-2.7,0-.32-.12-.63-.17-1a11.16,11.16,0,0,1-.3-2,14.46,14.46,0,0,0-.44-2.48c-.08-.57-.08-1.15-.13-1.73s-.13-1.27-.2-1.9-.16-1.21-.23-1.81c0-.27,0-.54,0-.8-.08-.9-.13-1.82-.28-2.71s-.4-1.61-.58-2.42c-.08-.36-.06-.75-.14-1.11-.18-.75-.39-1.49-.62-2.22a8.24,8.24,0,0,1-.44-3c.06-.91,0-1.82,0-2.73,0-.6-.07-1.2-.13-1.8,0-.25-.13-.49-.13-.73a20.33,20.33,0,0,0-.44-3.66s-.06-.11,0-.13c.36-.37,0-.7,0-1.05a15.11,15.11,0,0,1-.12-1.7c0-1,0-2,0-2.93,0-.26,0-.53,0-.79,0-.53-.1-1-.15-1.57s-.1-1.25-.16-1.87-.14-1-.18-1.54a6.92,6.92,0,0,1-.06-1.61,18.6,18.6,0,0,0-.18-2.3c0-1-.37-2,0-3a.61.61,0,0,0,0-.38,4.54,4.54,0,0,1,0-1.55c0-.39-.05-.79-.07-1.18s0-.59,0-.88c0-.7.08-1.41.12-2.11,0,0,0-.1,0-.14-.53-1-.24-2.15-.27-3.22a10.58,10.58,0,0,1,.2-2.54,12.2,12.2,0,0,0,0-2.12c0-.24,0-.47.08-.71,0-.08.09-.19.06-.22-.54-.6-.09-1.33-.27-2a8.19,8.19,0,0,1,0-2.33c0-.11.06-.22.06-.33,0-.69,0-1.38-.07-2.06a1.09,1.09,0,0,1,0-.33,2.88,2.88,0,0,0-1.08-3.11,3.46,3.46,0,0,0-.55-.31,1.06,1.06,0,0,1-.27-.24,2,2,0,0,0-1.61-.82,1,1,0,0,1-.61-.18,7.41,7.41,0,0,0-2.61-1.29,9.46,9.46,0,0,1-1.45-.78c-.47-.29-.93-.61-1.38-.94a2,2,0,0,1-.31-.35,7.57,7.57,0,0,1-.56-.68c-.1-.15-.45-.14-.29-.46,0,0-.11-.1-.17-.14-.25-.18-.67-.22-.56-.69,0,0,0-.06-.06-.07-.61-.26-.82-.9-1.22-1.35a2,2,0,0,1-.3-.58c-.25-.61-.5-1.23-.74-1.84l-.53-1.32c0-.1-.12-.22-.1-.31.17-.73-.33-1.27-.51-1.9s-.38-1.28-.56-1.91a18.48,18.48,0,0,1-.72-2.64c-.07-.49-.54-.89-.29-1.43,0,0,0-.13-.05-.18a13.3,13.3,0,0,1-.95-2.86c-.33-.93-.73-1.83-1.08-2.74-.13-.35-.18-.72-.34-1.06-.27-.59-.59-1.16-.87-1.75a1.28,1.28,0,0,1-.12-.57,3.84,3.84,0,0,1,.84-2.14c0-.06.12-.13.13-.2.05-.68.7-1,.91-1.62a.19.19,0,0,1,.14-.1.58.58,0,0,0,.47-.7,3.71,3.71,0,0,0-.33-1.88,3.4,3.4,0,0,1-.21-1.39.42.42,0,0,1,.11-.25C60.87,271.77,61.09,271.5,61.34,271.18Zm2.41,14.54c.12.52.24,1.13.4,1.74s.38,1.3.55,2c.12.45.19.92.33,1.36.24.76.53,1.51.76,2.27.13.46.16.94.26,1.41,0,.18.14.35.18.53a5.54,5.54,0,0,0,.34,1.56c.23.42.21,1,.49,1.47s.55,1.1.81,1.65a3.48,3.48,0,0,0,.29.67c.27.34.62.62.89,1s.62.94,1,1.38c.21.27.27.7.74.72.09,0,.17.13.26.2a7,7,0,0,0,2,1.18,8.39,8.39,0,0,1,1.41.61c.25.12.43.38.68.48a1.26,1.26,0,0,1,.85.81.27.27,0,0,0,.16.15,15.56,15.56,0,0,0,1.7.38c.72.09,1.34.29,1.59,1.06a1,1,0,0,0,.56.58,1.38,1.38,0,0,1,.63.78,5.75,5.75,0,0,0,.27,1.37c0,.09,0,.22,0,.33a2,2,0,0,0,.09.64.47.47,0,0,1-.08.55.79.79,0,0,0-.11.64A3.73,3.73,0,0,1,81,315a17.77,17.77,0,0,0,0,2.88c0,.25,0,.51,0,.76s0,.5.06.76.06.21.06.31c0,.52,0,1,0,1.56s0,.94.08,1.41a5.34,5.34,0,0,1,.07.92c-.1,1-.33,1.91-.36,2.87a19,19,0,0,0,.09,3.34,32.59,32.59,0,0,1,.13,3.31c0,.54.13,1.07.14,1.61,0,1,0,2,0,3.07s.2,2.32.29,3.48a1.07,1.07,0,0,0,.54.89c.45.27.9.53,1.33.84s.72.67,1.13.94.7.21,1,.42a2.92,2.92,0,0,0,1.29.54l.32.08a16.54,16.54,0,0,0,2,.57,14.35,14.35,0,0,0,2.5.41,16.92,16.92,0,0,1,2.12.23,7,7,0,0,1,1.63.2,6.86,6.86,0,0,0,2.1.13,3.65,3.65,0,0,0,1,0c.67-.14,1.33-.37,2-.52.39-.09.8-.08,1.2-.15a4.93,4.93,0,0,1,2-.21.73.73,0,0,0,.44-.14,2.34,2.34,0,0,1,2-.46.61.61,0,0,0,.28,0c.53-.09,1.06-.17,1.58-.28.09,0,.22-.22.2-.28-.21-.58-.1-1.21-.3-1.82a8.75,8.75,0,0,1-.22-1.56c0-.2,0-.41,0-.61-.1-.55-.28-1.08-.34-1.63a9.11,9.11,0,0,1,0-1.43c0-.51.1-1.05.07-1.53a15.08,15.08,0,0,1-.17-2.52c.06-.62,0-1.24.06-1.86a1.22,1.22,0,0,0-.07-.27,8.16,8.16,0,0,1-.24-1.1c-.06-.64-.08-1.29-.08-1.94a14.59,14.59,0,0,1-.19-2.7,1.45,1.45,0,0,0-.07-.51,12.22,12.22,0,0,1-.32-2.72,1.45,1.45,0,0,1,.07-.27,7.41,7.41,0,0,0,.22-1c0-.3.1-.49.43-.49a5.56,5.56,0,0,0,.67,0,1,1,0,0,1,1.32,1.05,10.91,10.91,0,0,0,.17,2.34c.2.84.12,1.73.37,2.59a12.69,12.69,0,0,1,.27,2.42,10.64,10.64,0,0,0,.14,2.28,12.24,12.24,0,0,1,.26,2.27c.1,1,.17,2,.29,3.06.06.53.21,1,.28,1.58.18,1.37.35,2.74.51,4.11.12,1.06.27,2.12.33,3.19a2.64,2.64,0,0,0,.74,1.91,2.66,2.66,0,0,1,.82,1.45c0,.12.24.22.44.38a2.82,2.82,0,0,0,.12-.73,1.31,1.31,0,0,1,.88-1.49,1.69,1.69,0,0,1,1.73.41,7.48,7.48,0,0,0,.47.7c.3.33.56.75,1.11.76,0-1-.09-1.85-.15-2.75,0-.64-.1-1.28-.13-1.93,0-.9-.06-1.81-.12-2.72,0-.41-.18-.81-.19-1.21a15.6,15.6,0,0,0-.5-3.53,14.53,14.53,0,0,0-.46-2.42,2.24,2.24,0,0,1-.07-.74c0-.28-.06-.56-.06-.84s.09-.81.07-1.21-.13-.79-.16-1.19c-.08-1.07-.13-2.15-.2-3.23-.06-.85-.18-1.7-.2-2.55,0-.56-.54-1.06-.2-1.66,0,0-.08-.1-.09-.15a4.67,4.67,0,0,1-.13-.72,6.72,6.72,0,0,0,0-1.32,3.41,3.41,0,0,1-.15-1.66c0-.19-.12-.42-.17-.64a5.21,5.21,0,0,1-.1-.63,3.2,3.2,0,0,0-.06-.76c-.23-.62-.57-1.2-.75-1.83a10.8,10.8,0,0,1-.62-3.17,2,2,0,0,0-.09-.4l-.15-.78a3.78,3.78,0,0,0-.2-1c-.31-.63-.7-1.23-1-1.85a3.78,3.78,0,0,0-.33-.71c-.3-.33-.66-.59-1-.9a1,1,0,0,1-.18-.27c-.21-.38-.4-.76-.61-1.14,0-.06-.13-.08-.2-.12a7.58,7.58,0,0,1-.78-.47c-.27-.21-.5-.49-.77-.7a.67.67,0,0,0-.46-.14,3.35,3.35,0,0,0-.9.27,1.79,1.79,0,0,0-.79.55c-.36.63-1.12.73-1.51,1.28,0,0-.06,0-.09,0l-1.69.41a.76.76,0,0,0-.31.19,1.52,1.52,0,0,1-1.52.43c-.26-.07-.43,0-.49.22-.11.41-.38.39-.66.27a.64.64,0,0,0-.74.14,1,1,0,0,1-.88.26l-1.31-.1a.41.41,0,0,1-.25-.11,1.23,1.23,0,0,0-.86-.3,1.62,1.62,0,0,1-.94-.33,1.32,1.32,0,0,0-1.08-.46,2.69,2.69,0,0,1-1.76-.72c-.4-.34-.78-.71-1.16-1.07a1.31,1.31,0,0,1-.26-.33,7.4,7.4,0,0,0-1.36-1.94,3,3,0,0,1-.78-1,1,1,0,0,0-1.05-.73,2.45,2.45,0,0,1-1.4-.32,2.32,2.32,0,0,0-.87-.16,8.88,8.88,0,0,1-1-.18c-.62-.18-1.11-.7-1.82-.64-.06,0-.11-.05-.17-.07-.64-.18-1.28-.39-1.93-.54-.41-.1-.86-.06-1.26-.18a20.13,20.13,0,0,0-2.87-.69c-.52-.06-1-.26-1.53-.37-.76-.15-1.53-.26-2.29-.42a2,2,0,0,1-1.33-.91,10.39,10.39,0,0,1-.85-2.11c-.37-1.24-.67-2.51-1-3.77-.12-.48-.25-1-.33-1.46a3.91,3.91,0,0,0-.13-1,7.55,7.55,0,0,1-.37-1.45c-.16-.83-.29-1.67-.43-2.47-.92-.1-1.16,0-1.52.71a.94.94,0,0,1-.36.42C65.25,285.12,64.56,285.39,63.75,285.72Zm18.31,59.2a2.48,2.48,0,0,0-.14,1.46.78.78,0,0,1,0,.24c0,1.06,0,2.12,0,3.17.06,1.22.18,2.45.31,3.67.07.68.23,1.34.3,2s.07,1.33.11,2,0,1.1.09,1.64.17,1.27.25,1.91a.9.9,0,0,1,0,.14,8.93,8.93,0,0,0,0,1.45c.14,1.08.34,2.15.54,3.22.08.44.24.86.33,1.3,0,.2-.07.47,0,.6a2,2,0,0,1,.31,1.06c.09.61.16,1.23.24,1.84a1.93,1.93,0,0,0,0,.23c.1.39.22.77.3,1.16a16.71,16.71,0,0,0,.39,2.52,1.19,1.19,0,0,1,0,.33c0,.46,0,.91.08,1.37.11.84.27,1.68.39,2.52.05.36,0,.73.11,1.09.15.88.33,1.76.48,2.65.06.37,0,.75.09,1.12.13.86.34,1.72.42,2.58a18.83,18.83,0,0,0,.54,3,4.9,4.9,0,0,1,.08.49c.08.54.17,1.07.26,1.61,0,.24.11.49.14.73a10.4,10.4,0,0,0,.17,1.69c.13.46,0,1,.37,1.38.06.06,0,.21,0,.32s0,.33.08.49.12.52.16.78a12.79,12.79,0,0,1,.17,1.38c0,.72,0,1.44,0,2.15s0,1.25,0,1.87c0,.3,0,.6,0,.9a.93.93,0,0,0,0,.27,23.34,23.34,0,0,0,.91,2.57A3.44,3.44,0,0,0,90.67,407a7.84,7.84,0,0,0,1.3.63,2,2,0,0,1,.42.3,5.31,5.31,0,0,0,2.31,1.2.63.63,0,0,0,.53-.11c.25-.35,1-.36.77-1,0,0,0-.05.05-.07a5,5,0,0,0,1.2-3.27,2.2,2.2,0,0,1,.14-.6.83.83,0,0,0,0-.86.44.44,0,0,1,0-.3c.08-.43.19-.86.27-1.29,0-.24,0-.5.07-.74q.14-1.17.28-2.33c.06-.45.13-.89.17-1.34,0-.27,0-.54,0-.81.1-1,.23-2,.33-3a3.76,3.76,0,0,0,0-.8c-.06-.48-.14-1-.2-1.45,0-.17,0-.35,0-.52q-.29-1.5-.59-3a5.09,5.09,0,0,1-.19-.83c0-.53.05-1.07,0-1.61,0-.83-.06-1.66-.1-2.48a1.51,1.51,0,0,0-.05-.22c-.05-.27-.12-.53-.15-.8-.06-.48-.06-1-.14-1.45-.16-.94-.4-1.87-.53-2.82s-.13-1.89-.23-2.83-.3-2.07-.42-3.11-.11-1.86-.27-2.77c-.22-1.2-.55-2.38-.83-3.56-.08-.35-.17-.69-.25-1-.15-.67-.32-1.34-.43-2a12.39,12.39,0,0,1-.19-1.88,2.73,2.73,0,0,1,.24-1.27c.23-.43.72-.47,1.2-.36a1.34,1.34,0,0,1,1.19,1c.12.52.16,1.06.24,1.58,0,.14.05.28.08.41.11.58.23,1.16.34,1.74a3.26,3.26,0,0,0,.06.42c.17.5.4,1,.52,1.49.26,1.13.47,2.27.69,3.41a5.45,5.45,0,0,0,.36,1.92s0,.13,0,.19a21,21,0,0,0,.6,2.41,14.45,14.45,0,0,1,.48,3.39c.07.59.13,1.18.24,1.76s.25,1,.36,1.55c.18.86.34,1.72.53,2.58s.35,1.46.5,2.19c.12.57.19,1.15.27,1.72,0,.12,0,.25,0,.38a6.52,6.52,0,0,0,.09.7c.07.37.2.73.24,1.1.08.78.11,1.57.19,2.36a5.14,5.14,0,0,0,.29,1.61,5.3,5.3,0,0,1,.46,2,4,4,0,0,0,.22.91c.1.33.23.65.36,1,.3.74,0,1.65.68,2.28.06.06,0,.21.06.32s.06.37.11.54c.24.86.55,1.7.73,2.58s.23,1.72.33,2.59a24.94,24.94,0,0,0,.33,2.7,10.08,10.08,0,0,0,.89,2.83,2.2,2.2,0,0,0,1.76,1,13.13,13.13,0,0,1,2.5-.45.42.42,0,0,0,.13,0c.4-.13.79-.28,1.2-.37s.81-.08,1.22-.15a1.13,1.13,0,0,0,1-1.36,5.29,5.29,0,0,1,0-.76c0-1.37.1-2.73.13-4.1a2.55,2.55,0,0,0-.13-.79,13.17,13.17,0,0,1-.56-1.7c-.15-.9-.17-1.82-.25-2.74a3.51,3.51,0,0,0-.07-.56,3.78,3.78,0,0,1-.16-2.09,10.9,10.9,0,0,0,.11-2.54,9.84,9.84,0,0,0-.17-1.91,6.38,6.38,0,0,1-.19-1.21c.08-1-.37-1.93-.13-2.91a.14.14,0,0,0,0,0c0-.38-.08-.76-.11-1.15-.08-.94-.15-1.89-.23-2.83a9.72,9.72,0,0,1-.14-1.33,2,2,0,0,0-.26-1.32s0-.12,0-.18c-.19-.66-.4-1.33-.57-2a15.39,15.39,0,0,1-.47-2.07c-.1-.83,0-1.67-.1-2.5a14,14,0,0,0-.26-2.56,8.83,8.83,0,0,1,0-2.31c0-1,.07-2,.06-3s-.05-2.2-.11-3.3c0-.7-.1-1.4-.19-2.1s-.24-1.38-.33-2.07c0-.26,0-.54,0-.81-.06-.63-.17-1.27-.2-1.9-.05-1-.06-2-.09-3.07,0-.36,0-.72,0-1.08a9.43,9.43,0,0,0-.22-1.14,6.82,6.82,0,0,1-.39-1.55,3,3,0,0,0-.36-1.23,3.39,3.39,0,0,1-.4-1c0-.4-.19-.46-.49-.45a4.57,4.57,0,0,0-.55.07l-.86.13a8.22,8.22,0,0,0-1.22.18c-.55.17-1.08.42-1.63.62-.1,0-.22,0-.33,0s-.42.12-.63.14c-.42.05-.83.08-1.25.12a7,7,0,0,0-1,.13,20.47,20.47,0,0,1-2.59.66,17.21,17.21,0,0,1-2.73-.07,5.3,5.3,0,0,1-1.12-.14c-.9-.24-1.78-.54-2.67-.79a3.46,3.46,0,0,0-.56,0c-.88-.09-1.76-.19-2.64-.3a3.63,3.63,0,0,1-.88-.2c-.73-.29-1.44-.61-2.16-.92S83.76,345.39,83,345A.93.93,0,0,0,82.06,344.92Zm23.2-58.2a6.5,6.5,0,0,1-.24-1.24c0-.58.11-1.16.17-1.74a.68.68,0,0,0,0-.28c-.2-.58-.64-1.1-.35-1.78,0,0,0-.12,0-.18a2.35,2.35,0,0,1-.22-.71,1.76,1.76,0,0,0-.93-1.51,2.51,2.51,0,0,1-.6-.53,2.2,2.2,0,0,0-1.67-1.08.73.73,0,0,1-.3-.12,2.17,2.17,0,0,0-2.22-.17,1.16,1.16,0,0,1-1.12,0,1,1,0,0,0-1.22.22,18.48,18.48,0,0,0-2,2.21c-.34.51-.61.85-.34,1.49.11.26.17.5.42.62a5.91,5.91,0,0,0,.83.29,3.94,3.94,0,0,1,1,.29c.14.09.11.45.16.69a.82.82,0,0,0,0,.09.7.7,0,0,1-.55.91,4.19,4.19,0,0,1-2.54-.45.6.6,0,0,0-.55.09,1.35,1.35,0,0,0-.37.64c-.17.65-.75,1.13-.77,1.85,0,.06-.12.12-.14.19a5.57,5.57,0,0,0-.33,1.17,13,13,0,0,0,0,1.73,4.65,4.65,0,0,0,.15,1.48,9.25,9.25,0,0,0,1.08,1.83,2.16,2.16,0,0,1,.41,1.64c-.09.59-.23,1.18-.31,1.78a2.47,2.47,0,0,1-.45,1.28A1.57,1.57,0,0,0,92,298a5,5,0,0,1-1.53,2.49.43.43,0,0,0-.1.39,15.55,15.55,0,0,0,1,1.57,9.55,9.55,0,0,0,1.16,1.35,13.13,13.13,0,0,0,1.39,1c.07,0,.19,0,.28.06a11.58,11.58,0,0,1,2.26.76,1.67,1.67,0,0,0,1.14.36c.51-.08,1-.08,1.54-.11.11,0,.21-.05.32-.07l1.91-.31a1.36,1.36,0,0,0,.44-.15l2.29-1.35a2,2,0,0,0,1.2-1.83c0-.54-.13-1.1-.08-1.63A7.22,7.22,0,0,0,105,298c-.08-.31-.24-.61-.3-.93s.07-.46,0-.67a3.09,3.09,0,0,1-.17-2,1.84,1.84,0,0,0,0-.57,2.83,2.83,0,0,1,0-.52c.16-.75.4-1.49.48-2.24a7.56,7.56,0,0,0,0-2.06c-.07-.44-.06-.67.45-.69A1.5,1.5,0,0,1,105.25,286.72ZM85,416.39c.17.58.36,1.38.66,2.13.1.24.57.57.74.51a6.52,6.52,0,0,0,1.4-.86c.19-.13.43-.33.46-.52.09-.63.56-1,.92-1.41s.9-.66,1-1.27c0-.08.11-.15.15-.23.53-.9,1.33-1.6,1.79-2.57.2-.42.07-.6-.2-.76-.65-.38-1.33-.71-2-1.07s-1.38-.74-2.05-1.14c-.43-.26-.62-.25-.89.2s-.67,1.17-1,1.76a3.71,3.71,0,0,0-.52,1.08C85.3,413.54,85.17,414.85,85,416.39Zm23.47-2.12a5.57,5.57,0,0,0,.28,1.22c.42.83.58,1.74.95,2.59a11.32,11.32,0,0,0,1,1.84c.25.37.55.71.79,1.09.35.56.68,1.09,1.42,1.22a.46.46,0,0,0,.57-.24,4.8,4.8,0,0,0,.66-2.18q.13-1.42.18-2.85a9.9,9.9,0,0,0-.1-1.22,6.76,6.76,0,0,0-.4-2.11.64.64,0,0,0-.67-.47c-.2,0-.39.11-.58.13s-.65,0-1,.08a9.43,9.43,0,0,0-1.05.27Z"/><path d="M155,289.15l.69.33c.57.27,1.12.56,1.71.79a3.11,3.11,0,0,1,1.46,1,.64.64,0,0,1,.1.55,1,1,0,0,1-.54.43.6.6,0,0,1-.84-.29c0-.09-.21-.14-.32-.17a10.84,10.84,0,0,1-1.61-.31,2.29,2.29,0,0,1-1.43-1.56C154.08,289.6,154.5,289.22,155,289.15Z"/><path d="M156.84,287.5c.22.07.36.1.49.16.39.17.76.36,1.16.5a2.35,2.35,0,0,1,1.15.94.52.52,0,0,1,.06.47.66.66,0,0,1-.51.24,21.73,21.73,0,0,1-2.25-.51,1.31,1.31,0,0,1-.65-.51.8.8,0,0,1-.09-.68A2.67,2.67,0,0,1,156.84,287.5Z"/><path d="M102.58,286.41a16.35,16.35,0,0,1-1.74-.18c-.42-.08-.93,0-1.2-.53a.22.22,0,0,0-.15-.11,1.27,1.27,0,0,1-1.16-.73c-.1-.17-.25-.37-.22-.53a1.66,1.66,0,0,1,1.39-1.43.56.56,0,0,1,.46.19c.19.26.34.51.72.37,0,0,.12,0,.14,0,.22.4.65.39,1,.51a5.46,5.46,0,0,0,.72.18c.32.05.61.17.67.51s.25.72-.15,1A3.15,3.15,0,0,0,102.58,286.41ZM100,284.5c0,.7.15.86.78.78.07,0,.15,0,.23,0,.29,0,.33-.12.2-.39C101,284.34,100.48,284.49,100,284.5Z"/><path d="M98.26,288.84c.06.84-.57,1.08-1,1.47-.05,0-.18,0-.27,0-.37,0-.75-.11-1.12-.14a1.54,1.54,0,0,1-.93-.38,6.42,6.42,0,0,0-1.09-.74,1,1,0,0,1-.32-1.62c.24-.3.4-.61.89-.58a1.05,1.05,0,0,1,.83.42,1.65,1.65,0,0,0,1.52.74c.18,0,.39.14.57.25C97.69,288.47,98,288.69,98.26,288.84Z"/><path d="M235,346.9a2.25,2.25,0,0,0,.5,0,5.5,5.5,0,0,0,.92-.09,1.45,1.45,0,0,0,.77-.31,11.22,11.22,0,0,0,2-2.87c.17-.41.4-.8.57-1.22a2,2,0,0,0,.21-.79c0-1.22-.14-2.45-.2-3.67a2.4,2.4,0,0,1,.22-1.66.57.57,0,0,0,0-.41c-.19-.76,0-1.61-.51-2.31a.67.67,0,0,1,0-.49,1.16,1.16,0,0,1,2.1-.53,1.89,1.89,0,0,1,.62,1.28,4.88,4.88,0,0,0,.23,1,7,7,0,0,1,.44,1.89c-.06,1.14-.1,2.26-.08,3.41.05,2.22-.67,4.39-.5,6.62a2.48,2.48,0,0,1-.09.42c-.07.59-.14,1.18-.18,1.77s0,1.25,0,1.87a6.07,6.07,0,0,0,0,.67c0,.47.14.95.15,1.42a2.56,2.56,0,0,0,.49,1.76,1.24,1.24,0,0,1-.26,1.76,1.18,1.18,0,0,0-.31.38,5.48,5.48,0,0,0-.82,2.4,7.21,7.21,0,0,1-.15,1.26c-.11.73-.24,1.46-.35,2.19q-.32,2.13-.63,4.26c-.1.7-.18,1.41-.27,2.11,0,.25-.06.51-.09.76q-.14,1.57-.27,3.15c-.1,1.16-.17,2.31-.34,3.47-.26,1.83-.26,3.7-.48,5.54a7.83,7.83,0,0,0-.09,2.28.58.58,0,0,1,0,.34,6.87,6.87,0,0,0-.37,2.08c-.06.31-.2.59-.28.9-.18.73-.68,1.41-.38,2.06a6.71,6.71,0,0,1-.57,1.05c-.42.51-.15,1.11-.27,1.65a11.56,11.56,0,0,1-.71,2.9.6.6,0,0,0,0,.41,1.46,1.46,0,0,1-.17,1.06,6.74,6.74,0,0,0-.32,1.15c-.23,1-.38,2-.69,2.9a14.42,14.42,0,0,0-.79,3.75,2.45,2.45,0,0,1-.05.34c-.18.92-.4,1.83-.51,2.75-.14,1.2-.31,1.44-1.51,1.68-.71.14-.78.15-.81.86,0,.9,0,1.81,0,2.72a5.29,5.29,0,0,0,.09.85,1.47,1.47,0,0,0,.9,1.25c.29.11.5.44.72.7s.42.6.68.85c.47.45,1,.86,1.46,1.28l3.8,3.16a1.61,1.61,0,0,0,.51.3,4.5,4.5,0,0,1,2,1.62,1.39,1.39,0,0,1-.17,1.8,1.12,1.12,0,0,1-.58.27c-.45.05-.9,0-1.35.06a10.44,10.44,0,0,1-1.94.06c-1.09-.17-2.16-.46-3.23-.72a7.37,7.37,0,0,1-3.62-1.55,16.9,16.9,0,0,0-3-2.18c-.12-.06-.29-.14-.33-.24-.25-.7-.9-.9-1.44-1.25a7,7,0,0,1-1.5-1.11,7.14,7.14,0,0,1-1.41-5.16c0-1.07.24-2.14.26-3.23a1.69,1.69,0,0,0-.45-1.4,2.9,2.9,0,0,1-.82-2.17,11.48,11.48,0,0,0-.58-3.61,2.84,2.84,0,0,1-.07-.84c0-.28,0-.57,0-.85-.08-1.25-.15-2.5-.27-3.75-.07-.7-.22-1.4-.33-2.1L220,392a9,9,0,0,0-.41,1.93c-.1,1-.14,2-.22,3-.11,1.3-.21,2.61-.35,3.91-.17,1.55-.37,3.1-.58,4.65-.17,1.27-.39,2.53-.57,3.8-.09.65-.11,1.31-.22,1.95-.13.81-.36,1.61-.47,2.42a21.4,21.4,0,0,0-.13,2.31.72.72,0,0,1-.39.69,1.3,1.3,0,0,0-.77,1.15,1.91,1.91,0,0,1-.2.56,11.1,11.1,0,0,0-.53,1.58,12.39,12.39,0,0,0-.11,1.78c0,.65,0,1.29-.05,1.91-.17.28-.45.55-.5.85a17.37,17.37,0,0,0-.19,2.55,2.58,2.58,0,0,1-.22,1.15,7.15,7.15,0,0,0-.42,1.38c-.19.86-.35,1.73-.53,2.59-.26,1.24-.52,2.48-.82,3.72a3,3,0,0,1-.48,1.17,20.7,20.7,0,0,1-2.05,2.27,2.47,2.47,0,0,1-2.05.59,4.13,4.13,0,0,1-2.39-1,1.58,1.58,0,0,0-.54-.23,2,2,0,0,1-1.32-1.8c.12-1.16-.19-2.34.15-3.49a3,3,0,0,0,0-.76c0-.37,0-.73,0-1.09a3.22,3.22,0,0,0,0-.85,5.65,5.65,0,0,1,.07-2.61c.27-1.19.38-2.41.6-3.61a8.39,8.39,0,0,0,.38-1.3,13.66,13.66,0,0,1,.42-2,6.07,6.07,0,0,0-.19-1.88.62.62,0,0,0-.43-.37,2.25,2.25,0,0,1-1.53-1.38,14.22,14.22,0,0,1-1.51-4.34c-.1-.52-.26-1-.43-1.66a2.56,2.56,0,0,0,.15-1.71c-.23-1.12-.45-2.24-.66-3.36-.09-.47-.15-.95-.2-1.43-.1-.93-.2-1.86-.28-2.8s-.21-2.08-.19-3.12c0-1.22.18-2.44.27-3.67a49.24,49.24,0,0,1,.42-4.92,35.13,35.13,0,0,0,.27-4.86c0-.25-.07-.51-.07-.77a32.82,32.82,0,0,1,0-3.31,22.58,22.58,0,0,0,.13-4.35,9.55,9.55,0,0,1-.17-1.26,36.66,36.66,0,0,1,.34-4.4c.19-1.29.15-2.61.21-3.91a1.11,1.11,0,0,0-.23-1,.71.71,0,0,1-.06-.56,22.18,22.18,0,0,0,.63-4.61c0-.71.14-1.42.15-2.13a12.78,12.78,0,0,0-.13-2.13c-.17-1-.45-2.06-.64-3.1-.09-.47-.05-1-.1-1.44s-.13-1.12-.21-1.68c0-.16-.18-.36-.12-.46.27-.5,0-.95-.07-1.41-.07-.68-.13-1.35-.18-2a3.25,3.25,0,0,0,0-.76,4.32,4.32,0,0,1-.19-1.5c0-1.32.63-2,2-1.89,0,0,.08-.06.11-.09-.08-.34-.15-.67-.22-1s.2-.69-.16-.85c-.81.61-1.54,1.21-2.32,1.73-.47.31-1.07.43-1.51.77a3.6,3.6,0,0,1-3,.6,8.15,8.15,0,0,1-3.18-1.57,2.25,2.25,0,0,0-1.22-.49,1.88,1.88,0,0,1-1.31-.51c-.34-.34-.68-.68-1-1s-1.06-.85-1.55-1.31a1.1,1.1,0,0,1,.34-1.9,3.34,3.34,0,0,0,.56-.37,9.16,9.16,0,0,0,.76-.54,11.19,11.19,0,0,1,4.1-1.69,25.93,25.93,0,0,1,3.63.26c.91.1,1.81.31,2.72.45a3,3,0,0,0,.73-.1c-.35-1.06-.27-2.13-.86-3.06a1,1,0,0,1,0-.81,2.83,2.83,0,0,0,.16-1.66,7.41,7.41,0,0,1,0-2.37,42.74,42.74,0,0,1,1.27-4.58c.65-1.6,1.1-3.28,1.62-4.93.23-.75.4-1.51.61-2.27a3.69,3.69,0,0,1,.2-.56,17.82,17.82,0,0,0,.88-2.36,19.2,19.2,0,0,1,1.79-4.51,1.13,1.13,0,0,1,1.61-.33,1,1,0,0,1,.32,1.52,9.69,9.69,0,0,0-1.64,3.35,5.26,5.26,0,0,1-.51,1.54,6.55,6.55,0,0,0-.74,2.33,2.52,2.52,0,0,1-.25.62,3.19,3.19,0,0,0-.2.45c-.28,1.1-.54,2.2-.81,3.3,0,.11-.09.21-.12.32-.34,1.07-.86,2.08-1.11,3.19-.15.67-.27,1.34-.44,2a6.21,6.21,0,0,0,0,2.86,5.26,5.26,0,0,1,.18,1.26c0,.5.09.88.56,1.08-.08.21-.21.38-.19.52a2,2,0,0,1-.2,1.31c-.17.32.06.64.4.89a8.07,8.07,0,0,1,.62-.84c.31-.33.62-.76,1-.89a5.14,5.14,0,0,1,3.59-.16c.12,0,.33.11.38.06.34-.33.62-.09.94,0a3.92,3.92,0,0,0,.74.07c0-.34,0-.58-.06-.83s-.06-.36,0-.49a5,5,0,0,0,.31-2.43c.12-1.9.11-3.81.24-5.7a5,5,0,0,1,1.07-2.83,1.48,1.48,0,0,1,1.41-.35.82.82,0,0,1,.37,1q-.15.62-.32,1.24a10,10,0,0,0-.48,3.46c.05.72.35,1.43,0,2.14a.39.39,0,0,0,0,.17c0,.85,0,1.7,0,2.55,0,.39.09.78.13,1.17a1.49,1.49,0,0,0,.46.14,2.21,2.21,0,0,1,2,1.14,30.55,30.55,0,0,1,2.48,3.22c.4.69.77,1.39,1.17,2.08a6.6,6.6,0,0,0,.48.64l.18-.08c0-.7,0-1.4,0-2.09a14.29,14.29,0,0,0-.61-3.87c-.29-.72-.33-1.55-.62-2.27-.81-2-1.69-4-2.53-6a3.56,3.56,0,0,1-.22-.82c-.11-.7-.18-1.41-.29-2.11-.06-.42-.17-.84-.23-1.26-.09-.66.33-1.33.86-1.22a2.29,2.29,0,0,1,1.43.8,28.28,28.28,0,0,1,1.38,3.2,10.4,10.4,0,0,0,1,2.14,6.56,6.56,0,0,1,.84,1.35c.41,1,.83,2,1.24,3,0,.08,0,.18.11.23a3.35,3.35,0,0,1,.78,1.5c.23.55.42,1.12.64,1.68a18.58,18.58,0,0,1,.78,2c.46,1.76.63,3.58,1.22,5.32a8.83,8.83,0,0,1,.21,1.52c.17,1.15.37,2.29.53,3.44a7.73,7.73,0,0,1,0,1l.23.05a8,8,0,0,0,.41-.77c.11-.26.14-.55.24-.82.4-1,.83-2.05,1.21-3.09.7-1.92,1.52-3.78,2.05-5.76a20.86,20.86,0,0,1,1.2-2.9,14.22,14.22,0,0,0,.92-2,41.1,41.1,0,0,1,1.92-4.64c.43-1.11,1.27-2.11.83-3.43a1.46,1.46,0,0,1,.06-.59,1.06,1.06,0,0,0-.32-1c-.17-.16-.37-.48-.31-.64.2-.53,0-1,0-1.51.1-1.53-.61-2.87-.92-4.31a1.28,1.28,0,0,0-.15-.3c-.44-.83-.92-1.64-1.32-2.48a13.39,13.39,0,0,0-2.31-3,15.28,15.28,0,0,0-1.74-1.63c-1.09-.89-1.88-2.14-3.29-2.67a.83.83,0,0,1-.42-1.22,1.08,1.08,0,0,1,1.27-.41,17.69,17.69,0,0,1,2,1.38c1,.75,1.8,1.63,2.79,2.32a6.43,6.43,0,0,1,2,1.93c.87,1.5,2,2.82,2.76,4.4a6,6,0,0,0,.68,1.36,2.92,2.92,0,0,1,.66,2.09c0,.66.28,1.33.29,2a3.31,3.31,0,0,0,.56,1.47,3.7,3.7,0,0,0,.4-.51c.46-.91.89-1.84,1.36-2.75s.89-1.58,1.34-2.36c.64-1.1,1.36-2.17,1.91-3.32a7,7,0,0,1,1.84-2.63.83.83,0,0,0,.31-.92,3.26,3.26,0,0,0-.52.2,4.36,4.36,0,0,1-.77.52,7.28,7.28,0,0,1-4.22,0,1.53,1.53,0,0,1-.5-.32c-.27-.21-.51-.45-.78-.65-.57-.41-.66-.55-.45-1.2s.45-1.31-.34-1.79c-.08,0-.09-.2-.15-.3a15.49,15.49,0,0,1-.82-1.38,10.15,10.15,0,0,1-.64-1.75,1.13,1.13,0,0,1,.42-1.23,5.3,5.3,0,0,1,2.49-1,11.62,11.62,0,0,1,3.77.63,19.46,19.46,0,0,0,2.58.81,1,1,0,0,1,1,1c0,.13.17.27.28.43.19-.11.33-.2.47-.27a11.71,11.71,0,0,1,1.38-.65,1.5,1.5,0,0,1,1.74.72,5.89,5.89,0,0,1,.31,1.75c0,.82-.22,1.63-.28,2.44a3.36,3.36,0,0,1-1.62,2.58c-.45.3-1.09.33-1.36.92a5.54,5.54,0,0,0-2.1,2.4c-1.16,1.86-2.25,3.76-3.35,5.66-.3.52-.5,1.08-.77,1.62-.43.87-.87,1.72-1.31,2.59s-.86,1.68-1.24,2.53c-.66,1.48-1.62,2.8-2.32,4.27a49.28,49.28,0,0,0-2.51,5.86c-.1.31-.18.63-.29,1,.45,0,.51-.33.65-.57.27-.47.55-.94.83-1.4s.57-.85.82-1.29.4-.81.63-1.2c.41-.71.85-1.41,1.26-2.13.81-1.43,1.61-2.87,2.41-4.3.67-1.19,1.33-2.38,2-3.55.29-.49.66-.93.94-1.42.75-1.31,1.45-2.66,2.22-4a21.1,21.1,0,0,1,1.35-2,14.11,14.11,0,0,0,2.53-4.13,1,1,0,0,1,1.28-.68,1,1,0,0,1,.62,1.55c-.18.35-.4.69-.59,1a31.25,31.25,0,0,1-2.85,4.44,25.41,25.41,0,0,0-1.72,2.45c-.67,1.13-1.22,2.32-1.85,3.46-.28.49-.67.92-1,1.41-.66,1.1-1.3,2.21-1.93,3.32-.31.54-.57,1.11-.87,1.66-.84,1.52-1.7,3-2.54,4.55a1.25,1.25,0,0,0-.17.56.39.39,0,0,0,.65.33,8.22,8.22,0,0,0,.88-1c.23-.28.42-.6.65-.88s.58-.63.85-1a11.18,11.18,0,0,0,1.31-2.19c.67-1.32,1.49-2.56,2.26-3.82.13-.22.38-.38.46-.61.41-1.29,1.41-2.19,2.06-3.32.29-.51.62-1,.94-1.5.6-.89,1.36-1.67,2-2.51,1.09-1.35,2.18-2.7,3.24-4.08a3.4,3.4,0,0,0,.94-2.48,2.59,2.59,0,0,1,.1-.93,5.33,5.33,0,0,1,.47-1.36,6.22,6.22,0,0,1,2.94-2.37,4.22,4.22,0,0,1,4.49.6.82.82,0,0,0,.92.2c.73-.3,1.47-.57,2.22-.85a2.05,2.05,0,0,1,2,.39,1.11,1.11,0,0,1,.38,1.24c-.2.8-.41,1.6-.68,2.38a.9.9,0,0,0,.15.92,17.86,17.86,0,0,1,1.53,2.63,7,7,0,0,1,.26,3.29,1.72,1.72,0,0,1-.89,1.56,2.33,2.33,0,0,1-2.93-1,17.43,17.43,0,0,0-1.23-1.53c-.19.28-.3.44-.4.61a2.4,2.4,0,0,1-2.67,1,12.67,12.67,0,0,1-2-1,2.38,2.38,0,0,0-1.16-.42,2.6,2.6,0,0,1-2-.9,8.07,8.07,0,0,0-.81-.8c-.64.84-1.21,1.62-1.81,2.37-.34.42-.81.73-1.11,1.17-1.14,1.6-2.59,3-3.61,4.65a9.33,9.33,0,0,1-1,1.55c-1,1.07-1.6,2.41-2.55,3.5a2.49,2.49,0,0,0-.21.37c-.41.68-.78,1.39-1.23,2-.67,1-1.38,1.88-2.1,2.79s-1.34,1.62-2,2.42a1.11,1.11,0,0,0-.25,1,33.41,33.41,0,0,1,.48,3.47,2.09,2.09,0,0,1-.41,1.18c-.12.18-.49.2-.74.29l-.75.27c.08.28.14.49.21.7a9.65,9.65,0,0,1,.39,1.1.73.73,0,0,1-.74.9l-.86,0a.81.81,0,0,1-.83-.61c-.06-.16-.06-.34-.12-.5-.23-.6-1-1.17-1.34-.92a3.66,3.66,0,0,0-1.35,1.45,3.17,3.17,0,0,0,.42,2.5c1.21-.42,2,.12,2.45,1.37Zm2.78,2.27a.73.73,0,0,1-.25.07c-1,0-2.09,0-3.12-.14a3.17,3.17,0,0,1-1.2-.6,12,12,0,0,1-1-.78c-.12.1-.22.15-.24.21a11.8,11.8,0,0,0-.82,2.73.91.91,0,0,1-.07.33,12,12,0,0,0-.68,3.41c-.28,1.77-.73,3.51-.92,5.29-.15,1.42-.8,2.7-.89,4.15-.11,1.75-.49,3.48-.71,5.22a10.43,10.43,0,0,0,0,1.87,1.94,1.94,0,0,1-.79,1.71,1.34,1.34,0,0,1-1.94-.76,2.05,2.05,0,0,1-.09-.68,6.52,6.52,0,0,0-.13-2.11,6.94,6.94,0,0,1,0-1.77c0-.84,0-1.69,0-2.73a4.63,4.63,0,0,0-1,1.68c-.15.34-.25.69-.41,1-.32.7-.62,1.4-1,2.07a3,3,0,0,1-1.9,1.72,2.19,2.19,0,0,1-1.9-.51,1.19,1.19,0,0,1-.38-1.08c0-1,0-1.91,0-2.85a1,1,0,0,0-1.13.42,4.24,4.24,0,0,1-1.55,1,1.44,1.44,0,0,1-.56.08,3,3,0,0,0-.66,0,2.46,2.46,0,0,1-2.27-.7,1.21,1.21,0,0,1-.33-.75,6.32,6.32,0,0,1,.42-3.2c.52-1.32,1.09-2.62,1.67-3.92.42-.93.9-1.84,1.31-2.77s.88-2.16,1.35-3.22c.3-.67.72-1.28,1-2a5.54,5.54,0,0,0,.39-1.59,1.14,1.14,0,0,1,.31-.74,1.11,1.11,0,0,0,.23-1.26c-.42-1.12-.75-2.27-1.2-3.38a18,18,0,0,0-1.07-1.94,3.75,3.75,0,0,1-.4-.75,10.9,10.9,0,0,0-1.57-2.88c-.74-1.14-1.33-2.38-2-3.57a4.07,4.07,0,0,0-.38-.48,1.6,1.6,0,0,0-.41,1.56c.15,1.16.34,2.31.48,3.47s-.36,1.59-1.47,1.56c-.06,0-.12,0-.17,0-1.09-.52-1.42.37-2,1,.33.24.61.48.92.66s.42.48.15.77a9.33,9.33,0,0,1-2.67,2.23,2.43,2.43,0,0,1-1.88-.47c-.37-.38-.74-.77-1.14-1.14s-.69-.23-.86.22a2,2,0,0,0-.14.67c0,.82,0,1.65,0,2.47a.6.6,0,0,1,0,.09c-.21,1.57.29,3.08.35,4.63,0,.86.39,1.7.5,2.56a15.71,15.71,0,0,1,.4,3,17.1,17.1,0,0,1-.12,3.07,4.47,4.47,0,0,1-.1.59,8.73,8.73,0,0,0-.37,3c0,.63-.08,1.25-.12,1.88a2.4,2.4,0,0,0,0,.6c.5,2.57-.31,5.1-.27,7.65,0,1.68.07,3.36.08,5,0,.56-.08,1.13-.11,1.69a15.7,15.7,0,0,0-.1,2.13,50.68,50.68,0,0,1,0,6.75,5,5,0,0,1-.32,1.91,3.83,3.83,0,0,0-.1,1.26c-.14,1.9-.29,3.81-.4,5.71a10.66,10.66,0,0,0,.11,1.36,33.49,33.49,0,0,0,.8,5.75,22.19,22.19,0,0,1,.73,5.74.27.27,0,0,0,0,.08c.49,1.41.72,2.94,1.68,4.15a2.3,2.3,0,0,0,.76.47c.12.06.31,0,.41.11,1.46,1.11,2.81.4,4.16-.23.44-.2.83-.5,1.26-.72s.92-.41,1.39-.61a2.2,2.2,0,0,0,1.4-2.46c-.3-1,.21-1.68.55-2.46a2.81,2.81,0,0,0,.25-.61c.26-1.66.51-3.32.76-5,.1-.67.26-1.33.32-2,.14-1.62.23-3.24.37-4.85.07-.79.2-1.58.28-2.37.12-1.3.18-2.61.34-3.91s.42-2.28.53-3.43c.19-1.86.32-3.74.45-5.61,0-.56,0-1.13,0-1.7a.76.76,0,0,1,.75-.79c.44,0,.91-.13,1.28.42a8.12,8.12,0,0,1,1.15,2.44,12.36,12.36,0,0,1,.65,2.73c.07,1.56.27,3.13.23,4.69a14.49,14.49,0,0,1-.11,3.2,6,6,0,0,0,.12,1.7c0,.53,0,1.07.06,1.6,0,.06,0,.12,0,.17.45,1,.22,2.08.41,3.11.16.87.34,1.73.51,2.59.09.5.18,1,.25,1.52.09.67.24.77,1,.63a1,1,0,0,1,.27,0l.49,1.49c.77,0,1.48,0,2.18,0s1.6-.11,2.39-.19c.62-.06.77-.21.9-.83a3,3,0,0,0,.1-.76,2.83,2.83,0,0,1,.45-1.6,5.88,5.88,0,0,0,.52-2,21.61,21.61,0,0,1,.7-2.9c.27-.93.41-1.89.63-2.83s.54-2,.78-3.07c.14-.58.18-1.18.3-1.77.19-.95.4-1.89.6-2.84a.2.2,0,0,1,0-.08c.76-.95.59-2.14.86-3.22.43-1.68.43-3.43.69-5.14a8,8,0,0,0,0-1.45,16.87,16.87,0,0,1,.58-4.4,1.64,1.64,0,0,0,.07-.25c.15-2.12.29-4.25.44-6.37,0-.68.14-1.36.22-2,.15-1.36.28-2.72.45-4.07a10,10,0,0,0,.13-2.46A6.47,6.47,0,0,1,239,357a8.56,8.56,0,0,0,.12-1.6.86.86,0,0,1,.33-.87A1.46,1.46,0,0,0,240,353a10.26,10.26,0,0,1-.12-1.27c-.07-1-.11-2-.19-3a5.19,5.19,0,0,0-.22-.81C239.13,348.83,238.43,348.95,237.8,349.17Zm-29.48,70.89a1.55,1.55,0,0,1-.25,1.13,5.39,5.39,0,0,0-.56,1.65q-.23.77-.43,1.55a14.41,14.41,0,0,0-.65,3.76c0,.67-.14,1.35-.13,2a4.75,4.75,0,0,0,.12,2,1,1,0,0,1,0,.72,8.9,8.9,0,0,0-.44,3.27,1.39,1.39,0,0,0,1.16,1.27,5.74,5.74,0,0,1,.73.2.58.58,0,0,0,.83-.34c0-.11,0-.28.11-.31,1.06-.5.94-1.6,1.22-2.46s.44-1.87.67-2.81c.28-1.16.6-2.31.84-3.48a13.8,13.8,0,0,0,.3-2.34,6.35,6.35,0,0,1,.28-1.83,16.31,16.31,0,0,0,.8-3.64c.06-.73,0-1.44.13-2.31A9.55,9.55,0,0,1,208.32,420.05ZM257.4,311.46a2.22,2.22,0,0,1,.71,2.24.87.87,0,0,0,.51,1.16,1,1,0,0,0,1.28-.29c.28-.39.5-.83.74-1.25.07-.12.12-.26.19-.38.67-1.09,1.25-.86,2.11-.25a1.15,1.15,0,0,1,.44.62,7.49,7.49,0,0,0,1.66,2.61,2.3,2.3,0,0,0,.28-2.11c-.36-.86-.81-1.68-1.25-2.51a.87.87,0,0,0-.8-.41,8,8,0,0,1-1.35-.2c-.15,0-.26-.26-.38-.4A2.08,2.08,0,0,1,262,310c.57-.22,1.16-.41,1.74-.61l-.17-2c-1.18.18-2.23.45-2.8,1.62a1.07,1.07,0,0,1-1.15.64,1.3,1.3,0,0,1-1.14-1c-.06-.36-.07-.74-.1-1.11s-.24-.7-.73-.75c-1.51-.17-2.52.7-3.42,1.7-.55.61-.37,1.18.32,1.62a5.9,5.9,0,0,1,.71.66A3.33,3.33,0,0,1,257.4,311.46Zm-36.1,41.08a4.59,4.59,0,0,1-1.48-.45,3.31,3.31,0,0,0-.6.67q-.74,1.43-1.39,2.9-1.27,2.88-2.49,5.78c-.43,1-.86,2-1.22,3.08a4.75,4.75,0,0,0-.15,1.35c0,.34.21.51.55.51a.74.74,0,0,0,.34,0c.81-.48,1.75-.78,2.21-1.73s1-1.85,1.45-2.78c.33-.66.6-1.34.91-2,.54-1.19,1.11-2.37,1.61-3.57.59-1.4,1.11-2.82,1.72-4.37A4.94,4.94,0,0,1,221.3,352.55Zm6.63,56.72a2.45,2.45,0,0,1-1.41,0c-.52-.19-.72.06-.88.63a19.9,19.9,0,0,0-.36,4.75,1.2,1.2,0,0,0,.15.74,5.78,5.78,0,0,0,2.24,2.12,6.19,6.19,0,0,1,1.51,1.07c.85.71,1.66,1.45,2.5,2.17a1.16,1.16,0,0,0,.5.31,9.21,9.21,0,0,1,2.55,1.1,3,3,0,0,0,1.74,0,6.65,6.65,0,0,0-.42-.54c-.56-.56-1.1-1.14-1.7-1.66a7.24,7.24,0,0,0-1.47-1A4.69,4.69,0,0,1,231,417.2a3.3,3.3,0,0,0-.65-.65,9.8,9.8,0,0,1-1.28-1.12,2,2,0,0,1-.38-1.17c0-1.28.17-2.55.23-3.83a8.11,8.11,0,0,0-.14-1.25C228.37,409.22,228.15,409.23,227.93,409.27Zm11.42-105.55a1.29,1.29,0,0,1,.12,2.11c-.25.19-.48.42-.73.64a1.17,1.17,0,0,0,1.2.63,4.83,4.83,0,0,0,2-.74c.41-.25.79-.55,1.18-.83.6-.43.85-.44,1.45,0a2.78,2.78,0,0,1,.59.6c.44.63,1.16.68,1.46,0a6.17,6.17,0,0,0,.49-3c0-.29-.23-.38-.49-.32a2,2,0,0,0-.47.21,1.58,1.58,0,0,1-2.27-.25c-.2-.18-.48-.28-.69-.46a10.18,10.18,0,0,0-3.38-1.68,6.88,6.88,0,0,0-2.26-.29,1,1,0,0,0-1,.58c-.17.52.14.86.43,1.22s.41.58.68,1C238.19,303.3,238.78,303.48,239.35,303.72ZM196,342.67a2.54,2.54,0,0,0,.24-.51c.24-1.18,1.2-1.48,2.16-1.63a19.84,19.84,0,0,1,2.71-.07c-.08-.62-.16-1.26-.24-1.9,0-.4-.24-.63-.68-.58-.11,0-.26.06-.34,0a15.52,15.52,0,0,0-2.56-.71,10.88,10.88,0,0,0-4-.76A4.91,4.91,0,0,0,189.4,338a.76.76,0,0,0-.17.91,2,2,0,0,0,1.28,1,.61.61,0,0,0,.48-.07,7.21,7.21,0,0,1,3.17-.92,3.49,3.49,0,0,0,.57-.15,1.91,1.91,0,0,1,2,.65,1,1,0,0,1-.26,1.27c-.58.34-1.19.64-1.79,1-.16.09-.31.2-.65.43Zm13.72-4.32a1.75,1.75,0,0,0,0-1.41,10.37,10.37,0,0,0-.52-1.12,10,10,0,0,0-.45-1.27,6.36,6.36,0,0,0-.91-1,2.52,2.52,0,0,0-.4.57c-.1.3-.14.69-.51.71a1.67,1.67,0,0,1-1.12-.21c-.42-.41-.85-.22-1.27-.22-.15,0-.35.19-.44.34-.4.66-.79,1.32-1.13,2a2.12,2.12,0,0,0-.19,1,11.35,11.35,0,0,0,.19,1.44,1.19,1.19,0,0,0,.9.9.63.63,0,0,0,.7-.36,4.64,4.64,0,0,1,.57-.9,1.09,1.09,0,0,1,1.71-.13l.65.51C208,338,208.92,338.37,209.69,338.34Zm16.13,14.19c-.14.49-.33,1-.45,1.46a1.09,1.09,0,0,1-.66.83,1.32,1.32,0,0,0-.85,1.09,20.31,20.31,0,0,0-.41,2.18.82.82,0,0,1-.61.82A1.32,1.32,0,0,0,222,360c-.2.8-.54,1.56-.69,2.36a11,11,0,0,0-.48,3.25,4.92,4.92,0,0,1-.22,1.25c-.05.31-.12.63.31.88a6.57,6.57,0,0,0,.64-1,21.15,21.15,0,0,0,1.29-3.05c.33-1.24.84-2.42,1.23-3.64s.66-2.29,1-3.43a8.65,8.65,0,0,1,.35-.86s0,0,0-.07l1.24-3.48C226.18,352,225.94,352.13,225.83,352.53Zm-2.63-8.12c-.13-1-.32-2.09-.5-3.13a21.38,21.38,0,0,1-.46-2.43,17.34,17.34,0,0,0-.63-2.81c-.18-.79-.48-1.56-.79-2.53a2.35,2.35,0,0,0-.17.6c.11,1.13.23,2.26.37,3.39a6.45,6.45,0,0,1-.12,2.61,2,2,0,0,0,0,1c.35,1.26.76,2.5,1.14,3.75.16.52.27,1,.46,1.55a4,4,0,0,0,.53.76A5,5,0,0,0,223.2,344.41ZM206,343.5,207,343c-.26-.33-.47-.6-.68-.85-.55-.64-1.18-.6-1.78.16ZM217,340a3,3,0,0,0,.75,1.81c.41.56.43,1.28,1,1.73A5.6,5.6,0,0,0,217,340Zm6.46,8.14.2,1.46a1.52,1.52,0,0,0,.69-1.26Zm5.34-1.4c.31,0,.54,0,.63-.1s.07-.4-.27-.57Zm-8.66,44.58.1.07.21-.29-.15-.09Zm12.66-53.42c0,.06.08.12.12.18a1,1,0,0,0,.23-.18s-.06-.12-.09-.19l-.18-.13A1.43,1.43,0,0,0,232.78,337.88Zm12-35.69-.07-.16-.42.18.07.16Z"/><path d="M209.66,304.74a2.72,2.72,0,0,1,.31,1.45c0,.49-.51.36-.77.54s-.29.18-.46.28c-.33-.19-.65-.38-1-.54a1.56,1.56,0,0,0-.64-.2c-.28,0-.58.15-.77-.18a5.64,5.64,0,0,1-.37-.84c-.22-.63-.42-1.26-.65-2l-.6.54c-.19.17-.37.36-.57.52a1.51,1.51,0,0,1-1.38.08.89.89,0,0,1-.33-1.05,1.22,1.22,0,0,0-.51-1.49,3.41,3.41,0,0,1-1-1.11,7.53,7.53,0,0,1-1.27-2.45c-.19-1-.57-1.91-.07-2.88.35-.67.3-1.57,1.12-2,.07,0,.06-.21.09-.32l.27-.89a8.24,8.24,0,0,0,.54-1.87c.05-1.1.83-1.71,1.42-2.45a.53.53,0,0,1,.38-.16c.57,0,.76-.34,1-.78a5.3,5.3,0,0,1,3-2.77,12.83,12.83,0,0,1,4.43-.54,22.76,22.76,0,0,1,2.77.36c.95.11,1.9.21,2.85.28,1.42.11,2.77.35,3.66,1.65a4,4,0,0,0,1.25,1.12,3.48,3.48,0,0,1,1.09,1.06,5.79,5.79,0,0,1,1.12,2.28c0,.13.16.23.22.36a2.89,2.89,0,0,1,.27.76,3.93,3.93,0,0,1,0,1.11,2.47,2.47,0,0,0,.47,2,1.16,1.16,0,0,1,.24.78,1.67,1.67,0,0,0,.56,1.53,1.1,1.1,0,0,1,.27,1.1c-.18.89-.91,1.23-1.52,1.71a5.62,5.62,0,0,1-1.24-1.17,5,5,0,0,1-.29-1.59l-.22,0c-.08.28-.18.56-.24.85-.14.73-.21,1.47-.41,2.18a16.43,16.43,0,0,0-.78,3.12,6.61,6.61,0,0,1-.35,1.5,1,1,0,0,1-1.21.69.88.88,0,0,1-.81-1,3.53,3.53,0,0,1,.25-1c.08-.24.23-.46.3-.7.3-1,.63-2.07.87-3.12a11.27,11.27,0,0,0,.16-2.13l-1.55.31c-.29.41-.53.8-.81,1.14a3.35,3.35,0,0,1-2.1.9,6.34,6.34,0,0,1-3.07-.37.63.63,0,0,1-.4-.38,3.91,3.91,0,0,1-.17-1.68,1.17,1.17,0,0,0-.18-1.12,2.07,2.07,0,0,1,2-1.28,18.75,18.75,0,0,1,3.73.19,6.66,6.66,0,0,0,2.63-.06c-.12-.76-.12-.77-1.13-1.53l-.91.41c-.5-.41-1-.85-1.51-1.24a13.9,13.9,0,0,1-2.86-2.76c-.9-1.19-.93-2.1-.11-3.05,0,0,0-.11,0-.22-.5-.2-1-.38-1.52-.6a1.43,1.43,0,0,0-1.6.12,1.54,1.54,0,0,1-1.41.36,22,22,0,0,0-1.48,2.73,11.39,11.39,0,0,1-2.31,3.21,3,3,0,0,1-.7.47l-.48.31a1.18,1.18,0,0,0,.06.3,2,2,0,0,1,.39,1.59c-.05.18.21.45.26.57a10.42,10.42,0,0,1,1.28-.24c.42,0,.84.08,1.25.05a.82.82,0,0,1,.86.41l.65,1.11,1.67-.44c.18.16.37.33.57.49s.54.34.4.67-.21.95-.75,1.07a5.2,5.2,0,0,1-1.85.27c-.66-.1-1.21.54-1.88.14-.23-.14-.63.08-.5.36.21.47,0,1,.21,1.39a1.52,1.52,0,0,1-.09,1.51A13.19,13.19,0,0,1,209.66,304.74Zm8.9-14.17c-.06-.6-.14-1-.66-1.33a6.45,6.45,0,0,1-1-1,2.7,2.7,0,0,0-.37-.25A3.28,3.28,0,0,0,218.55,290.56Zm3.8.27c-.09-.27-.19-.53-.31-.78a1.69,1.69,0,0,0-.25-.42c-.15-.18-.34-.35-.57-.13s-.11.39,0,.61c.25.37.45.77.69,1.15s.39.57.59.85l.19-.1C222.59,291.62,222.48,291.22,222.35,290.83Zm-5.45,6.28c-.89-.13-1-.07-1.05.44C216.22,297.46,216.64,297.54,216.9,297.11Z"/><path d="M258.69,288.69a3.2,3.2,0,0,1,2.59-.84,1,1,0,0,1,1.12.94,3.59,3.59,0,0,1,0,1.27,6.3,6.3,0,0,1-1.67,3.12.75.75,0,0,0-.2,1,8.69,8.69,0,0,1,.7,2.06,7.15,7.15,0,0,1,.13,2.45,9.08,9.08,0,0,1-1,2.63,5.69,5.69,0,0,1-1.37,1.59,2.16,2.16,0,0,1-2.53-.25,2.38,2.38,0,0,0-2.19-.56,1.54,1.54,0,0,1-1.46-.29,14.62,14.62,0,0,1-1.55-1.46c-1.37-1.5-1.63-3.43-2-5.32a4.44,4.44,0,0,1-.15-1.41,3.12,3.12,0,0,1,1.39-2.52c.18-.1.43-.34.41-.49-.06-.85.63-1.23,1-1.77a2.86,2.86,0,0,1,.73-.58c.3-.2.63-.36.94-.56a2.27,2.27,0,0,1,3.06.87c.17.35.37.69.59,1.1A7.87,7.87,0,0,0,258.69,288.69Zm-1.69,7a.75.75,0,0,0-.37.19,1.45,1.45,0,0,1-1.49.37.54.54,0,0,1-.53-.46.59.59,0,0,1,.36-.7c.18-.08.39-.09.57-.15s.35-.1.43-.22a1.38,1.38,0,0,1,1-.54c.31,0,.59-.12.66-.44a.67.67,0,0,0-.44-.78c-.2.2-.38.51-.54.5-.51,0-1,.44-1.49.11s-.71,0-1,.15c-.86.35-.87.33-1.47-.41a4.17,4.17,0,0,0-.94-.82c-.4-.26-.93.15-1,.74a14.33,14.33,0,0,0,.06,1.54c0,.51.07,1,.13,1.53a2.23,2.23,0,0,0,.71,1.65,2.86,2.86,0,0,1,.68,1,2.69,2.69,0,0,0,1.68,1.38,6.8,6.8,0,0,0,.51-1c.31-1,.68-1.17,1.65-.85l.43.14a10.71,10.71,0,0,1,.21,1.26c0,.61.5.81.92,1a.72.72,0,0,0,.67-.17,3.29,3.29,0,0,0,.63-1.09,12.3,12.3,0,0,0,.36-1.75,4.31,4.31,0,0,0-.72-2.57ZM255.31,291a1.18,1.18,0,0,0-.29-1.34.91.91,0,0,0-1.17-.2l-.14.09c-1.2.65-1.24,1-.21,1.88l1.18,1Zm3,0,1.06,1.08a3.85,3.85,0,0,0,1.22-2.3C259.62,289.86,259.06,290.52,258.3,291.07Z"/><path class="cls-1" d="M420.07,275.7a57.76,57.76,0,0,1-.71,25.05c-2.25,9.8-6.42,18.77-9.48,28.2-1.79,5.52-3.17,11.16-4.74,16.75l-4,12c-3.65,10.09-7.17,20.23-11,30.26-3.11,8.19,1.94,13,7,17.75,1.49,1.41,3.56,2.18,5.29,3.36,6.55,4.47,7,10.83,6,18-1.35,9.49-4.39,18.37-10.31,25.77-6.63,8.29-15.41,14.08-26.24,14.89-9.82.73-19.74.21-29.61.25a30,30,0,0,0-6.45.23c-.8.18-1.91,2.16-1.72,3.08,1,4.78,3.24,9.44,3.45,14.21.34,7.69.61,15.78-1.44,23-1.11,3.91-6.66,7.39-11,9.4-13,6.07-25.77,2.56-38.12-2.88a99.76,99.76,0,0,1-9.29-5.29l-5.34-4.86-1.88.69-1.18,19.13A28.48,28.48,0,0,1,254,543.38a5.88,5.88,0,0,1-2.51.57c-19.26,0-46-5.31-46-5.31-8-2.41-9.4-3.35-16.23-4.91-5.93-1.36-9-1.58-15.53-3.38-5.06-1.39-8.45-2.85-11.18-3.68C153,523.75,143,522,134,517.75c-9.78-4.62-18.51-11.45-27.68-17.34-1.14-.73-2.16-1.64-3.24-2.46l-9.41-8.34L78.45,472.25l-6-7.93-7.76-10.26-4.22-6.3c-14.12-21.08-24.1-37.65-27.16-58.11a85.33,85.33,0,0,1,.54-27.92,13.19,13.19,0,0,1,8.63-12.24c1.78-.83,4.45-3.08,8.25-3.22,17.68-.63,35.38-.7,53.07-1.26,7.89-.25,15.77-1.07,23.63-1.92,8.93-1,17.82-2.28,26.74-3.39,11.93-1.48,23.88-2.76,35.79-4.39,15.39-2.11,30.83-4,46.07-6.9,14.08-2.67,28-6.27,41.85-10,8.85-2.37,17.91-4.77,26-8.85,7.79-3.91,14.74-9.68,21.57-15.23C332,289,338,283,344.18,277.22l10-11.44c5.82-2.45,11.44-6.06,17.5-7.09,11.93-2,23.82-.14,35.29,3.86l8.85,6.5.84,1Z"/><text class="cls-2" transform="translate(134.05 416.97)"><tspan class="cls-3">w</tspan><tspan x="28.7" y="0">or</tspan><tspan class="cls-4" x="63.98" y="0">k</tspan><tspan x="83.44" y="0">shops</tspan></text></svg>